<svg version="1.1" xmlns="http://www.w3.org/2000/svg" xmlns:xlink="http://www.w3.org/1999/xlink" viewBox="0 0 172 172"><g fill="none" fill-rule="nonzero" stroke="none" stroke-width="1" stroke-linecap="butt" stroke-linejoin="miter" stroke-miterlimit="10" stroke-dasharray="" stroke-dashoffset="0" font-family="none" font-weight="none" font-size="none" text-anchor="none" style="mix-blend-mode: normal"><path d="M0,172v-172h172v172z" fill="none"></path><g><path d="M22.36,46.44c-1.89986,0 -3.44,1.54014 -3.44,3.44c0,1.89986 1.54014,3.44 3.44,3.44c1.89986,0 3.44,-1.54014 3.44,-3.44c0,-1.89986 -1.54014,-3.44 -3.44,-3.44z" fill="#ee3e54"></path><path d="M132.44,20.64c-0.94993,0 -1.72,0.77007 -1.72,1.72c0,0.94993 0.77007,1.72 1.72,1.72c0.94993,0 1.72,-0.77007 1.72,-1.72c0,-0.94993 -0.77007,-1.72 -1.72,-1.72z" fill="#f1bc19"></path><path d="M86,22.36c-35.1474,0 -63.64,28.4926 -63.64,63.64c0,35.1474 28.4926,63.64 63.64,63.64c35.1474,0 63.64,-28.4926 63.64,-63.64c0,-35.1474 -28.4926,-63.64 -63.64,-63.64z" fill="#fce0a2"></path><path d="M142.76,18.92c-3.79972,0 -6.88,3.08028 -6.88,6.88c0,3.79972 3.08028,6.88 6.88,6.88c3.79972,0 6.88,-3.08028 6.88,-6.88c0,-3.79972 -3.08028,-6.88 -6.88,-6.88z" fill="#f1bc19"></path><path d="M149.64,37.84c-1.89986,0 -3.44,1.54014 -3.44,3.44c0,1.89986 1.54014,3.44 3.44,3.44c1.89986,0 3.44,-1.54014 3.44,-3.44c0,-1.89986 -1.54014,-3.44 -3.44,-3.44z" fill="#ee3e54"></path><path d="M139.32,127.28c-1.89986,0 -3.44,1.54014 -3.44,3.44c0,1.89986 1.54014,3.44 3.44,3.44c1.89986,0 3.44,-1.54014 3.44,-3.44c0,-1.89986 -1.54014,-3.44 -3.44,-3.44zM25.8,101.48c-3.79972,0 -6.88,3.08028 -6.88,6.88c0,3.79972 3.08028,6.88 6.88,6.88c3.79972,0 6.88,-3.08028 6.88,-6.88c0,-3.79972 -3.08028,-6.88 -6.88,-6.88z" fill="#fbcd59"></path><path d="M43,146.2c-1.89986,0 -3.44,1.54014 -3.44,3.44c0,1.89986 1.54014,3.44 3.44,3.44c1.89986,0 3.44,-1.54014 3.44,-3.44c0,-1.89986 -1.54014,-3.44 -3.44,-3.44z" fill="#ee3e54"></path><path d="M31.82,87.72c-2.37482,0 -4.3,1.92518 -4.3,4.3c0,2.37482 1.92518,4.3 4.3,4.3c2.37482,0 4.3,-1.92518 4.3,-4.3c0,-2.37482 -1.92518,-4.3 -4.3,-4.3z" fill="#ffffff"></path><path d="M36.12,113.52c-0.94993,0 -1.72,0.77007 -1.72,1.72c0,0.94993 0.77007,1.72 1.72,1.72c0.94993,0 1.72,-0.77007 1.72,-1.72c0,-0.94993 -0.77007,-1.72 -1.72,-1.72z" fill="#f1bc19"></path><path d="M137.6,56.76c-0.94993,0 -1.72,0.77007 -1.72,1.72c0,0.94993 0.77007,1.72 1.72,1.72c0.94993,0 1.72,-0.77007 1.72,-1.72c0,-0.94993 -0.77007,-1.72 -1.72,-1.72z" fill="#ffffff"></path><g><path d="M86,44.075c-23.0358,0 -41.71,18.6742 -41.71,41.71c0,23.0358 18.6742,41.71 41.71,41.71c23.0358,0 41.71,-18.6742 41.71,-41.71c0,-23.0358 -18.6742,-41.71 -41.71,-41.71z" fill="#4d85d7"></path><path d="M86,128.699c-23.66204,0 -42.914,-19.25024 -42.914,-42.914c0,-23.66376 19.25196,-42.914 42.914,-42.914c23.66204,0 42.914,19.25024 42.914,42.914c0,23.66376 -19.25196,42.914 -42.914,42.914zM86,45.279c-22.3342,0 -40.506,18.17008 -40.506,40.506c0,22.33592 18.1718,40.506 40.506,40.506c22.3342,0 40.506,-18.17008 40.506,-40.506c0,-22.33592 -18.1718,-40.506 -40.506,-40.506z" fill="#472b29"></path></g><g fill="#472b29"><path d="M119.40928,76.755c-0.36808,0 -0.70864,-0.23908 -0.82216,-0.60888c-0.15136,-0.49364 -0.31476,-0.98212 -0.48848,-1.46716c-0.67424,-1.88168 -1.52392,-3.71348 -2.5284,-5.45068c-0.23908,-0.40936 -0.09804,-0.9374 0.31304,-1.17476c0.41108,-0.24252 0.9374,-0.09804 1.17476,0.31476c1.05608,1.82492 1.95048,3.75304 2.65912,5.72932c0.18232,0.51084 0.35432,1.0234 0.51256,1.54284c0.13932,0.45408 -0.11524,0.93568 -0.57104,1.075c-0.08256,0.02752 -0.16684,0.03956 -0.2494,0.03956z"></path></g><g fill="#472b29"><path d="M86,121.69c-19.79892,0 -35.905,-16.05964 -35.905,-35.79836c0,-19.73872 16.10608,-35.79664 35.905,-35.79664c10.277,0 20.07928,4.4032 26.89392,12.07956c0.51428,0.57964 1.01136,1.1782 1.4878,1.79052c0.29068,0.37496 0.2236,0.91332 -0.14964,1.20572c-0.37496,0.29412 -0.91504,0.22532 -1.20744,-0.15136c-0.45408,-0.58308 -0.9288,-1.15068 -1.41728,-1.7028c-6.48784,-7.31 -15.82228,-11.50336 -25.60736,-11.50336c-18.84948,0 -34.185,15.28736 -34.185,34.07836c0,18.791 15.33552,34.07836 34.185,34.07836c18.84948,0 34.185,-15.28736 34.185,-34.07836c0,-1.7114 -0.129,-3.43312 -0.38184,-5.11356c-0.07052,-0.46784 0.25284,-0.90644 0.7224,-0.97696c0.47816,-0.07568 0.90816,0.25284 0.97868,0.7224c0.26488,1.763 0.40076,3.57072 0.40076,5.36812c0,19.73872 -16.10608,35.79836 -35.905,35.79836z"></path></g><g><path d="M108.36,81.7c0,-2.37532 -1.92468,-4.3 -4.3,-4.3h-18.45732c1.35364,-2.32716 3.1648,-7.48716 3.12008,-12.59728c-0.07224,-8.14936 -8.815,-7.05716 -8.74276,-1.0922c0.04128,3.4916 -3.44,7.83116 -6.88,11.32448c-3.44,3.49332 -3.44,8.73072 -3.44,8.73072v17.46316c0,3.12868 3.01,6.27112 6.88,6.27112h5.16v0h16.34c2.37532,0 4.3,-1.92468 4.3,-4.3c0,-1.1008 -0.42656,-2.09496 -1.10768,-2.8552c1.64604,-0.60372 2.82768,-2.17064 2.82768,-4.0248c0,-1.1008 -0.42656,-2.09496 -1.10768,-2.8552c1.64604,-0.60372 2.82768,-2.17064 2.82768,-4.0248c0,-1.41384 -0.69144,-2.65568 -1.74408,-3.44h0.02408c2.37532,0 4.3,-1.92468 4.3,-4.3z" fill="#fddbbc"></path><path d="M98.04,108.36h-21.5c-4.12284,0 -7.74,-3.33336 -7.74,-7.13112v-17.46316c0,-0.22876 0.04128,-5.63128 3.68768,-9.33444c4.43244,-4.49952 6.665,-8.10464 6.63232,-10.71216c-0.0258,-2.1242 0.92364,-3.913 2.60236,-4.90716c1.53768,-0.90988 3.4314,-0.94428 4.93812,-0.0946c1.07672,0.60888 2.8896,2.20504 2.924,6.07332c0.03956,4.55112 -1.34504,9.06956 -2.57484,11.74588h17.05036c2.84488,0 5.16,2.31512 5.16,5.16c0,2.24976 -1.44652,4.16756 -3.4572,4.87104c0.5676,0.84108 0.8772,1.8318 0.8772,2.8724c0,1.77504 -0.93224,3.40904 -2.40112,4.343c0.44376,0.774 0.68112,1.64604 0.68112,2.537c0,1.77504 -0.93224,3.40904 -2.40112,4.343c0.44376,0.774 0.68112,1.64604 0.68112,2.537c0,2.84488 -2.31512,5.16 -5.16,5.16zM84.29548,59.82504c-0.58136,0 -1.1696,0.15652 -1.69764,0.46784c-1.1352,0.67252 -1.77504,1.91264 -1.75784,3.4056c0.03784,3.12524 -2.29276,7.03136 -7.12768,11.9368c-3.1562,3.20952 -3.19232,8.08228 -3.19232,8.13044v17.46316c0,2.5542 2.57484,5.41112 6.02,5.41112h21.5c1.89716,0 3.44,-1.54284 3.44,-3.44c0,-0.83076 -0.31648,-1.64088 -0.88752,-2.28244c-0.19092,-0.21156 -0.26316,-0.50568 -0.19264,-0.78088c0.0688,-0.27692 0.27004,-0.50052 0.53836,-0.60028c1.35192,-0.49536 2.2618,-1.7888 2.2618,-3.2164c0,-0.83076 -0.31648,-1.64088 -0.88752,-2.28244c-0.19092,-0.21156 -0.26316,-0.50568 -0.19264,-0.78088c0.0688,-0.27692 0.27004,-0.50052 0.53836,-0.60028c1.35192,-0.49536 2.2618,-1.7888 2.2618,-3.2164c0,-1.08704 -0.50912,-2.08808 -1.39836,-2.75028c-0.29756,-0.22188 -0.41968,-0.60888 -0.30272,-0.96148c0.11696,-0.3526 0.44548,-0.58996 0.817,-0.58996c1.92124,0 3.46408,-1.54284 3.46408,-3.44c0,-1.89716 -1.54284,-3.44 -3.44,-3.44h-18.45732c-0.30788,0 -0.59168,-0.16512 -0.74648,-0.43172c-0.15308,-0.26488 -0.15136,-0.59512 0.00172,-0.86c1.23152,-2.11904 3.04784,-7.10704 3.00484,-12.15868c-0.01892,-2.22568 -0.7482,-3.85624 -2.04852,-4.59068c-0.4644,-0.26316 -0.989,-0.39216 -1.51876,-0.39216z" fill="#472b29"></path></g><g fill="#472b29"><path d="M96.32,82.56h-2.58c-0.47472,0 -0.86,-0.38528 -0.86,-0.86c0,-0.47472 0.38528,-0.86 0.86,-0.86h2.58c0.47472,0 0.86,0.38528 0.86,0.86c0,0.47472 -0.38528,0.86 -0.86,0.86z"></path></g><g fill="#472b29"><path d="M96.32,89.44h-2.58c-0.47472,0 -0.86,-0.38528 -0.86,-0.86c0,-0.47472 0.38528,-0.86 0.86,-0.86h2.58c0.47472,0 0.86,0.38528 0.86,0.86c0,0.47472 -0.38528,0.86 -0.86,0.86z"></path></g><g fill="#472b29"><path d="M96.32,96.32h-2.58c-0.47472,0 -0.86,-0.38528 -0.86,-0.86c0,-0.47472 0.38528,-0.86 0.86,-0.86h2.58c0.47472,0 0.86,0.38528 0.86,0.86c0,0.47472 -0.38528,0.86 -0.86,0.86z"></path></g><g fill="#472b29"><path d="M96.32,103.2h-2.58c-0.47472,0 -0.86,-0.38528 -0.86,-0.86c0,-0.47472 0.38528,-0.86 0.86,-0.86h2.58c0.47472,0 0.86,0.38528 0.86,0.86c0,0.47472 -0.38528,0.86 -0.86,0.86z"></path></g></g></g></svg>