<svg version="1.1" xmlns="http://www.w3.org/2000/svg" xmlns:xlink="http://www.w3.org/1999/xlink" viewBox="0 0 226 226"><defs><linearGradient x1="68.23788" y1="48.16154" x2="113.6215" y2="145.48279" gradientUnits="userSpaceOnUse" id="color-1"><stop offset="0" stop-color="#f44f5a"></stop><stop offset="0.45" stop-color="#ee3d4a"></stop><stop offset="1" stop-color="#bf1237"></stop></linearGradient><linearGradient x1="46.37238" y1="90.87083" x2="143.66067" y2="136.24033" gradientUnits="userSpaceOnUse" id="color-2"><stop offset="0" stop-color="#f44f5a"></stop><stop offset="0.4" stop-color="#ee3d4a"></stop><stop offset="1" stop-color="#ba1035"></stop></linearGradient><linearGradient x1="135.2045" y1="31.09854" x2="185.885" y2="139.78571" gradientUnits="userSpaceOnUse" id="color-3"><stop offset="0" stop-color="#f44f5a"></stop><stop offset="0.4" stop-color="#ee3d4a"></stop><stop offset="1" stop-color="#bd1237"></stop></linearGradient></defs><g fill="none" fill-rule="nonzero" stroke="none" stroke-width="1" stroke-linecap="butt" stroke-linejoin="miter" stroke-miterlimit="10" stroke-dasharray="" stroke-dashoffset="0" font-family="none" font-weight="none" font-size="none" text-anchor="none" style="mix-blend-mode: normal"><path d="M0,226v-226h226v226z" fill="none"></path><g><path d="M106.69083,143.93375l-35.66562,-80.82325l8.61625,-3.80433l35.66563,80.82325z" fill="url(#color-1)"></path><path d="M51.79167,188.33333c-23.54167,0 -42.375,-18.83333 -42.375,-42.375c0,-23.54167 18.83333,-42.375 42.375,-42.375c23.54167,0 42.375,18.83333 42.375,42.375c0,23.54167 -18.83333,42.375 -42.375,42.375zM51.79167,113c-18.3625,0 -32.95833,14.59583 -32.95833,32.95833c0,18.3625 14.59583,32.95833 32.95833,32.95833c18.3625,0 32.95833,-14.59583 32.95833,-32.95833c0,-18.3625 -14.59583,-32.95833 -32.95833,-32.95833z" fill="#586169"></path><path d="M174.20833,188.33333c-23.54167,0 -42.375,-18.83333 -42.375,-42.375c0,-23.54167 18.83333,-42.375 42.375,-42.375c23.54167,0 42.375,18.83333 42.375,42.375c0,23.54167 -18.83333,42.375 -42.375,42.375zM174.20833,113c-18.3625,0 -32.95833,14.59583 -32.95833,32.95833c0,18.3625 14.59583,32.95833 32.95833,32.95833c18.3625,0 32.95833,-14.59583 32.95833,-32.95833c0,-18.3625 -14.59583,-32.95833 -32.95833,-32.95833z" fill="#586169"></path><path d="M108.29167,150.66667h-56.5c-1.65733,0 -3.19225,-0.87104 -4.03975,-2.29296c-0.8475,-1.42192 -0.88517,-3.18754 -0.10358,-4.64712l32.95833,-61.20833c0.81925,-1.5255 2.41067,-2.47658 4.14333,-2.47658h61.20833c1.70442,0 3.277,0.92283 4.11038,2.41067c0.83337,1.48783 0.79571,3.30996 -0.09887,4.76483l-37.66667,61.20833c-0.85692,1.39367 -2.373,2.24117 -4.0115,2.24117zM59.67342,141.25h45.991l31.87071,-51.79167h-49.96954z" fill="url(#color-2)"></path><circle cx="11.044" cy="31" transform="scale(4.70833,4.70833)" r="2" fill="#999999"></circle><path d="M69.64567,70.52612c-2.43421,0.35783 -4.90608,-0.27779 -6.88829,-1.77504l-4.34108,-3.277c-3.68662,-2.90033 -1.69971,-8.97408 2.93329,-8.97408h13.91783h18.46138c2.80617,0 5.08029,2.27412 5.08029,5.07558v0c0,2.50012 -1.81742,4.62358 -4.28458,5.01438z" fill="#565b5e"></path><path d="M147.67688,69.16071l7.53333,-1.88333c5.64529,-1.40779 9.58146,-6.45513 9.58146,-12.2605c0,-6.97304 -5.66883,-12.64187 -12.64187,-12.64187h-10.89979v9.41667h10.89979c1.77975,0 3.22521,1.44546 3.22521,3.22521c0,1.47842 -1.00758,2.7685 -2.44362,3.12633l-12.8255,3.20638c-2.52367,0.63092 -4.05858,3.18754 -3.42767,5.71121c0.0565,0.23071 0.18833,0.41433 0.27308,0.62621l-0.06121,0.02354l32.95833,80.04167l8.71042,-3.58775z" fill="url(#color-3)"></path><path d="M145.95833,51.79167h-18.83333c-2.599,0 -4.70833,-2.10933 -4.70833,-4.70833v0c0,-2.599 2.10933,-4.70833 4.70833,-4.70833h18.83333z" fill="#565b5e"></path><circle cx="37" cy="31" transform="scale(4.70833,4.70833)" r="2" fill="#999999"></circle></g></g></svg>