<svg version="1.1" xmlns="http://www.w3.org/2000/svg" xmlns:xlink="http://www.w3.org/1999/xlink" viewBox="0 0 226 226"><g fill="none" fill-rule="nonzero" stroke="none" stroke-width="1" stroke-linecap="butt" stroke-linejoin="miter" stroke-miterlimit="10" stroke-dasharray="" stroke-dashoffset="0" font-family="none" font-weight="none" font-size="none" text-anchor="none" style="mix-blend-mode: normal"><path d="M0,226v-226h226v226z" fill="none"></path><g><circle cx="77" cy="13" transform="scale(2.26,2.26)" r="1" fill="#f1bc19"></circle><circle cx="50" cy="50" transform="scale(2.26,2.26)" r="37" fill="#e4e4f9"></circle><circle cx="83" cy="15" transform="scale(2.26,2.26)" r="4" fill="#f1bc19"></circle><circle cx="87" cy="24" transform="scale(2.26,2.26)" r="2" fill="#8889b9"></circle><circle cx="81" cy="76" transform="scale(2.26,2.26)" r="2" fill="#fbcd59"></circle><circle cx="15" cy="63" transform="scale(2.26,2.26)" r="4" fill="#fbcd59"></circle><circle cx="25" cy="87" transform="scale(2.26,2.26)" r="2" fill="#8889b9"></circle><circle cx="18.5" cy="51.5" transform="scale(2.26,2.26)" r="2.5" fill="#ffffff"></circle><circle cx="79.5" cy="33.5" transform="scale(2.26,2.26)" r="1.5" fill="#ffffff"></circle><path d="M72.32,170.178c-2.86794,0 -5.198,-2.33006 -5.198,-5.198v-101.7c0,-2.86794 2.33006,-5.198 5.198,-5.198h79.1c2.86794,0 5.198,2.33006 5.198,5.198v101.7c0,2.86794 -2.33006,5.198 -5.198,5.198z" fill="#be7841"></path><path d="M151.42,59.664c1.99332,0 3.616,1.62268 3.616,3.616v101.7c0,1.99332 -1.62268,3.616 -3.616,3.616h-79.1c-1.99332,0 -3.616,-1.62268 -3.616,-3.616v-101.7c0,-1.99332 1.62268,-3.616 3.616,-3.616h79.1M151.42,56.5h-79.1c-3.74482,0 -6.78,3.03518 -6.78,6.78v101.7c0,3.74482 3.03518,6.78 6.78,6.78h79.1c3.74482,0 6.78,-3.03518 6.78,-6.78v-101.7c0,-3.74482 -3.03518,-6.78 -6.78,-6.78z" fill="#472b29"></path><path d="M76.162,158.878v-91.756h71.416v75.29868l-16.45732,16.45732z" fill="#fffef4"></path><path d="M145.996,68.704v73.06128l-15.53072,15.53072h-52.72128v-88.592h68.252M149.16,65.54h-74.58v94.92h57.19608l17.38392,-17.38392v-77.53608z" fill="#472b29"></path><path d="M145.62762,142.38678l-14.464,14.04816l-0.08362,-14.04816z" fill="#88cdd7"></path><g><path d="M98.27384,72.998c-2.22384,0 -4.03184,-1.53002 -4.03184,-3.40808v-8.09984c0,-1.90066 0.9379,-2.21028 1.24526,-2.30972c0.0791,-0.02712 0.15594,-0.05876 0.23278,-0.09944l9.93496,-5.1528c2.712,-1.30628 5.06918,-1.92552 7.37438,-1.92552c2.31424,0 4.73018,0.6215 7.60038,1.9549l9.84456,5.79012c0.07458,0.0452 0.15142,0.08136 0.23278,0.113c1.02378,0.3955 1.05316,1.50516 1.05316,1.63172v8.09984c0,1.87806 -1.808,3.40808 -4.03184,3.40808h-29.45458z" fill="#f2df5e"></path><path d="M113.02712,53.5846c2.04078,0 4.2036,0.55596 6.79808,1.74472l9.84456,5.78334c0.14916,0.08814 0.29154,0.14238 0.452,0.20566c0.0226,0.03164 0.04972,0.1243 0.05198,0.17402v8.09758c0,0.98988 -1.12322,1.82834 -2.44984,1.82834h-29.45006c-1.32888,0 -2.44984,-0.8362 -2.44984,-1.82834v-8.09758c0,-0.5085 0.10622,-0.77066 0.1582,-0.80908c0.16046,-0.05198 0.3164,-0.11752 0.46556,-0.19662l9.84908,-5.11212c2.53346,-1.22266 4.67142,-1.78992 6.73028,-1.78992M113.02712,50.4206c-2.6103,0 -5.19574,0.7006 -8.1021,2.1018l-9.93496,5.15506c-1.8532,0.61246 -2.33006,2.34588 -2.33006,3.81262v8.09758c0,2.7572 2.51312,4.99234 5.61384,4.99234h29.45006c3.10298,0 5.6161,-2.23514 5.6161,-4.99008v-8.09758c0,-0.9718 -0.47686,-2.49504 -2.06564,-3.1075l-9.98016,-5.86244c-3.0171,-1.4012 -5.65678,-2.1018 -8.26708,-2.1018z" fill="#472b29"></path></g><g fill="#472b29"><circle cx="50" cy="26" transform="scale(2.26,2.26)" r="1"></circle></g><g fill="#472b29"><path d="M133.792,158.2h-3.164v-14.69c0,-0.87462 0.70738,-1.582 1.582,-1.582h14.69v3.164h-13.108z"></path></g><g><path d="M122.19594,116.62278l-6.16302,15.25274l15.25274,-6.16302" fill="#fffef4"></path><path d="M116.03292,133.45978c-0.41132,0 -0.81586,-0.16046 -1.1187,-0.4633c-0.44748,-0.44974 -0.58534,-1.12322 -0.34804,-1.71308l6.16528,-15.25274l2.93574,1.1865l-4.7686,11.7972l11.7972,-4.7686l1.1865,2.93574l-15.25274,6.16528c-0.19436,0.07458 -0.39776,0.113 -0.59664,0.113z" fill="#472b29"></path><path d="M160.60012,93.62954c-1.69726,0 -3.28604,-0.6554 -4.4748,-1.84416c-1.18876,-1.18876 -1.84416,-2.77754 -1.84416,-4.47254c0,-1.69726 0.6554,-3.28604 1.84416,-4.4748l4.79346,-4.79346c1.18876,-1.18876 2.77754,-1.84416 4.4748,-1.84416c1.695,0 3.28378,0.6554 4.47254,1.84416c1.18876,1.18876 1.84416,2.77754 1.84416,4.47254c0,1.69726 -0.6554,3.28604 -1.84416,4.47254l-4.79346,4.79572c-1.1865,1.18876 -2.77754,1.84416 -4.47254,1.84416z" fill="#ef7d99"></path><path d="M165.39358,77.7779c1.27464,0 2.46566,0.49042 3.3561,1.38086c1.85094,1.85094 1.85094,4.86126 0,6.7122l-4.79346,4.79346c-0.89044,0.89044 -2.08146,1.38086 -3.3561,1.38086c-1.27464,0 -2.46566,-0.49042 -3.3561,-1.38086c-1.85094,-1.85094 -1.85094,-4.86126 0,-6.7122l4.79346,-4.79346c0.89044,-0.89044 2.08372,-1.38086 3.3561,-1.38086M165.39358,74.6139c-2.02722,0 -4.05444,0.7684 -5.5935,2.30746l-4.79346,4.79346c-3.07586,3.07586 -3.07586,8.10888 0,11.187c1.53906,1.5368 3.56628,2.30746 5.5935,2.30746c2.02722,0 4.05444,-0.7684 5.5935,-2.30746l4.79346,-4.79346c3.07586,-3.07586 3.07586,-8.11114 0,-11.187c-1.5368,-1.53906 -3.56628,-2.30746 -5.5935,-2.30746z" fill="#472b29"></path><g><rect x="2.12888" y="74.7653" transform="rotate(-45.001) scale(2.26,2.26)" width="20.6" height="5.6" fill="#f2df5e"></rect><path d="M155.80666,85.39184l6.7122,6.7122l-30.68402,30.68176l-6.7122,-6.7122l30.68402,-30.68176M155.80666,80.91704l-35.15882,35.15656l11.187,11.187l35.15656,-35.15656l-11.18474,-11.187z" fill="#472b29"></path></g><g><rect x="21.12941" y="74.76548" transform="rotate(-45.001) scale(2.26,2.26)" width="3.599" height="5.6" fill="#88cdd7"></rect><path d="M159.0023,82.1962l6.7122,6.7122l-3.51656,3.51656l-6.7122,-6.7122l3.51656,-3.51656M159.0023,77.7214l-7.99136,7.9891l11.187,11.187l7.99136,-7.99136l-11.187,-11.18474z" fill="#472b29"></path></g></g><g fill="#472b29"><path d="M84.75,125.995c-0.31188,0 -0.565,-0.25312 -0.565,-0.565v-9.04c0,-0.31188 0.25312,-0.565 0.565,-0.565c0.31188,0 0.565,0.25312 0.565,0.565v9.04c0,0.31188 -0.25312,0.565 -0.565,0.565z"></path></g><g fill="#472b29"><path d="M84.75,112.435c-0.31188,0 -0.565,-0.25312 -0.565,-0.565v-33.9c0,-0.31188 0.25312,-0.565 0.565,-0.565c0.31188,0 0.565,0.25312 0.565,0.565v33.9c0,0.31188 -0.25312,0.565 -0.565,0.565z"></path></g><g fill="#472b29"><path d="M93.79,150.855h-9.04c-0.31188,0 -0.565,-0.25312 -0.565,-0.565c0,-0.31188 0.25312,-0.565 0.565,-0.565h9.04c0.31188,0 0.565,0.25312 0.565,0.565c0,0.31188 -0.25312,0.565 -0.565,0.565z"></path></g><g fill="#472b29"><path d="M102.83,150.855h-4.52c-0.31188,0 -0.565,-0.25312 -0.565,-0.565c0,-0.31188 0.25312,-0.565 0.565,-0.565h4.52c0.31188,0 0.565,0.25312 0.565,0.565c0,0.31188 -0.25312,0.565 -0.565,0.565z"></path></g><g fill="#472b29"><path d="M118.65,150.855h-11.3c-0.31188,0 -0.565,-0.25312 -0.565,-0.565c0,-0.31188 0.25312,-0.565 0.565,-0.565h11.3c0.31188,0 0.565,0.25312 0.565,0.565c0,0.31188 -0.25312,0.565 -0.565,0.565z"></path></g><g fill="#472b29"><path d="M84.75,150.855c-0.31188,0 -0.565,-0.25312 -0.565,-0.565v-18.08c0,-0.31188 0.25312,-0.565 0.565,-0.565c0.31188,0 0.565,0.25312 0.565,0.565v18.08c0,0.31188 -0.25312,0.565 -0.565,0.565z"></path></g></g></g></svg>