<?xml version="1.0" encoding="utf-8"?>
<!-- Generator: Adobe Illustrator 25.4.1, SVG Export Plug-In . SVG Version: 6.00 Build 0)  -->
<svg version="1.1" id="Слой_1" xmlns="http://www.w3.org/2000/svg" xmlns:xlink="http://www.w3.org/1999/xlink" x="0px" y="0px"
	 viewBox="0 0 200 200" style="enable-background:new 0 0 200 200;" xml:space="preserve">
<style type="text/css">
	.st0{fill:#EE3E54;
  animation: circle1 5s linear infinite;}
	.st1{fill:#F1BC19;
   animation: circle1 6s linear infinite;
  }
	.st2{fill:#FCE0A2;}
	.st3{fill:#FBCD59;
   animation: circle2 8s linear infinite;}
	.st4{fill:#FFFFFF;}
	.st5{fill:#EA5167;}
	.st6{fill:#472B29;}
	.st7{fill:#FFFEF4;}
	.st8{fill:#BEBACB;}
	.st9{fill:#88AE45;}
  @keyframes circle1{
     0%{
       transform: rotate(0deg) translateX(5px)
       }
     100%{
       transform: rotate(360deg) translateX(5px) rotate(-360deg)
     }
  }
  @keyframes circle2{
     0%{transform: rotate(0deg) translate(5px, 10px)}
     100%{transform: rotate(-360deg)translate(5px, 10px) rotate(360deg)}
    }
</style>
<g>
	<g>
		<path class="st0" d="M18.4,49.3c-2.4,0-4.4,2-4.4,4.4c0,2.4,2,4.4,4.4,4.4s4.4-2,4.4-4.4C22.8,51.3,20.8,49.3,18.4,49.3z"/>
		<path class="st1" d="M159.5,16.2c-1.2,0-2.2,1-2.2,2.2s1,2.2,2.2,2.2s2.2-1,2.2-2.2S160.8,16.2,159.5,16.2z"/>
		<path class="st2" d="M100,18.4c-45.1,0-81.6,36.5-81.6,81.6s36.5,81.6,81.6,81.6s81.6-36.5,81.6-81.6S145.1,18.4,100,18.4z"/>
		<path class="st1" d="M172.8,14c-4.9,0-8.8,3.9-8.8,8.8s3.9,8.8,8.8,8.8s8.8-3.9,8.8-8.8C181.6,17.9,177.6,14,172.8,14z"/>
		<path class="st0" d="M181.6,38.3c-2.4,0-4.4,2-4.4,4.4c0,2.4,2,4.4,4.4,4.4s4.4-2,4.4-4.4C186,40.2,184,38.3,181.6,38.3z"/>
		<path class="st3" d="M168.4,152.9c-2.4,0-4.4,2-4.4,4.4c0,2.4,2,4.4,4.4,4.4s4.4-2,4.4-4.4C172.8,154.9,170.8,152.9,168.4,152.9z
			 M22.8,119.8c-4.9,0-8.8,3.9-8.8,8.8c0,4.9,3.9,8.8,8.8,8.8s8.8-3.9,8.8-8.8C31.6,123.8,27.7,119.8,22.8,119.8z"/>
		<path class="st0" d="M44.9,177.2c-2.4,0-4.4,2-4.4,4.4s2,4.4,4.4,4.4c2.4,0,4.4-2,4.4-4.4S47.3,177.2,44.9,177.2z"/>
		<path class="st4" d="M30.5,102.2c-3,0-5.5,2.5-5.5,5.5s2.5,5.5,5.5,5.5s5.5-2.5,5.5-5.5S33.6,102.2,30.5,102.2z"/>
		<path class="st1" d="M36.1,135.3c-1.2,0-2.2,1-2.2,2.2c0,1.2,1,2.2,2.2,2.2c1.2,0,2.2-1,2.2-2.2C38.3,136.3,37.3,135.3,36.1,135.3
			z"/>
		<path class="st4" d="M166.2,62.5c-1.2,0-2.2,1-2.2,2.2s1,2.2,2.2,2.2s2.2-1,2.2-2.2S167.4,62.5,166.2,62.5z"/>
		<path class="st5" d="M101.1,148.1c-3.1,0-6.1-1.2-8.4-3.3c-1.6-1.5-3.6-2.3-5.5-2.3H49.3c-2.8,0-5.1-2.3-5.1-5.1V70
			c0-2.8,2.3-5.1,5.1-5.1h103.7c2.8,0,5.1,2.3,5.1,5.1v67.5c0,2.8-2.3,5.1-5.1,5.1H115c-2,0-3.9,0.8-5.5,2.3
			C107.2,146.9,104.2,148.1,101.1,148.1z"/>
		<path class="st6" d="M152.9,66.4c1.9,0,3.5,1.6,3.5,3.5v67.5c0,1.9-1.6,3.5-3.5,3.5H115c-2.4,0-4.7,1-6.6,2.7
			c-2,1.9-4.6,2.9-7.3,2.9s-5.3-1-7.3-2.9c-1.9-1.7-4.2-2.7-6.6-2.7H49.3c-1.9,0-3.5-1.6-3.5-3.5V70c0-1.9,1.6-3.5,3.5-3.5H152.9
			 M152.9,63.4H49.3c-3.6,0-6.6,3-6.6,6.6v67.5c0,3.6,3,6.6,6.6,6.6h37.9c1.7,0,3.3,0.7,4.5,1.9c2.5,2.3,5.8,3.7,9.4,3.7
			c3.6,0,6.9-1.4,9.4-3.7c1.2-1.1,2.8-1.9,4.5-1.9h37.9c3.6,0,6.6-3,6.6-6.6V70C159.5,66.3,156.6,63.4,152.9,63.4z"/>
		<path class="st6" d="M101.1,127.3c-4.6,0-8.3,3.7-8.3,8.4c0,4.6,3.7,8.3,8.3,8.3c4.6,0,8.3-3.7,8.3-8.3
			C109.4,131.1,105.7,127.3,101.1,127.3z"/>
		<path class="st7" d="M52.8,134.2c-1.1,0-2-0.9-2-2v-63l3.9-9.8c0.7-1.8,2.4-3,4.4-3c16.8,0,31.6,3,40.7,8.2l0.4,0.2h1.9l0.3-0.2
			c9.7-4.9,24.8-8,40.3-8.2c2.2,0,4.1,1.3,4.9,3.3l3.7,9.4v63c0,1.1-0.9,2-2,2H52.8z"/>
		<path class="st6" d="M59.1,58c16.3,0,31.2,3,39.9,8l0.7,0.4h2.7l0.7-0.3c9.5-4.8,24.3-7.9,39.7-8c1.5,0,2.9,0.9,3.4,2.3l3.6,9.2
			v62.7c0,0.2-0.2,0.4-0.4,0.4H52.8c-0.2,0-0.4-0.2-0.4-0.4V69.5l3.8-9.5C56.6,58.8,57.8,58,59.1,58L59.1,58 M59.1,54.9
			c-2.6,0-4.9,1.6-5.8,4l-4,10v63.3c0,1.9,1.6,3.5,3.5,3.5h96.6c1.9,0,3.5-1.6,3.5-3.5V68.9l-3.8-9.7c-1-2.6-3.5-4.2-6.3-4.2
			c0,0-0.1,0-0.1,0c-14.4,0.2-30.3,2.9-41,8.4h-1.1C90.2,57.4,74,54.9,59.1,54.9C59.1,54.9,59.1,54.9,59.1,54.9z"/>
		<path class="st8" d="M145,124.5l-43.8,2.2l-44-2.2l-4.6,8h97L145,124.5z"/>
		<path class="st6" d="M101.1,128.5c-0.3,0-0.5-0.1-0.7-0.3c-0.3-0.2-0.4-0.5-0.4-0.8v-26.2c0-0.6,0.5-1.1,1.1-1.1
			c0.6,0,1.1,0.5,1.1,1.1v25c12.6-2,27.7-2.9,41.9-2.6V57c0-0.6,0.5-1.1,1.1-1.1c0.6,0,1.1,0.5,1.1,1.1v67.6c0,0.3-0.1,0.6-0.3,0.8
			c-0.2,0.2-0.5,0.3-0.8,0.3c-14.9-0.4-30.9,0.6-43.9,2.7C101.2,128.5,101.2,128.5,101.1,128.5z"/>
		<path class="st6" d="M101.1,128.9c-0.1,0-0.1,0-0.2,0c-13-2.2-29-3.2-43.9-2.7c-0.3,0-0.6-0.1-0.8-0.3s-0.3-0.5-0.3-0.8V57
			c0-0.6,0.5-1.1,1.1-1.1s1.1,0.5,1.1,1.1v66.9c14.2-0.3,29.3,0.6,41.9,2.6v-25.4c0-0.6,0.5-1.1,1.1-1.1c0.6,0,1.1,0.5,1.1,1.1v26.7
			c0,0.3-0.1,0.6-0.4,0.8C101.6,128.8,101.4,128.9,101.1,128.9z"/>
		<path class="st9" d="M66.8,105.1c0-0.1,0-0.2,0.1-0.5l7.9-25.8c0.2-0.7,0.7-1.3,1.5-1.6c0.8-0.4,1.7-0.6,2.8-0.6
			c1,0,2,0.2,2.8,0.6c0.8,0.4,1.3,0.9,1.5,1.6l7.9,25.8c0.1,0.2,0.1,0.4,0.1,0.5c0,0.7-0.5,1.4-1.4,1.9c-0.9,0.5-1.9,0.8-2.9,0.8
			c-1.2,0-1.9-0.4-2.2-1.2l-1.4-5.3h-8.9l-1.4,5.3c-0.2,0.8-0.9,1.2-2.2,1.2c-1,0-1.9-0.3-2.9-0.8C67.2,106.5,66.8,105.8,66.8,105.1
			z M76,96.2h6.2l-3.1-11.4L76,96.2z"/>
		<path class="st6" d="M87.2,108.9c-2.3,0-3-1.3-3.2-2l-1.2-4.5h-7.3l-1.2,4.5c-0.2,0.8-0.9,2-3.2,2c-1.2,0-2.3-0.3-3.4-1
			c-1.6-0.9-1.9-2.1-1.9-2.9c0-0.2,0-0.4,0.1-0.7l7.9-25.9c0.3-1,1-1.8,2.1-2.3c1.9-0.9,4.6-0.9,6.5,0c1.1,0.5,1.8,1.3,2.1,2.3
			l7.9,25.9c0.1,0.4,0.1,0.6,0.1,0.8c0,0.8-0.3,1.9-1.9,2.9C89.5,108.6,88.3,108.9,87.2,108.9z M73.8,100.2h10.6l1.7,6.1
			c0,0.1,0.1,0.4,1.1,0.4c0.8,0,1.6-0.2,2.3-0.7c0.6-0.3,0.8-0.6,0.8-1c0,0,0-0.1-0.1-0.2l-7.9-25.8c-0.1-0.2-0.3-0.6-1-1
			c-1.3-0.6-3.3-0.6-4.6,0c-0.5,0.2-0.8,0.6-1,1L67.9,105c0,0,0,0.1,0,0.2c0,0.3,0.3,0.6,0.8,0.9c0.8,0.4,1.5,0.7,2.3,0.7
			c1,0,1.1-0.3,1.1-0.4L73.8,100.2z M83.6,97.3h-9.1l4.5-16.7L83.6,97.3z M77.4,95.1h3.3L79.1,89L77.4,95.1z"/>
		<path class="st9" d="M111.2,106.1c0-0.7,0.2-1.5,0.7-2.3l11.9-21.1H114c-0.6,0-1.1-0.3-1.5-0.8c-0.4-0.6-0.5-1.2-0.5-2
			c0-0.8,0.2-1.5,0.5-2c0.3-0.6,0.8-0.8,1.5-0.8h16.3c1.3,0,1.9,0.6,1.9,1.7c0,0.7-0.2,1.4-0.7,2.3l-11.9,21.1h11.5
			c0.6,0,1.1,0.3,1.4,0.9c0.4,0.6,0.5,1.3,0.5,2c0,0.7-0.2,1.4-0.5,2c-0.4,0.6-0.8,0.9-1.4,0.9h-18
			C111.9,107.8,111.2,107.2,111.2,106.1L111.2,106.1z"/>
		<path class="st6" d="M131.1,108.9h-18c-1.9,0-3-1.1-3-2.8c0-0.9,0.3-1.9,0.9-2.9l11-19.4h-7.9c-1,0-1.8-0.5-2.4-1.4
			c-0.5-0.7-0.7-1.6-0.7-2.6c0-1,0.2-1.9,0.7-2.6c0.5-0.9,1.4-1.4,2.4-1.4h16.3c1.9,0,3,1.1,3,2.8c0,0.9-0.3,1.8-0.9,2.8l-11,19.4
			h9.6c0.7,0,1.7,0.2,2.4,1.4c0.5,0.8,0.7,1.6,0.7,2.6c0,0.9-0.2,1.8-0.7,2.6C132.7,108.7,131.8,108.9,131.1,108.9L131.1,108.9z
			 M114,78.1c-0.3,0-0.4,0.1-0.5,0.3c-0.2,0.4-0.3,0.9-0.3,1.5c0,0.6,0.1,1.1,0.4,1.4c0.2,0.3,0.3,0.3,0.5,0.3h11.7l-12.8,22.7
			c-0.4,0.7-0.6,1.2-0.6,1.8c0,0.4,0,0.6,0.8,0.6h18c0.1,0,0.3,0,0.5-0.4c0.3-0.4,0.4-0.9,0.4-1.4s-0.1-1-0.4-1.4
			c-0.2-0.4-0.4-0.4-0.5-0.4h-13.4l12.8-22.7c0.4-0.7,0.6-1.3,0.6-1.8c0-0.4,0-0.6-0.8-0.6L114,78.1L114,78.1z"/>
		<path class="st9" d="M103.3,94.5h-4.4c-1.2,0-2.2-1-2.2-2.2l0,0c0-1.2,1-2.2,2.2-2.2h4.4c1.2,0,2.2,1,2.2,2.2l0,0
			C105.5,93.5,104.5,94.5,103.3,94.5z"/>
		<path class="st6" d="M103.3,95.6h-4.4c-1.8,0-3.3-1.5-3.3-3.3s1.5-3.3,3.3-3.3h4.4c1.8,0,3.3,1.5,3.3,3.3S105.1,95.6,103.3,95.6z
			 M98.9,91.2c-0.6,0-1.1,0.5-1.1,1.1c0,0.6,0.5,1.1,1.1,1.1h4.4c0.6,0,1.1-0.5,1.1-1.1c0-0.6-0.5-1.1-1.1-1.1H98.9z"/>
		<path class="st6" d="M100,64.7v18.7c0,0.6,0.5,1.1,1.1,1.1c0.6,0,1.1-0.5,1.1-1.1V64.7H100z"/>
		<path class="st6" d="M94.5,70.8c-0.1,0-0.2,0-0.2-0.1c-5.1-2.6-11.5-4.4-19-5.6c-0.3,0-0.5-0.3-0.5-0.6c0-0.3,0.3-0.5,0.6-0.5
			c7.6,1.1,14.1,3,19.3,5.7c0.3,0.1,0.4,0.5,0.2,0.7C94.9,70.7,94.7,70.8,94.5,70.8z"/>
		<path class="st6" d="M94.5,121.5c0,0-0.1,0-0.1,0c-9.8-2.2-18.6-2.2-30.8-2.2c-0.3,0-0.6-0.2-0.6-0.6s0.2-0.6,0.6-0.6
			c12.2,0,21.1,0,31,2.2c0.3,0.1,0.5,0.4,0.4,0.7C95,121.3,94.7,121.5,94.5,121.5z"/>
		<path class="st6" d="M63.6,73c-0.3,0-0.6-0.2-0.6-0.6v-8.8c0-0.3,0.2-0.6,0.6-0.6c0,0,3.3,0,7.9,0.5c0.3,0,0.5,0.3,0.5,0.6
			c0,0.3-0.3,0.5-0.6,0.5c-3.5-0.4-6.1-0.5-7.3-0.5v8.3C64.2,72.7,63.9,73,63.6,73z"/>
		<path class="st6" d="M63.6,92.8c-0.3,0-0.6-0.2-0.6-0.6V76.8c0-0.3,0.2-0.6,0.6-0.6s0.6,0.2,0.6,0.6v15.4
			C64.2,92.6,63.9,92.8,63.6,92.8z"/>
		<path class="st6" d="M63.6,119.3c-0.3,0-0.6-0.2-0.6-0.6v-6.6c0-0.3,0.2-0.6,0.6-0.6s0.6,0.2,0.6,0.6v6.6
			C64.2,119,63.9,119.3,63.6,119.3z"/>
		<path class="st6" d="M107.7,70.8c-0.2,0-0.4-0.1-0.5-0.3c-0.1-0.3,0-0.6,0.2-0.7c5.2-2.6,11.7-4.5,19.3-5.7c0.3,0,0.6,0.2,0.6,0.5
			c0,0.3-0.2,0.6-0.5,0.6c-7.4,1.1-13.8,3-19,5.6C107.9,70.8,107.8,70.8,107.7,70.8z"/>
		<path class="st6" d="M107.7,121.5c-0.3,0-0.5-0.2-0.5-0.4c-0.1-0.3,0.1-0.6,0.4-0.7c2.3-0.5,4.6-0.9,6.9-1.2
			c0.3,0,0.6,0.2,0.6,0.5c0,0.3-0.2,0.6-0.5,0.6c-2.3,0.3-4.6,0.7-6.8,1.2C107.8,121.5,107.8,121.5,107.7,121.5z"/>
		<path class="st6" d="M118.9,119.8c-0.3,0-0.5-0.2-0.5-0.5c0-0.3,0.2-0.6,0.5-0.6c6-0.5,12-0.5,19.7-0.5c0.3,0,0.6,0.2,0.6,0.6
			c0,0.3-0.2,0.6-0.6,0.6C130.9,119.3,124.9,119.3,118.9,119.8C118.9,119.8,118.9,119.8,118.9,119.8z"/>
		<g>
			<path class="st6" d="M138.6,73c-0.3,0-0.6-0.2-0.6-0.6v-8.3c-1.1,0-3.8,0.1-7.3,0.5c-0.3,0-0.6-0.2-0.6-0.5
				c0-0.3,0.2-0.6,0.5-0.6c4.7-0.5,7.9-0.5,7.9-0.5c0.3,0,0.6,0.2,0.6,0.6v8.8C139.1,72.7,138.9,73,138.6,73z"/>
		</g>
		<g>
			<path class="st6" d="M138.6,99.4c-0.3,0-0.6-0.2-0.6-0.6V83.5c0-0.3,0.2-0.6,0.6-0.6s0.6,0.2,0.6,0.6v15.4
				C139.1,99.2,138.9,99.4,138.6,99.4z"/>
		</g>
		<g>
			<path class="st6" d="M138.6,119.3c-0.3,0-0.6-0.2-0.6-0.6v-6.6c0-0.3,0.2-0.6,0.6-0.6s0.6,0.2,0.6,0.6v6.6
				C139.1,119,138.9,119.3,138.6,119.3z"/>
		</g>
	</g>
</g>
</svg>
