<?xml version="1.0" encoding="utf-8"?>
<!-- Generator: Adobe Illustrator 25.4.1, SVG Export Plug-In . SVG Version: 6.00 Build 0)  -->
<svg version="1.1" id="Слой_1" xmlns="http://www.w3.org/2000/svg" xmlns:xlink="http://www.w3.org/1999/xlink" x="0px" y="0px"
	 viewBox="0 0 200 200" style="enable-background:new 0 0 200 200;" xml:space="preserve">
<style type="text/css">
	.st0{fill:#EE3E54;
  animation: circle2 8s linear infinite;
  }
	.st1{fill:#F1BC19;
  animation: circle1 5s linear infinite;}
	.st2{fill:#A2FCD0;}
	.st3{fill:#FBCD59;
  animation: circle2 10s linear infinite;}
	.st4{fill:#FFFFFF;
  animation: circle1 8s linear infinite;}
	.st5{fill:#EA5167;}
	.st6{fill:#472B29;}
	.st7{fill:#FFFEF4;}
	.st8{fill:#BEBACB;}
	.st9{fill:#F4989E;}
	.st10{fill:#88AE45;}
	.st11{fill:#CBC9BC;}
	.st12{fill:#F6CCA4;}
  @keyframes circle1{
     0%{transform: rotate(0deg) translateX(5px);}
     100%{transform: rotate(360deg) translateX(5px) rotate(-360deg);}
  }
  @keyframes circle2{
     0%{transform: rotate(0deg) translate(5px, 10px);}
     100%{transform: rotate(-360deg)translate(5px, 10px) rotate(360deg);}
    }
</style>
<g>
	<g>
		<path class="st0" d="M16.4,48c-2.5,0-4.5,2-4.5,4.5s2,4.5,4.5,4.5s4.5-2,4.5-4.5S18.9,48,16.4,48z"/>
		<path class="st1" d="M161,14.1c-1.2,0-2.3,1-2.3,2.3s1,2.3,2.3,2.3s2.3-1,2.3-2.3S162.3,14.1,161,14.1z"/>
		<path class="st2" d="M100,16.4c-46.2,0-83.6,37.4-83.6,83.6s37.4,83.6,83.6,83.6s83.6-37.4,83.6-83.6S146.2,16.4,100,16.4z"/>
		<path class="st1" d="M174.6,11.9c-5,0-9,4-9,9s4,9,9,9s9-4,9-9S179.6,11.9,174.6,11.9z"/>
		<path class="st0" d="M183.6,36.7c-2.5,0-4.5,2-4.5,4.5s2,4.5,4.5,4.5s4.5-2,4.5-4.5S186.1,36.7,183.6,36.7z"/>
		<path class="st3" d="M170.1,154.2c-2.5,0-4.5,2-4.5,4.5s2,4.5,4.5,4.5s4.5-2,4.5-4.5S172.6,154.2,170.1,154.2z M20.9,120.3
			c-5,0-9,4-9,9s4,9,9,9s9-4,9-9S25.9,120.3,20.9,120.3z"/>
		<path class="st0" d="M43.5,179.1c-2.5,0-4.5,2-4.5,4.5s2,4.5,4.5,4.5s4.5-2,4.5-4.5S46,179.1,43.5,179.1z"/>
		<path class="st4" d="M28.8,102.3c-3.1,0-5.7,2.5-5.7,5.7s2.5,5.7,5.7,5.7c3.1,0,5.7-2.5,5.7-5.7S31.9,102.3,28.8,102.3z"/>
		<path class="st1" d="M34.5,136.2c-1.2,0-2.3,1-2.3,2.3s1,2.3,2.3,2.3s2.3-1,2.3-2.3S35.7,136.2,34.5,136.2z"/>
		<path class="st4" d="M167.8,61.6c-1.2,0-2.3,1-2.3,2.3s1,2.3,2.3,2.3s2.3-1,2.3-2.3S169,61.6,167.8,61.6z"/>
		<path class="st5" d="M101.1,144.8c-3.2,0-6.2-1.2-8.6-3.4c-1.6-1.5-3.6-2.3-5.7-2.3H50.3c-2.9,0-5.2-2.3-5.2-5.2V67
			c0-2.9,2.3-5.2,5.2-5.2H152c2.9,0,5.2,2.3,5.2,5.2v66.9c0,2.9-2.3,5.2-5.2,5.2h-36.6c-2,0-4,0.8-5.7,2.3
			C107.4,143.6,104.3,144.8,101.1,144.8z"/>
		<path class="st6" d="M152,63.3c2,0,3.6,1.6,3.6,3.6v66.9c0,2-1.6,3.6-3.6,3.6h-36.6c-2.4,0-4.8,1-6.8,2.8
			c-2.1,1.9-4.7,2.9-7.5,2.9c-2.8,0-5.4-1.1-7.5-2.9c-1.9-1.8-4.3-2.8-6.8-2.8H50.3c-2,0-3.6-1.6-3.6-3.6V67c0-2,1.6-3.6,3.6-3.6
			L152,63.3 M152,60.2H50.3c-3.7,0-6.8,3-6.8,6.8v66.9c0,3.7,3,6.8,6.8,6.8h36.6c1.7,0,3.3,0.8,4.6,1.9c2.5,2.3,5.9,3.8,9.7,3.8
			s7.1-1.4,9.7-3.8c1.3-1.2,2.9-1.9,4.6-1.9H152c3.7,0,6.8-3,6.8-6.8V67C158.8,63.2,155.7,60.2,152,60.2z"/>
		<path class="st6" d="M101.1,123.5c-4.7,0-8.6,3.8-8.6,8.6c0,4.7,3.8,8.6,8.6,8.6s8.6-3.8,8.6-8.6
			C109.7,127.3,105.9,123.5,101.1,123.5z"/>
		<path class="st7" d="M53.9,130.5c-1.1,0-2-0.9-2-2V66.2l4-10c0.7-1.9,2.5-3.1,4.5-3.1c17.2,0,30.1,3.1,39.4,8.4l0.4,0.2h2l0.3-0.2
			c9.9-5.1,23.1-8.2,39.1-8.4c2.3,0,4.2,1.3,5,3.3l3.8,9.7v62.3c0,1.1-0.9,2-2,2H53.9z"/>
		<path class="st6" d="M60.3,54.7c16.7,0,29.7,3.1,38.6,8.2l0.7,0.4h2.8l0.7-0.3c9.7-5,22.6-8.1,38.4-8.2c1.6,0,2.9,0.9,3.5,2.3
			l3.7,9.4v62c0,0.2-0.2,0.4-0.4,0.4H53.9c-0.2,0-0.4-0.2-0.4-0.4v-62l3.8-9.7C57.8,55.5,59,54.7,60.3,54.7L60.3,54.7 M60.3,51.6
			c-2.6,0-5,1.6-6,4.1l-4.1,10.3v62.6c0,2,1.6,3.6,3.6,3.6h94.5c2,0,3.6-1.6,3.6-3.6V65.9l-3.9-9.9c-1.1-2.6-3.6-4.3-6.4-4.3
			c0,0-0.1,0-0.1,0c-14.8,0.2-28.8,2.9-39.8,8.6h-1.2C90,54.1,75.6,51.6,60.3,51.6C60.3,51.6,60.3,51.6,60.3,51.6z"/>
		<path class="st8" d="M143.9,120.6l-42.7,2.2l-42.8-2.2l-4.7,8.2h94.9L143.9,120.6z"/>
		<path class="st6" d="M101.1,124.6c-0.3,0-0.5-0.1-0.7-0.3c-0.3-0.2-0.4-0.5-0.4-0.9V96.6c0-0.6,0.5-1.1,1.1-1.1
			c0.6,0,1.1,0.5,1.1,1.1v25.6c12.9-2,26.1-3,40.7-2.6V53.7c0-0.6,0.5-1.1,1.1-1.1s1.1,0.5,1.1,1.1v67c0,0.3-0.1,0.6-0.3,0.8
			c-0.2,0.2-0.5,0.3-0.8,0.3c-15.2-0.5-29.4,0.6-42.7,2.8C101.3,124.6,101.2,124.6,101.1,124.6L101.1,124.6z"/>
		<path class="st6" d="M101.1,125.1c-0.1,0-0.1,0-0.2,0c-13.3-2.2-27.5-3.3-42.7-2.8c-0.3,0-0.6-0.1-0.8-0.3
			c-0.2-0.2-0.3-0.5-0.3-0.8V53.7c0-0.6,0.5-1.1,1.1-1.1c0.6,0,1.1,0.5,1.1,1.1V120c14.6-0.4,27.8,0.6,40.7,2.7V87.6
			c0-0.6,0.5-1.1,1.1-1.1c0.6,0,1.1,0.5,1.1,1.1V124c0,0.3-0.1,0.6-0.4,0.9C101.6,125,101.4,125.1,101.1,125.1z"/>
		<path class="st6" d="M100,61.6v19.2c0,0.6,0.5,1.1,1.1,1.1c0.6,0,1.1-0.5,1.1-1.1V61.6H100z"/>
		<g>
			<path class="st6" d="M94.3,67.8c-0.1,0-0.2,0-0.3-0.1c-6.3-3.2-11.3-4.8-17.2-5.7c-0.3,0-0.5-0.3-0.5-0.6c0-0.3,0.3-0.5,0.6-0.5
				c6,0.9,11.1,2.6,17.5,5.8c0.3,0.1,0.4,0.5,0.3,0.8C94.8,67.7,94.6,67.8,94.3,67.8z"/>
		</g>
		<g>
			<path class="st6" d="M94.3,117.5c0,0-0.1,0-0.1,0c-10-2.2-16.9-2.2-29.3-2.2c-0.3,0-0.6-0.3-0.6-0.6c0-0.3,0.3-0.6,0.6-0.6
				c12.5,0,19.4,0,29.5,2.3c0.3,0.1,0.5,0.4,0.4,0.7C94.8,117.3,94.6,117.5,94.3,117.5L94.3,117.5z"/>
		</g>
		<g>
			<path class="st6" d="M65,70.1c-0.3,0-0.6-0.3-0.6-0.6v-9c0-0.3,0.3-0.6,0.6-0.6c0,0,3.3,0,8.1,0.5c0.3,0,0.5,0.3,0.5,0.6
				c0,0.3-0.3,0.5-0.6,0.5c-3.6-0.4-6.3-0.5-7.4-0.5v8.5C65.5,69.8,65.3,70.1,65,70.1z"/>
		</g>
		<g>
			<path class="st6" d="M65,101.7c-0.3,0-0.6-0.3-0.6-0.6V74c0-0.3,0.3-0.6,0.6-0.6s0.6,0.3,0.6,0.6v27.1
				C65.5,101.4,65.3,101.7,65,101.7z"/>
		</g>
		<g>
			<path class="st6" d="M65,115.3c-0.3,0-0.6-0.3-0.6-0.6v-6.8c0-0.3,0.3-0.6,0.6-0.6s0.6,0.3,0.6,0.6v6.8
				C65.5,115,65.3,115.3,65,115.3z"/>
		</g>
		<g>
			<path class="st6" d="M107.9,67.8c-0.2,0-0.4-0.1-0.5-0.3c-0.1-0.3,0-0.6,0.3-0.8c6.4-3.2,11.5-4.9,17.5-5.8
				c0.3,0,0.6,0.2,0.6,0.5c0,0.3-0.2,0.6-0.5,0.6c-5.9,0.9-10.8,2.5-17.2,5.7C108.1,67.8,108,67.8,107.9,67.8z"/>
		</g>
		<g>
			<path class="st6" d="M137.3,70.1c-0.3,0-0.6-0.3-0.6-0.6V61c-1.1,0-3.9,0.1-7.4,0.5c-0.3,0-0.6-0.2-0.6-0.5
				c0-0.3,0.2-0.6,0.5-0.6c4.8-0.5,8.1-0.5,8.1-0.5c0.3,0,0.6,0.3,0.6,0.6v9C137.9,69.8,137.6,70.1,137.3,70.1z"/>
		</g>
		<g>
			<path class="st6" d="M137.3,113c-0.3,0-0.6-0.3-0.6-0.6V76.3c0-0.3,0.3-0.6,0.6-0.6c0.3,0,0.6,0.3,0.6,0.6v36.2
				C137.9,112.7,137.6,113,137.3,113z"/>
		</g>
		<g>
			<path class="st9" d="M144.7,157.5c-2.4,0-4.5-1.3-5.6-3.4l-1.3-2.6l11.2-5.8l1.3,2.6c1.6,3.1,0.4,6.9-2.7,8.5
				C146.7,157.3,145.8,157.5,144.7,157.5z"/>
			<path class="st6" d="M148.3,147.8l0.6,1.2c1.2,2.3,0.3,5.2-2,6.4c-0.7,0.4-1.4,0.5-2.2,0.5c-1.8,0-3.4-1-4.2-2.6l-0.6-1.2
				L148.3,147.8 M149.7,143.5l-14.1,7.3l2.1,4c1.4,2.7,4.2,4.3,7,4.3c1.2,0,2.5-0.3,3.6-0.9l0,0c3.9-2,5.4-6.8,3.4-10.7L149.7,143.5
				z"/>

				<rect x="123.4" y="96.5" transform="matrix(0.8885 -0.4588 0.4588 0.8885 -41.5443 73.1106)" class="st10" width="12.7" height="51.1"/>
			<path class="st6" d="M122.9,98.6l22,42.6l-8.4,4.4l-22-42.6L122.9,98.6 M124.3,94.3l-14.1,7.3l24.9,48.2l14.1-7.3L124.3,94.3
				L124.3,94.3z"/>

				<rect x="135" y="140" transform="matrix(0.8885 -0.4588 0.4588 0.8885 -50.6093 80.9829)" class="st11" width="12.7" height="9.3"/>
			<path class="st6" d="M144.2,139.8l2.8,5.4l-8.4,4.4l-2.8-5.4L144.2,139.8 M145.5,135.5l-14.1,7.3l5.7,11l14.1-7.3L145.5,135.5z"
				/>
			<path class="st6" d="M136.4,135.7c-0.2,0-0.4-0.1-0.5-0.3l-3.1-6c-0.1-0.3,0-0.6,0.2-0.8c0.3-0.1,0.6,0,0.8,0.2l3.1,6
				c0.1,0.3,0,0.6-0.2,0.8C136.6,135.6,136.5,135.7,136.4,135.7z"/>
			<path class="st6" d="M131.3,125.6c-0.2,0-0.4-0.1-0.5-0.3l-9.3-18.1c-0.1-0.3,0-0.6,0.2-0.8c0.3-0.1,0.6,0,0.8,0.2l9.3,18.1
				c0.1,0.3,0,0.6-0.2,0.8C131.4,125.6,131.3,125.6,131.3,125.6L131.3,125.6z"/>
			<g>
				<path class="st12" d="M109.2,85.6l1,16l7-3.6l7.1-3.7l-12.5-10.1C110.7,83.3,109.1,84.2,109.2,85.6z"/>
			</g>
			<g>
				<path class="st6" d="M110.2,101.5l-1.1-17.1c0-0.4,0.2-0.9,0.6-1.1c0.4-0.2,0.9-0.2,1.2,0.1l13.3,10.8l-1.4,1.8l-11.3-9.2
					l0.9,14.5L110.2,101.5z"/>
			</g>
			<g>
				<path class="st6" d="M115.6,89.9l-4,2.1l-0.7-7L115.6,89.9z"/>
			</g>
		</g>
	</g>
</g>
</svg>
