<?xml version="1.0" encoding="utf-8"?>
<!-- Generator: Adobe Illustrator 25.4.1, SVG Export Plug-In . SVG Version: 6.00 Build 0)  -->
<svg version="1.1" id="Слой_1" xmlns="http://www.w3.org/2000/svg" xmlns:xlink="http://www.w3.org/1999/xlink" x="0px" y="0px"
	 viewBox="0 0 200 200" style="enable-background:new 0 0 200 200;" xml:space="preserve">
<style type="text/css">
	.st0{fill:#EE3E54;
  animation: circle1 5s linear infinite;}
	.st1{fill:#F1BC19;
  animation: circle2 8s linear infinite;}
	.st2{fill:#FCA2D1;}
	.st3{fill:#FBCD59;
  animation: circle1 6s linear infinite;}
	.st4{fill:#FFFFFF;
  animation: circle2 10s linear infinite;}
	.st5{fill:#E1E0D8;}
	.st6{fill:#CDCBBD;}
	.st7{fill:#FDFCEE;}
	.st8{fill:#EEECD9;}
	.st9{fill:#FDFCEF;}
	.st10{fill:#472B29;}
  @keyframes circle1{
     0%{transform: rotate(0deg) translateX(5px);}
     100%{transform: rotate(360deg) translateX(5px) rotate(-360deg);}
  }
  @keyframes circle2{
     0%{transform: rotate(0deg) translate(5px, 10px);}
     100%{transform: rotate(-360deg)translate(5px, 10px) rotate(360deg);}
    }
</style>
<g>
	<g>
		<path class="st0" d="M16.4,48c-2.5,0-4.5,2-4.5,4.5s2,4.5,4.5,4.5s4.5-2,4.5-4.5S18.9,48,16.4,48z"/>
		<path class="st1" d="M161,14.1c-1.2,0-2.3,1-2.3,2.3s1,2.3,2.3,2.3s2.3-1,2.3-2.3S162.3,14.1,161,14.1z"/>
		<path class="st2" d="M100,16.4c-46.2,0-83.6,37.4-83.6,83.6s37.4,83.6,83.6,83.6s83.6-37.4,83.6-83.6S146.2,16.4,100,16.4z"/>
		<path class="st1" d="M174.6,11.9c-5,0-9,4-9,9s4,9,9,9s9-4,9-9S179.6,11.9,174.6,11.9z"/>
		<path class="st0" d="M183.6,36.7c-2.5,0-4.5,2-4.5,4.5s2,4.5,4.5,4.5c2.5,0,4.5-2,4.5-4.5S186.1,36.7,183.6,36.7z"/>
		<path class="st3" d="M170.1,154.2c-2.5,0-4.5,2-4.5,4.5c0,2.5,2,4.5,4.5,4.5c2.5,0,4.5-2,4.5-4.5
			C174.6,156.3,172.6,154.2,170.1,154.2z M20.9,120.3c-5,0-9,4-9,9s4,9,9,9s9-4,9-9S25.9,120.3,20.9,120.3z"/>
		<path class="st0" d="M43.5,179.1c-2.5,0-4.5,2-4.5,4.5c0,2.5,2,4.5,4.5,4.5s4.5-2,4.5-4.5C48,181.1,46,179.1,43.5,179.1z"/>
		<path class="st4" d="M28.8,102.3c-3.1,0-5.7,2.5-5.7,5.7c0,3.1,2.5,5.7,5.7,5.7s5.7-2.5,5.7-5.7C34.5,104.8,31.9,102.3,28.8,102.3
			z"/>
		<path class="st1" d="M34.5,136.2c-1.2,0-2.3,1-2.3,2.3s1,2.3,2.3,2.3c1.2,0,2.3-1,2.3-2.3S35.7,136.2,34.5,136.2z"/>
		<path class="st4" d="M167.8,61.6c-1.2,0-2.3,1-2.3,2.3s1,2.3,2.3,2.3s2.3-1,2.3-2.3S169,61.6,167.8,61.6z"/>
		<g>
			<path class="st5" d="M100,37.9c-0.6,0-1.3,0.2-1.8,0.5l-53,33.5c-0.7,0.4-0.6,1.1-0.5,1.3c0.1,0.2,0.3,0.9,1.2,0.9h108.4
				c0.8,0,1.1-0.7,1.2-0.9c0.1-0.2,0.2-0.9-0.5-1.3l-53-33.5C101.3,38,100.6,37.9,100,37.9z"/>
			<path class="st6" d="M49.2,74h101.7v6.8H49.2L49.2,74z"/>
			<path class="st7" d="M55.9,80.8h13.6V126H55.9V80.8z M80.8,80.8h13.6V126H80.8V80.8z M105.7,80.8h13.6V126h-13.6L105.7,80.8z
				 M130.5,80.8h13.6V126h-13.6V80.8z"/>
			<path class="st8" d="M53.7,126h18.1v6.8H53.7V126z M78.5,126h18.1v6.8H78.5V126z M103.4,126h18.1v6.8h-18.1V126z M128.2,126h18.1
				v6.8h-18.1V126z"/>
			<path class="st6" d="M47.1,132.8c-0.5,0-1,0.4-1.1,0.9l-3.5,15.8c-0.1,0.5,0.1,0.8,0.2,0.9c0.2,0.3,0.5,0.4,0.9,0.4h113
				c0.4,0,0.7-0.2,0.9-0.4c0.1-0.2,0.3-0.5,0.2-0.9l-3.5-15.8c-0.1-0.5-0.6-0.9-1.1-0.9L47.1,132.8z"/>
			<path class="st9" d="M142.2,72.9L100,46.2L57.8,72.9H142.2z"/>
		</g>
		<g>
			<path class="st10" d="M100,39.9c0.3,0,0.5,0.1,0.7,0.2L151.2,72H48.8l50.5-31.9C99.5,40,99.7,39.9,100,39.9 M100,36.7
				c-0.8,0-1.7,0.2-2.4,0.7l-53,33.5c-2,1.2-1.1,4.2,1.3,4.2h108.4c2.3,0,3.2-3,1.3-4.3l-53-33.5C101.7,37,100.8,36.7,100,36.7
				L100,36.7z"/>
			<path class="st10" d="M150.9,81.9H49.2c-0.6,0-1.1-0.5-1.1-1.1V74c0-0.6,0.5-1.1,1.1-1.1h101.7c0.6,0,1.1,0.5,1.1,1.1v6.8
				C152,81.4,151.5,81.9,150.9,81.9z M50.3,79.7h99.4v-4.5H50.3V79.7z"/>
			<path class="st10" d="M69.5,127.1H55.9c-0.6,0-1.1-0.5-1.1-1.1V80.8c0-0.6,0.5-1.1,1.1-1.1h13.6c0.6,0,1.1,0.5,1.1,1.1V126
				C70.6,126.6,70.1,127.1,69.5,127.1z M57.1,124.9h11.3V81.9H57.1V124.9z M94.3,127.1H80.8c-0.6,0-1.1-0.5-1.1-1.1V80.8
				c0-0.6,0.5-1.1,1.1-1.1h13.6c0.6,0,1.1,0.5,1.1,1.1V126C95.5,126.6,95,127.1,94.3,127.1z M81.9,124.9h11.3V81.9H81.9V124.9z
				 M119.2,127.1h-13.6c-0.6,0-1.1-0.5-1.1-1.1V80.8c0-0.6,0.5-1.1,1.1-1.1h13.6c0.6,0,1.1,0.5,1.1,1.1V126
				C120.3,126.6,119.8,127.1,119.2,127.1z M106.8,124.9h11.3V81.9h-11.3V124.9z M144.1,127.1h-13.6c-0.6,0-1.1-0.5-1.1-1.1V80.8
				c0-0.6,0.5-1.1,1.1-1.1h13.6c0.6,0,1.1,0.5,1.1,1.1V126C145.2,126.6,144.7,127.1,144.1,127.1z M131.6,124.9h11.3V81.9h-11.3
				V124.9z"/>
			<path class="st10" d="M71.8,133.9H53.7c-0.6,0-1.1-0.5-1.1-1.1V126c0-0.6,0.5-1.1,1.1-1.1h18.1c0.6,0,1.1,0.5,1.1,1.1v6.8
				C72.9,133.4,72.4,133.9,71.8,133.9z M54.8,131.6h15.8v-4.5H54.8V131.6z M96.6,133.9H78.5c-0.6,0-1.1-0.5-1.1-1.1V126
				c0-0.6,0.5-1.1,1.1-1.1h18.1c0.6,0,1.1,0.5,1.1,1.1v6.8C97.7,133.4,97.2,133.9,96.6,133.9z M79.7,131.6h15.8v-4.5H79.7V131.6z
				 M121.5,133.9h-18.1c-0.6,0-1.1-0.5-1.1-1.1V126c0-0.6,0.5-1.1,1.1-1.1h18.1c0.6,0,1.1,0.5,1.1,1.1v6.8
				C122.6,133.4,122.1,133.9,121.5,133.9z M104.5,131.6h15.8v-4.5h-15.8V131.6z M146.3,133.9h-18.1c-0.6,0-1.1-0.5-1.1-1.1V126
				c0-0.6,0.5-1.1,1.1-1.1h18.1c0.6,0,1.1,0.5,1.1,1.1v6.8C147.5,133.4,147,133.9,146.3,133.9z M129.4,131.6h15.8v-4.5h-15.8V131.6z
				"/>
			<path class="st10" d="M152.2,134.8l3.1,14H44.6l3.1-14H152.2 M152.9,131.6H47.1c-1.1,0-2,0.7-2.2,1.8l-3.5,15.8
				c-0.3,1.4,0.8,2.8,2.2,2.8h113c1.5,0,2.5-1.3,2.2-2.8l-3.5-15.8C154.9,132.4,154,131.6,152.9,131.6z"/>
			<path class="st10" d="M148.9,142.9h-32.2c-0.5,0-0.8-0.4-0.8-0.8s0.4-0.8,0.8-0.8h32.2c0.5,0,0.8,0.4,0.8,0.8
				S149.3,142.9,148.9,142.9z M101.4,142.9h-2.8c-0.5,0-0.8-0.4-0.8-0.8s0.4-0.8,0.8-0.8h2.8c0.5,0,0.8,0.4,0.8,0.8
				S101.9,142.9,101.4,142.9z M112.7,142.9h-7.3c-0.5,0-0.8-0.4-0.8-0.8s0.4-0.8,0.8-0.8h7.3c0.5,0,0.8,0.4,0.8,0.8
				S113.2,142.9,112.7,142.9z M135.3,68.4c-0.2,0-0.3,0-0.5-0.1L99.5,46c-0.4-0.2-0.5-0.8-0.3-1.2c0.2-0.4,0.8-0.5,1.2-0.3
				l35.3,22.3c0.4,0.2,0.5,0.8,0.3,1.2C135.8,68.2,135.6,68.4,135.3,68.4z M64.7,68.4c-0.3,0-0.6-0.1-0.7-0.4
				c-0.3-0.4-0.1-0.9,0.3-1.2l18.4-11.6c0.4-0.3,0.9-0.1,1.2,0.3c0.3,0.4,0.1,0.9-0.3,1.2L65.2,68.2C65,68.3,64.9,68.4,64.7,68.4z
				 M86.2,54.8c-0.3,0-0.6-0.1-0.7-0.4c-0.3-0.4-0.1-0.9,0.3-1.2l3.9-2.5c0.4-0.2,0.9-0.1,1.2,0.3c0.2,0.4,0.1,0.9-0.3,1.2l-3.9,2.5
				C86.5,54.8,86.3,54.8,86.2,54.8z M93.4,50.3c-0.3,0-0.6-0.1-0.7-0.4c-0.3-0.4-0.1-0.9,0.3-1.2l0.9-0.6c0.4-0.3,0.9-0.1,1.2,0.3
				c0.3,0.4,0.1,0.9-0.3,1.2l-0.9,0.6C93.7,50.2,93.5,50.3,93.4,50.3z"/>
		</g>
	</g>
</g>
</svg>
