<?xml version="1.0" encoding="utf-8"?>
<!-- Generator: Adobe Illustrator 25.4.1, SVG Export Plug-In . SVG Version: 6.00 Build 0)  -->
<svg version="1.1" id="Слой_1" xmlns="http://www.w3.org/2000/svg" xmlns:xlink="http://www.w3.org/1999/xlink" x="0px" y="0px"
	 viewBox="0 0 200 200" style="enable-background:new 0 0 200 200;" xml:space="preserve">
<style type="text/css">
	.st0{fill:#F1BC19;
  animation: circle1 10s linear infinite;}
	.st1{fill:#4D85D7;}
	.st2{fill:#EE3E54;
  animation: circle2 6s linear infinite;}
	.st3{fill:#FBCD59;
  animation: circle1 5s linear infinite;}
	.st4{fill:#FFFFFF;
  animation: circle2 8s linear infinite;}
	.st5{fill:#472B29;}
	.st6{fill:#97AEC7;}
	.st7{fill:#B0C1D4;}
	.st8{fill:#66798F;}
	.st9{fill:#ECAD6F;}
  @keyframes circle1{
     0%{transform: rotate(0deg) translateX(5px);}
     100%{transform: rotate(360deg) translateX(5px) rotate(-360deg);}
  }
  @keyframes circle2{
     0%{transform: rotate(0deg) translate(5px, 10px);}
     100%{transform: rotate(-360deg)translate(5px, 10px) rotate(360deg);}
    }
</style>
<g>
	<g>
		<path class="st0" d="M163.3,16.4c-1.2,0-2.3,1-2.3,2.3c0,1.2,1,2.3,2.3,2.3s2.3-1,2.3-2.3S164.5,16.4,163.3,16.4z"/>
		<path class="st1" d="M100,14.1c-47.4,0-85.9,38.4-85.9,85.9s38.4,85.9,85.9,85.9s85.9-38.4,85.9-85.9S147.4,14.1,100,14.1z"/>
		<path class="st0" d="M176.8,14.1c-5,0-9,4-9,9s4,9,9,9s9-4,9-9S181.8,14.1,176.8,14.1z"/>
		<path class="st2" d="M18.6,41.2c-2.5,0-4.5,2-4.5,4.5s2,4.5,4.5,4.5s4.5-2,4.5-4.5S21.1,41.2,18.6,41.2z"/>
		<path class="st3" d="M163.3,156.5c-2.5,0-4.5,2-4.5,4.5c0,2.5,2,4.5,4.5,4.5c2.5,0,4.5-2,4.5-4.5
			C167.8,158.5,165.8,156.5,163.3,156.5z M25.4,154.2c-5,0-9,4-9,9s4,9,9,9s9-4,9-9S30.4,154.2,25.4,154.2z"/>
		<path class="st2" d="M41.2,170.1c-2.5,0-4.5,2-4.5,4.5c0,2.5,2,4.5,4.5,4.5s4.5-2,4.5-4.5C45.8,172.1,43.7,170.1,41.2,170.1z"/>
		<path class="st4" d="M137.3,158.8c-3.1,0-5.6,2.5-5.6,5.6s2.5,5.6,5.6,5.6c3.1,0,5.6-2.5,5.6-5.6
			C142.9,161.3,140.4,158.8,137.3,158.8L137.3,158.8z M23.2,93.2c-1.2,0-2.3,1-2.3,2.3s1,2.3,2.3,2.3c1.2,0,2.3-1,2.3-2.3
			S24.4,93.2,23.2,93.2z"/>
		<path class="st0" d="M181.4,54.8c-1.2,0-2.3,1-2.3,2.3s1,2.3,2.3,2.3s2.3-1,2.3-2.3S182.6,54.8,181.4,54.8z"/>
		<path class="st4" d="M167.8,131.6c-2.5,0-4.5,2-4.5,4.5c0,2.5,2,4.5,4.5,4.5c2.5,0,4.5-2,4.5-4.5
			C172.3,133.7,170.3,131.6,167.8,131.6z"/>
		<path class="st5" d="M46.2,85.6v51.7h3.2V85.6"/>
		<path class="st6" d="M32.7,83.1l69.6-31.8L172,83.1l-69.6,31.8L32.7,83.1z"/>
		<path class="st5" d="M102.4,53.1l65.8,30.1l-65.8,30.1L36.5,83.1L102.4,53.1 M102.4,49.6L28.9,83.1l73.4,33.5l73.4-33.5
			L102.4,49.6z"/>
		<path class="st7" d="M63.2,119.4V87.6l0.1-0.4c1.7-4.2,17.1-8.8,38.9-8.8s37.2,4.6,38.9,8.8l0.1,0.4v31.8H63.2z"/>
		<path class="st5" d="M102.3,80c22.8,0,36.3,5,37.5,7.8l0,0.1v29.9h-75V87.9l0-0.1C65.9,85,79.4,80,102.3,80 M102.3,76.8
			c-20.9,0-38.2,4.3-40.4,9.8h-0.3V121h81.4V86.6h-0.3C140.4,81.1,123.2,76.8,102.3,76.8z"/>
		<path class="st8" d="M102.3,112.6c-21.6,0-39.1,4.4-39.1,9.9c0,5.4,17.5,9.9,39.1,9.9s39.1-4.4,39.1-9.9S123.9,112.6,102.3,112.6z
			"/>
		<path class="st5" d="M102.3,114.2c24.4,0,37.5,5.9,37.5,8.3s-13.1,8.3-37.5,8.3s-37.5-5.9-37.5-8.3S77.9,114.2,102.3,114.2
			 M102.3,111c-22.5,0-40.7,5.1-40.7,11.4s18.2,11.4,40.7,11.4s40.7-5.1,40.7-11.4S124.7,111,102.3,111z"/>
		<path class="st9" d="M42.3,141.5l-0.9-2c-0.5-1.1-0.8-2.2-0.8-3.3c0-4.1,3.3-7.5,7.5-7.5s7.5,3.3,7.5,7.5c0,1.5-0.5,3-1.3,4.3
			l-0.1,0.1l-6.1,12.4L42.3,141.5z"/>
		<path class="st5" d="M48,130.3c3.2,0,5.9,2.6,5.9,5.9c0,1.2-0.4,2.4-1.1,3.3l-0.1,0.2l-0.1,0.2l-4.7,9.4l-3-6.1H45l-2.2-4.6
			c-0.4-0.8-0.6-1.7-0.6-2.6C42.1,132.9,44.8,130.3,48,130.3 M48,127.1c-5,0-9,4-9,9c0,1.4,0.4,2.8,0.9,4h-0.1l8.1,16.4l7.5-15.2
			c1-1.5,1.6-3.2,1.6-5.2C57.1,131.2,53,127.1,48,127.1z M122.4,108.1c4.2,0.8,8.3,1.9,12.3,3.2c0.6,0.2,1.2-0.1,1.4-0.7
			c0.2-0.6-0.1-1.2-0.7-1.4c-4-1.3-8.2-2.4-12.6-3.2c-0.6-0.1-1.2,0.3-1.3,0.9C121.4,107.4,121.8,108,122.4,108.1L122.4,108.1z
			 M109.9,106.5c2.3,0.2,4.5,0.4,6.7,0.7c0.6,0.1,1.2-0.4,1.3-1s-0.4-1.2-1-1.3c-2.3-0.3-4.6-0.5-6.8-0.7c-0.6,0-1.2,0.4-1.2,1
			C108.8,105.9,109.3,106.4,109.9,106.5L109.9,106.5z M69.8,111.2c10-3.3,21.2-5,32.4-5c0.5,0,1,0,1.6,0c0.6,0,1.1-0.5,1.1-1.1
			c0-0.6-0.5-1.1-1.1-1.1c-0.5,0-1.1,0-1.6,0c-11.4,0-22.8,1.7-33.1,5.1c-0.6,0.2-0.9,0.8-0.7,1.4C68.6,111.1,69.3,111.4,69.8,111.2
			z"/>
	</g>
</g>
</svg>
