<svg version="1.1" xmlns="http://www.w3.org/2000/svg" xmlns:xlink="http://www.w3.org/1999/xlink" viewBox="0 0 226 226"><defs><linearGradient x1="216.58333" y1="141.25" x2="226" y2="141.25" gradientUnits="userSpaceOnUse" id="color-1"><stop offset="0" stop-color="#fcfcfc"></stop><stop offset="0.158" stop-color="#f5f5f5"></stop><stop offset="0.496" stop-color="#ebebeb"></stop><stop offset="0.946" stop-color="#e8e8e8"></stop><stop offset="1" stop-color="#e8e8e8"></stop></linearGradient><linearGradient x1="0" y1="133.75904" x2="14.125" y2="133.75904" gradientUnits="userSpaceOnUse" id="color-2"><stop offset="0" stop-color="#e8e8e8"></stop><stop offset="0.523" stop-color="#f0f0f0"></stop><stop offset="1" stop-color="#fcfcfc"></stop></linearGradient><linearGradient x1="181.53921" y1="129.86525" x2="190.59333" y2="177.09925" gradientUnits="userSpaceOnUse" id="color-3"><stop offset="0" stop-color="#6d7479"></stop><stop offset="1" stop-color="#323538"></stop></linearGradient><linearGradient x1="183.02233" y1="141.08992" x2="188.90304" y2="164.82462" gradientUnits="userSpaceOnUse" id="color-4"><stop offset="0" stop-color="#a1aab3"></stop><stop offset="1" stop-color="#8f979e"></stop></linearGradient><linearGradient x1="40.28921" y1="129.86525" x2="49.34333" y2="177.09925" gradientUnits="userSpaceOnUse" id="color-5"><stop offset="0" stop-color="#6d7479"></stop><stop offset="1" stop-color="#323538"></stop></linearGradient><linearGradient x1="41.77233" y1="141.08992" x2="47.65304" y2="164.82462" gradientUnits="userSpaceOnUse" id="color-6"><stop offset="0" stop-color="#a1aab3"></stop><stop offset="1" stop-color="#8f979e"></stop></linearGradient><linearGradient x1="89.45833" y1="75.33333" x2="152.58296" y2="75.33333" gradientUnits="userSpaceOnUse" id="color-7"><stop offset="0" stop-color="#3079d6"></stop><stop offset="1" stop-color="#297cd2"></stop></linearGradient><linearGradient x1="40.58112" y1="75.57346" x2="80.04167" y2="75.57346" gradientUnits="userSpaceOnUse" id="color-8"><stop offset="0" stop-color="#3079d6"></stop><stop offset="1" stop-color="#297cd2"></stop></linearGradient></defs><g fill="none" fill-rule="nonzero" stroke="none" stroke-width="1" stroke-linecap="butt" stroke-linejoin="miter" stroke-miterlimit="10" stroke-dasharray="" stroke-dashoffset="0" font-family="none" font-weight="none" font-size="none" text-anchor="none" style="mix-blend-mode: normal"><path d="M0,226v-226h226v226z" fill="none"></path><g><path d="M181.27083,155.375c-1.4125,0 -2.35417,-0.94167 -2.35417,-2.35417c0,-3.76667 3.29583,-7.0625 7.0625,-7.0625c1.4125,0 2.35417,0.94167 2.35417,2.35417c0,1.4125 -0.94167,2.35417 -2.35417,2.35417c-1.4125,0 -2.35417,0.94167 -2.35417,2.35417c0,1.4125 -0.94167,2.35417 -2.35417,2.35417z" fill="#ffffff"></path><path d="M216.1125,110.32567c0,0 -4.23279,-20.679 -50.76996,-20.8485c-4.75071,-6.84592 -15.63167,-22.47758 -18.91338,-26.85162c-4.2375,-5.65471 -8.00417,-15.54221 -42.84583,-15.54221c-4.2375,0 -15.5375,0 -20.71667,0c-26.8375,0 -37.66667,9.8875 -43.7875,20.71667c-3.11692,5.537 -10.03346,19.44542 -13.48467,26.43729c-4.58592,0.10358 -8.70571,2.40596 -11.4695,5.65471c-5.65,7.58983 -14.125,21.81371 -14.125,38.88612c0,9.01175 12.24637,13.75304 18.83804,15.6505c0.01883,-0.01413 0.01883,-0.01413 0.03296,-0.03296c4.67067,0.97933 14.04967,0.93696 14.08733,0.97933h117.70833c7.47683,0 54.20233,-1.96338 60.93054,-3.75725c5.71592,-1.53021 9.69446,-6.68112 9.69446,-12.59479v-22.05854c0,-5.21683 -5.17917,-6.63875 -5.17917,-6.63875z" fill="#edbe00"></path><path d="M219.40833,145.95833h3.76667c1.4125,0 2.825,-1.4125 2.825,-2.825v-3.76667c0,-1.4125 -1.4125,-2.825 -2.825,-2.825h-3.76667c-1.4125,0 -2.825,1.4125 -2.825,2.825v3.76667c0,1.4125 1.4125,2.825 2.825,2.825z" fill="url(#color-1)"></path><path d="M8.16896,131.86158l2.90975,-10.31125c0.40963,-1.45488 -0.39079,-2.98038 -1.82212,-3.46533l-4.59533,-1.56317c-1.56787,3.80433 -2.84383,7.99475 -3.6725,12.46296z" fill="#c94f60"></path><path d="M8.475,139.36667l-7.0625,-2.35417c-0.94167,-0.47083 -1.4125,-0.94167 -1.4125,-1.88333v-5.17917c0,-1.4125 1.4125,-2.35417 2.825,-1.88333l8.475,2.825c1.4125,0.47083 2.825,2.35417 2.825,4.2375c0,2.825 -2.825,5.17917 -5.65,4.2375z" fill="url(#color-2)"></path><path d="M223.64583,131.83333h-2.35417c0,0 -2.35417,-1.4125 -2.35417,-7.0625c0,-5.65 2.35417,-7.0625 2.35417,-7.0625h2.35417c1.4125,0 2.35417,0.94167 2.35417,2.35417v9.41667c0,1.4125 -0.94167,2.35417 -2.35417,2.35417z" fill="#fad500"></path><path d="M216.31967,149.20237c-1.88333,-15.09492 -14.73238,-26.78571 -30.3405,-26.78571c-16.90292,0 -30.60417,13.70125 -30.60417,30.60417c0,0.79571 0.06121,1.57258 0.11771,2.35417h9.53437c-0.08475,-0.78158 -0.23542,-1.54904 -0.23542,-2.35417c0,-11.70021 9.48729,-21.1875 21.1875,-21.1875c11.60133,0 20.99446,9.32721 21.15925,20.89087c1.54433,-0.36725 3.07454,-0.7345 4.45879,-1.10646c1.77504,-0.47554 3.35233,-1.33246 4.72246,-2.41537z" fill="#fad500"></path><path d="M207.16667,153.02083c0,11.77083 -9.41667,21.1875 -21.1875,21.1875c-11.77083,0 -21.1875,-9.41667 -21.1875,-21.1875c0,-11.77083 9.41667,-21.1875 21.1875,-21.1875c11.77083,0 21.1875,9.41667 21.1875,21.1875z" fill="url(#color-3)"></path><path d="M197.75,153.02083c0,6.59167 -5.17917,11.77083 -11.77083,11.77083c-6.59167,0 -11.77083,-5.17917 -11.77083,-11.77083c0,-6.59167 5.17917,-11.77083 11.77083,-11.77083c6.59167,0 11.77083,5.17917 11.77083,11.77083z" fill="url(#color-4)"></path><path d="M75.21562,155.375c0.0565,-0.78158 0.11771,-1.55846 0.11771,-2.35417c0,-17.00179 -13.60237,-30.60417 -30.60417,-30.60417c-16.94529,0 -30.50529,13.51292 -30.59475,30.42996c1.70442,0.65446 3.32879,1.18179 4.70362,1.57729c0.01883,-0.01412 0.01883,-0.01412 0.03296,-0.03296c4.67067,0.98404 14.04967,0.94167 14.08733,0.98404z" fill="#fad500"></path><path d="M65.91667,153.02083c0,11.77083 -9.41667,21.1875 -21.1875,21.1875c-11.77083,0 -21.1875,-9.41667 -21.1875,-21.1875c0,-11.77083 9.41667,-21.1875 21.1875,-21.1875c11.77083,0 21.1875,9.41667 21.1875,21.1875z" fill="url(#color-5)"></path><path d="M56.5,153.02083c0,6.59167 -5.17917,11.77083 -11.77083,11.77083c-6.59167,0 -11.77083,-5.17917 -11.77083,-11.77083c0,-6.59167 5.17917,-11.77083 11.77083,-11.77083c6.59167,0 11.77083,5.17917 11.77083,11.77083z" fill="url(#color-6)"></path><path d="M108.29167,103.58333c-0.87575,0 -13.24925,0 -14.125,0c-2.599,0 -4.70833,2.10933 -4.70833,4.70833c0,2.599 2.10933,4.70833 4.70833,4.70833c0.87575,0 13.24925,0 14.125,0c2.599,0 4.70833,-2.10933 4.70833,-4.70833c0,-2.599 -2.10933,-4.70833 -4.70833,-4.70833z" fill="#fad500"></path><path d="M95.38142,94.16667h52.19188c4.03504,0 6.40804,-4.53413 4.10096,-7.84879c-4.88254,-6.99658 -10.60317,-15.15142 -12.77842,-18.04704c-0.40962,-0.54617 -0.81925,-1.13 -1.243,-1.73737c-2.96625,-4.23279 -7.02012,-10.03346 -34.0695,-10.03346h-8.20192c-3.27229,0 -5.92308,2.65079 -5.92308,5.92308v25.81579c0,3.277 2.65079,5.92779 5.92308,5.92779z" fill="url(#color-7)"></path><path d="M80.04167,62.93158c0,-3.50771 -3.06042,-6.30917 -6.54929,-5.90896c-16.23433,1.87392 -22.42108,8.69629 -26.216,15.41037c-1.20533,2.13758 -3.24404,6.05021 -5.90896,11.29529c-2.41538,4.76954 1.03112,10.43837 6.37979,10.43837h26.37138c3.27229,0 5.92308,-2.65079 5.92308,-5.92308z" fill="url(#color-8)"></path></g></g></svg>