<svg version="1.1" xmlns="http://www.w3.org/2000/svg" xmlns:xlink="http://www.w3.org/1999/xlink" viewBox="0 0 226 226"><g fill="none" fill-rule="nonzero" stroke="none" stroke-width="1" stroke-linecap="butt" stroke-linejoin="miter" stroke-miterlimit="10" stroke-dasharray="" stroke-dashoffset="0" font-family="none" font-weight="none" font-size="none" text-anchor="none" style="mix-blend-mode: normal"><path d="M0,226v-226h226v226z" fill="none"></path><g><path d="M29.38,61.02c-2.49633,0 -4.52,2.02367 -4.52,4.52c0,2.49633 2.02367,4.52 4.52,4.52c2.49633,0 4.52,-2.02367 4.52,-4.52c0,-2.49633 -2.02367,-4.52 -4.52,-4.52z" fill="#ee3e54"></path><path d="M174.02,27.12c-1.24816,0 -2.26,1.01184 -2.26,2.26c0,1.24816 1.01184,2.26 2.26,2.26c1.24816,0 2.26,-1.01184 2.26,-2.26c0,-1.24816 -1.01184,-2.26 -2.26,-2.26z" fill="#f1bc19"></path><path d="M113,29.38c-46.18205,0 -83.62,37.43795 -83.62,83.62c0,46.18205 37.43795,83.62 83.62,83.62c46.18205,0 83.62,-37.43795 83.62,-83.62c0,-46.18205 -37.43795,-83.62 -83.62,-83.62z" fill="#fce0a2"></path><path d="M187.58,24.86c-4.99265,0 -9.04,4.04735 -9.04,9.04c0,4.99265 4.04735,9.04 9.04,9.04c4.99265,0 9.04,-4.04735 9.04,-9.04c0,-4.99265 -4.04735,-9.04 -9.04,-9.04z" fill="#f1bc19"></path><path d="M196.62,49.72c-2.49633,0 -4.52,2.02367 -4.52,4.52c0,2.49633 2.02367,4.52 4.52,4.52c2.49633,0 4.52,-2.02367 4.52,-4.52c0,-2.49633 -2.02367,-4.52 -4.52,-4.52z" fill="#ee3e54"></path><path d="M183.06,167.24c-2.49633,0 -4.52,2.02367 -4.52,4.52c0,2.49633 2.02367,4.52 4.52,4.52c2.49633,0 4.52,-2.02367 4.52,-4.52c0,-2.49633 -2.02367,-4.52 -4.52,-4.52zM33.9,133.34c-4.99265,0 -9.04,4.04735 -9.04,9.04c0,4.99265 4.04735,9.04 9.04,9.04c4.99265,0 9.04,-4.04735 9.04,-9.04c0,-4.99265 -4.04735,-9.04 -9.04,-9.04z" fill="#fbcd59"></path><path d="M56.5,192.1c-2.49633,0 -4.52,2.02367 -4.52,4.52c0,2.49633 2.02367,4.52 4.52,4.52c2.49633,0 4.52,-2.02367 4.52,-4.52c0,-2.49633 -2.02367,-4.52 -4.52,-4.52z" fill="#ee3e54"></path><path d="M41.81,115.26c-3.12041,0 -5.65,2.52959 -5.65,5.65c0,3.12041 2.52959,5.65 5.65,5.65c3.12041,0 5.65,-2.52959 5.65,-5.65c0,-3.12041 -2.52959,-5.65 -5.65,-5.65z" fill="#ffffff"></path><path d="M47.46,149.16c-1.24816,0 -2.26,1.01184 -2.26,2.26c0,1.24816 1.01184,2.26 2.26,2.26c1.24816,0 2.26,-1.01184 2.26,-2.26c0,-1.24816 -1.01184,-2.26 -2.26,-2.26z" fill="#f1bc19"></path><path d="M180.8,74.58c-1.24816,0 -2.26,1.01184 -2.26,2.26c0,1.24816 1.01184,2.26 2.26,2.26c1.24816,0 2.26,-1.01184 2.26,-2.26c0,-1.24816 -1.01184,-2.26 -2.26,-2.26z" fill="#ffffff"></path><g><path d="M67.122,158.878v-19.436h8.136v11.3h75.484v-11.3h8.136v19.436z" fill="#67ba8c"></path><path d="M157.296,141.024v8.136v8.136h-8.136h-72.32h-8.136v-8.136v-8.136h4.972v8.136v3.164h3.164h72.32h3.164v-3.164v-8.136h4.972M160.46,137.86h-11.3v11.3h-72.32v-11.3h-11.3v11.3v11.3h11.3h72.32h11.3v-11.3v-11.3z" fill="#472b29"></path></g><g><path d="M85.69016,108.29694l7.35178,-7.35178l14.76006,14.76232v-59.88548h10.396v59.9126l14.78944,-14.78944l7.34952,7.35178l-27.31888,27.32566z" fill="#67ba8c"></path><path d="M116.616,57.404v54.50894v7.6388l5.4014,-5.4014l10.96778,-10.96778l5.11438,5.11438l-17.73422,17.73422l-2.23514,2.23966v0l-5.11664,5.11664l-5.10986,-5.10986l0.00226,-0.00226l-2.24418,-2.24418l-17.73422,-17.73422l5.11438,-5.11438l10.94292,10.94292l5.4014,5.4014v-7.6388v-54.48408h7.22974M119.78,54.24h-13.56v57.64582l-13.17806,-13.18032l-9.58918,9.58918l19.97162,19.97162l-0.00226,0.00226l9.58692,9.59144l0.00452,-0.00226l0.00226,0.00226l9.58918,-9.58918l-0.00226,-0.00226l19.97162,-19.97162l-9.58918,-9.58918l-13.20518,13.20518v-57.67294z" fill="#472b29"></path></g><g fill="#472b29"><path d="M123.17,144.64h-40.68c-0.62376,0 -1.13,-0.50624 -1.13,-1.13c0,-0.62376 0.50624,-1.13 1.13,-1.13h40.68c0.62376,0 1.13,0.50624 1.13,1.13c0,0.62376 -0.50624,1.13 -1.13,1.13z"></path></g><g fill="#472b29"><path d="M129.95,144.64h-2.26c-0.62376,0 -1.13,-0.50624 -1.13,-1.13c0,-0.62376 0.50624,-1.13 1.13,-1.13h2.26c0.62376,0 1.13,0.50624 1.13,1.13c0,0.62376 -0.50624,1.13 -1.13,1.13z"></path></g><g fill="#472b29"><path d="M143.51,144.64h-9.04c-0.62376,0 -1.13,-0.50624 -1.13,-1.13c0,-0.62376 0.50624,-1.13 1.13,-1.13h9.04c0.62376,0 1.13,0.50624 1.13,1.13c0,0.62376 -0.50624,1.13 -1.13,1.13z"></path></g></g></g></svg>