<?xml version="1.0" encoding="utf-8"?>
<!-- Generator: Adobe Illustrator 25.4.1, SVG Export Plug-In . SVG Version: 6.00 Build 0)  -->
<svg version="1.1" id="Слой_1" xmlns="http://www.w3.org/2000/svg" xmlns:xlink="http://www.w3.org/1999/xlink" x="0px" y="0px"
	 viewBox="0 0 572.4 403" style="enable-background:new 0 0 572.4 403;" xml:space="preserve">
<style type="text/css">
	.st0{fill:#E1EDFF;}
	.st1{fill:#FFE96D;}
	.st2{fill:#878787;}
</style>
<g id="background">
	<g>
		<path class="st0" d="M524.9,290.8c-18.9,30.9-55.9,18.3-87.2,15.5c-61.4-5.4-103,76.1-167.4,34c-71.3-46.6-71.7-131.4-0.8-164
			C468,85.2,542,262.7,524.9,290.8z"/>
		<path class="st1" d="M166.6,53.4c-47.3,37.6-98,14-133.1,34.3C-0.9,107.7-2,149.2,39.6,189c47.2,45.2,38.8,88.5,68.6,130.8
			c12.5,17.8,47.2,32.4,68.4,15.7c27.8-22,18.4-64,30-104.2c10.4-36.1,42.5-76.7,57.6-107.8C279,93.1,300.9,64,282.7,29.9
			C270.7,7.3,237.5-3,166.6,53.4z"/>
	</g>
</g>
<g>
	<g>
		<path class="st2" d="M182.9,319.3c1.9,8.3,4.6,16.4,8.2,24.2c3.8,8.2,6.7,12.9,13.2,23.1c1.8,2.8,4.6,7,6.7,9.8"/>
		<path class="st2" d="M210.2,377c-2.1-2.8-4.8-6.9-6.7-9.9c-6.4-10-9.3-14.8-13.3-23.2c-3.5-7.7-6.3-15.9-8.3-24.4l1.9-0.4
			c1.9,8.4,4.7,16.5,8.1,24c3.7,8,6.4,12.4,13.1,23c1.9,2.9,4.6,7,6.7,9.7L210.2,377z"/>
	</g>
	<g>
		<path class="st2" d="M202.1,388.6c-2.3,0-4.6-0.9-7.1-3c-4.5-3.7-9.5-10-13.5-16.8c-4.9-8.5-8.5-15.9-11.5-23.8
			c-2.1-5.4-4.4-13.6-4.7-20.7c-0.3-6,6.3-7,11.6-7.8c0.6-0.1,1.2-0.2,1.8-0.3c1.2-0.2,2.5,0.2,3.6,1.1c1,0.8,1.6,2,1.7,3.1
			c0.7,0.1,2.9,0.4,4.5-0.4c6.9-3.4,7.5-10.7,8.1-19.2c0.2-2.6,0.4-5.2,0.8-7.9l0.2-1.3c0.6-4.1,1.1-7.6,0.9-12.7
			c-0.3-6.5-1.9-9-5.1-13.9l-0.7-1.1c-3.9-6.1-7.6-13.7-1.4-18.4c5-3.8,13.8,0,18.2,3.7c4.3,3.7,7.3,6.7,9.3,9.2
			c2.1,2.6,4,10.7,5.5,17.3c0.6,2.4,1,4.5,1.4,5.8c0.5,1.7,1.3,2.8,2.3,3.2c1.9,0.8,4.6-0.2,8.2-2.1c3.4-1.7,6.8-3.8,10.5-5.9
			c8.8-5.2,17.9-10.6,27.2-12.1c4.8-0.8,8.7,1.3,10.7,5.6c2.1,4.7,1.3,10.6-1.9,13.7c4.3,0.5,7.7,3.7,8.8,8.6c1,4.2,0.1,9.5-4,12.2
			c3.7,1.1,6.7,4.7,7.4,9.2c0.7,4.1-0.8,7.7-3.8,9.7c3.2,1.1,5.2,3.1,5.6,5.8c0.8,4.1-2.2,9.2-7.8,13.6
			c-5.3,4.1-22.4,15.3-41.1,23.5c-6,2.6-12.3,5.2-18.3,5.2c0,0,0,0-0.1,0c-1.8,0-3.5-0.5-5-1c-1.9-0.6-3.7-1.2-5.7-0.8
			c-2.8,0.5-7.6,3.6-8.2,4.4c1.1,1.2,2.8,4.5,2.9,6.3c0.2,3.3-1.5,4.2-4,5.6C206.8,387.7,204.4,388.6,202.1,388.6z M179.3,316.8
			c-0.2,0-0.3,0-0.5,0c-0.6,0.1-1.2,0.2-1.9,0.3c-5.3,0.8-11.3,1.7-11,7.1c0.3,5.8,2.1,13.8,4.6,20.5c3,7.9,6.6,15.3,11.5,23.7
			c3.9,6.8,8.9,13,13.3,16.7c4.9,4.1,8.7,3.3,13.6,0.6c2.5-1.4,3.9-2.2,3.7-5.1c-0.1-1.7-1.9-5-2.9-6c-0.1-0.1-0.1-0.3-0.1-0.4
			c0.3-1.1,5.9-4.3,8.7-4.9c2.2-0.4,4.1,0.2,6,0.8c1.6,0.5,3.2,1,4.9,1c5.8,0,12.1-2.6,18-5.2c18.6-8.2,35.6-19.3,40.9-23.5
			c5.5-4.2,8.3-9.1,7.6-13c-0.5-2.6-2.5-4.5-5.9-5.5l-0.7-0.2l0.6-0.3c3.2-1.8,4.8-5.3,4.1-9.4c-0.7-4.5-3.8-8.1-7.6-8.9l-0.8-0.2
			l0.7-0.4c4.4-2.4,5.3-7.7,4.3-11.9c-0.9-3.8-3.7-8-9-8.1h-0.8l0.6-0.5c3.4-2.9,4.5-8.8,2.3-13.5c-1.9-4.1-5.5-6-10-5.3
			c-9.3,1.5-18.3,6.8-27,12c-3.6,2.2-7.1,4.2-10.5,5.9c-3.7,1.9-6.6,3-8.7,2.1c-1.2-0.5-2.1-1.7-2.7-3.6c-0.4-1.4-0.9-3.4-1.4-5.9
			c-1.4-6.1-3.4-14.5-5.4-17s-5-5.5-9.2-9.1c-3.6-3.1-12.5-7.4-17.4-3.7c-5.8,4.3-2.2,11.7,1.6,17.5l0.7,1.1
			c3.1,4.9,4.9,7.6,5.2,14.2c0.2,5.2-0.3,8.7-0.9,12.9l-0.2,1.3c-0.4,2.7-0.6,5.3-0.8,7.9c-0.7,8.7-1.2,16.1-8.4,19.7
			c-2.2,1.1-5.2,0.5-5.3,0.4l-0.1-0.1v-0.2c0-1-0.5-2.1-1.4-2.9C181.1,317.2,180.1,316.8,179.3,316.8z"/>
		<path class="st2" d="M202.1,389.6c-2.6,0-5.2-1.1-7.7-3.2c-4.5-3.7-9.6-10.1-13.7-17.1c-5-8.7-8.6-16.1-11.6-24
			c-2.1-5.4-4.5-13.8-4.8-21c-0.3-6.9,7.1-8,12.4-8.8l1.8-0.3c1.5-0.2,3.1,0.2,4.4,1.3c0.9,0.8,1.6,1.8,1.9,3c1.4,0.1,2.4,0,3.2-0.4
			c6.5-3.2,7-10.2,7.5-18.4c0.2-2.6,0.4-5.2,0.8-8l0.2-1.3c0.6-4,1.1-7.4,0.9-12.5c-0.3-6.3-1.8-8.7-4.9-13.4l-0.7-1.1
			c-4.1-6.5-8-14.5-1.2-19.7c5.4-4.1,14.6-0.3,19.4,3.7c4.2,3.7,7.3,6.7,9.4,9.3c2.1,2.7,3.9,9.9,5.7,17.7c0.2,1,0.5,2,0.7,2.8
			c0.3,1.2,0.5,2.2,0.7,2.9c0.4,1.4,1,2.3,1.7,2.6c1.7,0.7,4.7-0.6,7.4-2.1c2.4-1.2,4.7-2.5,7.2-4c1.1-0.6,2.2-1.3,3.3-1.9l0.1-0.1
			c8.8-5.2,18-10.6,27.4-12.1c5.2-0.9,9.6,1.4,11.8,6.2c2,4.5,1.5,9.9-1,13.5c3.9,1.1,6.9,4.5,7.9,9c0.9,3.9,0.3,9-3,12.1
			c3.3,1.7,5.8,5.2,6.4,9.3c0.6,3.8-0.4,7.2-2.9,9.6c2.6,1.3,4.3,3.4,4.7,5.9c0.9,4.4-2.2,9.8-8.2,14.5
			c-5.4,4.2-22.5,15.4-41.3,23.6c-6.4,2.8-12.7,5.3-18.7,5.3h-0.1c-1.9,0-3.7-0.5-5.3-1.1h-0.1c-1.8-0.6-3.3-1.1-5-0.7
			c-2.1,0.4-5.6,2.5-7,3.5c1.1,1.6,2.4,4.3,2.5,6.1c0.2,3.9-1.9,5.1-4.4,6.5l-0.1,0.1C206.9,388.8,204.4,389.6,202.1,389.6z
			 M178.9,317.8c-0.6,0.1-1.2,0.2-1.8,0.3c-6.1,0.9-10.4,1.9-10.1,6.1c0.3,5.7,2.1,13.6,4.5,20.2c3,7.8,6.5,15.1,11.4,23.5
			c3.8,6.6,8.7,12.7,13.1,16.4c4.5,3.7,7.8,3.1,12.5,0.5c2.6-1.5,3.3-2,3.2-4.2c-0.1-1.4-1.8-4.5-2.6-5.4c-0.4-0.4-0.4-0.9-0.4-1.1
			v-0.3c0.5-1.8,6.9-5.1,9.5-5.6c2.5-0.4,4.5,0.2,6.5,0.8c1.6,0.5,3.1,1,4.6,1c5.5,0,11.7-2.5,17.6-5.1
			c18.9-8.3,35.8-19.5,40.7-23.4c5.1-3.9,7.9-8.5,7.2-12c-0.4-2.2-2.2-3.8-5.2-4.7l-3.2-0.9l2.9-1.5c2.8-1.6,4.2-4.7,3.6-8.3
			c-0.6-4.1-3.4-7.4-6.8-8.1l-3.3-0.8l2.9-1.6c3.9-2.1,4.7-7,3.8-10.8c-0.8-3.5-3.4-7.2-8-7.3H278l2.7-2.3c3.1-2.7,4-8.1,2-12.3
			c-1.7-3.7-4.9-5.4-8.9-4.7c-9.3,1.5-18.5,7-26.6,11.9c-4,2.4-7.4,4.4-10.6,5.9c-4.1,2.1-7.1,3.2-9.5,2.1c-1.5-0.6-2.6-2-3.3-4.2
			c-0.3-1.2-0.9-3.2-1.4-6c-1-4.6-3.2-14.1-5.2-16.6s-5.1-5.5-9.1-9c-3.3-2.9-11.7-7-16.1-3.7c-4,3-3.4,8.1,1.8,16.2l0.9,1.4
			c3,4.8,4.8,7.6,5.1,14.4c0.2,5.3-0.3,8.9-0.9,13.1l-0.2,1.3c-0.4,2.7-0.6,5.3-0.8,7.8v0.4c-0.7,8.8-1.3,16.4-8.9,20.2
			c-2.3,1.2-5.9,0.8-6.5,0.2l-0.4-0.4v-0.6c0-0.7-0.4-1.6-1.1-2.2c-0.3-0.3-1.1-0.6-1.6-0.6L178.9,317.8L178.9,317.8z"/>
	</g>
</g>
</svg>
