<?xml version="1.0" encoding="utf-8"?>
<!-- Generator: Adobe Illustrator 25.4.1, SVG Export Plug-In . SVG Version: 6.00 Build 0)  -->
<svg version="1.1" id="Слой_1" xmlns="http://www.w3.org/2000/svg" xmlns:xlink="http://www.w3.org/1999/xlink" x="0px" y="0px"
	 viewBox="0 0 1366 636" style="enable-background:new 0 0 1366 636;" xml:space="preserve">
<style type="text/css">
	.st0{fill:#4D85D7;}
</style>
<g>
	<rect x="189" y="166" class="st0" width="24.1" height="3.7"/>
</g>
<g>
	<rect x="224.3" y="166" class="st0" width="24.1" height="3.7"/>
</g>
<g>
	<rect x="259.7" y="166" class="st0" width="24.1" height="3.7"/>
</g>
<g>
	<rect x="295" y="166" class="st0" width="24.1" height="3.7"/>
</g>
<g>
	<rect x="330.3" y="166" class="st0" width="24.1" height="3.7"/>
</g>
<g>
	<rect x="176.8" y="34.2" class="st0" width="3.7" height="24.1"/>
</g>
<g>
	<rect x="176.8" y="69.5" class="st0" width="3.7" height="24.1"/>
</g>
<g>
	<rect x="176.8" y="104.8" class="st0" width="3.7" height="24.1"/>
</g>
<g>
	<rect x="176.8" y="140.2" class="st0" width="3.7" height="24.1"/>
</g>
<g>
	<rect x="1249.8" y="398.2" class="st0" width="3.7" height="24.1"/>
</g>
<g>
	<rect x="1249.8" y="433.5" class="st0" width="3.7" height="24.1"/>
</g>
<g>
	<rect x="1249.8" y="468.8" class="st0" width="3.7" height="24.1"/>
</g>
<g>
	<rect x="1249.8" y="504.2" class="st0" width="3.7" height="24.1"/>
</g>
<g>
	<rect x="365.7" y="166" class="st0" width="24.1" height="3.7"/>
</g>
<g>
	<rect x="401" y="166" class="st0" width="24.1" height="3.7"/>
</g>
<g>
	<rect x="436.3" y="166" class="st0" width="24.1" height="3.7"/>
</g>
<g>
	<rect x="436" y="166" class="st0" width="24.1" height="3.7"/>
</g>
<g>
	<rect x="471.3" y="166" class="st0" width="24.1" height="3.7"/>
</g>
<g>
	<rect x="506.7" y="166" class="st0" width="24.1" height="3.7"/>
</g>
<g>
	<rect x="542" y="166" class="st0" width="24.1" height="3.7"/>
</g>
<g>
	<rect x="577.3" y="166" class="st0" width="24.1" height="3.7"/>
</g>
<g>
	<rect x="612.7" y="166" class="st0" width="24.1" height="3.7"/>
</g>
<g>
	<rect x="648" y="166" class="st0" width="24.1" height="3.7"/>
</g>
<g>
	<rect x="683.3" y="166" class="st0" width="24.1" height="3.7"/>
</g>
<g>
	<rect x="719" y="166" class="st0" width="24.1" height="3.7"/>
</g>
<g>
	<rect x="754.3" y="166" class="st0" width="24.1" height="3.7"/>
</g>
<g>
	<rect x="789.7" y="166" class="st0" width="24.1" height="3.7"/>
</g>
<g>
	<rect x="825" y="166" class="st0" width="24.1" height="3.7"/>
</g>
<g>
	<rect x="860.3" y="166" class="st0" width="24.1" height="3.7"/>
</g>
<g>
	<rect x="895.7" y="166" class="st0" width="24.1" height="3.7"/>
</g>
<g>
	<rect x="931" y="166" class="st0" width="24.1" height="3.7"/>
</g>
<g>
	<rect x="966.3" y="166" class="st0" width="24.1" height="3.7"/>
</g>
<g>
	<rect x="966" y="166" class="st0" width="24.1" height="3.7"/>
</g>
<g>
	<rect x="1001.3" y="166" class="st0" width="24.1" height="3.7"/>
</g>
<g>
	<rect x="1036.7" y="166" class="st0" width="24.1" height="3.7"/>
</g>
<g>
	<rect x="1072" y="166" class="st0" width="24.1" height="3.7"/>
</g>
<g>
	<rect x="1107.3" y="166" class="st0" width="24.1" height="3.7"/>
</g>
<g>
	<rect x="1142.7" y="166" class="st0" width="24.1" height="3.7"/>
</g>
<g>
	<rect x="1178" y="166" class="st0" width="24.1" height="3.7"/>
</g>
<g>
	<rect x="1213.3" y="166" class="st0" width="24.1" height="3.7"/>
</g>
<g>
	<rect x="201" y="276" class="st0" width="24.1" height="3.7"/>
</g>
<g>
	<rect x="236.3" y="276" class="st0" width="24.1" height="3.7"/>
</g>
<g>
	<rect x="271.7" y="276" class="st0" width="24.1" height="3.7"/>
</g>
<g>
	<rect x="307" y="276" class="st0" width="24.1" height="3.7"/>
</g>
<g>
	<rect x="342.3" y="276" class="st0" width="24.1" height="3.7"/>
</g>
<g>
	<rect x="377.7" y="276" class="st0" width="24.1" height="3.7"/>
</g>
<g>
	<rect x="413" y="276" class="st0" width="24.1" height="3.7"/>
</g>
<g>
	<rect x="448.3" y="276" class="st0" width="24.1" height="3.7"/>
</g>
<g>
	<rect x="448" y="276" class="st0" width="24.1" height="3.7"/>
</g>
<g>
	<rect x="483.3" y="276" class="st0" width="24.1" height="3.7"/>
</g>
<g>
	<rect x="518.7" y="276" class="st0" width="24.1" height="3.7"/>
</g>
<g>
	<rect x="554" y="276" class="st0" width="24.1" height="3.7"/>
</g>
<g>
	<rect x="589.3" y="276" class="st0" width="24.1" height="3.7"/>
</g>
<g>
	<rect x="624.7" y="276" class="st0" width="24.1" height="3.7"/>
</g>
<g>
	<rect x="660" y="276" class="st0" width="24.1" height="3.7"/>
</g>
<g>
	<rect x="695.3" y="276" class="st0" width="24.1" height="3.7"/>
</g>
<g>
	<rect x="731" y="276" class="st0" width="24.1" height="3.7"/>
</g>
<g>
	<rect x="766.3" y="276" class="st0" width="24.1" height="3.7"/>
</g>
<g>
	<rect x="801.7" y="276" class="st0" width="24.1" height="3.7"/>
</g>
<g>
	<rect x="837" y="276" class="st0" width="24.1" height="3.7"/>
</g>
<g>
	<rect x="872.3" y="276" class="st0" width="24.1" height="3.7"/>
</g>
<g>
	<rect x="907.7" y="276" class="st0" width="24.1" height="3.7"/>
</g>
<g>
	<rect x="943" y="276" class="st0" width="24.1" height="3.7"/>
</g>
<g>
	<rect x="978.3" y="276" class="st0" width="24.1" height="3.7"/>
</g>
<g>
	<rect x="978" y="276" class="st0" width="24.1" height="3.7"/>
</g>
<g>
	<rect x="1013.3" y="276" class="st0" width="24.1" height="3.7"/>
</g>
<g>
	<rect x="1048.7" y="276" class="st0" width="24.1" height="3.7"/>
</g>
<g>
	<rect x="1084" y="276" class="st0" width="24.1" height="3.7"/>
</g>
<g>
	<rect x="1119.3" y="276" class="st0" width="24.1" height="3.7"/>
</g>
<g>
	<rect x="1154.7" y="276" class="st0" width="24.1" height="3.7"/>
</g>
<g>
	<rect x="1190" y="276" class="st0" width="24.1" height="3.7"/>
</g>
<g>
	<rect x="1225.3" y="276" class="st0" width="24.1" height="3.7"/>
</g>
<g>
	<rect x="195" y="386" class="st0" width="24.1" height="3.7"/>
</g>
<g>
	<rect x="230.3" y="386" class="st0" width="24.1" height="3.7"/>
</g>
<g>
	<rect x="265.7" y="386" class="st0" width="24.1" height="3.7"/>
</g>
<g>
	<rect x="301" y="386" class="st0" width="24.1" height="3.7"/>
</g>
<g>
	<rect x="336.3" y="386" class="st0" width="24.1" height="3.7"/>
</g>
<g>
	<rect x="371.7" y="386" class="st0" width="24.1" height="3.7"/>
</g>
<g>
	<rect x="407" y="386" class="st0" width="24.1" height="3.7"/>
</g>
<g>
	<rect x="442.3" y="386" class="st0" width="24.1" height="3.7"/>
</g>
<g>
	<rect x="442" y="386" class="st0" width="24.1" height="3.7"/>
</g>
<g>
	<rect x="477.3" y="386" class="st0" width="24.1" height="3.7"/>
</g>
<g>
	<rect x="512.7" y="386" class="st0" width="24.1" height="3.7"/>
</g>
<g>
	<rect x="548" y="386" class="st0" width="24.1" height="3.7"/>
</g>
<g>
	<rect x="583.3" y="386" class="st0" width="24.1" height="3.7"/>
</g>
<g>
	<rect x="618.7" y="386" class="st0" width="24.1" height="3.7"/>
</g>
<g>
	<rect x="654" y="386" class="st0" width="24.1" height="3.7"/>
</g>
<g>
	<rect x="689.3" y="386" class="st0" width="24.1" height="3.7"/>
</g>
<g>
	<rect x="725" y="386" class="st0" width="24.1" height="3.7"/>
</g>
<g>
	<rect x="760.3" y="386" class="st0" width="24.1" height="3.7"/>
</g>
<g>
	<rect x="795.7" y="386" class="st0" width="24.1" height="3.7"/>
</g>
<g>
	<rect x="831" y="386" class="st0" width="24.1" height="3.7"/>
</g>
<g>
	<rect x="866.3" y="386" class="st0" width="24.1" height="3.7"/>
</g>
<g>
	<rect x="901.7" y="386" class="st0" width="24.1" height="3.7"/>
</g>
<g>
	<rect x="937" y="386" class="st0" width="24.1" height="3.7"/>
</g>
<g>
	<rect x="972.3" y="386" class="st0" width="24.1" height="3.7"/>
</g>
<g>
	<rect x="972" y="386" class="st0" width="24.1" height="3.7"/>
</g>
<g>
	<rect x="1007.3" y="386" class="st0" width="24.1" height="3.7"/>
</g>
<g>
	<rect x="1042.7" y="386" class="st0" width="24.1" height="3.7"/>
</g>
<g>
	<rect x="1078" y="386" class="st0" width="24.1" height="3.7"/>
</g>
<g>
	<rect x="1113.3" y="386" class="st0" width="24.1" height="3.7"/>
</g>
<g>
	<rect x="1148.7" y="386" class="st0" width="24.1" height="3.7"/>
</g>
<g>
	<rect x="1184" y="386" class="st0" width="24.1" height="3.7"/>
</g>
<g>
	<rect x="1219.3" y="386" class="st0" width="24.1" height="3.7"/>
</g>
<g>
	<rect x="1248.2" y="241.2" class="st0" width="3.7" height="24.1"/>
</g>
<g>
	<rect x="1248.2" y="205.8" class="st0" width="3.7" height="24.1"/>
</g>
<g>
	<rect x="1248.2" y="170.5" class="st0" width="3.7" height="24.1"/>
</g>
<g>
	<rect x="187.2" y="350.2" class="st0" width="3.7" height="24.1"/>
</g>
<g>
	<rect x="187.2" y="314.8" class="st0" width="3.7" height="24.1"/>
</g>
<g>
	<rect x="187.2" y="279.5" class="st0" width="3.7" height="24.1"/>
</g>
</svg>
