<?xml version="1.0" encoding="utf-8"?>
<!-- Generator: Adobe Illustrator 25.4.1, SVG Export Plug-In . SVG Version: 6.00 Build 0)  -->
<svg version="1.1" id="Слой_1" xmlns="http://www.w3.org/2000/svg" xmlns:xlink="http://www.w3.org/1999/xlink" x="0px" y="0px"
	 viewBox="0 0 784 197.2" style="enable-background:new 0 0 784 197.2;" xml:space="preserve">
<style type="text/css">
	.st0{fill:#FFD803;}
	.st1{fill:url(#SVGID_1_);}
	.st2{fill:url(#SVGID_00000144332218366066872070000009489706103171358864_);}
	.st3{fill:#083372;}
</style>
<g id="Слой_2_1_">
	<path class="st0" d="M70,20.5c-35.4,0-64.1,28.8-64.1,64.2c0,20.2,9.6,39.2,25.8,51.3c6.3-11.9,19.6-17.8,30.8-24.8
		c-14.7-4.2-23.2-19.5-19-34.1S63,54,77.6,58.1c11.9,3.4,20.1,14.2,20.1,26.6c0,0.3,0,0.7,0,1l0,0V123c0,22.5,11.1,40.6,29.7,53.3
		l6.8,4.7V85.2C134.2,49.9,105.3,20.5,70,20.5z"/>
	
		<linearGradient id="SVGID_1_" gradientUnits="userSpaceOnUse" x1="3.0214" y1="944.2718" x2="163.6632" y2="1069.2612" gradientTransform="matrix(1 0 0 1 0 -902.2222)">
		<stop  offset="0.136" style="stop-color:#FFD803"/>
		<stop  offset="0.8823" style="stop-color:#083372"/>
	</linearGradient>
	<path class="st1" d="M96.6,110.4c-23.1-0.1-25.1,1.4-40.2-1.6c-11.9-2.3-28.3-17.5-25.7-42.5c4-38.9,36.9-45.8,36.9-45.8
		s-23.5-1.3-43.8,20C11,53.9,5.8,66.9,6,84.7c0.2,20.5,9.6,34.3,15.4,41.8c5.6,6.6,12.5,11.9,20.3,15.7c14.2,9.1,59.6,5.5,101.5,5.5
		h5.7v-37.4h-6.7C131.2,110.7,115.5,110.5,96.6,110.4z"/>
	
		<linearGradient id="SVGID_00000119823090306227333430000001676205831198902157_" gradientUnits="userSpaceOnUse" x1="66.537" y1="112.7899" x2="196.6481" y2="46.0208" gradientTransform="matrix(1 0 0 -1 0 200)">
		<stop  offset="0.136" style="stop-color:#FFD803"/>
		<stop  offset="0.2024" style="stop-color:#CEB719"/>
		<stop  offset="0.2747" style="stop-color:#A0982E"/>
		<stop  offset="0.3519" style="stop-color:#777D40"/>
		<stop  offset="0.4327" style="stop-color:#556650"/>
		<stop  offset="0.5181" style="stop-color:#39535C"/>
		<stop  offset="0.6098" style="stop-color:#234566"/>
		<stop  offset="0.7107" style="stop-color:#143B6D"/>
		<stop  offset="0.8278" style="stop-color:#0B3571"/>
		<stop  offset="1" style="stop-color:#083372"/>
	</linearGradient>
	<polyline style="fill:url(#SVGID_00000119823090306227333430000001676205831198902157_);" points="146.9,99.7 146.9,157.2 
		190.8,128.6 	"/>
</g>
<g>
	<path class="st0" d="M598.8,62.3h-15.1v66.2h-17.5V62.3h-9.7v-8.4l9.7-4.7V30.3c0-7.3,1.8-12.7,5.4-16c3.6-3.3,9.3-5,17.3-5.1
		c5.5-0.1,11,0.8,16.1,2.7l-4.5,12.9c-3.1-1.1-6.4-1.6-9.8-1.7c-2.5,0-4.3,0.7-5.4,2.2c-1.1,1.7-1.7,3.6-1.6,5.7v18.2h15.1V62.3z"/>
	<path class="st3" d="M244.6,102.2l-3.4-8.9h-0.5c-3,3.8-6.1,6.4-9.2,7.8c-3.2,1.5-7.3,2.2-12.4,2.2c-6.3,0-11.2-1.8-14.8-5.4
		s-5.4-8.7-5.4-15.3c0-6.9,2.4-12,7.3-15.3c4.8-3.3,12.1-5.1,21.9-5.5l11.3-0.3v-2.9c0-6.6-3.4-9.9-10.2-9.9
		c-5.2,0-11.3,1.6-18.4,4.7l-5.9-12c7.5-3.9,15.8-5.9,25-5.9c8.8,0,15.5,1.9,20.1,5.7c4.7,3.8,7,9.6,7,17.4v43.5h-12.4V102.2z
		 M239.3,72l-6.9,0.2c-5.2,0.2-9,1.1-11.6,2.8c-2.5,1.7-3.8,4.3-3.8,7.8c0,5,2.9,7.5,8.6,7.5c4.1,0,7.4-1.2,9.9-3.6s3.7-5.5,3.7-9.5
		V72H239.3z M342.6,102.2h-17.8V64.1c0-4.7-0.8-8.2-2.5-10.6c-1.7-2.4-4.3-3.5-8-3.5c-5,0-8.6,1.7-10.8,5c-2.2,3.3-3.3,8.8-3.3,16.5
		v30.7h-17.8V37H296l2.4,8.3h1c2-3.2,4.7-5.5,8.2-7.1s7.4-2.4,11.9-2.4c7.6,0,13.3,2.1,17.3,6.2c3.9,4.1,5.9,10,5.9,17.8
		L342.6,102.2L342.6,102.2z M424.9,102.3c0,9.4-2.7,16.5-8.2,21.3s-13.6,7.3-24.4,7.3c-9.5,0-17.7-1.3-24.4-3.9v-14.2
		c7.9,3.3,16.4,5,25.4,5c9.1,0,13.7-4.9,13.7-14.8v-1.3l0.5-8H407c-4.2,6.4-10.3,9.6-18.5,9.6c-7.8,0-13.9-3-18.2-9
		c-4.3-6-6.4-14.2-6.4-24.6c0-10.7,2.2-19,6.7-25s10.6-9,18.4-9c8,0,14.3,3.2,18.9,9.6h0.5l1.5-8.3H425v65.3H424.9z M395,89.4
		c4.8,0,8.2-1.4,10.3-4.1c2.1-2.7,3.1-7.2,3.1-13.3v-2.2c0-7-1.1-12-3.2-15c-2.2-3.1-5.6-4.6-10.4-4.6c-8.4,0-12.5,6.6-12.5,19.7
		c0,6.5,1,11.4,3.1,14.6C387.3,87.8,390.6,89.4,395,89.4z M548,69.5c0,10.6-2.8,18.9-8.4,24.9s-13.4,9-23.4,9
		c-6.3,0-11.8-1.4-16.6-4.1c-4.8-2.7-8.5-6.7-11-11.8c-2.6-5.1-3.9-11.1-3.9-18c0-10.7,2.8-18.9,8.3-24.9c5.6-5.9,13.4-8.9,23.5-8.9
		c6.3,0,11.8,1.4,16.6,4.1c4.8,2.7,8.5,6.6,11,11.7C546.7,56.6,548,62.6,548,69.5z M502.9,69.5c0,6.5,1.1,11.3,3.2,14.6
		c2.1,3.3,5.6,5,10.4,5c4.7,0,8.2-1.6,10.2-4.9c2.1-3.3,3.1-8.2,3.1-14.7s-1-11.3-3.2-14.5c-2.1-3.2-5.5-4.8-10.3-4.8
		c-4.7,0-8.2,1.6-10.3,4.8C503.9,58.1,502.9,63,502.9,69.5z M465.4,101.8h-17.8V11h17.8V101.8z M658.4,102.3l-3.4-8.9h-0.5
		c-3,3.8-6.1,6.4-9.2,7.8c-3.2,1.5-7.3,2.2-12.4,2.2c-6.3,0-11.2-1.8-14.8-5.4s-5.4-8.7-5.4-15.3c0-6.9,2.4-12,7.3-15.3
		c4.8-3.3,12.1-5.1,21.9-5.5l11.3-0.3v-2.9c0-6.6-3.4-9.9-10.2-9.9c-5.2,0-11.3,1.6-18.4,4.7l-5.9-12c7.5-3.9,15.8-5.9,25-5.9
		c8.8,0,15.5,1.9,20.1,5.7c4.7,3.8,7,9.6,7,17.4v43.5h-12.4V102.3z M653.2,72.1l-6.9,0.2c-5.2,0.2-9,1.1-11.6,2.8
		c-2.5,1.7-3.8,4.3-3.8,7.8c0,5,2.9,7.5,8.6,7.5c4.1,0,7.4-1.2,9.9-3.6s3.7-5.5,3.7-9.5L653.2,72.1L653.2,72.1z M756.4,102.3h-17.8
		V64.2c0-4.7-0.8-8.2-2.5-10.6c-1.7-2.4-4.3-3.5-8-3.5c-5,0-8.6,1.7-10.8,5s-3.3,8.8-3.3,16.5v30.7h-17.8V37.1h13.6l2.4,8.3h1
		c2-3.2,4.7-5.5,8.2-7.1s7.4-2.4,11.9-2.4c7.6,0,13.3,2.1,17.3,6.2c3.9,4.1,5.9,10,5.9,17.8v42.4H756.4z"/>
</g>
<path class="st3" d="M202.3,153.3h7.7v12.2h2.9l9.5-12.2h8.5L219.3,168l12.3,16.3h-9.2l-9.4-12.7h-2.9v12.7h-7.7v-31H202.3z
	 M241.8,196.7c-0.6,0-1.2-0.1-1.8-0.2V190c0.6,0.1,1.2,0.2,1.8,0.2c1.2,0,2.1-0.4,2.7-1.3s1.4-2.4,2.2-4.5l-13.1-31h8.7l8.4,21.4
	l7.7-21.4h8l-11.9,31c-0.9,2.2-1.7,4.1-2.4,5.6c-0.8,1.6-1.6,2.9-2.5,3.9s-2,1.7-3.2,2.2C245.1,196.4,243.6,196.7,241.8,196.7z
	 M270.5,153.3h7.2v4.6c0.8-1.4,2-2.6,3.7-3.7c1.7-1.1,3.8-1.6,6.4-1.6c4.1,0,7.4,1.3,9.7,3.8c2.3,2.6,3.5,6.4,3.5,11.5v1.2
	c0,5.3-1.2,9.3-3.5,12c-2.4,2.6-5.6,3.9-9.6,3.9c-2.1,0-4-0.5-5.6-1.4s-2.9-2.1-3.9-3.6v16h-7.7v-42.7H270.5z M285.9,178.4
	c2,0,3.7-0.8,5.1-2.3s2-3.9,2-7v-1.2c0-2.9-0.7-5.1-2-6.6s-3-2.2-5.1-2.2c-2.2,0-4.1,0.6-5.5,1.9c-1.5,1.3-2.2,3.2-2.2,5.7v3.5
	c0,2.8,0.7,4.8,2.1,6.2C281.7,177.8,283.6,178.4,285.9,178.4z M320.2,185c-2.1,0-4.1-0.3-6-1s-3.5-1.7-4.8-3c-1.4-1.3-2.4-3-3.2-5
	c-0.8-2-1.2-4.3-1.2-7v-1.2c0-2.5,0.4-4.7,1.2-6.6c0.8-1.9,1.9-3.5,3.3-4.8s3-2.3,4.8-2.9c1.8-0.7,3.8-1,5.8-1
	c2.2,0,4.1,0.3,5.8,0.9s3.1,1.4,4.3,2.4c1.2,1,2.1,2.2,2.7,3.6c0.7,1.4,1.1,2.8,1.2,4.4h-7.8c-0.3-1.4-0.9-2.6-1.9-3.4
	c-1-0.8-2.4-1.3-4.3-1.3c-1,0-2,0.2-2.8,0.5c-0.9,0.4-1.7,0.9-2.3,1.6c-0.7,0.7-1.2,1.6-1.6,2.7c-0.4,1.1-0.6,2.4-0.6,3.9v1.2
	c0,1.6,0.2,3.1,0.6,4.2c0.4,1.2,0.9,2.2,1.5,2.9c0.7,0.8,1.4,1.3,2.3,1.7s1.9,0.5,2.9,0.5c1.5,0,2.8-0.4,3.9-1.2s1.9-2,2.3-3.5h7.8
	c-0.2,1.7-0.7,3.3-1.4,4.6s-1.8,2.6-3,3.5s-2.7,1.7-4.3,2.3S322.1,185,320.2,185z M339.5,153.3h7.7v10.4h5.4c8,0,12,3.4,12,10.3
	c0,1.5-0.2,2.9-0.7,4.2c-0.4,1.3-1.2,2.3-2.1,3.2c-1,0.9-2.2,1.6-3.7,2.1s-3.3,0.8-5.4,0.8h-13.2L339.5,153.3L339.5,153.3z
	 M351.8,178.1c1.9,0,3.2-0.3,4-1s1.2-1.7,1.2-3.1c0-1.4-0.4-2.4-1.2-3.1c-0.8-0.7-2.1-1-3.9-1h-4.6v8.2L351.8,178.1L351.8,178.1z
	 M368,153.3h7.7v31H368V153.3z M405.5,185c-1.7,0-3.2-0.2-4.4-0.7s-2.4-1.2-3.3-2c-0.9-0.9-1.6-1.9-2-3.1s-0.7-2.5-0.7-3.9
	c0-6.2,3.7-9.4,11.1-9.4h9.2v-1.5c0-2-0.5-3.5-1.4-4.3s-2.4-1.2-4.4-1.2c-1.8,0-3,0.3-3.8,0.9c-0.8,0.6-1.2,1.4-1.3,2.3h-7.7
	c0.1-1.3,0.4-2.6,1-3.7c0.6-1.2,1.5-2.2,2.6-3s2.5-1.5,4.1-2s3.4-0.7,5.5-0.7c2,0,3.8,0.2,5.4,0.6c1.6,0.4,3,1.1,4.2,2.1
	c1.1,1,2,2.2,2.7,3.7c0.6,1.5,0.9,3.4,0.9,5.5v11.9c0,1.6,0,3.1,0.1,4.3s0.2,2.4,0.3,3.6h-7.2c-0.2-0.9-0.2-1.5-0.3-2
	c0-0.4,0-1.1,0-2c-0.9,1.2-2.2,2.3-3.9,3.3C410.4,184.5,408.2,185,405.5,185z M407.9,179c0.9,0,1.9-0.1,2.7-0.4
	c0.9-0.3,1.7-0.6,2.4-1.2c0.7-0.5,1.3-1.2,1.7-2c0.4-0.8,0.6-1.8,0.6-2.8v-1.5h-7.8c-1.5,0-2.6,0.3-3.5,1c-0.8,0.7-1.3,1.6-1.3,2.8
	s0.4,2.2,1.3,3C405,178.7,406.3,179,407.9,179z M429.8,153.3h7.7v12h13.2v-12h7.7v31h-7.7v-12.6h-13.2v12.6h-7.7V153.3z
	 M466.1,153.3h22.2v6.4h-14.5v24.6h-7.7V153.3z M491.5,185c-0.3,0-0.7,0-1.2,0s-0.9-0.1-1.2-0.1v-7c0.2,0,0.5,0.1,0.9,0.1
	c0.7,0,1.4-0.2,1.9-0.7c0.5-0.4,1-1.2,1.4-2.3s0.6-2.5,0.8-4.4c0.2-1.8,0.3-4.1,0.3-6.8v-10.5H519v31h-7.7v-24.6h-9.7v5.3
	c0,4-0.2,7.3-0.6,9.9c-0.4,2.6-1,4.6-1.9,6.1c-0.8,1.5-1.9,2.5-3.2,3.1C494.7,184.7,493.2,185,491.5,185z M526,153.3h7.7v19.9
	l13.8-19.9h7.1v31h-7.7v-19.9l-13.8,19.9H526V153.3z M576.1,148.9c-3.5,0-6-0.7-7.6-2.2s-2.4-3.7-2.4-6.5h6.8c0,1.5,0.3,2.6,0.8,3.2
	c0.5,0.6,1.3,0.9,2.3,0.9c1.1,0,1.9-0.3,2.4-0.9c0.5-0.6,0.8-1.7,0.8-3.2h6.7c0,2.9-0.8,5.1-2.4,6.5
	C582.1,148.1,579.6,148.9,576.1,148.9z M561.7,153.3h7.7v19.9l13.8-19.9h7.1v31h-7.7v-19.9l-13.8,19.9h-7.1V153.3z M611.1,185
	c-2.1,0-4.1-0.3-6-1s-3.5-1.7-4.8-3c-1.4-1.3-2.4-3-3.2-5s-1.2-4.3-1.2-7v-1.2c0-2.5,0.4-4.7,1.2-6.6c0.8-1.9,1.9-3.5,3.3-4.8
	c1.4-1.3,3-2.3,4.8-2.9c1.8-0.7,3.8-1,5.8-1c2.2,0,4.1,0.3,5.8,0.9c1.7,0.6,3.1,1.4,4.3,2.4s2.1,2.2,2.7,3.6
	c0.7,1.4,1.1,2.8,1.2,4.4h-7.8c-0.3-1.4-0.9-2.6-1.9-3.4c-1-0.8-2.4-1.3-4.3-1.3c-1,0-2,0.2-2.8,0.5c-0.9,0.4-1.7,0.9-2.3,1.6
	c-0.7,0.7-1.2,1.6-1.6,2.7c-0.4,1.1-0.6,2.4-0.6,3.9v1.2c0,1.6,0.2,3.1,0.6,4.2c0.4,1.2,0.9,2.2,1.5,2.9c0.7,0.8,1.4,1.3,2.3,1.7
	c0.9,0.4,1.9,0.5,2.9,0.5c1.5,0,2.8-0.4,3.9-1.2c1.1-0.8,1.9-2,2.3-3.5h7.8c-0.2,1.7-0.7,3.3-1.4,4.6c-0.8,1.4-1.8,2.6-3,3.5
	c-1.2,1-2.7,1.7-4.3,2.3S613,185,611.1,185z M630.4,153.3h7.7v12.2h2.9l9.5-12.2h8.5L647.3,168l12.3,16.3h-9.2l-9.4-12.7h-2.9v12.7
	h-7.7L630.4,153.3L630.4,153.3z M676.9,185c-2.1,0-4.1-0.3-6-1c-1.9-0.6-3.5-1.6-4.9-3c-1.4-1.3-2.5-3-3.3-5s-1.2-4.3-1.2-7v-1.2
	c0-2.5,0.4-4.8,1.2-6.7s1.9-3.5,3.3-4.8c1.4-1.3,3-2.3,4.9-2.9c1.9-0.6,3.9-1,6-1s4.1,0.3,6,1c1.9,0.6,3.5,1.6,4.9,2.9
	c1.4,1.3,2.5,2.9,3.4,4.8c0.8,1.9,1.2,4.1,1.2,6.7v1.2c0,2.7-0.4,5-1.2,7s-1.9,3.6-3.4,5c-1.4,1.3-3.1,2.3-4.9,3
	C681,184.7,679,185,676.9,185z M676.9,178.4c2.2,0,4-0.8,5.5-2.3c1.5-1.6,2.2-3.9,2.2-7v-1.2c0-2.8-0.7-5-2.2-6.5s-3.3-2.3-5.5-2.3
	s-4.1,0.8-5.5,2.3s-2.2,3.7-2.2,6.5v1.2c0,3.2,0.7,5.5,2.2,7S674.7,178.4,676.9,178.4z M698.5,153.3h22.2v6.4h-14.5v24.6h-7.7V153.3
	z M738.9,185c-2.1,0-4.1-0.3-6-1c-1.9-0.6-3.5-1.6-4.9-3c-1.4-1.3-2.5-3-3.3-5s-1.2-4.3-1.2-7v-1.2c0-2.5,0.4-4.8,1.2-6.7
	s1.9-3.5,3.3-4.8c1.4-1.3,3-2.3,4.9-2.9c1.9-0.6,3.9-1,6-1s4.1,0.3,6,1c1.9,0.6,3.5,1.6,4.9,2.9c1.4,1.3,2.5,2.9,3.4,4.8
	c0.8,1.9,1.2,4.1,1.2,6.7v1.2c0,2.7-0.4,5-1.2,7s-1.9,3.6-3.4,5c-1.4,1.3-3.1,2.3-4.9,3C743,184.7,741,185,738.9,185z M738.9,178.4
	c2.2,0,4-0.8,5.5-2.3c1.5-1.6,2.2-3.9,2.2-7v-1.2c0-2.8-0.7-5-2.2-6.5s-3.3-2.3-5.5-2.3s-4.1,0.8-5.5,2.3s-2.2,3.7-2.2,6.5v1.2
	c0,3.2,0.7,5.5,2.2,7S736.6,178.4,738.9,178.4z"/>
</svg>
