<svg id="Слой_1" data-name="Слой 1" xmlns="http://www.w3.org/2000/svg" viewBox="0 0 745.33 209.59"><defs><style>.cls-1{fill:#fafafd;}.cls-2{fill:#8e90a8;}</style></defs><g id="Слой_2" data-name="Слой 2"><g id="Слой_1-2" data-name="Слой 1-2"><path class="cls-1" d="M70.6,12.5A57.33,57.33,0,0,0,36.37,115.76C42,105.14,53.85,99.86,63.92,93.59A24.69,24.69,0,1,1,95.37,69.84v.9h0v33.35c0,20.14,9.93,36.28,26.53,47.68L128,156V70.33C128,38.74,102.19,12.5,70.6,12.5Z" transform="translate(-13.35 -12.45)"/><path class="cls-2" d="M98.59,91.14C78,91,73.42,91.13,60,88.5c-10.61-2.07-27.17-15.89-23-38,6-32,24.42-37.25,24.42-37.25S36.12,27.77,34.89,29c-11.5,11.82-20.17,22-20,37.9C15,85.24,23.4,97.59,28.6,104.27a54.38,54.38,0,0,0,18.12,14c12.68,8.15,53.28,4.88,90.74,4.88h5.11L137.11,95.4l.22-2.29C127.54,93.55,115.51,91.24,98.59,91.14Z" transform="translate(-13.35 -12.45)"/><path class="cls-1" d="M94.37,92.8c-20.62-.12-22.43,1.24-35.9-1.39-10.61-2.07-25.26-15.61-23-38,6.9-36.69,33-40.91,33-40.91.9-.1-18.39-1.4-39.16,17.88C17.89,42.31,13.24,54,13.37,69.84c.16,18.31,8.55,30.66,13.75,37.34a54.38,54.38,0,0,0,18.12,14c12.68,8.15,53.28,4.88,90.74,4.88h5.11V92.61h-6C125.3,93.05,111.29,92.9,94.37,92.8Z" transform="translate(-13.35 -12.45)"/><polyline class="cls-1" points="126.03 70.8 126.03 122.17 165.2 96.62"/><path class="cls-1" d="M600.47,78h-15.1v66.23h-17.5V78h-9.7V69.5l9.65-4.7V45.92q0-11,5.39-16t17.27-5.05a44.79,44.79,0,0,1,16.13,2.7l-4.48,12.85a32.41,32.41,0,0,0-9.76-1.67c-2.49,0-4.29.73-5.4,2.21a9.08,9.08,0,0,0-1.6,5.65v18.2h15.1Z" transform="translate(-13.35 -12.45)"/><path class="cls-1" d="M246.19,117.79l-3.44-8.87h-.46a26.39,26.39,0,0,1-9.25,7.85q-4.75,2.17-12.4,2.18-9.39,0-14.79-5.36T200.46,98.3q0-10.38,7.26-15.31t21.91-5.46l11.31-.35V74.32q0-9.91-10.15-9.91-7.81,0-18.37,4.72l-5.9-12a53.13,53.13,0,0,1,25-5.89q13.13,0,20.13,5.72t7,17.38v43.47Zm-5.25-30.22-6.88.23q-7.76.24-11.55,2.8t-3.79,7.82q0,7.53,8.63,7.52,6.18,0,9.89-3.55a12.52,12.52,0,0,0,3.7-9.46ZM344.2,117.79H326.4V79.69q0-7.05-2.51-10.59t-8-3.53q-7.47,0-10.79,5T301.78,87.1v30.69H284V52.56h13.59L300,60.91h1a18.76,18.76,0,0,1,8.19-7.15A28,28,0,0,1,321,51.34q11.39,0,17.27,6.15t5.9,17.77Zm82.36.11q0,14.07-8.19,21.33T394,146.49q-14.29,0-24.39-3.85V128.41a64.65,64.65,0,0,0,25.44,5q13.71,0,13.71-14.82v-1.28l.53-8h-.53Q402.47,119,390.22,119q-11.73,0-18.18-9T365.6,85.29q0-16,6.68-25t18.4-8.95q12,0,18.9,9.57h.47l1.46-8.35h15.05Zm-30-12.89q7.19,0,10.27-4.11t3.1-13.33V85.41q0-10.44-3.24-15t-10.42-4.58q-12.54,0-12.54,19.72,0,9.8,3.12,14.64T396.57,105Zm153-20q0,15.93-8.4,24.91t-23.39,9a32.72,32.72,0,0,1-16.57-4.11,27.36,27.36,0,0,1-11-11.81,39.7,39.7,0,0,1-3.85-18q0-16,8.34-24.85t23.46-8.87a32.9,32.9,0,0,1,16.56,4.08,27.22,27.22,0,0,1,11,11.73A39.26,39.26,0,0,1,549.58,85.06Zm-45.1,0c0,6.45,1.06,11.34,3.18,14.64s5.58,5,10.36,5,8.16-1.64,10.24-4.93,3.12-8.17,3.12-14.67-1-11.3-3.15-14.53-5.54-4.84-10.33-4.84-8.16,1.6-10.27,4.81S504.48,78.56,504.48,85.06ZM467,117.41h-17.8V26.63H467Zm193,.49L656.6,109h-.46a26.39,26.39,0,0,1-9.25,7.85q-4.75,2.19-12.4,2.18-9.39,0-14.79-5.36t-5.39-15.29q0-10.38,7.26-15.31t21.91-5.46l11.31-.35V74.43q0-9.92-10.15-9.91-7.82,0-18.37,4.72l-5.9-12a53.13,53.13,0,0,1,25-5.89q13.13,0,20.13,5.72t7,17.38V117.9Zm-5.25-30.22-6.88.23q-7.75.24-11.55,2.8t-3.79,7.82q0,7.53,8.63,7.53,6.18,0,9.89-3.56a12.52,12.52,0,0,0,3.7-9.45ZM758.05,117.9h-17.8V79.8q0-7-2.51-10.59t-8-3.53q-7.47,0-10.79,5t-3.33,16.54V117.9H697.84V52.67h13.59L713.82,61h1A18.76,18.76,0,0,1,723,53.87a28,28,0,0,1,11.88-2.42q11.37,0,17.26,6.15t5.9,17.77Z" transform="translate(-13.35 -12.45)"/></g></g><path class="cls-1" d="M28.87,222a15.13,15.13,0,0,1-5.38-.89,11.3,11.3,0,0,1-4-2.48A10.66,10.66,0,0,1,17,214.91a12.89,12.89,0,0,1-.85-4.71q0-11.34,13.47-11.34h11.2v-1.78c0-2.45-.55-4.18-1.66-5.17s-2.87-1.49-5.28-1.49a7.6,7.6,0,0,0-4.61,1.1,4,4,0,0,0-1.63,2.73H18.31a11.35,11.35,0,0,1,1.24-4.54,10.65,10.65,0,0,1,3.12-3.65,15.64,15.64,0,0,1,4.93-2.41,22.85,22.85,0,0,1,6.66-.89,25.6,25.6,0,0,1,6.56.78,12.89,12.89,0,0,1,5,2.52,11.42,11.42,0,0,1,3.23,4.5,17.67,17.67,0,0,1,1.13,6.66v14.4c0,2,0,3.72.11,5.21s.2,2.94.39,4.36H42a18.4,18.4,0,0,1-.32-2.38c0-.54,0-1.36,0-2.44a13.21,13.21,0,0,1-4.71,4A16.91,16.91,0,0,1,28.87,222Zm2.91-7.23a12.5,12.5,0,0,0,3.33-.46A8.75,8.75,0,0,0,38,212.94a7,7,0,0,0,2-2.43,7.24,7.24,0,0,0,.78-3.44v-1.76H31.43a6.53,6.53,0,0,0-4.22,1.23,4.05,4.05,0,0,0-1.53,3.34,4.49,4.49,0,0,0,1.56,3.59A6.8,6.8,0,0,0,31.78,214.81Zm30.77-31.2H71.9v14.54h16V183.61h9.35v37.58H87.93V205.94h-16v15.25H62.55Zm48.13,0h26.94v7.8H120v29.78h-9.36Zm35,38.43c-.38,0-.85,0-1.42,0a6.58,6.58,0,0,1-1.42-.18v-8.43a5.7,5.7,0,0,0,1.07.07,3.57,3.57,0,0,0,2.34-.82,6.06,6.06,0,0,0,1.66-2.8,23.93,23.93,0,0,0,1-5.28c.22-2.2.32-4.92.32-8.19V183.61H179v37.58h-9.36V191.41H157.89v6.38a80.4,80.4,0,0,1-.74,12,22.64,22.64,0,0,1-2.27,7.41,8.62,8.62,0,0,1-3.83,3.75A12.65,12.65,0,0,1,145.7,222Zm46-38.43h9.35v24.11l16.73-24.11h8.65v37.58h-9.36V197.08l-16.73,24.11h-8.64Zm47.42,0h9.36v24.11l16.73-24.11h8.65v37.58h-9.36V197.08l-16.73,24.11h-8.65Zm17.37-3.89q-6.31,0-9.18-2.7c-1.92-1.79-2.87-4.44-2.87-7.94h8.29a5.91,5.91,0,0,0,1,3.86,3.49,3.49,0,0,0,2.8,1.1,3.68,3.68,0,0,0,2.94-1.1,5.91,5.91,0,0,0,1-3.86h8.15q0,5.25-2.87,7.94T256.5,179.72ZM303.21,222a21.43,21.43,0,0,1-7.26-1.21,16,16,0,0,1-5.85-3.61,16.86,16.86,0,0,1-3.9-6,22.92,22.92,0,0,1-1.42-8.44v-1.41a20.19,20.19,0,0,1,1.49-8,16.55,16.55,0,0,1,9.86-9.36,20.73,20.73,0,0,1,7.08-1.21,21.6,21.6,0,0,1,7.06,1.07,15.88,15.88,0,0,1,5.21,2.9,13.34,13.34,0,0,1,3.33,4.33,14.53,14.53,0,0,1,1.42,5.31h-9.5a7.41,7.41,0,0,0-2.31-4.14,7.66,7.66,0,0,0-5.21-1.53,9.22,9.22,0,0,0-3.43.64,8,8,0,0,0-2.84,1.95,9.18,9.18,0,0,0-1.95,3.3,14.19,14.19,0,0,0-.71,4.75v1.41a17.3,17.3,0,0,0,.68,5.14,9.57,9.57,0,0,0,1.87,3.55,7.31,7.31,0,0,0,2.84,2,9.77,9.77,0,0,0,3.54.64,8,8,0,0,0,4.79-1.46,7.11,7.11,0,0,0,2.73-4.21h9.5a15.21,15.21,0,0,1-1.74,5.63,14.1,14.1,0,0,1-3.61,4.29,16.46,16.46,0,0,1-5.21,2.73A21,21,0,0,1,303.21,222Zm27.58-38.43h9.36v14.75h3.54l11.49-14.75h10.35l-14.18,17.8,14.89,19.78H355l-11.34-15.46h-3.54v15.46h-9.36Zm44.94,0h9.36v24.11l16.73-24.11h8.65v37.58h-9.36V197.08l-16.73,24.11h-8.65Zm47.43,0h9.36v24.11l16.73-24.11h8.64v37.58h-9.35V197.08l-16.73,24.11h-8.65Zm17.37-3.89q-6.31,0-9.18-2.7c-1.92-1.79-2.87-4.44-2.87-7.94h8.29a5.91,5.91,0,0,0,1,3.86,3.48,3.48,0,0,0,2.8,1.1,3.68,3.68,0,0,0,2.94-1.1,5.91,5.91,0,0,0,1-3.86h8.15q0,5.25-2.87,7.94T440.53,179.72ZM508.08,222a22.36,22.36,0,0,1-7.26-1.17,16.23,16.23,0,0,1-6-3.58,17.15,17.15,0,0,1-4-6,22.13,22.13,0,0,1-1.49-8.51v-1.41a20.19,20.19,0,0,1,1.49-8.08,16.29,16.29,0,0,1,10-9.33,22.36,22.36,0,0,1,7.26-1.17,22,22,0,0,1,7.23,1.17,17.07,17.07,0,0,1,6,3.51,16.35,16.35,0,0,1,4.08,5.82,20.37,20.37,0,0,1,1.49,8.08v1.41a22.09,22.09,0,0,1-1.49,8.44,16.59,16.59,0,0,1-10.07,9.64A21.51,21.51,0,0,1,508.08,222Zm0-7.94a8.71,8.71,0,0,0,6.63-2.84c1.77-1.89,2.66-4.72,2.66-8.51v-1.41q0-5.18-2.66-7.91a9.45,9.45,0,0,0-13.29,0q-2.62,2.73-2.62,7.91v1.41q0,5.75,2.62,8.55A8.76,8.76,0,0,0,508.08,214.1Zm29.7-30.49h9.36v14.54h16V183.61h9.36v37.58h-9.36V205.94h-16v15.25h-9.36ZM585.56,222c-.37,0-.85,0-1.41,0a6.58,6.58,0,0,1-1.42-.18v-8.43a5.58,5.58,0,0,0,1.06.07,3.54,3.54,0,0,0,2.34-.82,6.07,6.07,0,0,0,1.67-2.8,23.93,23.93,0,0,0,1-5.28c.21-2.2.32-4.92.32-8.19V183.61h29.77v37.58h-9.35V191.41H597.76v6.38a78.91,78.91,0,0,1-.75,12,22.17,22.17,0,0,1-2.27,7.41,8.61,8.61,0,0,1-3.82,3.75A12.66,12.66,0,0,1,585.56,222Zm57.28,0a15.13,15.13,0,0,1-5.38-.89,11.3,11.3,0,0,1-4-2.48,10.66,10.66,0,0,1-2.49-3.76,12.89,12.89,0,0,1-.85-4.71q0-11.34,13.47-11.34h11.2v-1.78c0-2.45-.55-4.18-1.66-5.17s-2.87-1.49-5.28-1.49a7.6,7.6,0,0,0-4.61,1.1,4,4,0,0,0-1.63,2.73h-9.36a11.19,11.19,0,0,1,1.24-4.54,10.65,10.65,0,0,1,3.12-3.65,15.64,15.64,0,0,1,4.93-2.41,22.85,22.85,0,0,1,6.66-.89,25.6,25.6,0,0,1,6.56.78,12.89,12.89,0,0,1,5,2.52,11.42,11.42,0,0,1,3.23,4.5,17.67,17.67,0,0,1,1.13,6.66v14.4c0,2,0,3.72.11,5.21s.2,2.94.39,4.36H656a18.4,18.4,0,0,1-.32-2.38c0-.54,0-1.36,0-2.44a13.21,13.21,0,0,1-4.71,4A16.91,16.91,0,0,1,642.84,222Zm2.91-7.23a12.5,12.5,0,0,0,3.33-.46,8.75,8.75,0,0,0,2.91-1.41,7,7,0,0,0,2-2.43,7.24,7.24,0,0,0,.78-3.44v-1.76H645.4a6.53,6.53,0,0,0-4.22,1.23,4.05,4.05,0,0,0-1.53,3.34,4.49,4.49,0,0,0,1.56,3.59A6.8,6.8,0,0,0,645.75,214.81Zm30.76-31.2h9.36v24.11l16.73-24.11h8.65v37.58h-9.36V197.08l-16.73,24.11h-8.65Zm17.37-3.89q-6.3,0-9.18-2.7t-2.87-7.94h8.3a6,6,0,0,0,1,3.86,3.49,3.49,0,0,0,2.8,1.1,3.65,3.65,0,0,0,2.94-1.1,5.91,5.91,0,0,0,1-3.86h8.15c0,3.5-.95,6.15-2.87,7.94S698.09,179.72,693.88,179.72Zm30.06,3.89h9.36v14.54h16V183.61h9.36v37.58h-9.36V205.94h-16v15.25h-9.36Z" transform="translate(-13.35 -12.45)"/></svg>