<svg version="1.1" xmlns="http://www.w3.org/2000/svg" xmlns:xlink="http://www.w3.org/1999/xlink" viewBox="0 0 226 226"><g fill="none" fill-rule="nonzero" stroke="none" stroke-width="1" stroke-linecap="butt" stroke-linejoin="miter" stroke-miterlimit="10" stroke-dasharray="" stroke-dashoffset="0" font-family="none" font-weight="none" font-size="none" text-anchor="none" style="mix-blend-mode: normal"><path d="M0,226v-226h226v226z" fill="none"></path><g><path d="M29.38,61.02c-2.49633,0 -4.52,2.02367 -4.52,4.52c0,2.49633 2.02367,4.52 4.52,4.52c2.49633,0 4.52,-2.02367 4.52,-4.52c0,-2.49633 -2.02367,-4.52 -4.52,-4.52z" fill="#ee3e54"></path><path d="M174.02,27.12c-1.24816,0 -2.26,1.01184 -2.26,2.26c0,1.24816 1.01184,2.26 2.26,2.26c1.24816,0 2.26,-1.01184 2.26,-2.26c0,-1.24816 -1.01184,-2.26 -2.26,-2.26z" fill="#f1bc19"></path><path d="M113,29.38c-46.18205,0 -83.62,37.43795 -83.62,83.62c0,46.18205 37.43795,83.62 83.62,83.62c46.18205,0 83.62,-37.43795 83.62,-83.62c0,-46.18205 -37.43795,-83.62 -83.62,-83.62z" fill="#fce0a2"></path><path d="M187.58,24.86c-4.99265,0 -9.04,4.04735 -9.04,9.04c0,4.99265 4.04735,9.04 9.04,9.04c4.99265,0 9.04,-4.04735 9.04,-9.04c0,-4.99265 -4.04735,-9.04 -9.04,-9.04z" fill="#f1bc19"></path><path d="M196.62,49.72c-2.49633,0 -4.52,2.02367 -4.52,4.52c0,2.49633 2.02367,4.52 4.52,4.52c2.49633,0 4.52,-2.02367 4.52,-4.52c0,-2.49633 -2.02367,-4.52 -4.52,-4.52z" fill="#ee3e54"></path><path d="M183.06,167.24c-2.49633,0 -4.52,2.02367 -4.52,4.52c0,2.49633 2.02367,4.52 4.52,4.52c2.49633,0 4.52,-2.02367 4.52,-4.52c0,-2.49633 -2.02367,-4.52 -4.52,-4.52zM33.9,133.34c-4.99265,0 -9.04,4.04735 -9.04,9.04c0,4.99265 4.04735,9.04 9.04,9.04c4.99265,0 9.04,-4.04735 9.04,-9.04c0,-4.99265 -4.04735,-9.04 -9.04,-9.04z" fill="#fbcd59"></path><path d="M56.5,192.1c-2.49633,0 -4.52,2.02367 -4.52,4.52c0,2.49633 2.02367,4.52 4.52,4.52c2.49633,0 4.52,-2.02367 4.52,-4.52c0,-2.49633 -2.02367,-4.52 -4.52,-4.52z" fill="#ee3e54"></path><path d="M41.81,115.26c-3.12041,0 -5.65,2.52959 -5.65,5.65c0,3.12041 2.52959,5.65 5.65,5.65c3.12041,0 5.65,-2.52959 5.65,-5.65c0,-3.12041 -2.52959,-5.65 -5.65,-5.65z" fill="#ffffff"></path><path d="M47.46,149.16c-1.24816,0 -2.26,1.01184 -2.26,2.26c0,1.24816 1.01184,2.26 2.26,2.26c1.24816,0 2.26,-1.01184 2.26,-2.26c0,-1.24816 -1.01184,-2.26 -2.26,-2.26z" fill="#f1bc19"></path><path d="M180.8,74.58c-1.24816,0 -2.26,1.01184 -2.26,2.26c0,1.24816 1.01184,2.26 2.26,2.26c1.24816,0 2.26,-1.01184 2.26,-2.26c0,-1.24816 -1.01184,-2.26 -2.26,-2.26z" fill="#ffffff"></path><g><path d="M145.11234,129.48444c0,0 16.03244,0 16.28104,0c9.4694,0 17.14436,-7.6953 17.14436,-17.1873c0,-8.28064 -5.84436,-15.19172 -13.62102,-16.82118c0.0904,-0.72546 0.14916,-1.45996 0.14916,-2.20802c0,-9.83326 -7.95068,-17.79976 -17.75682,-17.79976c-5.79012,0 -10.91806,2.7911 -14.1589,7.08962c-0.82942,-10.94292 -10.58132,-19.38628 -21.9898,-17.98734c-8.34392,1.02378 -15.24144,7.48738 -16.77824,15.77028c-0.49268,2.6555 -0.44296,5.23642 0.04972,7.65462c-2.2374,-2.41594 -5.42174,-3.93466 -8.96768,-3.93466c-6.49072,0 -11.7859,5.06466 -12.20626,11.46498c-2.94704,-0.65314 -6.15398,-0.6102 -9.52816,0.65766c-6.4523,2.42724 -11.04914,8.51794 -11.31808,15.42224c-0.38194,9.80388 7.43314,17.87434 17.1308,17.87434c0.73676,0 3.32446,0 3.92336,0h35.60178" fill="#88cdd7"></path><path d="M161.39564,131.06644h-16.28104c-0.87462,0 -1.582,-0.70738 -1.582,-1.582c0,-0.87462 0.70738,-1.582 1.582,-1.582h16.28104c8.58122,0 15.56236,-6.99922 15.56236,-15.60304c0,-7.34726 -5.20026,-13.77244 -12.36446,-15.27308c-0.80456,-0.1695 -1.34696,-0.9266 -1.24526,-1.74246c0.08136,-0.65992 0.13786,-1.33114 0.13786,-2.01366c0,-8.94282 -7.2546,-16.21776 -16.17482,-16.21776c-5.09856,0 -9.79936,2.35492 -12.89556,6.45908c-0.3955,0.52206 -1.07576,0.73902 -1.70856,0.565c-0.63054,-0.18532 -1.08254,-0.74128 -1.13226,-1.39894c-0.37064,-4.89968 -2.76624,-9.49652 -6.56982,-12.61532c-3.82844,-3.13914 -8.68066,-4.52678 -13.6504,-3.9211c-7.67044,0.94242 -14.00974,6.89978 -15.41546,14.48886c-0.4407,2.373 -0.42488,4.746 0.0452,7.04894c0.14238,0.69608 -0.19662,1.39894 -0.82716,1.72438c-0.6328,0.32318 -1.4012,0.18758 -1.88258,-0.33222c-2.04756,-2.21028 -4.82058,-3.42616 -7.8083,-3.42616c-5.5935,0 -10.2604,4.3844 -10.62652,9.98468c-0.03164,0.46104 -0.2599,0.88592 -0.63054,1.16164c-0.36838,0.27572 -0.84298,0.38194 -1.29046,0.28024c-2.94478,-0.65314 -5.84662,-0.45426 -8.63094,0.59438c-5.91894,2.2261 -10.05474,7.85576 -10.29204,14.00296c-0.16724,4.29852 1.37634,8.36878 4.34598,11.45594c2.9606,3.07812 6.9382,4.77312 11.20282,4.77312h39.52514c0.87462,0 1.582,0.70738 1.582,1.582c0,0.87462 -0.70738,1.582 -1.582,1.582h-39.52514c-5.13246,0 -9.9214,-2.03852 -13.48316,-5.74492c-3.57306,-3.71544 -5.42852,-8.60608 -5.22738,-13.7747c0.28702,-7.40376 5.24546,-14.17246 12.34186,-16.84152c2.82952,-1.06446 5.76074,-1.4012 8.73264,-1.01926c1.24526,-6.4071 6.89526,-11.20282 13.56,-11.20282c2.47018,0 4.88612,0.678 6.99244,1.91874c-0.0226,-1.44414 0.1017,-2.8928 0.37064,-4.34598c1.65432,-8.92926 9.11458,-15.94204 18.14102,-17.04944c5.8421,-0.7119 11.5373,0.92208 16.04148,4.61266c3.57758,2.93348 6.09522,6.98114 7.18002,11.43334c3.54594,-3.31316 8.17668,-5.15958 13.1193,-5.15958c10.66494,0 19.34108,8.69648 19.34108,19.38176c0,0.33674 -0.0113,0.67122 -0.03164,1.00118c7.90322,2.30294 13.5035,9.66602 13.5035,18.02802c-0.00452,10.34854 -8.40494,18.76704 -18.73088,18.76704z" fill="#472b29"></path></g><g fill="#472b29"><path d="M152.23812,104.48884c-0.0452,0 -0.09266,-0.00452 -0.14012,-0.01582c-0.33674,-0.07684 -0.54692,-0.41132 -0.47008,-0.7458c0.1695,-0.74128 0.42262,-1.46222 0.75258,-2.14474c2.68714,-5.56186 9.97112,-7.68174 16.22228,-4.7347c0.31188,0.1469 0.44748,0.5198 0.30058,0.83168c-0.1469,0.31414 -0.52432,0.44296 -0.83168,0.30058c-5.64548,-2.66228 -12.17688,-0.80004 -14.5657,4.14936c-0.28928,0.59664 -0.5085,1.22944 -0.65992,1.87806c-0.06328,0.28702 -0.32092,0.48138 -0.60794,0.48138z"></path></g><g><path d="M131.21786,117.65786c-1.32436,1.32436 -3.4691,1.32436 -4.79346,0l-10.0344,-10.0344v55.09654c0,1.87128 -1.51646,3.39 -3.39,3.39c-1.87354,0 -3.39,-1.51872 -3.39,-3.39v-55.09654l-10.03214,10.03214c-1.32436,1.32436 -3.4691,1.32436 -4.79346,0c-1.32436,-1.32436 -1.32436,-3.4691 0,-4.79346l15.82,-15.82c0.65992,-0.66218 1.52776,-0.99214 2.3956,-0.99214c0.86784,0 1.73568,0.32996 2.39786,0.99214l15.82,15.82c1.3221,1.32436 1.3221,3.47136 0,4.79572z" fill="#f1bc19"></path><path d="M113,167.24c-2.49278,0 -4.52,-2.02722 -4.52,-4.52v-52.36872l-8.10436,8.10436c-1.76054,1.76054 -4.63074,1.76054 -6.39128,0c-0.85428,-0.85428 -1.32436,-1.9888 -1.32436,-3.19564c0,-1.20684 0.47008,-2.34136 1.32436,-3.19564l15.82,-15.82c1.70856,-1.70856 4.68272,-1.70856 6.39128,0l15.82,15.82c0.85428,0.85428 1.32436,1.9888 1.32436,3.19564c0,1.20684 -0.47008,2.34136 -1.32436,3.19564c-1.76054,1.76054 -4.63074,1.76054 -6.39128,0l-8.10436,-8.10436v52.36872c0,2.49278 -2.02722,4.52 -4.52,4.52zM109.61,106.49346c0.14464,0 0.29154,0.02938 0.43166,0.08588c0.42262,0.17402 0.69834,0.5876 0.69834,1.04412v55.09654c0,1.24752 1.01474,2.26 2.26,2.26c1.24526,0 2.26,-1.01248 2.26,-2.26v-55.09654c0,-0.45652 0.27572,-0.8701 0.69834,-1.04412c0.42488,-0.17176 0.90852,-0.07458 1.2317,0.24408l10.03214,10.03214c0.8814,0.88366 2.31424,0.88366 3.19564,0c0.42714,-0.42488 0.66218,-0.99214 0.66218,-1.59556c0,-0.60342 -0.23504,-1.17068 -0.66218,-1.59782l-15.82,-15.82c-0.85428,-0.85202 -2.34136,-0.85202 -3.19564,0l-15.82,15.82c-0.42714,0.42714 -0.66218,0.9944 -0.66218,1.59782c0,0.60342 0.23504,1.17068 0.66218,1.59782c0.8814,0.88366 2.31424,0.88366 3.19564,0l10.03214,-10.03214c0.21696,-0.21696 0.50624,-0.33222 0.80004,-0.33222z" fill="#472b29"></path></g></g></g></svg>