<svg version="1.1" xmlns="http://www.w3.org/2000/svg" xmlns:xlink="http://www.w3.org/1999/xlink" viewBox="0 0 226 226"><defs><linearGradient x1="9.83571" y1="110.64583" x2="188.33333" y2="110.64583" gradientUnits="userSpaceOnUse" id="color-1"><stop offset="0" stop-color="#2aa4f4"></stop><stop offset="1" stop-color="#007ad9"></stop></linearGradient></defs><g fill="none" fill-rule="nonzero" stroke="none" stroke-width="1" stroke-linecap="butt" stroke-linejoin="miter" stroke-miterlimit="10" stroke-dasharray="" stroke-dashoffset="0" font-family="none" font-weight="none" font-size="none" text-anchor="none" style="mix-blend-mode: normal"><path d="M0,226v-226h226v226z" fill="none"></path><g><path d="M207.16667,169.5c0,15.59871 -12.65129,28.25 -28.25,28.25c-15.59871,0 -28.25,-12.65129 -28.25,-28.25c0,-15.59871 12.65129,-28.25 28.25,-28.25c15.59871,0 28.25,12.65129 28.25,28.25" fill="#586169"></path><path d="M193.04167,169.5c0,7.80171 -6.31858,14.125 -14.125,14.125c-7.80642,0 -14.125,-6.31858 -14.125,-14.125c0,-7.80642 6.31858,-14.125 14.125,-14.125c7.80642,0 14.125,6.31858 14.125,14.125" fill="#999999"></path><path d="M181.28025,127.125c-19.50662,0 -35.32192,16.86525 -35.32192,37.66667h65.79896c2.71671,0 4.86842,-2.57075 4.48233,-5.44283c-2.47188,-18.22125 -17.18071,-32.22383 -34.95937,-32.22383z" fill="#35c1f1"></path><path d="M84.75,169.5c0,15.59871 -12.65129,28.25 -28.25,28.25c-15.59871,0 -28.25,-12.65129 -28.25,-28.25c0,-15.59871 12.65129,-28.25 28.25,-28.25c15.59871,0 28.25,12.65129 28.25,28.25" fill="#586169"></path><path d="M70.625,169.5c0,7.80171 -6.31858,14.125 -14.125,14.125c-7.80642,0 -14.125,-6.31858 -14.125,-14.125c0,-7.80642 6.31858,-14.125 14.125,-14.125c7.80642,0 14.125,6.31858 14.125,14.125" fill="#999999"></path><path d="M89.45833,103.58333h-47.08333c-5.20271,0 -9.41667,-4.21396 -9.41667,-9.41667v0c0,-5.20271 4.21396,-9.41667 9.41667,-9.41667h47.08333c5.20271,0 9.41667,4.21396 9.41667,9.41667v0c0,5.20271 -4.21396,9.41667 -9.41667,9.41667z" fill="#b34a16"></path><path d="M157.72917,56.5h15.368c3.21579,0 5.8195,-2.60371 5.8195,-5.8195v-21.31933c0,-3.21579 -2.60371,-5.8195 -5.8195,-5.8195h-15.368c-9.10121,0 -16.47917,7.37796 -16.47917,16.47917v0c0,9.10121 7.37796,16.47917 16.47917,16.47917z" fill="#35c1f1"></path><path d="M160.08333,56.5h-9.41667h-18.83333v9.41667h17.19483l-14.73708,84.75h-31.43283l-18.10825,-47.08333h-42.375c-16.84642,8.42321 -29.92146,28.14642 -32.49692,52.42729c-0.49908,4.71304 3.34292,8.78104 8.08421,8.78104h62.07937h28.25h23.54167h9.41667h9.41667l37.66667,-37.66667c-1.72325,-23.17442 -14.125,-56.5 -28.25,-70.625z" fill="url(#color-1)"></path><path d="M117.70833,65.91667h14.125v-9.41667h-14.125c-2.599,0 -4.70833,2.10933 -4.70833,4.70833v0c0,2.599 2.10933,4.70833 4.70833,4.70833z" fill="#565b5e"></path></g></g></svg>