<?xml version="1.0" encoding="utf-8"?>
<!-- Generator: Adobe Illustrator 26.0.3, SVG Export Plug-In . SVG Version: 6.00 Build 0)  -->
<svg version="1.1" id="Слой_1" xmlns="http://www.w3.org/2000/svg" xmlns:xlink="http://www.w3.org/1999/xlink" x="0px" y="0px"
	 viewBox="0 0 171 171" style="enable-background:new 0 0 171 171;" xml:space="preserve">
<style type="text/css">
	.st0{fill:none;}
	.st1{fill:url(#SVGID_1_);}
	.st2{fill:#4D85D7;}
</style>
<g>
	<path class="st0" d="M0,172V0h172v172H0z"/>
	<g>
		
			<linearGradient id="SVGID_1_" gradientUnits="userSpaceOnUse" x1="53.4453" y1="148.8654" x2="119.6436" y2="20.0704" gradientTransform="matrix(1 0 0 -1 0 172)">
			<stop  offset="0" style="stop-color:#FFFFC0"/>
			<stop  offset="1" style="stop-color:#FFD803"/>
		</linearGradient>
		<path class="st1" d="M156.8,85.5c0,39.3-31.9,71.2-71.2,71.2s-71.2-31.9-71.2-71.2s31.9-71.2,71.2-71.2S156.8,46.2,156.8,85.5z"/>
		<path class="st2" d="M67.2,100.9L85,85.5c1.6-1.5,3.1-2.7,4.2-3.8c1.2-1.1,2.1-2.1,2.8-3c0.7-0.9,1.2-1.8,1.6-2.7
			c0.3-0.9,0.5-1.8,0.5-2.8c0-2.1-0.6-3.8-1.7-5.1c-1.2-1.3-2.9-1.9-5.2-1.9c-2.6,0-4.7,0.7-6.1,2.1c-1.5,1.4-2.2,3.9-2.2,7.4H67.9
			c0-5.8,1.6-10.3,4.9-13.7c3.3-3.3,8.1-5,14.4-5c3,0,5.5,0.4,7.7,1.2c2.2,0.8,4.1,1.9,5.6,3.3c1.5,1.4,2.6,3.1,3.4,5.1
			c0.8,2,1.1,4.1,1.1,6.5c0,1.7-0.3,3.4-0.9,5c-0.6,1.6-1.5,3.1-2.6,4.5c-1.1,1.5-2.4,2.9-3.8,4.3s-3,2.8-4.7,4.1l-10.5,8.7h23.2v9
			H67.2V100.9z"/>
	</g>
</g>
</svg>
