<?xml version="1.0" encoding="utf-8"?>
<!-- Generator: Adobe Illustrator 26.0.3, SVG Export Plug-In . SVG Version: 6.00 Build 0)  -->
<svg version="1.1" id="Слой_1" xmlns="http://www.w3.org/2000/svg" xmlns:xlink="http://www.w3.org/1999/xlink" x="0px" y="0px"
	 viewBox="0 0 171 171" style="enable-background:new 0 0 171 171;" xml:space="preserve">
<style type="text/css">
	.st0{fill:none;}
	.st1{fill:url(#SVGID_1_);}
	.st2{fill:#4D85D7;}
</style>
<g>
	<path class="st0" d="M0,172V0h172v172H0z"/>
	<g>
		
			<linearGradient id="SVGID_1_" gradientUnits="userSpaceOnUse" x1="53.4453" y1="148.8654" x2="119.6436" y2="20.0704" gradientTransform="matrix(1 0 0 -1 0 172)">
			<stop  offset="0" style="stop-color:#FFFFC0"/>
			<stop  offset="1" style="stop-color:#FFD803"/>
		</linearGradient>
		<path class="st1" d="M156.8,85.5c0,39.3-31.9,71.2-71.2,71.2s-71.2-31.9-71.2-71.2s31.9-71.2,71.2-71.2S156.8,46.2,156.8,85.5z"/>
		<path class="st2" d="M86.4,109.7c-6.2,0-10.9-1.5-14.1-4.4c-3.2-2.9-4.8-7-4.8-12.1h10.9c0,2.5,0.6,4.3,1.9,5.5
			c1.3,1.2,3.3,1.8,6.1,1.8c2.7,0,4.7-0.6,6-1.8c1.3-1.2,2-2.9,2-5.1c0-4.6-2.7-6.8-8-6.8h-4.7v-8.4h4.7c2.3,0,4.1-0.5,5.4-1.5
			c1.3-1,1.9-2.5,1.9-4.5c0-1.8-0.6-3.3-1.8-4.5c-1.2-1.2-3-1.7-5.5-1.7c-2.5,0-4.3,0.6-5.5,1.7c-1.2,1.1-1.8,2.8-1.8,4.9H68.3
			c0-5,1.5-8.9,4.5-11.6c3-2.8,7.6-4.1,13.6-4.1c3.1,0,5.7,0.4,8,1.1c2.3,0.7,4.2,1.7,5.7,2.9c1.5,1.2,2.6,2.7,3.4,4.4
			c0.8,1.7,1.1,3.5,1.1,5.5c0,2.8-0.8,5.2-2.4,7.2c-1.6,2-3.7,3.4-6.3,4.2c3,0.8,5.3,2.3,6.9,4.3c1.6,2,2.4,4.7,2.4,8.1
			c0,2.2-0.4,4.2-1.3,6c-0.9,1.8-2.1,3.4-3.7,4.8c-1.6,1.3-3.6,2.4-6,3.1C92,109.3,89.4,109.7,86.4,109.7z"/>
	</g>
</g>
</svg>
