<svg version="1.1" xmlns="http://www.w3.org/2000/svg" xmlns:xlink="http://www.w3.org/1999/xlink" viewBox="0 0 172 172"><g fill="none" fill-rule="nonzero" stroke="none" stroke-width="1" stroke-linecap="butt" stroke-linejoin="miter" stroke-miterlimit="10" stroke-dasharray="" stroke-dashoffset="0" font-family="none" font-weight="none" font-size="none" text-anchor="none" style="mix-blend-mode: normal"><path d="M0,172v-172h172v172z" fill="none"></path><g><path d="M22.36,46.44c-1.89986,0 -3.44,1.54014 -3.44,3.44c0,1.89986 1.54014,3.44 3.44,3.44c1.89986,0 3.44,-1.54014 3.44,-3.44c0,-1.89986 -1.54014,-3.44 -3.44,-3.44z" fill="#78a0cf"></path><path d="M132.44,20.64c-0.94993,0 -1.72,0.77007 -1.72,1.72c0,0.94993 0.77007,1.72 1.72,1.72c0.94993,0 1.72,-0.77007 1.72,-1.72c0,-0.94993 -0.77007,-1.72 -1.72,-1.72z" fill="#f1bc19"></path><path d="M86,22.36c-35.1474,0 -63.64,28.4926 -63.64,63.64c0,35.1474 28.4926,63.64 63.64,63.64c35.1474,0 63.64,-28.4926 63.64,-63.64c0,-35.1474 -28.4926,-63.64 -63.64,-63.64z" fill="#cee1f4"></path><path d="M142.76,18.92c-3.79972,0 -6.88,3.08028 -6.88,6.88c0,3.79972 3.08028,6.88 6.88,6.88c3.79972,0 6.88,-3.08028 6.88,-6.88c0,-3.79972 -3.08028,-6.88 -6.88,-6.88z" fill="#f1bc19"></path><path d="M149.64,37.84c-1.89986,0 -3.44,1.54014 -3.44,3.44c0,1.89986 1.54014,3.44 3.44,3.44c1.89986,0 3.44,-1.54014 3.44,-3.44c0,-1.89986 -1.54014,-3.44 -3.44,-3.44z" fill="#78a0cf"></path><path d="M139.32,127.28c-1.89986,0 -3.44,1.54014 -3.44,3.44c0,1.89986 1.54014,3.44 3.44,3.44c1.89986,0 3.44,-1.54014 3.44,-3.44c0,-1.89986 -1.54014,-3.44 -3.44,-3.44zM25.8,101.48c-3.79972,0 -6.88,3.08028 -6.88,6.88c0,3.79972 3.08028,6.88 6.88,6.88c3.79972,0 6.88,-3.08028 6.88,-6.88c0,-3.79972 -3.08028,-6.88 -6.88,-6.88z" fill="#fbcd59"></path><path d="M43,146.2c-1.89986,0 -3.44,1.54014 -3.44,3.44c0,1.89986 1.54014,3.44 3.44,3.44c1.89986,0 3.44,-1.54014 3.44,-3.44c0,-1.89986 -1.54014,-3.44 -3.44,-3.44z" fill="#78a0cf"></path><path d="M31.82,87.72c-2.37482,0 -4.3,1.92518 -4.3,4.3c0,2.37482 1.92518,4.3 4.3,4.3c2.37482,0 4.3,-1.92518 4.3,-4.3c0,-2.37482 -1.92518,-4.3 -4.3,-4.3z" fill="#ffffff"></path><path d="M36.12,113.52c-0.94993,0 -1.72,0.77007 -1.72,1.72c0,0.94993 0.77007,1.72 1.72,1.72c0.94993,0 1.72,-0.77007 1.72,-1.72c0,-0.94993 -0.77007,-1.72 -1.72,-1.72z" fill="#f1bc19"></path><path d="M137.6,56.76c-0.94993,0 -1.72,0.77007 -1.72,1.72c0,0.94993 0.77007,1.72 1.72,1.72c0.94993,0 1.72,-0.77007 1.72,-1.72c0,-0.94993 -0.77007,-1.72 -1.72,-1.72z" fill="#ffffff"></path><g><path d="M110.28468,81.39212c-0.473,-2.5112 -1.4964,-3.9818 -3.90956,-4.70936c-0.10492,-0.03096 -0.24596,-0.08256 -0.4042,-0.14276c-0.18232,-0.07912 -0.41452,-0.172 -0.68456,-0.27864c-1.462,-0.61748 -10.14628,-3.82184 -10.14628,-3.82184c-0.71552,-0.18232 -1.18164,-0.69144 -1.45168,-1.26592c-0.44548,-0.94944 -0.27348,-3.40904 -0.27348,-3.40904c0,0 -3.63264,1.24184 -5.89788,1.66496c-2.22224,0.21672 -7.0004,-2.6574 -7.0004,-2.6574c0,0 -0.1118,3.55352 -0.26316,4.343c-0.11868,0.6192 -0.78604,1.1438 -1.50156,1.32612l-8.3334,3.02204c-0.92192,0.2408 -1.806,0.5848 -2.58516,1.06468c-2.09668,1.29516 -3.15964,3.23876 -3.69972,4.8676c0,0 -0.54868,3.88032 -0.52632,4.01964c-0.0516,0.54352 -0.10664,1.14036 -0.15996,1.76816c9.08332,6.15072 16.37956,7.87244 28.896,7.32548c5.68804,-0.2494 14.1556,-3.05644 18.59148,-5.29588c-0.23736,-4.94672 -0.65016,-7.82084 -0.65016,-7.82084z" fill="#fabf82"></path><path d="M106.37512,76.7292c-0.10492,-0.03096 -0.24596,-0.08256 -0.4042,-0.14276c-0.18232,-0.07912 -0.41452,-0.172 -0.68456,-0.27864c-0.903,-0.38184 -4.56832,-1.75268 -7.23432,-2.7434l-0.12556,-0.03268c-2.94292,1.50844 -7.13112,3.77368 -10.97876,3.77368c-3.84764,0 -7.70388,-2.0468 -10.97876,-3.77368l-0.36808,0.09632l-5.18408,1.87996c-0.92192,0.2408 -1.806,0.5848 -2.58516,1.06468c-2.09668,1.29516 -3.15964,3.23876 -3.69972,4.8676c0,0 -0.54868,3.88032 -0.52632,4.01964c-0.0516,0.54352 -0.10664,6.36916 -0.15996,6.99696c9.08332,6.15072 16.37956,7.87244 28.896,7.32548c5.68804,-0.2494 14.1556,-3.05644 18.59148,-5.29588c-0.23392,-4.94156 -0.64844,-13.04448 -0.64844,-13.04448c-0.47472,-2.51292 -1.49812,-3.98352 -3.90956,-4.7128z" fill="#ee3e54"></path><path d="M101.27188,50.35816c-0.13588,-0.0086 -0.27692,-0.01032 -0.4214,-0.01032c-1.13004,-0.05504 -1.44996,0.3956 -1.40008,-0.30272c0.09116,-1.24012 -0.08256,-6.27112 -0.08256,-6.52568c0,-5.21332 -5.4438,-9.46516 -12.24468,-9.7008v-0.01548c-0.04644,0 -0.09116,0.00688 -0.13588,0.00688c-0.04644,-0.00172 -0.09116,-0.00688 -0.13588,-0.00688v0.01548c-6.80088,0.23564 -12.24468,4.48748 -12.24468,9.7008c0,0.25456 -0.172,5.28556 -0.08256,6.52568c0.0516,0.69832 -0.27004,0.24768 -1.40008,0.30272c-0.14448,0 -0.2838,0.00172 -0.4214,0.01032c-1.2384,0.08256 -2.23944,0.87032 -2.45272,1.84556c0.15136,0.09288 0.71552,4.36536 1.62712,6.04924c0.50912,0.93912 1.30548,1.07156 2.12248,1.677c0.45236,0.3354 0.54008,0.71552 0.66392,1.21776c0.45924,1.86104 1.73204,3.44172 3.12868,4.79192c0.68972,0.66564 5.2632,5.54184 9.1934,5.29588c3.94912,-0.14792 8.50368,-4.62852 9.1934,-5.29588c1.39664,-1.3502 2.66944,-2.93088 3.12868,-4.79192c0.12384,-0.50224 0.21156,-0.88236 0.66392,-1.21776c0.817,-0.60716 1.61336,-0.73788 2.12248,-1.677c0.91332,-1.68388 1.47576,-5.95636 1.62712,-6.04924c-0.20984,-0.97524 -1.21088,-1.763 -2.44928,-1.84556z" fill="#fddbbc"></path><path d="M87.05952,58.61588c0.79808,0 1.5738,-0.34916 2.0726,-0.93224c0.04988,-0.05848 0.043,-0.14792 -0.01548,-0.1978v0c-0.05848,-0.04988 -0.1462,-0.04472 -0.1978,0.01376c-0.40592,0.4644 -1.0836,0.731 -1.85932,0.731c-0.77572,0 -1.4534,-0.2666 -1.85932,-0.731c-0.02752,-0.03096 -0.06708,-0.04816 -0.10664,-0.04816c-0.03268,0 -0.06536,0.01032 -0.09116,0.0344c-0.05848,0.04988 -0.06536,0.13932 -0.01548,0.1978c0.4988,0.58308 1.2728,0.93224 2.0726,0.93224zM84.51048,47.82288l0.5074,-0.97352c-2.14312,-0.50224 -4.61132,-0.4214 -6.6478,0.20984l0.63812,0.94944c1.67356,-0.55384 3.7324,-0.62264 5.50228,-0.18576zM95.23984,47.82288l0.5074,-0.97352c-2.14312,-0.50224 -4.6096,-0.4214 -6.6478,0.20984l0.63812,0.94944c1.67528,-0.55384 3.73412,-0.62264 5.50228,-0.18576zM81.42652,49.19716c-0.51428,0 -0.96664,0.34056 -1.22808,0.85484c0.06536,-0.02064 0.13244,-0.0344 0.20296,-0.0344c0.4214,0 0.76368,0.38184 0.76368,0.85312c0,0.47128 -0.34228,0.85312 -0.76368,0.85312c-0.1376,0 -0.2666,-0.04472 -0.3784,-0.11524c0.1806,0.77228 0.7396,1.33644 1.4018,1.33644c0.8084,0 1.46372,-0.83936 1.46372,-1.8748c0.00172,-1.03372 -0.6536,-1.87308 -1.462,-1.87308zM92.6306,49.19716c-0.4386,0 -0.83248,0.2494 -1.1008,0.64156c0.08428,-0.03612 0.17372,-0.05676 0.26832,-0.05676c0.4214,0 0.76368,0.38184 0.76368,0.85312c0,0.47128 -0.34228,0.85312 -0.76368,0.85312c-0.26144,0 -0.49192,-0.14792 -0.62952,-0.37152c0.01892,1.01308 0.66564,1.82836 1.462,1.82836c0.8084,0 1.46372,-0.83936 1.46372,-1.8748c0,-1.03372 -0.65532,-1.87308 -1.46372,-1.87308zM93.25152,60.78824c0.0602,-0.04816 0.0688,-0.1376 0.02064,-0.1978v0c-0.04816,-0.0602 -0.1376,-0.07052 -0.1978,-0.02064c-1.32096,1.05264 -3.51224,1.65636 -6.01484,1.65636c-2.5026,0 -4.6956,-0.60372 -6.01484,-1.65636c-0.0258,-0.02064 -0.05676,-0.03096 -0.08772,-0.03096c-0.04128,0 -0.08256,0.0172 -0.11008,0.0516c-0.04816,0.0602 -0.03956,0.14792 0.02064,0.1978c1.49124,1.21776 3.80464,1.94532 6.192,1.94532c2.38564,0 4.70076,-0.72756 6.192,-1.94532zM88.69352,66.95272c0.07224,0 0.13416,-0.08428 0.13416,-0.18404c0,-0.09976 -0.06192,-0.18404 -0.13416,-0.18404h-3.00828c-0.07224,0 -0.13416,0.08428 -0.13416,0.18404c0,0.09976 0.06192,0.18404 0.13416,0.18404z" fill="#5e2b29"></path><path d="M88.28416,100.8952c-10.47652,0 -17.23956,-2.09668 -25.32184,-7.568c-0.25628,-0.17544 -0.40076,-0.47472 -0.37496,-0.78604c0.01032,-0.12384 0.01548,-0.5418 0.02408,-1.14896c0.03784,-2.56624 0.11696,-7.90512 0.68972,-10.01728c0.7912,-2.91712 1.94532,-4.05748 4.07812,-5.37328c0.79808,-0.49192 1.74752,-0.8858 2.81908,-1.16616l8.25772,-2.99796c0.54352,-0.14276 0.9116,-0.4644 0.95288,-0.68112c0.03612,-0.18748 0.0946,-0.72584 0.16684,-2.193c-1.15412,-0.82216 -2.09496,-1.55832 -2.38048,-1.83696c-1.86448,-1.8232 -2.9326,-3.49332 -3.3626,-5.25976c-0.12384,-0.50396 -0.1634,-0.60888 -0.34572,-0.74648c-0.2322,-0.17544 -0.4644,-0.30272 -0.68284,-0.42828c-0.57104,-0.32164 -1.21776,-0.68628 -1.68216,-1.54972c-1.01652,-1.89716 -1.73032,-5.36468 -1.73032,-6.52224c0,-0.0602 0.00688,-0.12212 0.02064,-0.1806c0.29928,-1.38976 1.62884,-2.43552 3.2336,-2.54388c0.16168,-0.01032 0.3182,-0.01204 0.47988,-0.01204c0.1892,-0.00688 0.36636,-0.00516 0.51944,0.00516c-0.0258,-1.48436 0.04988,-4.18304 0.08772,-5.44724l0.01548,-0.60372c0,-5.6846 5.6588,-10.3458 12.91376,-10.664c0.06192,-0.01376 0.12556,-0.02236 0.19092,-0.02236h0.27348c0.06708,0 0.13244,0.0086 0.19436,0.02236c7.25324,0.32164 12.91032,4.98112 12.91032,10.664l0.01548,0.59684c0.03612,1.27968 0.1118,4.02136 0.08772,5.45584c0.17028,-0.01204 0.35432,-0.01892 0.559,-0.00516c0.13416,0.00516 0.28208,0 0.43344,0.01032c1.60992,0.10836 2.93948,1.15584 3.23876,2.54388c0.01376,0.05848 0.02064,0.1204 0.02064,0.1806c0,1.2986 -0.74304,4.68528 -1.73032,6.52224c-0.46268,0.86344 -1.1094,1.22808 -1.68216,1.54972c-0.22016,0.12556 -0.45236,0.25284 -0.68284,0.42828c-0.1806,0.13416 -0.22016,0.2408 -0.3354,0.7138c-0.43688,1.7974 -1.50672,3.46752 -3.3712,5.289c-0.28208,0.27692 -1.25732,1.08188 -2.54044,2.0124c0.00516,1.03544 0.11352,1.64432 0.2236,1.87824c0.20296,0.43172 0.4988,0.70004 0.88408,0.79808c0.44204,0.15824 8.8064,3.24564 10.27012,3.86312c0.25972,0.10148 0.50052,0.19952 0.69144,0.28208c0.1032,0.03784 0.22532,0.08256 0.31648,0.10836c2.59376,0.78432 3.94052,2.39252 4.50296,5.37328c0.00688,0.03784 0.01204,0.0774 0.01376,0.11524c0,0 0.4128,8.10464 0.64844,13.04964c0.0172,0.33712 -0.16856,0.65532 -0.46956,0.8084c-4.75752,2.40112 -13.35236,5.1428 -18.94408,5.38876c-1.43104,0.06364 -2.79328,0.0946 -4.09704,0.0946zM64.32112,92.1662c8.55872,5.70352 15.6864,7.47168 27.9844,6.91612c5.17376,-0.22532 13.06684,-2.69868 17.74352,-4.95876c-0.22704,-4.71108 -0.58308,-11.70804 -0.6192,-12.42184c-0.4472,-2.31512 -1.34676,-3.39872 -3.3024,-3.98868c-0.1204,-0.03612 -0.28036,-0.0946 -0.46096,-0.16168c-0.21156,-0.09116 -0.43172,-0.17888 -0.69316,-0.28208c-1.44996,-0.61232 -10.04652,-3.78572 -10.13252,-3.8184c-0.79636,-0.19608 -1.5136,-0.81356 -1.93156,-1.70624c-0.2838,-0.60544 -0.4128,-1.63744 -0.38356,-3.0702c0.00516,-0.27176 0.13932,-0.5246 0.3612,-0.68112c1.34676,-0.95976 2.45272,-1.86104 2.69008,-2.09668c1.6254,-1.58928 2.5456,-2.99796 2.8982,-4.43588c0.14104,-0.58136 0.2924,-1.19884 0.98212,-1.71656c0.29584,-0.22188 0.58996,-0.39044 0.87032,-0.54696c0.47128,-0.2666 0.78432,-0.44376 1.01136,-0.86688c0.83764,-1.56004 1.48264,-4.55284 1.52392,-5.61064c-0.17888,-0.59512 -0.85484,-1.05436 -1.64948,-1.1094c-0.1118,-0.00688 -0.23564,-0.0086 -0.36292,-0.0086c-0.3698,-0.02064 -0.60888,0.02236 -0.80324,0.0516c-0.301,0.04816 -0.74648,0.11696 -1.11972,-0.22532c-0.38528,-0.3526 -0.34916,-0.8428 -0.33368,-1.05264c0.07224,-0.9718 -0.02924,-4.5494 -0.06536,-5.89444c-0.01032,-0.35776 -0.0172,-0.5934 -0.0172,-0.645c0,-4.79536 -5.0138,-8.72728 -11.41564,-8.95088c-0.03612,-0.00172 -0.07224,-0.00516 -0.10836,-0.01204c-0.03612,0.00688 -0.07052,0.01032 -0.10664,0.01204c-6.40184,0.2236 -11.41564,4.15552 -11.41564,8.95088c0,0.0516 -0.00688,0.29068 -0.0172,0.65188c-0.03612,1.34332 -0.1376,4.91576 -0.06708,5.88584c0.01548,0.20812 0.04988,0.70004 -0.33196,1.05264c-0.37668,0.34572 -0.82388,0.2752 -1.12144,0.22704c-0.19092,-0.03096 -0.41796,-0.06364 -0.76024,-0.05332c-0.16856,0.00172 -0.29068,0.00344 -0.41108,0.01032c-0.78776,0.05332 -1.46544,0.51428 -1.6426,1.1094c0.04128,1.06812 0.71552,4.1022 1.52392,5.61064c0.22876,0.42312 0.53836,0.60028 1.01136,0.86688c0.28208,0.15824 0.57448,0.32508 0.87032,0.54696c0.69144,0.51772 0.8428,1.13864 0.97696,1.68732c0.35776,1.46888 1.27624,2.87584 2.90164,4.4634c0.18232,0.17888 1.15068,0.9546 2.55248,1.93156c0.24252,0.17028 0.38184,0.45064 0.36636,0.74476c-0.07396,1.61508 -0.14104,2.51464 -0.21672,2.91196c-0.20296,1.05608 -1.21948,1.763 -2.13624,1.9952l-8.25084,2.99624c-0.98212,0.26144 -1.77332,0.58824 -2.42692,0.99072c-1.89716,1.1696 -2.68492,2.0038 -3.32304,4.35848c-0.516,1.90404 -0.59684,7.29108 -0.62952,9.59244c-0.00516,0.2924 -0.01032,0.54696 -0.01204,0.74992z" fill="#7e332b"></path><path d="M101.50924,56.08576l-1.02512,-0.11352l0.20124,-1.79912l-0.9202,0.39732l-0.40936,-0.94772l1.73892,-0.75336c0.172,-0.07224 0.36464,-0.04816 0.51256,0.05848c0.14792,0.10836 0.22704,0.28896 0.20468,0.47128zM72.84888,55.685l-0.30272,-2.6832c-0.02236,-0.1806 0.05676,-0.36292 0.20468,-0.47128c0.14792,-0.11008 0.34228,-0.13588 0.51256,-0.05848l1.74064,0.75336l-0.40936,0.94772l-0.92192,-0.39904l0.20124,1.79912z" fill="#b2744f"></path><path d="M74.5792,60.974c-0.00172,0 -0.00516,0 -0.00688,0c-0.1892,-0.00344 -0.34056,-0.16168 -0.33712,-0.35088l0.19092,-10.11704c0.00344,-0.1892 0.1892,-0.32852 0.35088,-0.33712c0.1892,0.00344 0.34056,0.16168 0.33712,0.35088l-0.19092,10.11704c-0.00172,0.18748 -0.15652,0.33712 -0.344,0.33712zM99.58972,60.974c-0.18576,0 -0.34056,-0.14964 -0.344,-0.33712l-0.19092,-10.11704c-0.00344,-0.1892 0.14792,-0.34744 0.33712,-0.35088c0.00172,0 0.00516,0 0.00688,0c0.18576,0 0.34056,0.14964 0.344,0.33712l0.19092,10.11704c0.00344,0.1892 -0.14792,0.34744 -0.33712,0.35088c-0.00172,0 -0.00516,0 -0.00688,0z" fill="#7e332b"></path><g fill="#7e332b"><path d="M87.12488,71.6638c-2.53356,0 -6.75272,-3.0788 -6.93848,-3.2164c-0.19092,-0.14104 -0.2322,-0.40936 -0.09116,-0.602c0.14104,-0.1892 0.41108,-0.22876 0.602,-0.09116c1.24356,0.9116 4.86244,3.22328 6.64092,3.03924c2.20676,-0.25112 5.76544,-2.75888 5.79984,-2.78468c0.19436,-0.1376 0.46268,-0.09116 0.60028,0.1032c0.1376,0.19436 0.09116,0.46268 -0.1032,0.60028c-0.15308,0.10836 -3.77368,2.66084 -6.19888,2.93604c-0.10148,0.01032 -0.20296,0.01548 -0.31132,0.01548z"></path></g><g fill="#5e2b29"><path d="M72.59432,38.37492c0.4128,-1.11112 1.85932,-1.1954 1.85932,-1.1954c0,0 -1.23496,-1.5738 -0.82388,-2.29276c0.41108,-0.71896 4.83492,-5.81704 15.58492,-4.68872c10.75,1.12832 12.083,8.11324 12.083,8.11324l-2.18784,12.75896c0,0 -4.28796,-12.65576 -21.61868,-10.26496c0,0 0.75508,1.60992 -2.9068,8.00144l-1.99004,-10.4318z"></path></g></g><g><path d="M85.73856,101.65372c-0.46784,-2.47508 -1.47576,-3.92504 -3.85452,-4.644c-0.1032,-0.03096 -0.24252,-0.08084 -0.39904,-0.14104c-0.1806,-0.0774 -0.40764,-0.17028 -0.67596,-0.2752c-1.44136,-0.60888 -10.00352,-3.76852 -10.00352,-3.76852c-0.7052,-0.17888 -1.16444,-0.68284 -1.43104,-1.24872c-0.4386,-0.93568 -0.26832,-3.36088 -0.26832,-3.36088c0,0 -3.58104,1.22464 -5.8136,1.6426c-2.19128,0.21328 -6.90236,-2.62128 -6.90236,-2.62128c0,0 -0.11008,3.50364 -0.25972,4.28108c-0.11696,0.6106 -0.77572,1.12832 -1.48092,1.3072l-8.21644,2.97904c-0.90816,0.23736 -1.78192,0.57792 -2.54732,1.05092c-2.06744,1.27624 -3.11492,3.19404 -3.64812,4.7988c0,0 -0.54008,3.82528 -0.51944,3.96288c-0.0516,0.53492 -0.10492,1.12488 -0.15824,1.74408c8.95604,6.063 16.14908,7.76236 28.48836,7.22228c5.6072,-0.24596 13.95608,-3.01344 18.33004,-5.22192c-0.23048,-4.87276 -0.63984,-7.70732 -0.63984,-7.70732z" fill="#fabf82"></path><path d="M81.88404,97.05788c-0.1032,-0.03096 -0.24252,-0.08084 -0.39904,-0.14104c-0.1806,-0.0774 -0.40764,-0.17028 -0.67596,-0.2752c-0.89096,-0.37668 -4.50468,-1.7286 -7.13284,-2.70556l-0.12384,-0.03268c-2.90164,1.4878 -7.03136,3.72208 -10.82396,3.72208c-3.7926,0 -7.59552,-2.01928 -10.82396,-3.72208l-0.36292,0.0946l-5.11012,1.85244c-0.90816,0.23736 -1.78192,0.57792 -2.54732,1.05092c-2.06744,1.27624 -3.11492,3.19404 -3.64812,4.7988c0,0 -0.54008,3.82528 -0.51944,3.96288c-0.0516,0.53492 -0.10492,6.27972 -0.15824,6.89892c8.95604,6.063 16.14908,7.76236 28.48836,7.22228c5.6072,-0.24596 13.95608,-3.01344 18.33004,-5.22192c-0.23048,-4.87276 -0.63984,-12.86216 -0.63984,-12.86216c-0.4644,-2.47508 -1.47404,-3.92504 -3.8528,-4.64228z" fill="#88cdd7"></path><path d="M50.20336,73.8912c-0.18404,-0.4042 -4.4806,-9.99664 -1.19712,-16.55672c1.3674,-2.73308 3.83388,-4.52704 7.3358,-5.332c2.021,-1.37772 4.43588,-2.13452 6.82496,-2.13452c2.01928,0 3.98008,0.52288 5.82736,1.55144c0.96148,0.53492 1.7372,0.98556 2.38736,1.36396c2.06056,1.19712 2.6832,1.56004 3.82872,1.56004c0.129,0 0.26488,-0.00516 0.40936,-0.01376c0.3268,-0.02064 0.50396,-0.03268 0.6708,-0.03268c1.3932,0 1.66152,0.90128 1.71312,1.29c0.17028,1.27796 -0.26832,2.35468 -0.65532,3.30412c-0.31476,0.774 -0.58824,1.4448 -0.41968,1.99348c2.15688,7.08124 -1.19024,12.84496 -1.33472,13.08576l-1.61852,2.72792l0.02064,-3.17168c0,-0.05504 0.0172,-5.0912 -1.1352,-8.49164c-1.62024,0.8342 -3.54836,1.2728 -5.63988,1.2728c-3.74616,0 -7.87588,-1.34332 -11.97808,-3.89236c-3.39012,2.89648 -3.39184,11.0252 -3.39184,11.10948l0.01892,4.00932z" fill="#fcab6a"></path><path d="M63.167,50.72796c1.74408,0 3.5862,0.42656 5.4094,1.44308c4.0764,2.27384 4.8332,3.03408 6.63404,3.03408c0.1462,0 0.29756,-0.00516 0.45924,-0.01376c0.21328,-0.01204 0.42656,-0.03096 0.62264,-0.03096c0.44204,0 0.79636,0.09116 0.85656,0.5418c0.28208,2.1242 -1.55316,3.7668 -1.04576,5.4352c2.07088,6.80088 -1.25216,12.39948 -1.25216,12.39948c0,0 0.03956,-6.20748 -1.56176,-9.74552c-1.65292,1.0922 -3.72724,1.66152 -6.07504,1.66152c-3.54836,0 -7.72452,-1.30204 -12.01936,-4.0764c-4.26044,2.83456 -4.21056,12.1604 -4.21056,12.1604c0,0 -8.07024,-17.716 5.70868,-20.72944c1.75268,-1.23496 4.0162,-2.07948 6.47408,-2.07948M63.167,49.00796v1.72v-1.72c-2.50604,0 -5.04132,0.77744 -7.17412,2.19472c-3.67908,0.88236 -6.2866,2.81392 -7.75548,5.74652c-3.4658,6.923 0.99244,16.87836 1.18336,17.29976l3.31616,7.27904l-0.03096,-7.99972c-0.0086,-2.107 0.47816,-7.57316 2.6574,-10.02588c4.04888,2.40456 8.12356,3.67048 11.85252,3.67048c1.84212,0 3.57244,-0.32164 5.10152,-0.94084c0.82732,3.1734 0.81528,7.24464 0.81528,7.29452l-0.03612,6.33992l3.23532,-5.4524c0.15136,-0.25456 3.68252,-6.3382 1.41728,-13.77892c-0.0774,-0.25628 0.17372,-0.87376 0.3956,-1.41728c0.40592,-0.9976 0.90988,-2.236 0.71036,-3.74272c-0.13072,-0.98384 -0.87204,-2.03648 -2.56108,-2.03648c-0.18576,0 -0.38184,0.01204 -0.58308,0.0258l-0.14276,0.0086c-0.12556,0.00688 -0.24424,0.01032 -0.35776,0.01032c-0.88408,0 -1.34848,-0.25112 -3.397,-1.44308c-0.6536,-0.38012 -1.43448,-0.8342 -2.39768,-1.37256c-1.97972,-1.1008 -4.08156,-1.6598 -6.24876,-1.6598z" fill="#7e332b"></path><path d="M47.42384,117.61016c-0.28552,0 -0.516,-0.23048 -0.516,-0.516v-4.55456c0,-0.28552 0.23048,-0.516 0.516,-0.516c0.28552,0 0.516,0.23048 0.516,0.516v4.55456c0,0.28552 -0.23048,0.516 -0.516,0.516zM77.79388,118.41168c-0.28552,0 -0.516,-0.23048 -0.516,-0.516v-5.35608c0,-0.28552 0.23048,-0.516 0.516,-0.516c0.28552,0 0.516,0.23048 0.516,0.516v5.35608c-0.00172,0.28552 -0.23048,0.516 -0.516,0.516z" fill="#00a5a5"></path><path d="M76.85304,71.05664c-0.13416,-0.0086 -0.27176,-0.01032 -0.41452,-0.01032c-1.11284,-0.05332 -1.01824,0.36636 -0.96836,-0.32336c0.08944,-1.22292 -0.49192,-6.15932 -0.49192,-6.40872c0,-5.13936 -5.3664,-9.33272 -12.07268,-9.56492v-0.01548c-0.04472,0 -0.08944,0.00688 -0.13416,0.00688c-0.04472,-0.00172 -0.08944,-0.00688 -0.13416,-0.00688v0.01548c-6.70628,0.2322 -12.07268,4.42384 -12.07268,9.56492c0,0.25112 -0.17028,5.20988 -0.08084,6.4328c0.04988,0.68972 -0.2666,0.24424 -1.37944,0.29928c-0.14276,0 -0.28036,0.00172 -0.41452,0.01032c-1.2212,0.08084 -2.20848,0.85828 -2.41832,1.81976c0.14964,0.09116 0.7052,4.30344 1.60476,5.96324c0.50224,0.92708 1.28656,1.05608 2.09324,1.65292c0.4472,0.33196 0.5332,0.7052 0.65532,1.20056c0.45236,1.83352 1.70796,3.39356 3.08396,4.72484c0.6794,0.65704 5.18924,5.46444 9.06268,5.22192c3.89236,-0.1462 8.38328,-4.56488 9.06268,-5.22192c1.376,-1.33128 2.6316,-2.8896 3.08396,-4.72484c0.12212,-0.49536 0.20812,-0.8686 0.65532,-1.20056c0.80668,-0.59856 1.591,-0.72756 2.09324,-1.65292c0.89956,-1.6598 1.45512,-5.87208 1.60476,-5.96324c-0.20984,-0.96148 -1.19712,-1.7372 -2.41832,-1.81976z" fill="#fddbbc"></path><path d="M62.8402,79.19912c0.78776,0 1.55144,-0.344 2.04336,-0.9202c0.04988,-0.05848 0.043,-0.14448 -0.01548,-0.19436v0c-0.05676,-0.04988 -0.14448,-0.04472 -0.19436,0.01376c-0.40076,0.45752 -1.06812,0.72068 -1.83352,0.72068c-0.76368,0 -1.43276,-0.26316 -1.83352,-0.72068c-0.02752,-0.03096 -0.06536,-0.04644 -0.10492,-0.04644c-0.03268,0 -0.06364,0.01032 -0.09116,0.03268c-0.05676,0.04988 -0.06364,0.1376 -0.01548,0.19436c0.49364,0.5762 1.25732,0.9202 2.04508,0.9202zM60.329,68.55748l0.50052,-0.95976c-2.11388,-0.49536 -4.54596,-0.41624 -6.5532,0.2064l0.62952,0.93568c1.64776,-0.54352 3.67908,-0.61404 5.42316,-0.18232zM70.907,68.55748l0.50052,-0.95976c-2.11388,-0.49536 -4.54596,-0.41624 -6.5532,0.2064l0.62952,0.93568c1.64948,-0.54352 3.67908,-0.61404 5.42316,-0.18232zM57.28632,69.91284c-0.5074,0 -0.95288,0.3354 -1.21088,0.8428c0.06364,-0.02064 0.13072,-0.0344 0.20124,-0.0344c0.41624,0 0.75336,0.37668 0.75336,0.84108c0,0.4644 -0.33712,0.84108 -0.75336,0.84108c-0.13588,0 -0.26316,-0.043 -0.37324,-0.11352c0.17888,0.76196 0.72928,1.31752 1.38288,1.31752c0.79808,0 1.44308,-0.82732 1.44308,-1.84728c0.00172,-1.01996 -0.645,-1.84728 -1.44308,-1.84728zM68.33388,69.91284c-0.43344,0 -0.82044,0.24596 -1.08532,0.63124c0.08256,-0.0344 0.172,-0.05676 0.26488,-0.05676c0.41624,0 0.75336,0.37668 0.75336,0.84108c0,0.4644 -0.33712,0.84108 -0.75336,0.84108c-0.258,0 -0.48504,-0.14448 -0.62092,-0.36636c0.01892,0.99932 0.65704,1.80256 1.44136,1.80256c0.79808,0 1.44308,-0.82732 1.44308,-1.84728c0,-1.01824 -0.64672,-1.84556 -1.44308,-1.84556zM68.9462,81.34052c0.05848,-0.04816 0.06708,-0.13588 0.02064,-0.19436v0c-0.04816,-0.05848 -0.13588,-0.0688 -0.19436,-0.02064c-1.30204,1.03716 -3.46236,1.63228 -5.93056,1.63228c-2.4682,0 -4.62852,-0.59512 -5.93056,-1.63228c-0.0258,-0.02064 -0.05504,-0.03096 -0.086,-0.03096c-0.04128,0 -0.08084,0.0172 -0.10836,0.0516c-0.04816,0.05848 -0.03956,0.1462 0.02064,0.19436c1.46888,1.20056 3.75132,1.9178 6.10428,1.9178c2.35124,0 4.63368,-0.71724 6.10428,-1.9178zM64.45184,87.419c0.07224,0 0.13244,-0.08256 0.13244,-0.1806c0,-0.09804 -0.0602,-0.1806 -0.13244,-0.1806h-2.96528c-0.07224,0 -0.13244,0.08256 -0.13244,0.1806c0,0.09804 0.0602,0.1806 0.13244,0.1806z" fill="#5e2b29"></path><path d="M64.0442,120.89364c-10.3286,0 -16.99704,-2.06744 -24.96752,-7.46308c-0.25628,-0.17544 -0.40076,-0.47644 -0.37496,-0.78604c0.01032,-0.12556 0.01548,-0.5418 0.02408,-1.14552c0.03784,-2.52668 0.11524,-7.78472 0.68112,-9.86592c0.77916,-2.87756 1.91952,-4.00244 4.02652,-5.30448c0.78776,-0.48676 1.72516,-0.87376 2.78296,-1.14896l8.13904,-2.95668c0.5332,-0.13932 0.89096,-0.45236 0.93052,-0.6622c0.0258,-0.12556 0.086,-0.58308 0.1634,-2.15516c-1.14036,-0.81184 -2.064,-1.53768 -2.34264,-1.81116c-1.83696,-1.79568 -2.89476,-3.44344 -3.3196,-5.18752c-0.11868,-0.49536 -0.15824,-0.60028 -0.33368,-0.731c-0.22876,-0.17372 -0.45752,-0.29928 -0.67596,-0.4214c-0.56416,-0.31992 -1.204,-0.68112 -1.66152,-1.53424c-1.00276,-1.87308 -1.70624,-5.29416 -1.70624,-6.43624c0,-0.0602 0.00688,-0.12212 0.02064,-0.1806c0.29584,-1.376 1.61336,-2.40972 3.20092,-2.51808c0.1548,-0.01032 0.31132,-0.01204 0.47128,-0.01204c0.1806,-0.0086 0.34916,-0.00688 0.4988,0.00516c-0.02408,-1.46716 0.04988,-4.11596 0.086,-5.3578l0.01548,-0.59512c0,-5.61064 5.58312,-10.21164 12.74004,-10.5264c0.06192,-0.01376 0.12556,-0.02236 0.19092,-0.02236h0.27004c0.06708,0 0.13244,0.0086 0.19436,0.02236c7.1552,0.3182 12.7366,4.91576 12.7366,10.5264c0.00516,0.07224 0.04128,0.3956 0.09116,0.84796c0.21156,1.94016 0.43344,4.06608 0.40764,5.09292c0.26488,0.00688 0.41796,0.0086 0.57104,0.01892c1.591,0.10836 2.90508,1.14208 3.20436,2.51636c0.01376,0.0602 0.02064,0.1204 0.02064,0.18232c0,1.27968 -0.73444,4.62164 -1.70796,6.43624c-0.45752,0.85312 -1.09736,1.21432 -1.66152,1.53424c-0.21672,0.12212 -0.44548,0.2494 -0.67424,0.4214c-0.17716,0.13072 -0.21328,0.23564 -0.3268,0.70004c-0.43172,1.76816 -1.48608,3.41764 -3.32648,5.21676c-0.27864,0.27348 -1.24012,1.0664 -2.50088,1.98144c0.00516,1.01308 0.11008,1.61164 0.21844,1.83868c0.1978,0.42312 0.48848,0.68456 0.86344,0.78088c0.43688,0.15652 8.686,3.1992 10.12908,3.81152c0.25284,0.09632 0.49192,0.19264 0.68284,0.27692c0.09632,0.03612 0.20984,0.0774 0.29584,0.1032c2.57312,0.77744 3.9044,2.365 4.45996,5.30964c0.00688,0.03784 0.01204,0.0774 0.01376,0.11524c0,0 0.40764,7.99112 0.63812,12.8656c0.0172,0.33884 -0.16856,0.65532 -0.46956,0.8084c-4.69044,2.36672 -13.16316,5.07056 -18.6792,5.31308c-1.40696,0.06536 -2.75372,0.09632 -4.04028,0.09632zM40.43548,112.26956c8.43316,5.62096 15.4628,7.34612 27.57676,6.8112c5.09808,-0.22188 12.86904,-2.65912 17.48036,-4.88308c-0.22188,-4.64228 -0.57276,-11.52916 -0.60888,-12.2378c-0.44032,-2.27384 -1.3244,-3.34024 -3.24736,-3.9216c-0.11352,-0.03268 -0.2752,-0.09116 -0.46096,-0.1634c-0.20296,-0.08772 -0.41796,-0.17544 -0.67252,-0.27176c-1.43448,-0.60716 -9.91064,-3.73412 -9.99664,-3.76508c-0.78776,-0.19436 -1.4964,-0.80496 -1.91092,-1.68904c-0.28036,-0.59856 -0.40764,-1.6168 -0.3784,-3.03236c0.00688,-0.27176 0.13932,-0.5246 0.3612,-0.68112c1.32612,-0.946 2.41488,-1.83352 2.65224,-2.06572c1.60132,-1.5652 2.50604,-2.95324 2.85176,-4.36708c0.13932,-0.57276 0.28896,-1.1868 0.97352,-1.69936c0.2924,-0.21844 0.58136,-0.38528 0.85828,-0.54008c0.50568,-0.28552 0.77916,-0.45408 0.99244,-0.84968c0.82388,-1.5394 1.46028,-4.4806 1.50156,-5.52464c-0.17716,-0.57104 -0.8514,-1.03028 -1.61336,-1.08188c-0.11352,-0.00688 -0.23392,-0.0086 -0.35776,-0.0086c-0.01376,0 -0.17544,-0.00688 -0.18748,-0.0086c-0.67252,-0.03096 -1.07672,-0.04988 -1.40352,-0.4214c-0.30616,-0.34916 -0.27176,-0.74476 -0.24768,-1.06124c0.07396,-0.9804 -0.23392,-3.79088 -0.38184,-5.14108c-0.06192,-0.5676 -0.10148,-0.9632 -0.10148,-1.03544c0,-4.7214 -4.93812,-8.59312 -11.24192,-8.81328c-0.03612,-0.00172 -0.07052,-0.00516 -0.10664,-0.01032c-0.0344,0.00516 -0.0688,0.0086 -0.10492,0.01032c-6.3038,0.22016 -11.24192,4.09188 -11.24192,8.81328c0,0.04988 -0.00688,0.28724 -0.0172,0.64328c-0.03612,1.32612 -0.13416,4.84524 -0.06536,5.79984c0.01548,0.20984 0.04988,0.69832 -0.33196,1.05092c-0.37496,0.34056 -0.81872,0.26832 -1.11456,0.22532c-0.19092,-0.03096 -0.43688,-0.06536 -0.7482,-0.05332c-0.16684,0.00172 -0.28552,0.00344 -0.40248,0.01032c-0.76024,0.0516 -1.4362,0.50912 -1.61164,1.08188c0.04128,1.05436 0.7052,4.04028 1.49984,5.52464c0.21156,0.3956 0.48676,0.56244 0.99244,0.84796c0.27692,0.15824 0.5676,0.32336 0.86,0.5418c0.68628,0.51428 0.83592,1.13176 0.96836,1.67872c0.3526,1.43792 1.25732,2.82596 2.85692,4.38772c0.17888,0.17716 1.12832,0.9374 2.51464,1.90232c0.24252,0.16856 0.38012,0.45064 0.36636,0.74476c-0.1032,2.2876 -0.18576,2.72792 -0.21328,2.8724c-0.20124,1.04576 -1.20572,1.74924 -2.11388,1.978l-8.13388,2.95496c-0.96836,0.25628 -1.74752,0.5762 -2.3908,0.9718c-1.86792,1.15412 -2.64192,1.97456 -3.26972,4.2914c-0.5074,1.87308 -0.58652,7.17756 -0.6192,9.44108c-0.00172,0.28896 -0.00688,0.54008 -0.01032,0.74304z" fill="#7e332b"></path><path d="M77.09384,76.70684l-1.02512,-0.11352l0.1978,-1.76128l-0.89612,0.38872l-0.40936,-0.94772l1.71312,-0.74304c0.17028,-0.07224 0.36464,-0.04988 0.51256,0.05848c0.14792,0.10836 0.22704,0.28896 0.20468,0.47128zM48.82392,76.30952l-0.29756,-2.64536c-0.02236,-0.18232 0.05676,-0.36292 0.20468,-0.47128c0.14792,-0.11008 0.34228,-0.13416 0.51256,-0.05848l1.71312,0.74304l-0.40936,0.94772l-0.89612,-0.38872l0.19608,1.75956z" fill="#b2744f"></path><path d="M50.53704,81.528c-0.00172,0 -0.00516,0 -0.00688,0c-0.1892,-0.00344 -0.34056,-0.16168 -0.33712,-0.35088l0.1892,-9.97428c0.00344,-0.1892 0.1548,-0.33196 0.35088,-0.33712c0.1892,0.00344 0.34056,0.16168 0.33712,0.35088l-0.1892,9.97428c-0.00344,0.18748 -0.15824,0.33712 -0.344,0.33712zM75.19668,81.528c-0.18576,0 -0.34056,-0.14964 -0.344,-0.33712l-0.1892,-9.97428c-0.00344,-0.1892 0.14792,-0.34744 0.33712,-0.35088c0.1978,0.03268 0.34744,0.14792 0.35088,0.33712l0.1892,9.97428c0.00344,0.1892 -0.14792,0.34744 -0.33712,0.35088c-0.00172,0 -0.00516,0 -0.00688,0zM62.90556,92.06816c-2.49916,0 -6.65984,-3.03924 -6.84388,-3.1734c-0.19092,-0.14104 -0.2322,-0.40936 -0.09116,-0.602c0.14104,-0.1892 0.41108,-0.23048 0.602,-0.09116c1.22464,0.90128 4.80912,3.22156 6.54288,2.99452c2.17236,-0.24768 5.68116,-2.7176 5.71556,-2.7434c0.19264,-0.1376 0.46268,-0.08944 0.60028,0.1032c0.1376,0.19264 0.09116,0.46268 -0.1032,0.60028c-0.15136,0.10836 -3.7238,2.623 -6.11632,2.89476c-0.09804,0.01204 -0.19952,0.0172 -0.30616,0.0172z" fill="#7e332b"></path><path d="M77.14888,55.77444c-0.086,-0.65188 -0.78776,-0.55384 -1.4792,-0.51256c-2.1586,0.12728 -2.68664,-0.56072 -7.09328,-3.0186c-4.39288,-2.44928 -8.88724,-1.47232 -11.88176,0.6364c-13.7772,3.01172 -5.70868,20.72944 -5.70868,20.72944c0,0 -0.04988,-9.32584 4.21056,-12.1604c7.13456,4.6096 13.94232,5.15656 18.0944,2.41488c1.60132,3.53804 1.56176,9.74552 1.56176,9.74552c0,0 3.32132,-5.5986 1.25216,-12.39948c-0.50912,-1.6684 1.32612,-3.311 1.04404,-5.4352z" fill="#fcab6a"></path><g fill="#7e332b"><path d="M75.50284,73.56096l-0.86,-0.00688c0,-0.05848 0.02064,-5.64848 -1.3588,-9.11428c-4.55972,2.62644 -11.45176,1.67872 -18.20276,-2.52668c-3.86656,2.85004 -3.86828,11.55324 -3.86828,11.64268l-0.86,0.00344c-0.00172,-0.39044 0,-9.59072 4.4806,-12.51988c0.1376,-0.0946 0.32164,-0.09804 0.46612,-0.00344c6.75788,4.28796 13.63788,5.21332 17.95164,2.4166c0.10664,-0.06708 0.23736,-0.08944 0.3526,-0.0516c0.1204,0.03612 0.21844,0.11868 0.27004,0.23392c1.65292,3.58104 1.63056,9.66812 1.62884,9.92612z"></path></g></g><g><path d="M130.25216,98.5474c-0.81012,-0.56588 -11.19376,-4.16068 -11.19376,-4.16068c-0.66048,-0.17544 -1.02684,-0.70864 -1.14552,-1.30548c-0.14276,-0.71896 -0.215,-1.87136 -0.25284,-3.01c2.795,-1.53424 4.98628,-3.784 6.6994,-6.5704c0.2838,-0.46268 0.5074,-1.29688 0.51256,-1.83868c0.01032,-1.07672 0.01032,-2.15172 0.01376,-3.22844c0.6622,-0.09288 1.12144,-0.46956 1.38288,-1.29516c0.43172,-1.36224 1.07672,-4.2054 1.0836,-4.22948c0.57964,-1.76472 -0.28036,-2.67632 -1.95908,-2.64364c0.20984,-0.129 0.8514,-0.78604 1.10596,-1.29172c0.03956,0.00172 0.07912,0.00688 0.1204,0.00688c0.1634,0 0.32336,-0.01376 0.4816,-0.0344c2.2102,0.71208 5.57452,0.27692 6.46032,-4.90888c-0.81184,1.04232 -2.16032,1.48264 -3.29036,1.38116c-0.0086,-0.47128 -0.1118,-0.9202 -0.29584,-1.32956c0.6536,-0.61232 1.06124,-1.46544 1.06124,-2.41144c0,-1.86104 -1.5738,-3.36948 -3.51396,-3.36948c-0.01376,0 -0.02752,0.00172 -0.04128,0.00172c0.13588,-0.4128 0.20984,-0.8514 0.20984,-1.3072c0,-2.3908 -2.021,-4.33096 -4.515,-4.33096c-0.42828,0 -0.8428,0.0602 -1.23496,0.16856c0.00172,-0.05676 0.0086,-0.1118 0.0086,-0.16856c0,-2.83456 -2.52324,-5.13076 -5.63644,-5.13076c-1.79912,0 -3.39872,0.77056 -4.43072,1.96424c-1.14724,-0.71896 -2.59032,-1.1524 -4.16068,-1.1524c-3.73412,0 -6.7596,2.42004 -6.7596,5.40596c0,0.13244 0.01376,0.26144 0.02408,0.39044c-0.8772,0.4214 -1.55316,1.10424 -1.85072,1.98832c-0.29412,0.87032 0.66908,3.30584 0.63296,3.39184v0c-0.24596,0.00344 -2.5886,0.17372 -2.07088,2.56968c0.1118,0.51772 0.95116,7.93952 1.39836,8.15968c-1.67872,-0.03268 -2.53356,0.88408 -1.95392,2.6488c0.0086,0.02408 0.65188,2.86724 1.0836,4.22948c0.29068,0.91676 0.82388,1.2814 1.60992,1.3158c0.0086,0.90988 0.01032,1.81804 -0.02924,2.7262c-0.04988,1.14036 0.29412,2.13796 0.93568,3.06504c1.63744,2.37016 3.70488,4.3086 6.2092,5.76888c-0.03784,1.14036 -0.1118,2.30652 -0.25112,3.06848c-0.11008,0.59856 -0.48504,1.13004 -1.14552,1.30548l-8.4882,2.91712c-0.84968,0.2322 -1.66668,0.56416 -2.38392,1.02856c-3.74788,2.42176 -3.96804,7.23948 -3.8958,7.51296h21.52064h21.52064c0.07052,-0.2752 -0.09288,-4.86416 -3.57588,-7.29796z" fill="#ffcba7"></path><path d="M117.83204,64.99708c0.74304,1.48092 2.34952,2.50948 4.22088,2.50948c0.45752,0 0.89956,-0.06364 1.31752,-0.17888c0.65532,0.77572 1.6684,1.27624 2.81048,1.27624c0.15996,0 0.31648,-0.01376 0.47128,-0.03268c2.07432,0.65016 5.4524,1.04404 6.47064,-3.33164c-0.7826,0.5934 -2.2446,0.75164 -2.91884,0.33368c-0.0086,-0.4644 -0.11868,-1.23496 -0.30272,-1.63744c0.65016,-0.602 1.05436,-1.44136 1.05436,-2.37016c0,-1.83008 -1.56348,-3.31444 -3.4916,-3.31444c-0.01376,0 -0.02752,0.00172 -0.04128,0.00172c0.13588,-0.40592 0.20984,-0.83764 0.20984,-1.28656c0,-2.35124 -2.00896,-4.25872 -4.48576,-4.25872c-0.42656,0 -0.83592,0.0602 -1.22636,0.16512c0.00172,-0.05504 0.0086,-0.11008 0.0086,-0.16512c0,-2.7864 -2.50776,-5.04476 -5.60032,-5.04476c-1.78708,0 -3.37636,0.7568 -4.40148,1.93156c-1.14036,-0.70692 -2.57312,-1.13176 -4.13488,-1.13176c-3.71004,0 -6.7166,2.38048 -6.7166,5.3148c0,0.129 0.01376,0.25628 0.02408,0.38356c-0.87204,0.4128 -1.54284,1.08532 -1.83868,1.95564c-0.02064,0.05848 0.53664,2.94464 0.61748,3.26972c0.59856,0.77744 1.51876,1.42072 2.65568,1.763c1.16444,0.35088 2.34092,0.31992 3.32992,-0.00516c0.82044,2.73652 3.98696,4.77472 7.76924,4.77472c1.53768,0.00516 2.97732,-0.3354 4.19852,-0.92192z" fill="#efa21b"></path><path d="M112.30052,105.74388h21.371c0.07224,-0.26316 -0.09116,-4.69216 -3.55008,-7.03996c-0.80324,-0.54524 -11.11636,-4.01448 -11.11636,-4.01448c-0.65532,-0.16856 -1.08188,-0.645 -1.32956,-1.1782c-0.40764,-0.88408 -0.23048,-3.55868 -0.23048,-3.55868c0,0 -2.54732,1.54112 -4.62164,1.935c-2.03476,0.20124 -5.53496,-1.7716 -5.53496,-1.7716c0,0 -0.1806,2.6058 -0.3182,3.34024c-0.10836,0.5762 -0.72068,1.06468 -1.376,1.23496l-8.42972,2.81392c-0.84452,0.22532 -1.65464,0.54524 -2.36672,0.99244c-3.72208,2.33576 -3.94052,6.98492 -3.86828,7.24808h21.371z" fill="#ffb086"></path><path d="M113.81928,119.29748c7.42868,0 14.38952,-1.9866 20.39748,-5.4438c-0.23048,-8.37984 -0.00172,-13.94748 -4.12284,-15.21168c-0.903,-0.27692 -4.30172,-1.91436 -4.30172,-1.91436c0,0 -8.80124,4.92436 -12.6162,5.7018c-6.09396,1.24184 -14.17108,1.96768 -22.00052,1.161c-0.08084,0.3354 -0.21672,6.23844 -0.35604,8.64644c6.55836,4.4548 14.4738,7.0606 22.99984,7.0606z" fill="#00a5a5"></path><path d="M100.20376,59.96608c-0.20812,0.03612 -0.58824,0.1806 -0.75336,0.21328c-1.31752,0.25628 -1.20228,1.36912 -1.20228,1.36912l1.24012,7.96188c0.03956,-0.688 0.21328,-6.82496 2.1672,-8.50196c-0.1032,-0.0516 -1.3588,-0.86344 -1.45168,-1.04232z" fill="#6d3c14" opacity="0.34"></path><path d="M110.22448,69.21624c-2.18784,-0.62092 -5.90648,-0.77916 -8.1184,-0.42484c-0.12556,0.02064 -0.21672,0.1118 -0.215,0.21672c0.00172,0.10492 0.09288,0.19436 0.21844,0.21328c0.04472,0.00688 5.57108,0.66564 7.30828,1.17992c0.02924,0.0086 0.0602,0.01204 0.08944,0.01204c0.086,0 0.17028,-0.0344 0.22016,-0.09632l0.62952,-0.77228c0.04644,-0.05676 0.05676,-0.12728 0.03096,-0.19092c-0.0258,-0.06536 -0.086,-0.11524 -0.1634,-0.1376zM114.58984,69.21624c2.18784,-0.62092 5.90648,-0.77916 8.1184,-0.42484c0.12556,0.02064 0.21672,0.1118 0.215,0.21672c-0.00172,0.10492 -0.09288,0.19436 -0.21844,0.21328c-0.04472,0.00688 -5.57108,0.66564 -7.30828,1.17992c-0.02924,0.0086 -0.0602,0.01204 -0.08944,0.01204c-0.086,0 -0.17028,-0.0344 -0.22016,-0.09632l-0.62952,-0.77228c-0.04644,-0.05676 -0.05848,-0.12728 -0.03096,-0.19092c0.02408,-0.06536 0.08428,-0.11524 0.1634,-0.1376zM106.36652,71.68788c-0.5504,0 -1.03372,0.35948 -1.31236,0.903c0.0688,-0.02064 0.14104,-0.03612 0.21672,-0.03612c0.45064,0 0.817,0.40248 0.817,0.90128c0,0.49708 -0.36636,0.90128 -0.817,0.90128c-0.14792,0 -0.2838,-0.04644 -0.4042,-0.12212c0.19264,0.81528 0.7912,1.4104 1.49812,1.4104c0.86516,0 1.5652,-0.8858 1.5652,-1.978c0.00172,-1.09392 -0.69832,-1.97972 -1.56348,-1.97972zM118.34288,71.68788c-0.46956,0 -0.88924,0.26316 -1.17648,0.67596c0.08944,-0.03784 0.18576,-0.0602 0.28724,-0.0602c0.45064,0 0.817,0.40248 0.817,0.90128c0,0.49708 -0.36636,0.90128 -0.817,0.90128c-0.28036,0 -0.52632,-0.1548 -0.67424,-0.39216c0.02064,1.06984 0.71208,1.92984 1.56348,1.92984c0.86516,0 1.5652,-0.8858 1.5652,-1.978c0,-1.0922 -0.70176,-1.978 -1.5652,-1.978z" fill="#7e332b"></path><path d="M112.3246,81.87544c0.91504,0 1.80256,-0.3956 2.37532,-1.0578c0.129,-0.14964 0.11008,-0.37496 -0.04128,-0.50224c-0.15136,-0.12728 -0.3784,-0.11008 -0.5074,0.03612c-0.39388,0.44548 -1.06124,0.70004 -1.82836,0.70004c-0.76712,0 -1.43448,-0.25456 -1.82836,-0.70004c-0.12556,-0.14104 -0.35776,-0.15996 -0.5074,-0.0344c-0.14964,0.12728 -0.16684,0.3526 -0.03956,0.50224c0.57448,0.66048 1.46372,1.05608 2.37704,1.05608z" fill="#7e332b" opacity="0.41"></path><path d="M112.62044,92.17824c-2.19988,0 -5.70352,-1.96424 -5.86004,-2.05024c-0.2064,-0.11696 -0.27864,-0.38012 -0.1634,-0.58652c0.11524,-0.20812 0.3784,-0.2752 0.58652,-0.1634c0.03612,0.02064 3.79604,2.12764 5.67428,1.92812c1.92468,-0.19436 4.74548,-1.94704 4.773,-1.96424c0.19952,-0.1204 0.46784,-0.06192 0.5934,0.13588c0.12556,0.20124 0.06536,0.46612 -0.13588,0.5934c-0.12212,0.0774 -3.0186,1.8748 -5.1428,2.09152c-0.10664,0.01032 -0.215,0.01548 -0.32508,0.01548z" fill="#7e332b"></path><path d="M130.20228,65.45116c-0.0086,-0.46096 -0.11868,-1.22636 -0.30272,-1.6254c0.65016,-0.59684 1.05436,-1.43104 1.05436,-2.35468c0,-1.81804 -1.56348,-3.29208 -3.4916,-3.29208c-0.01376,0 -0.02752,0.00172 -0.04128,0.00172c0.13588,-0.40248 0.20984,-0.83248 0.20984,-1.27624c0,-2.33576 -2.00896,-4.22948 -4.48576,-4.22948c-0.42656,0 -0.83592,0.0602 -1.22636,0.1634c0.00172,-0.05504 0.0086,-0.10836 0.0086,-0.1634c0,-2.76748 -2.50776,-5.01036 -5.60032,-5.01036c-1.39148,0 -2.65912,0.45924 -3.6378,1.2126c0.45752,0.4644 0.15652,-0.06364 0.45752,0.4644c1.462,-0.53664 3.9388,-0.1892 5.50916,0.66048c2.71588,1.4706 3.81324,5.40768 2.48024,7.83804c-0.02752,0.04816 -0.05848,0.09288 -0.08772,0.13932c0.39388,0.09288 0.7826,0.23736 1.15584,0.4386c2.1758,1.1782 3.0272,3.79432 1.90232,5.84628c-0.215,0.39044 -0.48504,0.73272 -0.79808,1.02168c0.01204,0.00688 0.0258,0.01204 0.03784,0.0172c1.1782,0.63812 1.84212,1.81804 1.85072,3.01344c0.31476,0.08428 0.63984,0.14104 0.98384,0.14104c0.15996,0 0.31648,-0.01376 0.47128,-0.03268c2.07432,0.645 5.4524,1.03716 6.47064,-3.30756c-0.78432,0.59168 -2.24804,0.7482 -2.92056,0.33368z" fill="#e2900e"></path><path d="M128.82628,69.62732c-0.86,0 -1.70452,-0.20812 -2.19816,-0.54524c-1.21604,0.09632 -2.46992,-0.35432 -3.3196,-1.20744c-2.16376,0.473 -4.48404,-0.48504 -5.6158,-2.2446c-1.23152,0.51428 -2.61096,0.7826 -4.01448,0.7826c-3.7668,0 -7.03308,-1.89716 -8.14592,-4.67152c-1.01308,0.22876 -2.12076,0.18748 -3.17168,-0.12556c-1.35364,-0.4042 -2.47336,-1.20228 -3.15276,-2.24632c-0.15652,-0.2408 -0.08944,-0.559 0.14964,-0.7138c0.23908,-0.1548 0.559,-0.09116 0.7138,0.14964c0.53836,0.82732 1.48092,1.49124 2.58516,1.8232c1.02512,0.30616 2.10528,0.30788 3.04268,-0.00172c0.13588,-0.043 0.27692,-0.03096 0.39904,0.0344c0.12212,0.06536 0.215,0.17544 0.25456,0.30788c0.77056,2.55764 3.85108,4.41352 7.32548,4.41352c1.42072,0 2.80704,-0.30444 4.0076,-0.87892c0.25112,-0.12384 0.559,-0.01892 0.68284,0.23392c0.8514,1.68732 3.02548,2.60408 4.97424,2.06744c0.19608,-0.05848 0.40076,0.01032 0.53148,0.1634c0.6794,0.80152 1.79224,1.1954 2.85004,1.06812c0.1548,-0.01548 0.31648,0.03612 0.42656,0.14964c0.34744,0.35088 1.9866,0.64844 2.99624,0.15136c0.258,-0.12384 0.56588,-0.02236 0.69144,0.2322c0.12728,0.25456 0.02408,0.56416 -0.2322,0.69144c-0.51084,0.25456 -1.14896,0.36636 -1.7802,0.36636z" fill="#7e332b"></path><path d="M104.60524,78.0536c-1.18266,0 -2.1414,0.97337 -2.1414,2.17408c0,1.20071 0.95874,2.17408 2.1414,2.17408c1.18266,0 2.1414,-0.97337 2.1414,-2.17408c0,-1.20071 -0.95874,-2.17408 -2.1414,-2.17408zM121.07768,78.0536c-1.18266,0 -2.1414,0.97337 -2.1414,2.17408c0,1.20071 0.95874,2.17408 2.1414,2.17408c1.18266,0 2.1414,-0.97337 2.1414,-2.17408c0,-1.20071 -0.95874,-2.17408 -2.1414,-2.17408z" fill="#e59455" opacity="0.8"></path><path d="M109.01532,75.64044c-0.13394,0 -0.24252,0.11012 -0.24252,0.24596c0,0.13584 0.10858,0.24596 0.24252,0.24596c0.13394,0 0.24252,-0.11012 0.24252,-0.24596c0,-0.13584 -0.10858,-0.24596 -0.24252,-0.24596zM109.25612,77.5118c-0.13394,0 -0.24252,0.11012 -0.24252,0.24596c0,0.13584 0.10858,0.24596 0.24252,0.24596c0.13394,0 0.24252,-0.11012 0.24252,-0.24596c0,-0.13584 -0.10858,-0.24596 -0.24252,-0.24596zM110.91764,76.4884c-0.13394,0 -0.24252,0.11012 -0.24252,0.24596c0,0.13584 0.10858,0.24596 0.24252,0.24596c0.13394,0 0.24252,-0.11012 0.24252,-0.24596c0,-0.13584 -0.10858,-0.24596 -0.24252,-0.24596zM114.41096,76.454c-0.13394,0 -0.24252,0.11012 -0.24252,0.24596c0,0.13584 0.10858,0.24596 0.24252,0.24596c0.13394,0 0.24252,-0.11012 0.24252,-0.24596c0,-0.13584 -0.10858,-0.24596 -0.24252,-0.24596zM115.35696,78.07768c-0.13394,0 -0.24252,0.11012 -0.24252,0.24596c0,0.13584 0.10858,0.24596 0.24252,0.24596c0.13394,0 0.24252,-0.11012 0.24252,-0.24596c0,-0.13584 -0.10858,-0.24596 -0.24252,-0.24596zM116.48872,76.47464c-0.13394,0 -0.24252,0.11012 -0.24252,0.24596c0,0.13584 0.10858,0.24596 0.24252,0.24596c0.13394,0 0.24252,-0.11012 0.24252,-0.24596c0,-0.13584 -0.10858,-0.24596 -0.24252,-0.24596z" fill="#c2795f" opacity="0.8"></path><path d="M100.17796,78.95832c-0.26316,0 -0.48848,-0.20124 -0.51428,-0.46784l-0.7568,-8.25428c-0.0258,-0.2838 0.18232,-0.53492 0.46612,-0.56072c0.27692,-0.02924 0.53492,0.18404 0.56072,0.46612l0.7568,8.25428c0.0258,0.2838 -0.18232,0.53492 -0.46612,0.56072c-0.01376,0.00172 -0.03096,0.00172 -0.04644,0.00172zM124.77568,78.84308c-0.01032,0 -0.02064,0 -0.03268,0c-0.2838,-0.01892 -0.50052,-0.26144 -0.48332,-0.54696l0.49192,-8.05476c0.0172,-0.2838 0.21156,-0.51256 0.54696,-0.48332c0.2838,0.01892 0.50052,0.26144 0.48332,0.54696l-0.49192,8.05476c-0.01548,0.27348 -0.24424,0.48332 -0.51428,0.48332z" fill="#7e332b"></path><g fill="#7e332b"><path d="M113.77284,120.11104c-8.42972,0 -16.5636,-2.4854 -23.521,-7.18788c-0.258,-0.17544 -0.40076,-0.47644 -0.37496,-0.78776c0.09632,-1.08016 0.19092,-2.92744 0.28208,-4.66808c0.14964,-2.8896 0.215,-3.94224 0.29584,-4.37052c0.0086,-0.06708 0.0258,-0.13244 0.04988,-0.19436c0.49708,-1.62196 1.56004,-3.8356 3.81496,-5.29416c0.74132,-0.47816 1.62196,-0.86 2.62128,-1.1352l8.43832,-2.89992c0.40936,-0.1118 0.53664,-0.4128 0.57792,-0.64844c0.09804,-0.53148 0.172,-1.34848 0.21844,-2.43724c-2.38736,-1.47232 -4.41696,-3.40732 -6.03892,-5.75512c-0.78604,-1.14036 -1.14208,-2.31684 -1.08876,-3.59136c0.03096,-0.66048 0.03612,-1.31924 0.0344,-1.97628c-0.75508,-0.25972 -1.28312,-0.8514 -1.5738,-1.76816c-0.36808,-1.161 -0.88408,-3.34884 -1.08876,-4.23808c-0.45064,-1.376 -0.11868,-2.2446 0.23908,-2.72792c0.26144,-0.35604 0.72584,-0.7568 1.52564,-0.9374c-0.14104,-0.81356 -0.35432,-2.07948 -0.62092,-3.67564c-0.28724,-1.7114 -0.55212,-3.3024 -0.60372,-3.53632c-0.27004,-1.2556 0.1032,-2.0554 0.4644,-2.50604c0.344,-0.42828 0.78604,-0.68972 1.20056,-0.8514c-0.47816,-1.1868 -0.53836,-2.24632 -0.17888,-3.11664c0.3784,-0.9116 0.9804,-1.64432 1.763,-2.15c0.06364,-3.40904 3.4572,-6.16792 7.61788,-6.16792c1.43104,0 2.8036,0.32336 4.0076,0.9374c1.2126,-1.11972 2.8466,-1.75096 4.5838,-1.75096c3.27144,0 5.9856,2.24288 6.4328,5.14796c3.11492,-0.24252 5.805,2.17408 5.805,5.17376c0,0.1892 -0.01032,0.37668 -0.03268,0.56244c1.94532,0.4472 3.37636,2.12076 3.37636,4.11252c0,0.96148 -0.3268,1.86964 -0.93224,2.61268c0.02408,0.08256 0.04472,0.16512 0.06364,0.2494c0.66392,-0.09804 1.38288,-0.41968 1.85588,-1.03028c0.24596,-0.31132 0.66564,-0.41968 1.02684,-0.25628c0.35948,0.15824 0.56588,0.5418 0.50052,0.93052c-0.5074,2.97044 -1.26592,4.73688 -3.81668,5.56936c-1.25388,0.33368 -2.34264,0.31304 -3.09428,0.2408c0.18748,0.14448 0.33024,0.29928 0.44032,0.4472c0.35776,0.48332 0.68628,1.3502 0.23048,2.73996c-0.46612,2.01584 -0.82388,3.41076 -1.08016,4.22088c-0.258,0.81872 -0.71036,1.37944 -1.34504,1.67528c0,0.86516 -0.00172,1.73204 -0.01032,2.5972c-0.0086,0.7224 -0.28552,1.7028 -0.64156,2.28244c-1.75268,2.85176 -3.95428,5.074 -6.5532,6.60824c0.05676,1.31236 0.14792,2.00036 0.21844,2.35296c0.07052,0.35432 0.24596,0.56932 0.52288,0.64328c2.51808,0.8772 10.59692,3.71348 11.44488,4.2742c3.60512,2.37188 3.75304,4.8074 3.84936,6.41904l0.01376,0.20984l0.39388,9.31208c0.01376,0.32164 -0.15308,0.62264 -0.43172,0.7826c-6.33648,3.63608 -13.55876,5.55732 -20.88252,5.55732zM91.633,111.77592c6.57728,4.32924 14.22268,6.61512 22.13984,6.61512c6.84904,0 13.6052,-1.75268 19.5736,-5.07228l-0.38184,-8.96464c-0.09116,-1.49468 -0.19264,-3.18888 -3.0788,-5.08776c-0.5762,-0.34916 -6.10084,-2.3564 -11.00456,-4.0678c-0.84796,-0.2236 -1.50844,-0.96148 -1.7028,-1.9522c-0.13244,-0.66908 -0.2236,-1.7286 -0.27004,-3.1476c-0.01032,-0.32336 0.1634,-0.62608 0.4472,-0.7826c2.53528,-1.3932 4.68184,-3.5002 6.37948,-6.26768c0.19264,-0.31648 0.38184,-0.99416 0.387,-1.39836c0.0086,-0.91676 0.01032,-1.83696 0.01204,-2.75716v-0.46096c0,-0.42828 0.31648,-0.78948 0.7396,-0.84968c0.26316,-0.03612 0.4988,-0.11524 0.68456,-0.7052c0.16684,-0.52632 0.47988,-1.6512 1.032,-4.02136c0.00688,-0.02752 0.04644,-0.19436 0.05504,-0.22016c0.17716,-0.53664 0.18232,-0.9546 0.02064,-1.17648c-0.16684,-0.2236 -0.58652,-0.34228 -1.14552,-0.3354c-0.00688,0 -0.01204,0 -0.0172,0c-0.38184,0 -0.71724,-0.25112 -0.82388,-0.61748c-0.10836,-0.37152 0.043,-0.77056 0.37324,-0.97352c0.13244,-0.09632 0.62092,-0.6106 0.78776,-0.94428c0.15308,-0.30272 0.473,-0.44032 0.80496,-0.47472c0.13416,0.00688 0.25284,0.01892 0.43172,0.05332c0.45236,0.08944 1.65464,0.33368 3.13728,-0.06536c1.05436,-0.344 1.66668,-0.89612 2.0984,-2.09152c-0.63468,0.22876 -1.32612,0.32508 -2.00896,0.26316c-0.4386,-0.03956 -0.774,-0.40248 -0.7826,-0.84108c-0.00688,-0.34572 -0.08084,-0.6794 -0.22016,-0.99072c-0.15136,-0.3354 -0.07224,-0.72928 0.19608,-0.97868c0.5074,-0.47644 0.78776,-1.11112 0.78776,-1.78536c0,-1.3846 -1.19024,-2.50948 -2.65396,-2.50948c-0.27692,0 -0.55728,-0.13244 -0.71896,-0.35604c-0.16168,-0.22532 -0.22704,-0.51256 -0.13932,-0.77572c0.1118,-0.33024 0.16856,-0.6794 0.16856,-1.03372c0,-2.23256 -2.34436,-3.97492 -4.6612,-3.33336c-0.26316,0.0688 -0.54524,0.01204 -0.75852,-0.15308c-0.215,-0.17028 -0.33712,-0.43 -0.32852,-0.70176c0.0086,-2.49744 -2.13452,-4.41352 -4.76784,-4.41352c-1.48608,0 -2.8638,0.60888 -3.77712,1.6684c-0.28036,0.32164 -0.75336,0.39044 -1.1094,0.16684c-1.0664,-0.66908 -2.3478,-1.02168 -3.70488,-1.02168c-3.25424,0 -5.8996,2.03992 -5.8996,4.54596c0,0.10664 0.01032,0.20984 0.02064,0.31476c0.03268,0.35776 -0.16168,0.6966 -0.48504,0.85312c-0.65188,0.31304 -1.13176,0.83076 -1.4276,1.54112c-0.2408,0.58308 -0.03956,1.52048 0.54868,2.56796c0.13588,0.2408 0.18576,0.60544 0.07052,0.85656c-0.13932,0.30272 -0.44204,0.49708 -0.774,0.4988c-0.15996,0.00344 -0.82044,0.09288 -1.11628,0.46612c-0.18232,0.2322 -0.2236,0.58824 -0.1204,1.06124c0.04988,0.23908 0.32336,1.86448 0.61748,3.61544c0.3182,1.89716 0.71208,4.25528 0.77744,4.53048c0.05848,0.25628 -0.00344,0.52976 -0.17028,0.73616c-0.16684,0.20468 -0.37152,0.35432 -0.68456,0.31992c-0.50224,0.02408 -0.9718,0.1118 -1.14036,0.33368c-0.16512,0.2236 -0.15652,0.645 0.02064,1.18508c0.23564,1.00104 0.73788,3.13728 1.08704,4.23808c0.18576,0.58824 0.41452,0.69832 0.82732,0.71896c0.45752,0.02064 0.817,0.39388 0.82216,0.84968c0.0086,0.92364 0.01204,1.849 -0.03096,2.77264c-0.03612,0.89784 0.21156,1.70624 0.78604,2.54044c1.57552,2.28072 3.57244,4.13488 5.934,5.5126c0.27348,0.15824 0.43688,0.4558 0.42656,0.77056c-0.04816,1.44824 -0.13588,2.49228 -0.26316,3.19232c-0.1806,0.99416 -0.8428,1.73548 -1.76988,1.98316l-8.43144,2.8982c-0.88236,0.24596 -1.60304,0.55384 -2.19472,0.9374c-1.84212,1.19024 -2.71244,3.04956 -3.11836,4.40148c0,0.00344 0,0.00516 -0.00172,0.00688c-0.05848,0.301 -0.16856,2.40456 -0.25456,4.09704c-0.08944,1.51016 -0.17372,3.1046 -0.25628,4.21572z"></path></g><g fill="#7e332b" opacity="0.49"><path d="M118.76256,83.6608c-0.05676,-0.0688 -0.13588,-0.1118 -0.22532,-0.12212c-0.08944,-0.01032 -0.17716,0.01548 -0.24424,0.07052c-1.2728,1.00276 -3.40044,1.57724 -5.83424,1.57724c-2.4338,0 -4.56144,-0.57448 -5.83424,-1.57724c-0.1376,-0.1118 -0.3612,-0.086 -0.47128,0.04988c-0.11524,0.14104 -0.0946,0.34916 0.04816,0.4644c1.51016,1.21948 3.84936,1.94704 6.25564,1.94704c2.40628,0 4.74548,-0.72756 6.25564,-1.94704c0.14276,-0.11352 0.16512,-0.32336 0.04988,-0.46268z"></path></g></g><g><path d="M111.74152,114.21488c-0.48504,-2.5714 -1.53424,-4.0764 -4.00416,-4.82288c-0.10664,-0.03268 -0.25112,-0.08428 -0.41452,-0.1462c-0.18748,-0.08084 -0.42484,-0.17716 -0.70176,-0.28552c-1.4964,-0.63296 -10.39224,-3.91472 -10.39224,-3.91472c-0.73272,-0.18576 -1.21088,-0.70864 -1.48608,-1.29688c-0.4558,-0.9718 -0.28036,-3.4916 -0.28036,-3.4916c0,0 -3.72036,1.2728 -6.04064,1.70624c-2.27556,0.22188 -7.16896,-2.72276 -7.16896,-2.72276c0,0 -0.11524,3.63952 -0.27004,4.44792c-0.12212,0.63468 -0.80496,1.17132 -1.5394,1.35708l-8.53464,3.09428c-0.94428,0.24768 -1.85072,0.60028 -2.64708,1.09048c-2.14828,1.32612 -3.23532,3.31788 -3.78916,4.98456c0,0 -0.56244,3.9732 -0.54008,4.11596c-0.05332,0.55556 -0.10836,1.16788 -0.1634,1.81116c9.30348,6.29864 16.77516,8.06336 29.59432,7.50264c5.82392,-0.25456 14.49616,-3.1304 19.0404,-5.42488c-0.23908,-5.06024 -0.6622,-8.00488 -0.6622,-8.00488z" fill="#ffa563"></path><path d="M111.74152,114.26304c-0.48504,-2.5714 -1.53424,-4.0764 -4.00416,-4.82288c-0.10664,-0.03268 -0.25112,-0.08428 -0.41452,-0.1462c-0.18748,-0.08084 -0.42484,-0.17716 -0.70176,-0.28552c-0.81012,-0.34228 -8.77888,-3.12352 -11.33996,-4.07812c-3.49504,2.46304 -5.06712,3.41076 -7.39944,3.41076c-2.4854,0 -4.81944,-1.08532 -7.3788,-3.5948l-3.8786,1.43276c-0.01032,-0.00516 -0.01892,-0.01032 -0.02924,-0.01548l-0.37668,0.09976l-5.30792,1.92468c-0.94428,0.24768 -1.85072,0.60028 -2.64708,1.09048c-2.14828,1.32612 -3.23532,3.31788 -3.78916,4.98456c0,0 -0.56244,3.9732 -0.54008,4.11596c-0.05332,0.55556 -0.10836,6.52224 -0.1634,7.16552c9.30348,6.29864 16.77516,8.06336 29.59432,7.50264c5.82392,-0.25456 14.49616,-3.1304 19.0404,-5.42488c-0.2408,-5.06024 -0.66392,-13.35924 -0.66392,-13.35924z" fill="#88ae45"></path><path d="M96.14456,117.41064c-0.87892,-1.10424 -1.49296,-2.38564 -2.38564,-3.47784c-0.215,-0.26316 -0.2322,-0.58652 0,-0.84796c0.50224,-0.56588 1.20228,-0.85312 1.88684,-1.13692c0.75508,-0.31132 1.48608,-0.65188 2.24804,-0.93396c-0.4816,-1.99864 -1.43276,-3.80808 -2.61956,-5.4782c-0.15824,-0.22188 -0.12556,-0.43688 -0.00516,-0.59856c-3.48644,2.45616 -5.05852,3.40388 -7.3874,3.40388c-2.37704,0 -4.74548,-0.9546 -6.95052,-3.3282c-0.2924,1.8232 -1.94704,4.2828 -0.7224,6.07332c0.48504,0.70692 1.4792,0.95116 1.80084,1.8232c0.45752,1.23496 -0.22704,3.01344 -0.25972,4.26904c-0.06708,2.55248 0.6364,4.46684 1.58928,6.7682c0.04128,0.10148 0.04816,0.19092 0.03784,0.2752c0.76368,1.51532 1.62368,3.08052 2.19816,4.6526c0.50396,1.37772 0.88236,2.76404 1.22636,4.18476c0.61404,0.02064 1.118,-0.01032 1.75784,-0.00516c0.57104,-2.74168 2.18956,-5.3148 3.2766,-7.87932c1.1954,-2.8122 2.31512,-5.4438 4.3086,-7.76408z" fill="#fdfcef"></path><path d="M90.07468,116.1258l-0.63468,14.50648l-0.98384,2.37704l-0.71552,0.1204l-0.75164,-0.0172l-1.3674,-2.85692l0.15996,-14.12808c0.9546,-1.97628 3.33852,-1.97628 4.29312,-0.00172z" fill="#d5e27b"></path><path d="M85.94324,113.91216l-1.97972,-4.93124h7.9292l-1.97972,4.93124c-0.88236,1.74236 -3.0874,1.74236 -3.96976,0z" fill="#d5e27b"></path><path d="M80.72304,104.40228l-1.68216,1.3502l4.40664,9.51504l4.73688,-6.82496c0,0 -7.11048,-2.12764 -7.46136,-4.04028z" fill="#a2973d"></path><path d="M94.815,104.40228l1.93844,1.16788l-4.66464,9.69736l-4.73688,-6.82496c0.00172,0 7.11392,-2.12764 7.46308,-4.04028z" fill="#a2973d"></path><g fill="#6f913d" opacity="0.59"><path d="M71.94072,130.9608c-0.28552,0 -0.516,-0.23048 -0.516,-0.516v-3.65672c0,-0.28552 0.23048,-0.516 0.516,-0.516c0.28552,0 0.516,0.23048 0.516,0.516v3.65672c0,0.28552 -0.23048,0.516 -0.516,0.516zM103.48552,131.60408c-0.28552,0 -0.516,-0.23048 -0.516,-0.516v-4.3c0,-0.28552 0.23048,-0.516 0.516,-0.516c0.28552,0 0.516,0.23048 0.516,0.516v4.3c0,0.28552 -0.23048,0.516 -0.516,0.516z"></path></g><path d="M94.5054,103.82264c0,0 2.83284,1.204 4.8934,7.82428l-4.8934,1.806l3.15448,3.612l-9.3224,16.2454c0,0 4.4978,-16.57908 6.16792,-29.48768zM80.98276,103.82264c0,0 -2.83112,1.204 -4.8934,7.82428l4.8934,1.806l-3.15276,3.612l9.16244,16.2454c-0.00172,0 -4.33956,-16.57908 -6.00968,-29.48768z" fill="#6f913d"></path><path d="M102.512,82.431c-0.13932,-0.0086 -0.2838,-0.01032 -0.43172,-0.01032c-1.15756,-0.05676 -1.48608,0.40592 -1.43276,-0.3096c0.09288,-1.27108 -0.08428,-6.42248 -0.08428,-6.68392c0,-5.33888 -5.57452,-9.69392 -12.54052,-9.93644v-0.01548c-0.04644,0 -0.09288,0.00688 -0.13932,0.0086c-0.04644,-0.00172 -0.09288,-0.00688 -0.13932,-0.0086v0.01548c-6.966,0.2408 -12.54052,4.59584 -12.54052,9.93644c0,0.25972 -0.17716,5.41284 -0.08428,6.68392c0.0516,0.71552 -0.27692,0.25456 -1.43276,0.3096c-0.14792,0 -0.29068,0.00172 -0.43172,0.01032c-1.26764,0.08428 -2.29448,0.89096 -2.51292,1.89028c0.1548,0.0946 0.73272,4.47028 1.66668,6.19372c0.52116,0.9632 1.33644,1.09736 2.17408,1.71828c0.4644,0.344 0.55384,0.73272 0.6794,1.247c0.46956,1.90576 1.77504,3.52428 3.20436,4.90716c0.7052,0.68284 5.39048,5.676 9.41528,5.42316c4.04372,-0.15136 8.70836,-4.74032 9.41528,-5.42316c1.42932,-1.38288 2.7348,-3.0014 3.20436,-4.90716c0.12728,-0.51428 0.21672,-0.903 0.6794,-1.247c0.83764,-0.62092 1.65292,-0.75508 2.17408,-1.71828c0.93396,-1.72344 1.51188,-6.09912 1.66668,-6.19372c-0.21672,-0.9976 -1.24184,-1.80428 -2.50948,-1.89028z" fill="#ffc89e"></path><path d="M87.95564,90.88996c0.81872,0 1.61164,-0.35776 2.12248,-0.9546c0.0516,-0.0602 0.04472,-0.15136 -0.01548,-0.20296v0c-0.0602,-0.0516 -0.14964,-0.04644 -0.20296,0.01376c-0.41624,0.47644 -1.1094,0.7482 -1.90404,0.7482c-0.79464,0 -1.4878,-0.27348 -1.90404,-0.7482c-0.02924,-0.03268 -0.0688,-0.04816 -0.10836,-0.04816c-0.03268,0 -0.06708,0.01204 -0.0946,0.0344c-0.0602,0.0516 -0.06708,0.14276 -0.01548,0.20296c0.51084,0.59684 1.30376,0.9546 2.12248,0.9546zM85.34468,79.83552l0.51944,-0.9976c-2.19472,-0.51428 -4.7214,-0.43172 -6.80776,0.215l0.6536,0.9718c1.71484,-0.56588 3.82356,-0.63812 5.63472,-0.1892zM96.33376,79.83552l0.51944,-0.9976c-2.19472,-0.51428 -4.7214,-0.43172 -6.80776,0.215l0.6536,0.9718c1.71484,-0.56588 3.82356,-0.63812 5.63472,-0.1892zM82.18676,81.24248c-0.52632,0 -0.99072,0.34916 -1.25732,0.87548c0.06708,-0.02064 0.13588,-0.0344 0.20812,-0.0344c0.43172,0 0.7826,0.39216 0.7826,0.87376c0,0.4816 -0.35088,0.87376 -0.7826,0.87376c-0.14104,0 -0.27176,-0.04472 -0.387,-0.11868c0.18576,0.7912 0.7568,1.36912 1.4362,1.36912c0.82904,0 1.49984,-0.86 1.49984,-1.91952c-0.00172,-1.05952 -0.67252,-1.91952 -1.49984,-1.91952zM93.66088,81.24248c-0.45064,0 -0.85312,0.25456 -1.1266,0.65704c0.086,-0.03612 0.17716,-0.05848 0.2752,-0.05848c0.43172,0 0.7826,0.39216 0.7826,0.87376c0,0.48332 -0.35088,0.87376 -0.7826,0.87376c-0.26832,0 -0.50396,-0.15136 -0.645,-0.38012c0.01892,1.03888 0.68112,1.87308 1.49812,1.87308c0.82904,0 1.49984,-0.86 1.49984,-1.91952c-0.00172,-1.05952 -0.67424,-1.91952 -1.50156,-1.91952z" fill="#5e2b29"></path><path d="M89.21984,134.1686c-10.7328,0 -17.65924,-2.14484 -25.93072,-7.74688c-0.258,-0.17544 -0.40076,-0.47472 -0.37496,-0.78604c0.01032,-0.12728 0.01548,-0.559 0.0258,-1.18508c0.03784,-2.623 0.11868,-8.08572 0.7052,-10.24776c0.8084,-2.98076 1.9866,-4.1452 4.16756,-5.49024c0.817,-0.50396 1.78536,-0.90472 2.881,-1.19024l8.46068,-3.0702c0.5676,-0.14964 0.94256,-0.47816 0.98556,-0.71036c0.03268,-0.16512 0.0946,-0.67252 0.172,-2.2618c-1.18508,-0.84452 -2.15,-1.60304 -2.4424,-1.88684c-1.90748,-1.86448 -2.99968,-3.57244 -3.44,-5.37672c-0.12556,-0.52116 -0.16856,-0.63124 -0.3612,-0.77572c-0.2408,-0.17888 -0.47644,-0.31304 -0.70348,-0.44032c-0.58308,-0.32852 -1.24356,-0.70176 -1.7114,-1.57896c-1.03888,-1.93844 -1.76988,-5.4868 -1.76988,-6.67188c0,-0.0602 0.00688,-0.12212 0.02064,-0.1806c0.30616,-1.41384 1.6598,-2.4768 3.2938,-2.5886c0.1634,-0.01032 0.32336,-0.01204 0.48848,-0.01204c0.20124,-0.01032 0.38872,-0.00516 0.55384,0.00688c-0.02924,-1.51704 0.04988,-4.30344 0.086,-5.6072l0.0172,-0.61232c0,-5.81016 5.78952,-10.57456 13.2096,-10.90136c0.06192,-0.01376 0.12556,-0.02236 0.19092,-0.02236c0.0172,0 0.15824,0.0086 0.17544,0.0086c0.04472,0 0.09116,0.00344 0.13588,0.01032v-0.00688c7.49748,0.26316 13.36956,5.05508 13.36956,10.90824l0.0172,0.61576c0.03612,1.3158 0.11524,4.1452 0.08944,5.60548c0.17888,-0.01376 0.37324,-0.02064 0.5934,-0.00688c0.11868,0 0.28208,-0.00172 0.44204,0.01032c1.63744,0.11008 2.9928,1.17476 3.30068,2.58688c0.01376,0.0602 0.02064,0.1204 0.02064,0.18232c0,1.32612 -0.75852,4.78504 -1.76988,6.67188c-0.46956,0.8772 -1.13004,1.25044 -1.7114,1.57896c-0.22704,0.12728 -0.4644,0.25972 -0.70348,0.4386c-0.19264,0.1462 -0.23392,0.25456 -0.35432,0.75336c-0.44548,1.82664 -1.5394,3.5346 -3.44516,5.4008c-0.2924,0.28552 -1.29688,1.11112 -2.60924,2.064c0.00688,1.3502 0.17544,1.82492 0.2322,1.9436c0.20984,0.4472 0.52116,0.72584 0.91848,0.82732c0.45064,0.16168 9.01796,3.32304 10.51608,3.956c0.26316,0.1032 0.50912,0.20124 0.7052,0.28552c0.10664,0.03956 0.22704,0.08772 0.31992,0.11352c2.65224,0.80152 4.02996,2.4424 4.60444,5.4868c0.00688,0.03784 0.01204,0.0774 0.01376,0.11524c0,0 0.42312,8.30072 0.66392,13.3644c0.0172,0.33712 -0.16856,0.65532 -0.46956,0.8084c-4.86588,2.45788 -13.66196,5.26664 -19.38956,5.51776c-1.46544,0.06192 -2.85864,0.09632 -4.18992,0.09632zM64.6462,125.26072c8.772,5.848 16.06996,7.63852 28.68272,7.09156c5.30964,-0.2322 13.40224,-2.77092 18.19072,-5.08776c-0.2322,-4.82632 -0.59856,-12.01076 -0.63468,-12.73488c-0.46096,-2.38048 -1.38632,-3.49332 -3.397,-4.1022c-0.11868,-0.03612 -0.2838,-0.09632 -0.46956,-0.16856c-0.21328,-0.08944 -0.44204,-0.1806 -0.70692,-0.28552c-1.48436,-0.6278 -10.28904,-3.87688 -10.37848,-3.90956c-0.81012,-0.19952 -1.5394,-0.8256 -1.96768,-1.7372c-0.10836,-0.22876 -0.43172,-0.92192 -0.39216,-3.13212c0.00516,-0.27348 0.13932,-0.52804 0.3612,-0.68456c1.37772,-0.9804 2.51292,-1.90748 2.7606,-2.15c1.66668,-1.63056 2.61096,-3.0788 2.97216,-4.55112c0.14104,-0.58308 0.29412,-1.21948 1.00104,-1.74752c0.301,-0.22704 0.60028,-0.39732 0.88752,-0.56072c0.48676,-0.27348 0.8084,-0.4558 1.04232,-0.8944c0.86,-1.6082 1.5222,-4.6784 1.56348,-5.76028c-0.18404,-0.61748 -0.88752,-1.09736 -1.70968,-1.1524c-0.11524,-0.00688 -0.24424,-0.0086 -0.37324,-0.0086c-0.37152,-0.02408 -0.62608,0.02064 -0.82388,0.05332c-0.301,0.04816 -0.75336,0.11868 -1.13004,-0.22704c-0.387,-0.3526 -0.35088,-0.84968 -0.3354,-1.06296c0.07396,-0.99416 -0.03096,-4.65432 -0.0688,-6.03204c-0.01032,-0.3698 -0.0172,-0.61232 -0.0172,-0.66564c0,-4.92092 -5.1428,-8.95776 -11.71148,-9.18824c-0.03612,-0.00172 -0.07396,-0.00516 -0.11008,-0.01204c-0.03612,0.00688 -0.07224,0.01032 -0.10836,0.01204c-6.56696,0.23048 -11.71148,4.2656 -11.71148,9.18824c0,0.0516 -0.00688,0.29584 -0.0172,0.6622c-0.03784,1.37944 -0.14104,5.0396 -0.06708,6.03548c0.01548,0.21328 0.04988,0.71036 -0.3354,1.06296c-0.37496,0.34572 -0.8256,0.2752 -1.13004,0.22704c-0.1978,-0.0344 -0.44204,-0.06536 -0.78432,-0.05504c-0.172,0.00172 -0.29756,0.00344 -0.41968,0.01032c-0.81872,0.05504 -1.52048,0.53492 -1.7028,1.15068c0.04128,1.09736 0.73444,4.214 1.56348,5.762c0.23564,0.4386 0.55556,0.6192 1.0406,0.8944c0.28896,0.1634 0.58824,0.33368 0.89096,0.56244c0.7052,0.52804 0.86,1.16616 0.99588,1.7286c0.36464,1.49296 1.30892,2.93948 2.97388,4.56832c0.18748,0.18232 1.1782,0.97696 2.61612,1.97972c0.24252,0.17028 0.38012,0.45064 0.36636,0.74476c-0.09632,2.13624 -0.17372,2.72448 -0.22188,2.98076c-0.20468,1.06984 -1.2384,1.7888 -2.17236,2.02616l-8.4538,3.06848c-1.00448,0.2666 -1.81804,0.602 -2.48712,1.01652c-1.94704,1.20056 -2.75544,2.05712 -3.41076,4.47716c-0.53148,1.95048 -0.61404,7.46652 -0.64672,9.82292c-0.00516,0.30788 -0.01032,0.57276 -0.01376,0.78432z" fill="#7e332b"></path><g fill="#b2744f"><path d="M102.74076,88.2962l-1.02512,-0.11352l0.20812,-1.86276l-0.9632,0.41624l-0.40936,-0.94772l1.7802,-0.77056c0.17028,-0.07224 0.36464,-0.04816 0.51256,0.05848c0.14792,0.10836 0.22704,0.28896 0.20468,0.47128z"></path></g><g fill="#b2744f"><path d="M73.41476,87.88684l-0.3096,-2.74856c-0.02236,-0.18232 0.05676,-0.36292 0.20468,-0.47128c0.14792,-0.11008 0.34228,-0.13416 0.51256,-0.05848l1.7802,0.77056l-0.40936,0.94772l-0.9632,-0.41624l0.20812,1.86276z"></path></g><g fill="#7e332b"><path d="M75.17432,93.29624c-0.00172,0 -0.00516,0 -0.00688,0c-0.1892,-0.00344 -0.34056,-0.16168 -0.33712,-0.35088l0.19608,-10.36128c0.00344,-0.18748 0.15824,-0.33712 0.344,-0.33712c0.00172,0 0.00516,0 0.00688,0c0.1892,0.00344 0.34056,0.16168 0.33712,0.35088l-0.19608,10.36128c-0.00344,0.18748 -0.15824,0.33712 -0.344,0.33712z"></path></g><g fill="#7e332b"><path d="M100.79028,93.29624c-0.18576,0 -0.34056,-0.14964 -0.344,-0.33712l-0.19608,-10.36128c-0.00344,-0.1892 0.14792,-0.34744 0.33712,-0.35088c0.00172,0 0.00516,0 0.00688,0c0.18576,0 0.34056,0.14964 0.344,0.33712l0.19608,10.36128c0.00344,0.1892 -0.14792,0.34744 -0.33712,0.35088c-0.00172,0 -0.00516,0 -0.00688,0z"></path></g><g><path d="M83.78292,94.73932c-0.04816,0.18576 -0.07568,0.37668 -0.07568,0.57104c0,1.67356 1.85072,3.03064 4.13488,3.03064c2.28416,0 4.13488,-1.35708 4.13488,-3.03064c0,-0.19608 -0.02752,-0.387 -0.07568,-0.57104z" fill="#79302c"></path><path d="M90.02652,97.87488c-0.36292,-0.42312 -1.204,-0.72068 -2.1844,-0.72068c-0.9804,0 -1.82148,0.29756 -2.1844,0.72068c0.63468,0.29068 1.37944,0.46612 2.1844,0.46612c0.80496,0 1.54972,-0.17544 2.1844,-0.46612z" fill="#ee3e54"></path><path d="M84.968,94.73932c-0.00172,0.0172 -0.0086,0.0344 -0.0086,0.05332v0.51256c0,0.4472 0.58996,0.81528 1.31236,0.81528h3.14244c0.7224,0 1.31236,-0.36636 1.31236,-0.81528v-0.51256c0,-0.01892 -0.00688,-0.03612 -0.0086,-0.05332z" fill="#fdfcef"></path><g fill="#7e332b"><path d="M87.84212,98.685c-2.46992,0 -4.47888,-1.5136 -4.47888,-3.37464c0,-0.21844 0.03096,-0.44032 0.08772,-0.65876c0.03956,-0.15136 0.17716,-0.25628 0.33196,-0.25628h8.12012c0.15652,0 0.2924,0.10664 0.33196,0.25628c0.05676,0.21844 0.08772,0.44032 0.08772,0.65876c0,1.86104 -2.01068,3.37464 -4.4806,3.37464zM84.065,95.08332c-0.0086,0.07568 -0.01376,0.15136 -0.01376,0.22704c0,1.48092 1.69936,2.68664 3.79088,2.68664c2.09152,0 3.79088,-1.204 3.79088,-2.68664c0,-0.07568 -0.00516,-0.15136 -0.01376,-0.22704z"></path></g></g><g fill="#5e2b29"><path d="M100.85048,89.93536c-0.8772,2.53872 -1.79052,4.81084 -2.46476,6.33476c-0.2838,0.64328 -1.24012,0.68456 -1.57896,0.06536c-0.57448,-1.05608 -1.56348,-2.1844 -2.89648,-2.80016c-3.23532,-1.49124 -5.74996,0.344 -5.74996,0.344c1.34676,0.03784 3.096,0.31132 3.83388,1.52908c2.59204,4.27764 -3.68424,4.97252 -3.92848,4.74548c-0.24424,0.22876 -6.52052,-0.46784 -3.92848,-4.74548c0.73788,-1.21776 2.48712,-1.49296 3.83388,-1.52908c0,0 -2.51636,-1.83524 -5.74996,-0.344c-1.333,0.61576 -2.322,1.74408 -2.89648,2.80016c-0.33884,0.62092 -1.29516,0.57964 -1.57896,-0.06536c-0.61748,-1.39664 -1.43448,-3.42624 -2.24116,-5.70524c-0.11524,1.37256 -0.3268,2.7348 -0.44376,4.10736c0.03784,0.17716 0.07568,0.35432 0.11696,0.52804c0.68972,2.93948 1.56864,9.98632 10.9306,13.07716c1.06468,0.3526 2.8294,0.35432 3.8958,0.00688c8.858,-2.88444 10.12048,-9.22436 10.8102,-12.44592c-0.1032,-1.96252 -0.0516,-3.92676 0.03612,-5.90304z"></path></g></g></g></g></svg>