<svg version="1.1" xmlns="http://www.w3.org/2000/svg" xmlns:xlink="http://www.w3.org/1999/xlink" viewBox="0 0 226 226"><g fill="none" fill-rule="nonzero" stroke="none" stroke-width="1" stroke-linecap="butt" stroke-linejoin="miter" stroke-miterlimit="10" stroke-dasharray="" stroke-dashoffset="0" font-family="none" font-weight="none" font-size="none" text-anchor="none" style="mix-blend-mode: normal"><path d="M0,226v-226h226v226z" fill="none"></path><g><path d="M45.652,125.204c-1.12335,0 -2.034,0.91065 -2.034,2.034c0,1.12335 0.91065,2.034 2.034,2.034c1.12335,0 2.034,-0.91065 2.034,-2.034c0,-1.12335 -0.91065,-2.034 -2.034,-2.034zM178.992,69.608c-0.87371,0 -1.582,0.70829 -1.582,1.582c0,0.87371 0.70829,1.582 1.582,1.582c0.87371,0 1.582,-0.70829 1.582,-1.582c0,-0.87371 -0.70829,-1.582 -1.582,-1.582z" fill="#ffffff"></path><path d="M173.116,25.99c-1.12335,0 -2.034,0.91065 -2.034,2.034c0,1.12335 0.91065,2.034 2.034,2.034c1.12335,0 2.034,-0.91065 2.034,-2.034c0,-1.12335 -0.91065,-2.034 -2.034,-2.034zM46.782,142.606c-1.12335,0 -2.034,0.91065 -2.034,2.034c0,1.12335 0.91065,2.034 2.034,2.034c1.12335,0 2.034,-0.91065 2.034,-2.034c0,-1.12335 -0.91065,-2.034 -2.034,-2.034z" fill="#f1bc19"></path><path d="M111.87,27.572c-46.80613,0 -84.75,37.94387 -84.75,84.75c0,46.80613 37.94387,84.75 84.75,84.75c46.80613,0 84.75,-37.94387 84.75,-84.75c0,-46.80613 -37.94387,-84.75 -84.75,-84.75z" fill="#cee1f4"></path><path d="M185.32,23.956c-4.99265,0 -9.04,4.04735 -9.04,9.04c0,4.99265 4.04735,9.04 9.04,9.04c4.99265,0 9.04,-4.04735 9.04,-9.04c0,-4.99265 -4.04735,-9.04 -9.04,-9.04z" fill="#f1bc19"></path><path d="M194.36,49.268c-2.37151,0 -4.294,1.92249 -4.294,4.294c0,2.37151 1.92249,4.294 4.294,4.294c2.37151,0 4.294,-1.92249 4.294,-4.294c0,-2.37151 -1.92249,-4.294 -4.294,-4.294z" fill="#ee3e54"></path><path d="M174.246,167.692c-2.37151,0 -4.294,1.92249 -4.294,4.294c0,2.37151 1.92249,4.294 4.294,4.294c2.37151,0 4.294,-1.92249 4.294,-4.294c0,-2.37151 -1.92249,-4.294 -4.294,-4.294zM31.414,133.566c-4.99265,0 -9.04,4.04735 -9.04,9.04c0,4.99265 4.04735,9.04 9.04,9.04c4.99265,0 9.04,-4.04735 9.04,-9.04c0,-4.99265 -4.04735,-9.04 -9.04,-9.04z" fill="#fbcd59"></path><path d="M54.466,193.004c-2.37151,0 -4.294,1.92249 -4.294,4.294c0,2.37151 1.92249,4.294 4.294,4.294c2.37151,0 4.294,-1.92249 4.294,-4.294c0,-2.37151 -1.92249,-4.294 -4.294,-4.294z" fill="#ee3e54"></path><path d="M171.082,63.732c-2.24669,0 -4.068,1.82131 -4.068,4.068c0,2.24669 1.82131,4.068 4.068,4.068c2.24669,0 4.068,-1.82131 4.068,-4.068c0,-2.24669 -1.82131,-4.068 -4.068,-4.068zM39.776,109.61c-3.12041,0 -5.65,2.52959 -5.65,5.65c0,3.12041 2.52959,5.65 5.65,5.65c3.12041,0 5.65,-2.52959 5.65,-5.65c0,-3.12041 -2.52959,-5.65 -5.65,-5.65z" fill="#ffffff"></path><path d="M153.68,160.234c-0.904,-4.972 -2.938,-7.684 -7.458,-9.04l-0.678,-0.226l-1.356,-0.452c-3.164,-1.356 -19.888,-7.684 -19.888,-7.684c-1.356,-0.226 -2.26,-1.13 -2.712,-2.486c-0.452,-2.034 -0.678,-4.294 -0.452,-6.554c-3.616,1.356 -7.458,2.26 -11.3,3.164c-4.294,0.452 -13.56,-5.198 -13.56,-5.198c0,0 -0.226,6.78 -0.452,8.362c-0.452,1.356 -1.582,2.26 -2.938,2.486l-16.046,5.876c-1.808,0.452 -3.39,1.13 -4.972,2.034c-3.39,2.26 -5.876,5.424 -7.232,9.492c0,0 -1.13,7.458 -1.13,7.684c0,1.13 -0.226,2.26 -0.226,3.39c17.628,11.978 31.64,15.142 55.822,14.238c11.074,-0.452 27.346,-5.876 35.934,-10.17c-0.678,-9.492 -1.356,-14.916 -1.356,-14.916z" fill="#ce9065"></path><path d="M153.68,160.234c-0.904,-4.972 -2.938,-7.684 -7.458,-9.04l-0.678,-0.226l-1.356,-0.452c-1.582,-0.678 -16.498,-5.876 -21.47,-7.684c-6.78,4.52 -9.718,6.328 -14.012,6.328c-4.294,0 -9.04,-2.034 -14.012,-6.78l-7.232,2.712v0l-0.678,0.226l-9.944,3.616c-1.808,0.452 -3.39,1.13 -4.972,2.034c-3.39,2.26 -5.876,5.424 -7.232,9.492c0,0 -1.13,7.458 -1.13,7.684c0,1.13 -0.226,12.204 -0.226,13.56c17.628,11.978 31.64,15.142 55.822,14.238c11.074,-0.452 27.346,-5.876 35.934,-10.17c-0.678,-9.944 -1.356,-25.538 -1.356,-25.538z" fill="#195484"></path><path d="M124.3,166.336c-1.582,-2.034 -2.938,-4.52 -4.52,-6.554c-0.452,-0.452 -0.452,-1.13 0,-1.582c0.904,-0.904 2.26,-1.808 3.616,-2.26c1.356,-0.678 2.712,-1.13 4.294,-1.808c-0.904,-3.842 -2.712,-7.232 -4.972,-10.396c-0.226,-0.226 -0.226,-0.904 0,-1.13c-6.78,4.746 -9.718,6.554 -14.238,6.554c-4.972,0 -9.944,-2.486 -13.108,-6.328c-0.452,3.39 -3.616,8.136 -1.356,11.526c0.904,1.356 2.712,1.808 3.39,3.39c0.904,2.26 -0.452,5.65 -0.452,8.136c0,4.294 1.13,8.814 2.938,12.656c0,0.226 0,0.452 0,0.452c1.582,2.938 2.938,5.876 4.068,8.814c0.904,2.486 1.582,5.198 2.26,7.91c1.13,0 2.034,0 3.39,0c1.13,-5.198 4.068,-9.944 6.102,-14.916c2.26,-5.198 4.972,-10.17 8.588,-14.464z" fill="#fdfcef"></path><path d="M112.774,163.85l-1.13,27.346l-1.808,4.52l-1.356,0.226h-1.356l-2.486,-5.424l0.226,-26.668c0.904,-2.26 3.39,-3.39 5.424,-2.486c1.13,0.452 2.034,1.356 2.486,2.486z" fill="#77cbd2"></path><path d="M104.864,159.556l-3.842,-9.266h14.916l-3.842,9.266c-0.904,2.034 -3.39,2.938 -5.424,2.034c-0.678,-0.226 -1.356,-0.904 -1.808,-2.034z" fill="#4ab7ba"></path><path d="M95.146,141.702l-3.164,2.486l8.362,17.854l9.04,-12.882c0,0.226 -13.56,-3.842 -14.238,-7.458z" fill="#e1e0d8"></path><path d="M121.588,141.702l3.616,2.26l-8.814,18.306l-9.04,-12.882c0.226,0 13.56,-4.068 14.238,-7.684z" fill="#e1e0d8"></path><path d="M78.648,191.196c-0.452,0 -0.678,-0.226 -0.678,-0.678v-8.814c0,-0.452 0.226,-0.678 0.678,-0.678c0.452,0 0.678,0.226 0.678,0.678v8.814c-0.226,0.226 -0.452,0.678 -0.678,0.678zM138.086,192.778c-0.452,0 -0.678,-0.226 -0.678,-0.678v-10.396c0,-0.452 0.226,-0.678 0.678,-0.678c0.452,0 0.678,0.226 0.678,0.678v10.396c0,0.226 -0.452,0.678 -0.678,0.678z" fill="#114568"></path><path d="M121.136,140.572c0,0 5.424,2.26 9.266,14.69l-9.266,3.39l5.876,6.78l-17.628,30.736c4.972,-18.306 8.814,-36.838 11.752,-55.596zM95.598,140.572c0,0 -5.424,2.26 -9.266,14.69l9.266,3.39l-5.876,6.78l17.402,30.736c-4.972,-18.306 -8.814,-36.838 -11.526,-55.596z" fill="#1c658e"></path><path d="M136.278,100.344h-0.904c-2.26,0 -2.712,0.678 -2.712,-0.678c0.226,-2.486 -0.226,-12.204 -0.226,-12.656c0,-10.17 -10.622,-18.306 -23.73,-18.758h-0.452c-13.108,0.452 -23.73,8.588 -23.73,18.758c0,0.452 -0.452,10.17 -0.226,12.656c0,1.356 -0.452,0.452 -2.712,0.678h-0.904c-2.26,0 -4.068,1.582 -4.746,3.616c0.226,0.226 1.356,8.362 3.164,11.752c0.904,1.808 2.486,2.034 4.068,3.164c0.678,0.452 1.13,1.356 1.356,2.26c1.13,3.616 3.164,6.78 6.102,9.266c1.356,1.356 10.17,10.622 17.628,10.17c7.458,-0.452 16.498,-9.04 17.854,-10.17c2.938,-2.486 4.972,-5.65 6.102,-9.266c0.226,-0.904 0.678,-1.808 1.356,-2.26c1.582,-1.13 3.164,-1.356 4.068,-3.164c1.808,-3.164 2.938,-11.526 3.164,-11.752c-0.452,-2.26 -2.486,-3.616 -4.52,-3.616z" fill="#ffb987"></path><path d="M108.706,116.164c1.582,0 2.938,-0.678 4.068,-1.808c0,0 0,-0.226 0,-0.452v0v0c0,0 -0.226,0 -0.452,0v0c-0.904,0.904 -2.26,1.582 -3.616,1.356c-1.356,0 -2.712,-0.452 -3.616,-1.356h-0.226c0,0 0,0 -0.226,0c0,0 0,0.226 0,0.452c1.13,1.13 2.486,1.808 4.068,1.808zM103.734,95.372l0.904,-1.808c-4.294,-0.904 -8.588,-0.904 -12.882,0.452l1.13,1.808c3.842,-1.13 7.458,-1.356 10.848,-0.452zM124.526,95.372l0.904,-1.808c-4.294,-0.904 -8.588,-0.904 -12.882,0.452l1.13,1.808c3.616,-1.13 7.458,-1.356 10.848,-0.452zM97.858,98.084c-0.904,0 -1.808,0.678 -2.26,1.582c0.226,0 0.226,0 0.452,0c0.904,0 1.582,0.678 1.582,1.582c0,0.904 -0.678,1.582 -1.582,1.582c-0.226,0 -0.452,0 -0.678,-0.226c0.226,1.356 1.356,2.486 2.712,2.486c2.034,-0.452 3.164,-2.486 2.712,-4.52c-0.452,-1.13 -1.582,-2.26 -2.938,-2.486zM119.554,98.084c-0.904,0 -1.808,0.452 -2.26,1.13c0.226,0 0.452,-0.226 0.452,0c0.904,0 1.582,0.678 1.582,1.582c0,0.904 -0.678,1.582 -1.582,1.582c-0.452,0 -0.904,-0.226 -1.13,-0.678c-0.226,1.808 1.13,3.39 2.938,3.616c2.034,-0.452 3.164,-2.486 2.712,-4.52c-0.452,-1.356 -1.582,-2.486 -2.712,-2.712z" fill="#512c2b"></path><path d="M111.192,197.298c-20.114,0 -33.222,-4.068 -48.59,-14.464c-0.452,-0.226 -0.452,-0.678 -0.452,-1.13c0,-0.226 0,-1.13 0,-2.486c0,-4.972 0.226,-15.142 1.356,-18.984c0.904,-4.294 3.616,-8.136 7.684,-10.17c1.582,-0.904 3.39,-1.582 5.198,-2.26l16.046,-5.876c1.13,-0.226 2.034,-0.904 2.26,-1.808c0,-0.678 0.226,-2.712 0.226,-4.52c-1.582,-1.13 -3.164,-2.26 -4.746,-3.616c-2.938,-2.712 -5.198,-6.102 -6.328,-9.944c-0.226,-0.678 -0.452,-1.356 -0.904,-1.808c-0.452,-0.226 -0.904,-0.678 -1.356,-0.904c-1.13,-0.678 -2.26,-1.356 -3.164,-2.712c-1.808,-3.842 -2.938,-7.91 -3.164,-12.204c0,-0.226 0,-0.226 0,-0.452c0.678,-2.486 3.164,-4.294 5.876,-4.294h0.904c0.678,0 1.13,0 1.582,0c0,-2.712 0,-8.588 0.226,-11.074c0,-0.678 0,-1.13 0,-1.13c0,-10.848 10.848,-19.662 24.86,-20.114h0.452c14.012,0.452 24.86,9.266 24.86,20.114c0,0 0,0.452 0,1.13c0,2.712 0.226,8.588 0.226,11.074c0.452,0 0.904,0 1.582,0h0.904c2.712,0 4.972,1.808 5.876,4.294c0,0.226 0,0.226 0,0.452c-0.452,4.294 -1.356,8.362 -3.164,12.204c-0.904,1.582 -2.034,2.26 -3.164,2.938c-0.452,0.226 -0.904,0.452 -1.356,0.904c-0.452,0.452 -0.678,0.904 -0.904,1.582c-1.13,4.068 -3.39,7.458 -6.554,10.17c-1.582,1.356 -3.39,2.712 -4.972,4.068c0,1.356 0.226,2.938 0.678,4.294c0.452,0.678 1.13,1.356 2.034,1.582c0.678,0.226 16.95,6.328 19.888,7.458l2.034,0.678c4.746,1.356 7.232,4.294 8.362,9.944c0,0 0,0 0,0.226c0,0 0.678,15.594 1.13,25.312c0,0.452 -0.226,0.904 -0.678,1.13c-9.04,4.52 -25.538,9.944 -36.386,10.396c-3.39,0 -5.876,0 -8.362,0zM64.184,181.252c16.724,11.3 30.51,14.69 54.692,13.56c10.17,-0.452 25.764,-5.424 34.804,-9.718c-0.452,-9.266 -1.13,-23.278 -1.13,-24.408c-0.904,-4.746 -2.712,-7.006 -6.78,-8.136l-2.26,-0.904c-2.938,-1.13 -19.436,-7.458 -19.662,-7.458c-1.582,-0.452 -2.712,-1.582 -3.39,-3.164c-0.678,-1.582 -0.904,-3.616 -0.678,-5.424c0,-0.452 0.226,-0.678 0.452,-0.904c1.808,-1.356 3.616,-2.712 5.198,-4.068c2.712,-2.486 4.746,-5.424 5.876,-8.814c0.226,-0.904 0.678,-2.034 1.582,-2.712c0.678,-0.452 1.13,-0.678 1.582,-1.13c0.904,-0.452 1.582,-0.904 2.26,-1.808c1.582,-3.39 2.712,-7.232 2.938,-11.074c-0.452,-1.582 -2.034,-2.486 -3.616,-2.486h-0.904c-0.678,0 -1.13,0 -1.582,0.226c-0.678,0 -1.356,0.226 -1.808,-0.226c-0.452,-0.452 -0.452,-1.356 -0.452,-1.582c0.226,-1.808 0,-8.814 -0.226,-11.3c0,-0.678 0,-1.13 0,-1.356c0,-9.492 -9.944,-17.402 -22.6,-17.854h-0.452c-12.656,0.452 -22.6,8.362 -22.6,17.854c0,0 0,0.452 0,1.13c0,2.712 -0.226,9.492 -0.226,11.526c0,0.452 0,1.13 -0.452,1.582c-0.452,0.452 -1.13,0.452 -1.582,0.226c-0.452,0 -0.904,-0.226 -1.582,0h-0.904c-1.582,0 -2.938,1.13 -3.616,2.486c0.452,3.842 1.356,7.684 2.938,11.3c0.452,0.904 1.13,1.356 2.034,1.808c0.452,0.226 1.13,0.678 1.582,0.904c0.904,0.678 1.582,1.808 1.808,2.938c0.904,3.164 2.938,6.328 5.65,8.588c1.582,1.356 3.39,2.712 4.972,3.842c0.226,0.226 0.452,0.452 0.452,0.904c0,2.26 -0.226,4.746 -0.452,5.65c-0.678,1.808 -2.034,3.164 -3.842,3.616l-15.82,5.876c-1.808,0.452 -3.39,1.13 -4.746,2.034c-3.39,1.808 -5.876,4.972 -6.554,8.588c-1.13,3.842 -1.13,14.238 -1.356,18.532c0.678,0.226 0.452,0.904 0.452,1.356z" fill="#472b29"></path><path d="M136.278,111.192l-1.356,-0.226l0.452,-4.068l-2.26,0.904l-0.452,-1.13l3.39,-1.356c0.226,0 0.452,0 0.678,0c0.226,0.226 0.226,0.452 0.226,0.678zM81.586,110.514l-0.678,-5.198c0,-0.226 0,-0.452 0.226,-0.678c0.226,-0.226 0.452,-0.226 0.678,0l3.39,1.582l-0.452,1.13l-2.26,-0.904l0.452,4.068z" fill="#895d3d"></path><path d="M84.75,120.458c-0.226,0 -0.226,0 0,0c-0.226,0 -0.452,-0.226 -0.452,-0.452l0.452,-19.436c0,-0.226 0.226,-0.452 0.452,-0.452v0c0.226,0 0.452,0.226 0.452,0.452l-0.452,19.436c-0.226,0.452 -0.226,0.452 -0.452,0.452zM132.888,120.458c-0.226,0 -0.452,-0.226 -0.452,-0.452l-0.452,-19.436c0,-0.226 0.226,-0.452 0.452,-0.452c0.226,0 0.452,0.226 0.452,0.452l0.452,19.436c0,0.226 -0.226,0.452 -0.452,0.452z" fill="#472b29"></path><path d="M113.678,134.018c-2.486,-0.678 -4.294,-2.486 -5.198,-4.972c-0.678,2.486 -2.712,4.294 -5.198,4.972c-0.452,0 -0.678,0 -1.13,0.226c0.226,1.808 0.452,3.616 0.678,5.424l1.582,0.678c1.356,0.678 2.712,0.904 4.068,1.13c1.356,-0.226 2.712,-0.452 3.842,-1.13l1.582,-0.678c0.452,-1.808 0.678,-3.616 0.678,-5.424c-0.226,-0.226 -0.452,-0.226 -0.904,-0.226zM131.984,71.868c2.938,0.678 4.746,3.164 4.746,6.102c0,4.972 -3.39,26.442 -3.39,26.442l-7.006,-22.148z" fill="#5e2e2e"></path><path d="M105.768,60.342l-2.712,-3.616c0,0 29.606,-3.39 29.38,13.108c0.452,12.204 -7.684,22.826 -19.21,25.99l1.582,-5.876l-11.526,6.102l1.356,-3.39l-9.718,3.39l3.39,-7.91l-8.588,3.164c-2.034,4.972 -3.39,10.17 -4.52,15.368c0,0 -6.78,-22.826 -2.486,-24.634l-1.356,-0.904l2.034,-4.068l-2.938,-1.356l2.712,-3.842l-1.13,-1.582l5.876,-3.39l-3.164,-1.582c-0.226,0 9.718,-8.136 21.018,-4.972z" fill="#5e2e2e"></path><path d="M100.796,123.396c0,0.452 -0.226,0.678 -0.226,1.13c0,3.164 3.39,5.65 7.91,5.65c4.52,0 7.91,-2.486 7.91,-5.65c0,-0.452 0,-0.678 -0.226,-1.13z" fill="#6d1b18"></path><path d="M112.548,129.498c-2.486,-1.808 -5.876,-1.808 -8.136,0c2.712,1.13 5.65,1.13 8.136,0z" fill="#ee3e54"></path><path d="M103.056,123.396v0v0.904c0,0.904 1.13,1.582 2.486,1.582h5.876c1.356,0 2.486,-0.678 2.486,-1.582v-0.904v0z" fill="#fdfcef"></path><path d="M108.48,130.628c-4.52,0 -8.362,-2.712 -8.362,-6.102c0,-0.452 0,-0.904 0.226,-1.13c0,-0.226 0.226,-0.452 0.452,-0.452h15.368c0.226,0 0.452,0.226 0.452,0.452c0,0.452 0.226,0.904 0.226,1.13c0,3.39 -3.842,6.102 -8.362,6.102zM101.248,123.848c0,0.226 0,0.452 0,0.678c0,2.938 3.39,5.198 7.458,5.198c4.068,0 7.232,-2.26 7.232,-5.198c0,-0.226 0,-0.452 0,-0.678zM108.932,141.702c-4.52,0 -12.43,-5.876 -12.656,-6.102c-0.226,-0.226 -0.226,-0.452 0,-0.904c0.226,-0.226 0.452,-0.226 0.904,0c0,0 8.362,6.328 12.43,5.876c4.068,-0.452 10.848,-5.424 10.848,-5.424c0.226,-0.226 0.678,-0.226 0.904,0c0.226,0.226 0.226,0.678 0,0.904c-0.226,0.226 -7.006,5.198 -11.3,5.65c-0.678,0 -0.904,0 -1.13,0z" fill="#472b29"></path></g></g></svg>