<svg version="1.1" xmlns="http://www.w3.org/2000/svg" xmlns:xlink="http://www.w3.org/1999/xlink" viewBox="0 0 172 172"><g fill="none" fill-rule="nonzero" stroke="none" stroke-width="1" stroke-linecap="butt" stroke-linejoin="miter" stroke-miterlimit="10" stroke-dasharray="" stroke-dashoffset="0" font-family="none" font-weight="none" font-size="none" text-anchor="none" style="mix-blend-mode: normal"><path d="M0,172v-172h172v172z" fill="none"></path><g><circle cx="77" cy="13" transform="scale(1.72,1.72)" r="1" fill="#8889b9"></circle><circle cx="50" cy="50" transform="scale(1.72,1.72)" r="37" fill="#e4e4f9"></circle><circle cx="83" cy="15" transform="scale(1.72,1.72)" r="4" fill="#8889b9"></circle><circle cx="87" cy="24" transform="scale(1.72,1.72)" r="2" fill="#8889b9"></circle><circle cx="81" cy="76" transform="scale(1.72,1.72)" r="2" fill="#ffd803"></circle><circle cx="15" cy="63" transform="scale(1.72,1.72)" r="4" fill="#ffd803"></circle><circle cx="25" cy="87" transform="scale(1.72,1.72)" r="2" fill="#8889b9"></circle><circle cx="18.5" cy="51.5" transform="scale(1.72,1.72)" r="2.5" fill="#ffffff"></circle><circle cx="79.5" cy="33.5" transform="scale(1.72,1.72)" r="1.5" fill="#ffffff"></circle><g><path d="M49.89892,124.356c-0.29412,0 -0.53492,-0.23908 -0.53492,-0.53492v-44.68216c0,-0.29412 0.2408,-0.53492 0.53492,-0.53492h17.16388c0.29412,0 0.53492,0.23908 0.53492,0.53492v44.68388c0,0.29412 -0.2408,0.53492 -0.53492,0.53492h-17.16388z" fill="#ffd803"></path><path d="M66.392,79.808v43.344h-15.824v-43.344h15.824M67.06108,77.4h-17.16388c-0.95976,0 -1.7372,0.77744 -1.7372,1.7372v44.6856c0,0.95976 0.77744,1.7372 1.73892,1.7372h17.16388c0.95976,0 1.7372,-0.77744 1.7372,-1.7372v-44.6856c0,-0.95976 -0.77744,-1.7372 -1.73892,-1.7372z" fill="#472b29"></path><path d="M104.92,124.356c-0.2838,0 -0.516,-0.23048 -0.516,-0.516v-37.84c0,-0.28552 0.2322,-0.516 0.516,-0.516h17.2c0.2838,0 0.516,0.23048 0.516,0.516v37.84c0,0.28552 -0.2322,0.516 -0.516,0.516z" fill="#ed2424"></path><path d="M121.432,86.688v36.464h-15.824v-36.464h15.824M122.12,84.28h-17.2c-0.94944,0 -1.72,0.77056 -1.72,1.72v37.84c0,0.94944 0.77056,1.72 1.72,1.72h17.2c0.94944,0 1.72,-0.77056 1.72,-1.72v-37.84c0,-0.94944 -0.77056,-1.72 -1.72,-1.72z" fill="#472b29"></path><path d="M77.4,124.356c-0.2838,0 -0.516,-0.23048 -0.516,-0.516v-55.04c0,-0.28552 0.2322,-0.516 0.516,-0.516h17.2c0.2838,0 0.516,0.23048 0.516,0.516v55.04c0,0.28552 -0.2322,0.516 -0.516,0.516z" fill="#4d85d7"></path><path d="M93.912,69.488v53.664h-15.824v-53.664h15.824M94.6,67.08h-17.2c-0.94944,0 -1.72,0.77056 -1.72,1.72v55.04c0,0.94944 0.77056,1.72 1.72,1.72h17.2c0.94944,0 1.72,-0.77056 1.72,-1.72v-55.04c0,-0.94944 -0.77056,-1.72 -1.72,-1.72z" fill="#472b29"></path><path d="M58.48,72.24c-0.95116,0 -1.72,-0.77056 -1.72,-1.72v-18.92c0,-0.94944 0.76884,-1.72 1.72,-1.72c0.95116,0 1.72,0.77056 1.72,1.72v18.92c0,0.94944 -0.76884,1.72 -1.72,1.72z" fill="#472b29"></path><path d="M67.08,60.2c-0.44032,0 -0.88064,-0.16856 -1.21604,-0.50396l-7.38396,-7.38396l-7.38396,7.38396c-0.67252,0.67252 -1.75956,0.67252 -2.43208,0c-0.67252,-0.67252 -0.67252,-1.75956 0,-2.43208l8.6,-8.6c0.67252,-0.67252 1.75956,-0.67252 2.43208,0l8.6,8.6c0.67252,0.67252 0.67252,1.75956 0,2.43208c-0.3354,0.3354 -0.77572,0.50396 -1.21604,0.50396z" fill="#472b29"></path><path d="M86,61.92c-0.95116,0 -1.72,-0.77056 -1.72,-1.72v-18.92c0,-0.94944 0.76884,-1.72 1.72,-1.72c0.95116,0 1.72,0.77056 1.72,1.72v18.92c0,0.94944 -0.76884,1.72 -1.72,1.72z" fill="#472b29"></path><path d="M94.6,49.88c-0.44032,0 -0.88064,-0.16856 -1.21604,-0.50396l-7.38396,-7.38396l-7.38396,7.38396c-0.67252,0.67252 -1.75956,0.67252 -2.43208,0c-0.67252,-0.67252 -0.67252,-1.75956 0,-2.43208l8.6,-8.6c0.67252,-0.67252 1.75956,-0.67252 2.43208,0l8.6,8.6c0.67252,0.67252 0.67252,1.75956 0,2.43208c-0.3354,0.3354 -0.77572,0.50396 -1.21604,0.50396z" fill="#472b29"></path><path d="M113.52,79.12c-0.95116,0 -1.72,-0.77056 -1.72,-1.72v-18.92c0,-0.94944 0.76884,-1.72 1.72,-1.72c0.95116,0 1.72,0.77056 1.72,1.72v18.92c0,0.94944 -0.76884,1.72 -1.72,1.72z" fill="#472b29"></path><path d="M122.12,67.08c-0.44032,0 -0.88064,-0.16856 -1.21604,-0.50396l-7.38396,-7.38396l-7.38396,7.38396c-0.67252,0.67252 -1.75956,0.67252 -2.43208,0c-0.67252,-0.67252 -0.67252,-1.75956 0,-2.43208l8.6,-8.6c0.67252,-0.67252 1.75956,-0.67252 2.43208,0l8.6,8.6c0.67252,0.67252 0.67252,1.75956 0,2.43208c-0.3354,0.3354 -0.77572,0.50396 -1.21604,0.50396z" fill="#472b29"></path><path d="M62.78,119.97c-0.23736,0 -0.43,-0.19264 -0.43,-0.43v-18.92c0,-0.23736 0.19264,-0.43 0.43,-0.43c0.23736,0 0.43,0.19264 0.43,0.43v18.92c0,0.23736 -0.19264,0.43 -0.43,0.43z" fill="#472b29"></path><path d="M90.3,119.97c-0.23736,0 -0.43,-0.19264 -0.43,-0.43v-10.32c0,-0.23736 0.19264,-0.43 0.43,-0.43c0.23736,0 0.43,0.19264 0.43,0.43v10.32c0,0.23736 -0.19264,0.43 -0.43,0.43z" fill="#472b29"></path><path d="M90.3,104.49c-0.23736,0 -0.43,-0.19264 -0.43,-0.43v-17.2c0,-0.23736 0.19264,-0.43 0.43,-0.43c0.23736,0 0.43,0.19264 0.43,0.43v17.2c0,0.23736 -0.19264,0.43 -0.43,0.43z" fill="#472b29"></path><g fill="#472b29"><path d="M117.82,119.97c-0.23736,0 -0.43,-0.19264 -0.43,-0.43v-17.2c0,-0.23736 0.19264,-0.43 0.43,-0.43c0.23736,0 0.43,0.19264 0.43,0.43v17.2c0,0.23736 -0.19264,0.43 -0.43,0.43z"></path></g><g fill="#472b29"><path d="M90.3,82.13c-0.23736,0 -0.43,-0.19264 -0.43,-0.43v-5.16c0,-0.23736 0.19264,-0.43 0.43,-0.43c0.23736,0 0.43,0.19264 0.43,0.43v5.16c0,0.23736 -0.19264,0.43 -0.43,0.43z"></path></g><g fill="#472b29"><path d="M117.82,99.33c-0.23736,0 -0.43,-0.19264 -0.43,-0.43v-5.16c0,-0.23736 0.19264,-0.43 0.43,-0.43c0.23736,0 0.43,0.19264 0.43,0.43v5.16c0,0.23736 -0.19264,0.43 -0.43,0.43z"></path></g><g fill="#472b29"><path d="M62.78,95.89c-0.23736,0 -0.43,-0.19264 -0.43,-0.43v-8.6c0,-0.23736 0.19264,-0.43 0.43,-0.43c0.23736,0 0.43,0.19264 0.43,0.43v8.6c0,0.23736 -0.19264,0.43 -0.43,0.43z"></path></g><g fill="#472b29"><path d="M69.66,125.56h-24.08c-0.47472,0 -0.86,-0.38528 -0.86,-0.86c0,-0.47472 0.38528,-0.86 0.86,-0.86h24.08c0.47472,0 0.86,0.38528 0.86,0.86c0,0.47472 -0.38528,0.86 -0.86,0.86z"></path></g><g fill="#472b29"><path d="M126.42,125.56h-51.6c-0.47472,0 -0.86,-0.38528 -0.86,-0.86c0,-0.47472 0.38528,-0.86 0.86,-0.86h51.6c0.47472,0 0.86,0.38528 0.86,0.86c0,0.47472 -0.38528,0.86 -0.86,0.86z"></path></g></g></g></g></svg>