<svg version="1.1" xmlns="http://www.w3.org/2000/svg" xmlns:xlink="http://www.w3.org/1999/xlink" viewBox="0 0 226 226"><g fill="none" fill-rule="nonzero" stroke="none" stroke-width="1" stroke-linecap="butt" stroke-linejoin="miter" stroke-miterlimit="10" stroke-dasharray="" stroke-dashoffset="0" font-family="none" font-weight="none" font-size="none" text-anchor="none" style="mix-blend-mode: normal"><path d="M0,226v-226h226v226z" fill="none"></path><g><path d="M29.38,61.02c-2.49633,0 -4.52,2.02367 -4.52,4.52c0,2.49633 2.02367,4.52 4.52,4.52c2.49633,0 4.52,-2.02367 4.52,-4.52c0,-2.49633 -2.02367,-4.52 -4.52,-4.52z" fill="#88ae45"></path><path d="M174.02,27.12c-1.24816,0 -2.26,1.01184 -2.26,2.26c0,1.24816 1.01184,2.26 2.26,2.26c1.24816,0 2.26,-1.01184 2.26,-2.26c0,-1.24816 -1.01184,-2.26 -2.26,-2.26z" fill="#f1bc19"></path><path d="M113,29.38c-46.18205,0 -83.62,37.43795 -83.62,83.62c0,46.18205 37.43795,83.62 83.62,83.62c46.18205,0 83.62,-37.43795 83.62,-83.62c0,-46.18205 -37.43795,-83.62 -83.62,-83.62z" fill="#e6edb7"></path><path d="M187.58,24.86c-4.99265,0 -9.04,4.04735 -9.04,9.04c0,4.99265 4.04735,9.04 9.04,9.04c4.99265,0 9.04,-4.04735 9.04,-9.04c0,-4.99265 -4.04735,-9.04 -9.04,-9.04z" fill="#f1bc19"></path><path d="M196.62,49.72c-2.49633,0 -4.52,2.02367 -4.52,4.52c0,2.49633 2.02367,4.52 4.52,4.52c2.49633,0 4.52,-2.02367 4.52,-4.52c0,-2.49633 -2.02367,-4.52 -4.52,-4.52z" fill="#88ae45"></path><path d="M183.06,167.24c-2.49633,0 -4.52,2.02367 -4.52,4.52c0,2.49633 2.02367,4.52 4.52,4.52c2.49633,0 4.52,-2.02367 4.52,-4.52c0,-2.49633 -2.02367,-4.52 -4.52,-4.52zM33.9,133.34c-4.99265,0 -9.04,4.04735 -9.04,9.04c0,4.99265 4.04735,9.04 9.04,9.04c4.99265,0 9.04,-4.04735 9.04,-9.04c0,-4.99265 -4.04735,-9.04 -9.04,-9.04z" fill="#fbcd59"></path><path d="M56.5,192.1c-2.49633,0 -4.52,2.02367 -4.52,4.52c0,2.49633 2.02367,4.52 4.52,4.52c2.49633,0 4.52,-2.02367 4.52,-4.52c0,-2.49633 -2.02367,-4.52 -4.52,-4.52z" fill="#88ae45"></path><path d="M41.81,115.26c-3.12041,0 -5.65,2.52959 -5.65,5.65c0,3.12041 2.52959,5.65 5.65,5.65c3.12041,0 5.65,-2.52959 5.65,-5.65c0,-3.12041 -2.52959,-5.65 -5.65,-5.65z" fill="#ffffff"></path><path d="M47.46,149.16c-1.24816,0 -2.26,1.01184 -2.26,2.26c0,1.24816 1.01184,2.26 2.26,2.26c1.24816,0 2.26,-1.01184 2.26,-2.26c0,-1.24816 -1.01184,-2.26 -2.26,-2.26z" fill="#f1bc19"></path><path d="M180.8,74.58c-1.24816,0 -2.26,1.01184 -2.26,2.26c0,1.24816 1.01184,2.26 2.26,2.26c1.24816,0 2.26,-1.01184 2.26,-2.26c0,-1.24816 -1.01184,-2.26 -2.26,-2.26z" fill="#ffffff"></path><g><path d="M113,58.85492c-29.9035,0 -54.14508,24.24158 -54.14508,54.14508c0,29.9035 24.24158,54.14508 54.14508,54.14508c29.9035,0 54.14508,-24.24158 54.14508,-54.14508c0,-29.9035 -24.24158,-54.14508 -54.14508,-54.14508z" fill="#88ae45"></path><path d="M113,59.664c29.40938,0 53.336,23.92662 53.336,53.336c0,29.40938 -23.92662,53.336 -53.336,53.336c-29.40938,0 -53.336,-23.92662 -53.336,-53.336c0,-29.40938 23.92662,-53.336 53.336,-53.336M113,56.5c-31.20382,0 -56.5,25.29618 -56.5,56.5c0,31.20382 25.29618,56.5 56.5,56.5c31.20382,0 56.5,-25.29618 56.5,-56.5c0,-31.20382 -25.29618,-56.5 -56.5,-56.5z" fill="#472b29"></path><path d="M69.68032,105.09c-0.46782,2.57188 -0.75032,5.20704 -0.75032,7.91c0,24.29952 19.77048,44.07 44.07,44.07c24.29952,0 44.07,-19.77048 44.07,-44.07c0,-24.29952 -19.77048,-44.07 -44.07,-44.07c-14.57926,0 -27.49064,7.14838 -35.51816,18.0913l-0.9266,-0.678c-2.09728,2.86342 -3.89624,5.9551 -5.27936,9.27278l1.05316,0.43844c-0.61246,1.46448 -1.13,2.97642 -1.58426,4.51774l-1.08932,-0.31866v0c-0.44522,1.5142 -0.8023,3.0623 -1.08706,4.63526z" fill="#fdfcee"></path><path d="M113,158.2c-24.92328,0 -45.2,-20.27672 -45.2,-45.2c0,-2.6216 0.2486,-5.27258 0.76388,-8.11114c0.113,-0.61472 0.70738,-1.02152 1.31306,-0.91078c0.61472,0.11074 1.02152,0.7006 0.91078,1.31532c-0.49042,2.7007 -0.72772,5.22286 -0.72772,7.7066c0,23.67802 19.26198,42.94 42.94,42.94c23.67802,0 42.94,-19.26198 42.94,-42.94c0,-23.67802 -19.26198,-42.94 -42.94,-42.94c-13.59616,0 -26.53918,6.58564 -34.62094,17.6167c-0.36612,0.50624 -1.0735,0.61246 -1.57974,0.24408c-0.50398,-0.36838 -0.61246,-1.07576 -0.24182,-1.57974c8.50438,-11.60962 22.12766,-18.54104 36.4425,-18.54104c24.92328,0 45.2,20.27672 45.2,45.2c0,24.92328 -20.27672,45.2 -45.2,45.2z" fill="#472b29"></path><path d="M70.738,101.7c-0.10622,0 -0.21244,-0.01356 -0.31866,-0.0452c-0.60116,-0.17628 -0.94242,-0.80456 -0.76614,-1.40346c0.4972,-1.69726 1.0283,-3.21372 1.62042,-4.63752c0.23956,-0.57856 0.90852,-0.8475 1.47804,-0.60794c0.5763,0.23956 0.8475,0.90174 0.6102,1.47804c-0.56048,1.3447 -1.06672,2.78432 -1.54132,4.40248c-0.14238,0.49494 -0.59212,0.8136 -1.08254,0.8136z" fill="#472b29"></path></g><g><path d="M103.395,88.705v10.735c0,0.93564 -0.75936,1.695 -1.695,1.695c-0.93564,0 -1.695,-0.75936 -1.695,-1.695v-4.44994v-1.13226l-0.904,0.68252c-5.80142,4.36858 -9.266,11.27062 -9.266,18.46194c0,12.77352 10.39148,23.165 23.165,23.165c12.77352,0 23.165,-10.39374 23.165,-23.16726c0,-7.51676 -3.71318,-14.5996 -9.93044,-18.9501c-0.76614,-0.53562 -0.95146,-1.59556 -0.41584,-2.3617c0.3164,-0.452 0.8362,-0.7232 1.38764,-0.7232c0.34804,0 0.68478,0.10622 0.9718,0.3051c7.12352,4.9833 11.37684,13.108 11.37684,21.7299c0,14.64254 -11.91246,26.555 -26.555,26.555c-14.64254,0 -26.555,-11.91246 -26.555,-26.555c0,-7.60264 3.29734,-14.86176 9.04904,-19.91512l1.12548,-0.98988h-1.49838h-2.46114c-0.93564,0 -1.695,-0.75936 -1.695,-1.695c0,-0.93564 0.75936,-1.695 1.695,-1.695h10.735" fill="#eab436"></path><path d="M102.83,89.27v10.17c0,0.62376 -0.50624,1.13 -1.13,1.13c-0.62376,0 -1.13,-0.50624 -1.13,-1.13v-4.44994v-2.26678l-1.81026,1.36278c-5.94154,4.47706 -9.48974,11.54634 -9.48974,18.91394c0,13.0854 10.6446,23.73 23.73,23.73c13.0854,0 23.73,-10.6446 23.73,-23.73c0,-7.69982 -3.80132,-14.95894 -10.17,-19.4134c-0.51076,-0.35708 -0.63506,-1.0622 -0.27798,-1.57522c0.21018,-0.30058 0.55596,-0.48138 0.92434,-0.48138c0.23278,0 0.45652,0.07006 0.64862,0.2034c6.9721,4.87934 11.13502,12.83002 11.13502,21.2666c0,14.33066 -11.65934,25.99 -25.99,25.99c-14.33066,0 -25.99,-11.65934 -25.99,-25.99c0,-7.44218 3.22728,-14.54536 8.85694,-19.49024l2.25322,-1.97976h-2.99902h-2.46114c-0.62376,0 -1.13,-0.50624 -1.13,-1.13c0,-0.62376 0.50624,-1.13 1.13,-1.13h10.17M103.96,88.14h-11.3c-1.24978,0 -2.26,1.01248 -2.26,2.26c0,1.24752 1.01022,2.26 2.26,2.26h2.46114c-5.82628,5.1189 -9.24114,12.51814 -9.24114,20.34c0,14.95442 12.16558,27.12 27.12,27.12c14.95442,0 27.12,-12.16558 27.12,-27.12c0,-8.80496 -4.34372,-17.10142 -11.61866,-22.19094c-0.39324,-0.27572 -0.8475,-0.40906 -1.29498,-0.40906c-0.7119,0 -1.4125,0.33448 -1.85094,0.96502c-0.71416,1.02378 -0.46556,2.43176 0.55596,3.14818c6.06584,4.24428 9.68862,11.15536 9.68862,18.4868c0,12.46164 -10.13836,22.6 -22.6,22.6c-12.46164,0 -22.6,-10.13836 -22.6,-22.6c0,-7.08736 3.3787,-13.74758 9.04,-18.00994v4.44994c0,1.24752 1.01022,2.26 2.26,2.26c1.24978,0 2.26,-1.01248 2.26,-2.26v-11.3z" fill="#472b29"></path></g></g></g></svg>