<svg version="1.1" xmlns="http://www.w3.org/2000/svg" xmlns:xlink="http://www.w3.org/1999/xlink" viewBox="0 0 226 226"><g fill="none" fill-rule="nonzero" stroke="none" stroke-width="1" stroke-linecap="butt" stroke-linejoin="miter" stroke-miterlimit="10" stroke-dasharray="" stroke-dashoffset="0" font-family="none" font-weight="none" font-size="none" text-anchor="none" style="mix-blend-mode: normal"><path d="M0,226v-226h226v226z" fill="none"></path><g><path d="M29.38,61.02c-2.49633,0 -4.52,2.02367 -4.52,4.52c0,2.49633 2.02367,4.52 4.52,4.52c2.49633,0 4.52,-2.02367 4.52,-4.52c0,-2.49633 -2.02367,-4.52 -4.52,-4.52z" fill="#78a0cf"></path><path d="M174.02,27.12c-1.24816,0 -2.26,1.01184 -2.26,2.26c0,1.24816 1.01184,2.26 2.26,2.26c1.24816,0 2.26,-1.01184 2.26,-2.26c0,-1.24816 -1.01184,-2.26 -2.26,-2.26z" fill="#f1bc19"></path><path d="M113,29.38c-46.18205,0 -83.62,37.43795 -83.62,83.62c0,46.18205 37.43795,83.62 83.62,83.62c46.18205,0 83.62,-37.43795 83.62,-83.62c0,-46.18205 -37.43795,-83.62 -83.62,-83.62z" fill="#cee1f4"></path><path d="M187.58,24.86c-4.99265,0 -9.04,4.04735 -9.04,9.04c0,4.99265 4.04735,9.04 9.04,9.04c4.99265,0 9.04,-4.04735 9.04,-9.04c0,-4.99265 -4.04735,-9.04 -9.04,-9.04z" fill="#f1bc19"></path><path d="M196.62,49.72c-2.49633,0 -4.52,2.02367 -4.52,4.52c0,2.49633 2.02367,4.52 4.52,4.52c2.49633,0 4.52,-2.02367 4.52,-4.52c0,-2.49633 -2.02367,-4.52 -4.52,-4.52z" fill="#78a0cf"></path><path d="M183.06,167.24c-2.49633,0 -4.52,2.02367 -4.52,4.52c0,2.49633 2.02367,4.52 4.52,4.52c2.49633,0 4.52,-2.02367 4.52,-4.52c0,-2.49633 -2.02367,-4.52 -4.52,-4.52zM33.9,133.34c-4.99265,0 -9.04,4.04735 -9.04,9.04c0,4.99265 4.04735,9.04 9.04,9.04c4.99265,0 9.04,-4.04735 9.04,-9.04c0,-4.99265 -4.04735,-9.04 -9.04,-9.04z" fill="#fbcd59"></path><path d="M56.5,192.1c-2.49633,0 -4.52,2.02367 -4.52,4.52c0,2.49633 2.02367,4.52 4.52,4.52c2.49633,0 4.52,-2.02367 4.52,-4.52c0,-2.49633 -2.02367,-4.52 -4.52,-4.52z" fill="#78a0cf"></path><path d="M41.81,115.26c-3.12041,0 -5.65,2.52959 -5.65,5.65c0,3.12041 2.52959,5.65 5.65,5.65c3.12041,0 5.65,-2.52959 5.65,-5.65c0,-3.12041 -2.52959,-5.65 -5.65,-5.65z" fill="#ffffff"></path><path d="M47.46,149.16c-1.24816,0 -2.26,1.01184 -2.26,2.26c0,1.24816 1.01184,2.26 2.26,2.26c1.24816,0 2.26,-1.01184 2.26,-2.26c0,-1.24816 -1.01184,-2.26 -2.26,-2.26z" fill="#f1bc19"></path><path d="M180.8,74.58c-1.24816,0 -2.26,1.01184 -2.26,2.26c0,1.24816 1.01184,2.26 2.26,2.26c1.24816,0 2.26,-1.01184 2.26,-2.26c0,-1.24816 -1.01184,-2.26 -2.26,-2.26z" fill="#ffffff"></path><path d="M139.57534,152.47994l2.2826,4.6217l5.09856,0.74128l-3.69058,3.59566l0.8701,5.07822l-4.56068,-2.40012l-4.56068,2.40012l0.87236,-5.07822l-3.69058,-3.59566l5.10082,-0.74128z" fill="#f1bc19"></path><path d="M144.13828,167.41402c-0.14464,0 -0.28476,-0.0339 -0.4181,-0.1017l-4.14258,-2.17864l-4.14258,2.17864c-0.30284,0.16046 -0.6667,0.13334 -0.94694,-0.06554c-0.27346,-0.19888 -0.41358,-0.54014 -0.35708,-0.87914l0.79326,-4.61492l-3.35384,-3.2657c-0.24634,-0.24182 -0.33222,-0.59438 -0.22826,-0.91982c0.10396,-0.32544 0.3842,-0.56048 0.7232,-0.6102l4.63526,-0.67348l2.07468,-4.19682c0.30058,-0.6102 1.30854,-0.6102 1.60686,0l2.07468,4.19682l4.633,0.67348c0.339,0.05198 0.61698,0.28476 0.7232,0.6102c0.10622,0.32544 0.01808,0.68252 -0.22826,0.91982l-3.35158,3.2657l0.79326,4.61492c0.0565,0.339 -0.0791,0.68026 -0.35708,0.87914c-0.16046,0.10848 -0.34578,0.16724 -0.5311,0.16724zM139.57534,163.22398c0.14464,0 0.28702,0.0339 0.4181,0.1017l2.95156,1.55036l-0.565,-3.28604c-0.05198,-0.29154 0.0452,-0.5876 0.2599,-0.79778l2.38656,-2.3278l-3.2996,-0.47912c-0.28928,-0.04294 -0.5424,-0.22826 -0.67348,-0.49042l-1.47578,-2.98998l-1.47578,2.98998c-0.13108,0.26442 -0.38194,0.44974 -0.67348,0.49042l-3.30186,0.47912l2.38882,2.3278c0.21244,0.20792 0.30736,0.50172 0.2599,0.79778l-0.565,3.28604l2.95156,-1.55036c0.12656,-0.07006 0.27346,-0.1017 0.41358,-0.1017z" fill="#472b29"></path><path d="M72.21152,63.7998l2.28034,4.6217l5.10082,0.74128l-3.69058,3.59792l0.8701,5.07822l-4.56068,-2.40012l-4.56068,2.40012l0.8701,-5.07822l-3.68832,-3.59792l5.09856,-0.74128z" fill="#f1bc19"></path><path d="M76.77446,78.73614c-0.14464,0 -0.28476,-0.0339 -0.4181,-0.1017l-4.14258,-2.17864l-4.14258,2.17864c-0.30284,0.16046 -0.6667,0.13334 -0.94694,-0.06554c-0.27346,-0.19888 -0.41358,-0.54014 -0.35708,-0.87914l0.79326,-4.61492l-3.35384,-3.2657c-0.24634,-0.24182 -0.33222,-0.59438 -0.22826,-0.91982c0.10622,-0.32544 0.3842,-0.56048 0.7232,-0.6102l4.63526,-0.67348l2.07468,-4.19682c0.30058,-0.6102 1.30854,-0.6102 1.60686,0l2.07468,4.19682l4.633,0.67348c0.339,0.05198 0.61698,0.28476 0.7232,0.6102c0.10622,0.32544 0.01808,0.68252 -0.22826,0.91982l-3.35158,3.2657l0.79326,4.61492c0.0565,0.339 -0.0791,0.68026 -0.35708,0.87914c-0.16272,0.10848 -0.34578,0.16724 -0.5311,0.16724zM72.21152,74.54384c0.14464,0 0.28702,0.0339 0.4181,0.1017l2.95156,1.55036l-0.565,-3.28604c-0.05198,-0.29154 0.0452,-0.5876 0.2599,-0.79778l2.38656,-2.3278l-3.2996,-0.47912c-0.28928,-0.04294 -0.5424,-0.22826 -0.67348,-0.49042l-1.47578,-2.98998l-1.47578,2.98998c-0.13108,0.26442 -0.38194,0.44974 -0.67348,0.49042l-3.30186,0.47912l2.38882,2.3278c0.21244,0.20792 0.30736,0.50172 0.2599,0.79778l-0.565,3.28604l2.95156,-1.55036c0.12656,-0.0678 0.2712,-0.1017 0.41358,-0.1017z" fill="#472b29"></path><path d="M167.41402,113.94468l2.97868,6.04098l6.66474,0.96502l-4.82058,4.70306l1.13678,6.63988l-5.95962,-3.13688l-5.96414,3.13688l1.13904,-6.63988l-4.82284,-4.70306l6.667,-0.96502z" fill="#f1bc19"></path><path d="M173.37364,133.18632c-0.14464,0 -0.28476,-0.0339 -0.4181,-0.1017l-5.54604,-2.91314l-5.54152,2.91314c-0.3051,0.16046 -0.66896,0.13334 -0.94694,-0.06554c-0.27346,-0.19888 -0.41358,-0.54014 -0.35708,-0.87914l1.05768,-6.1698l-4.4861,-4.37084c-0.24634,-0.24182 -0.33222,-0.59438 -0.22826,-0.91982c0.10622,-0.32318 0.3842,-0.56048 0.7232,-0.6102l6.20144,-0.90174l2.77076,-5.61384c0.30058,-0.6102 1.30854,-0.6102 1.60686,0l2.77302,5.61384l6.19918,0.90174c0.339,0.05198 0.61698,0.28476 0.7232,0.6102c0.10622,0.32544 0.01808,0.68252 -0.22826,0.91982l-4.48384,4.37084l1.05768,6.1698c0.0565,0.339 -0.0791,0.68026 -0.35708,0.87914c-0.1469,0.10848 -0.33222,0.16724 -0.5198,0.16724zM167.41176,128.26178c0.14464,0 0.28476,0.0339 0.4181,0.1017l4.35276,2.28712l-0.83168,-4.84544c-0.05198,-0.29154 0.0452,-0.5876 0.2599,-0.79778l3.51882,-3.43294l-4.86578,-0.70512c-0.28928,-0.04294 -0.5424,-0.22826 -0.67348,-0.49042l-2.17864,-4.40926l-2.17638,4.40926c-0.13108,0.26442 -0.38194,0.44974 -0.67348,0.49042l-4.86804,0.70512l3.52334,3.43294c0.21244,0.20792 0.30736,0.50172 0.2599,0.79778l-0.83168,4.84544l4.3505,-2.28712c0.12882,-0.0678 0.27346,-0.1017 0.41584,-0.1017z" fill="#472b29"></path><path d="M59.27528,117.36858l6.3845,-6.38902l32.68864,-7.78118l-14.37812,17.2551z" fill="#fde751"></path><path d="M94.08832,105.83806l-10.7802,12.9385l-20.62702,-2.57866l3.78098,-3.78098l27.62624,-6.57886M102.60852,100.5587l-37.75104,8.98802l-8.98802,8.98802l28.76302,3.59566l17.97604,-21.5717z" fill="#472b29"></path><path d="M103.34076,139.82168l17.25284,-14.37812l-7.78344,32.6909l-6.3845,6.38224z" fill="#fde751"></path><path d="M117.95392,129.70366l-6.57886,27.62624l-3.78098,3.78098l-2.57866,-20.62702l12.9385,-10.7802M123.23328,121.18346l-21.5717,17.97604l3.59566,28.76302l8.98802,-8.98802l8.98802,-37.75104z" fill="#472b29"></path><g><path d="M69.22154,161.13348c-2.6329,0 -4.84092,-0.30736 -6.04324,-0.51754c-0.52884,-3.051 -1.67014,-12.57464 3.10524,-19.29362c2.81144,-3.95274 7.26816,-6.33704 13.25942,-7.09414l10.0231,10.02084c-1.76054,13.92838 -11.9893,16.88446 -20.34452,16.88446c0.00226,0 0.00226,0 0,0z" fill="#ea5167"></path><path d="M78.98248,135.90284l4.4522,4.4522l4.45446,4.45446c-1.50968,9.78354 -7.78344,14.74198 -18.66986,14.74198c-1.84642,0 -3.47362,-0.1582 -4.6556,-0.32092c-0.49494,-3.6273 -0.95372,-11.43108 3.0171,-17.00424c2.42498,-3.40356 6.25568,-5.52796 11.4017,-6.32348M80.12152,132.56934c-24.72666,2.52442 -18.29244,29.39356 -18.29244,29.39356c0,0 3.14818,0.75258 7.3902,0.75258c8.15182,0 20.34226,-2.78206 22.00336,-19.04502c-3.69962,-3.69962 -5.55056,-5.55056 -5.55056,-5.55056c0,0 -1.84868,-1.85094 -5.55056,-5.55056z" fill="#472b29"></path></g><g><path d="M73.81612,151.98048c-0.8362,0 -1.50742,-0.0565 -1.90518,-0.1017c-0.26894,-2.24192 -0.91756,-12.6447 9.80162,-14.67644l4.87934,4.87708c-1.63398,8.60608 -8.68744,9.90106 -12.77578,9.90106z" fill="#fde751"></path><path d="M81.52498,137.8148l2.2261,2.2261l2.2261,2.2261c-1.66336,7.9439 -8.29646,9.14848 -12.16106,9.14848c-0.55144,0 -1.02604,-0.02486 -1.39442,-0.05424c-0.2486,-2.78658 -0.26894,-11.58702 9.10328,-13.54644M81.9024,136.59214c-12.80742,2.21028 -10.49092,15.78836 -10.49092,15.78836c0,0 0.95824,0.16272 2.4069,0.16272c4.00472,0 11.75878,-1.24978 13.38372,-10.65364c-1.76506,-1.76732 -2.64872,-2.64872 -2.64872,-2.64872c0,0 -0.88592,-0.8814 -2.65098,-2.64872z" fill="#472b29"></path></g><g><path d="M79.21978,132.83376l4.3053,-8.25126l15.68214,15.6844l-8.249,4.30756z" fill="#bebacb"></path><path d="M83.92962,127.2267l12.63566,12.63566l-5.311,2.77076l-10.09768,-10.09768l2.77302,-5.30874M83.11828,121.94056l-5.83984,11.19152l13.38146,13.38146l11.19152,-5.83758l-18.73314,-18.7354z" fill="#472b29"></path></g><g><path d="M100.08862,142.01614c-0.9492,0 -1.8419,-0.37064 -2.51086,-1.04186l-14.77814,-14.77814c-1.29724,-1.29498 -1.38538,-3.40582 -0.19888,-4.80476l36.62104,-43.26318c10.93388,-13.09896 24.71988,-15.84712 34.36104,-15.84712c1.4577,0 2.90862,0.06554 4.30982,0.19662c1.72212,0.1582 3.08716,1.59104 3.1753,3.3335c0.38194,7.5823 -0.35482,26.53466 -15.39512,38.71832l-43.2903,36.6459c-0.63958,0.54014 -1.45544,0.84072 -2.2939,0.84072c0.00226,0 0.00226,0 0,0z" fill="#bebacb"></path><path d="M153.57604,63.86534c1.41024,0 2.8137,0.06328 4.17196,0.18984c0.94468,0.08814 1.69274,0.87688 1.74246,1.83738c0.36838,7.34274 -0.33674,25.6849 -14.86402,37.45272l-43.26544,36.62104c-0.45426,0.3842 -0.94242,0.46556 -1.27012,0.46556c-0.52658,0 -1.02152,-0.2034 -1.39442,-0.5763l-7.32692,-7.32692l-0.1243,-0.1243l-7.32692,-7.32466c-0.71868,-0.71868 -0.7684,-1.88936 -0.11074,-2.6668l36.63686,-43.279c10.53386,-12.61984 23.8317,-15.26856 33.1316,-15.26856M153.57604,60.70134c-9.1982,0 -23.9786,2.5312 -35.5611,16.40534l-36.62104,43.26318c-1.72438,2.03626 -1.60008,5.05788 0.28928,6.94724l7.32692,7.32692l0.1243,0.1243l7.32692,7.32692c0.99892,0.99666 2.31198,1.50516 3.63182,1.50516c1.1752,0 2.35492,-0.40228 3.31542,-1.21588l43.26318,-36.6233c15.41772,-12.4865 16.40308,-31.62644 15.98046,-40.02686c-0.12656,-2.5312 -2.08598,-4.59458 -4.6104,-4.82736c-1.26334,-0.11978 -2.77076,-0.20566 -4.46576,-0.20566z" fill="#472b29"></path></g><g fill="#78cdd4"><path d="M127.3962,85.55682c-5.98619,0 -10.83896,4.85277 -10.83896,10.83896c0,5.98619 4.85277,10.83896 10.83896,10.83896c5.98619,0 10.83896,-4.85277 10.83896,-10.83896c0,-5.98619 -4.85277,-10.83896 -10.83896,-10.83896z"></path></g><g fill="#472b29"><path d="M137.59106,101.21184c-0.12882,0 -0.25764,-0.0226 -0.3842,-0.06554c-0.5876,-0.21244 -0.89044,-0.86106 -0.678,-1.44866c0.71416,-1.97976 0.76388,-4.181 0.13786,-6.19466c-0.18532,-0.59664 0.1469,-1.22944 0.74354,-1.41476c0.60342,-0.1921 1.22944,0.14916 1.41476,0.74354c0.77066,2.48374 0.70964,5.19348 -0.17176,7.63428c-0.16498,0.45878 -0.5989,0.7458 -1.0622,0.7458z"></path></g><g fill="#472b29"><path d="M127.39846,108.3557c-3.06456,0 -6.12912,-1.16616 -8.4637,-3.49848c-4.6669,-4.66464 -4.6669,-12.2605 0,-16.92514c2.26,-2.26 5.2658,-3.50526 8.4637,-3.50526c3.1979,0 6.20144,1.24526 8.46144,3.50526c0.4407,0.4407 0.4407,1.15712 0,1.59782c-0.4407,0.4407 -1.15712,0.4407 -1.59782,0c-1.83512,-1.83512 -4.2714,-2.84308 -6.86362,-2.84308c-2.59222,0 -5.03076,1.00796 -6.86588,2.84308c-3.7855,3.7855 -3.7855,9.944 0,13.7295c3.7855,3.7855 9.944,3.78098 13.7295,0c0.4407,-0.4407 1.15712,-0.4407 1.59782,0c0.4407,0.4407 0.4407,1.15712 0,1.59782c-2.33232,2.33458 -5.39688,3.49848 -8.46144,3.49848z"></path></g><g fill="#ea4989"><path d="M155.42246,89.08242c5.43304,-11.96218 4.00246,-24.0125 3.955,-24.90746c0,-0.02486 -12.64922,-2.5086 -25.04758,3.76742z"></path></g><g fill="#472b29"><path d="M145.70446,79.2921c-0.14464,0 -0.28928,-0.05424 -0.40002,-0.16498l-11.3904,-11.3904c-0.22148,-0.22148 -0.22148,-0.57856 0,-0.80004c0.22148,-0.22148 0.57856,-0.22148 0.80004,0l11.3904,11.3904c0.22148,0.22148 0.22148,0.57856 0,0.80004c-0.11074,0.11074 -0.25538,0.16498 -0.40002,0.16498z"></path></g><g fill="#472b29"><path d="M152.94324,86.52862c-0.14464,0 -0.28928,-0.05424 -0.40002,-0.16498l-4.47028,-4.47028c-0.22148,-0.22148 -0.22148,-0.57856 0,-0.80004c0.22148,-0.22148 0.57856,-0.22148 0.80004,0l4.47028,4.47028c0.22148,0.22148 0.22148,0.57856 0,0.80004c-0.11074,0.11074 -0.25538,0.16498 -0.40002,0.16498z"></path></g><g fill="#472b29"><path d="M145.70446,79.2921c-0.14464,0 -0.28928,-0.05424 -0.40002,-0.16498l-11.3904,-11.3904c-0.22148,-0.22148 -0.22148,-0.57856 0,-0.80004c0.22148,-0.22148 0.57856,-0.22148 0.80004,0l11.3904,11.3904c0.22148,0.22148 0.22148,0.57856 0,0.80004c-0.11074,0.11074 -0.25538,0.16498 -0.40002,0.16498z"></path></g><g fill="#472b29"><path d="M152.94324,86.52862c-0.14464,0 -0.28928,-0.05424 -0.40002,-0.16498l-4.47028,-4.47028c-0.22148,-0.22148 -0.22148,-0.57856 0,-0.80004c0.22148,-0.22148 0.57856,-0.22148 0.80004,0l4.47028,4.47028c0.22148,0.22148 0.22148,0.57856 0,0.80004c-0.11074,0.11074 -0.25538,0.16498 -0.40002,0.16498z"></path></g><g fill="#472b29"><path d="M109.16478,130.96022c-0.14464,0 -0.28928,-0.05424 -0.40002,-0.16498l-10.89772,-10.89772c-0.22148,-0.22148 -0.22148,-0.57856 0,-0.80004c0.22148,-0.22148 0.57856,-0.22148 0.80004,0l10.89772,10.89772c0.22148,0.22148 0.22148,0.57856 0,0.80004c-0.11074,0.11074 -0.25538,0.16498 -0.40002,0.16498z"></path></g><g fill="#472b29"><path d="M95.61834,117.41378c-0.14464,0 -0.28928,-0.05424 -0.40002,-0.16498l-4.27818,-4.27818c-0.22148,-0.22148 -0.22148,-0.57856 0,-0.80004c0.22148,-0.22148 0.57856,-0.22148 0.80004,0l4.27818,4.27818c0.22148,0.22148 0.22148,0.57856 0,0.80004c-0.11074,0.11074 -0.25538,0.16498 -0.40002,0.16498z"></path></g></g></g></svg>