<?xml version="1.0" encoding="utf-8"?>
<!-- Generator: Adobe Illustrator 25.4.1, SVG Export Plug-In . SVG Version: 6.00 Build 0)  -->
<svg version="1.1" id="Слой_1" xmlns="http://www.w3.org/2000/svg" xmlns:xlink="http://www.w3.org/1999/xlink" x="0px" y="0px"
	 viewBox="0 0 105 105" style="enable-background:new 0 0 105 105;" xml:space="preserve">
<style type="text/css">
	.st0{fill:url(#SVGID_1_);}
	.st1{fill:url(#SVGID_00000035503465219340944410000002138882501710184068_);}
	.st2{fill:url(#SVGID_00000119807981182594986970000005466169771456908445_);}
</style>
<linearGradient id="SVGID_1_" gradientUnits="userSpaceOnUse" x1="45.6031" y1="72.9862" x2="88.3247" y2="0.9337" gradientTransform="matrix(1 0 0 -1 0 106)">
	<stop  offset="0" style="stop-color:#4D85D7"/>
	<stop  offset="1" style="stop-color:#083372"/>
</linearGradient>
<path class="st0" d="M102.3,99l-8.7-19.8c2.7-4.9,4.2-10.5,4.2-16.5c0-19.1-15.5-34.5-34.5-34.5c-19.1,0-34.5,15.5-34.5,34.5
	c0,19.1,15.5,34.5,34.5,34.5c6.2,0,12-1.7,17.1-4.5l18.6,9.5C101,103.2,103.2,101.1,102.3,99z"/>
<radialGradient id="SVGID_00000036241898122693446310000011394191430104075965_" cx="-239.8018" cy="207.1485" r="1" gradientTransform="matrix(37.174 0 0 -37.174 8953.8252 7734.5093)" gradientUnits="userSpaceOnUse">
	<stop  offset="0" style="stop-color:#000000"/>
	<stop  offset="1" style="stop-color:#000000;stop-opacity:0"/>
</radialGradient>
<path style="fill:url(#SVGID_00000036241898122693446310000011394191430104075965_);" d="M28.7,62.7c0,2.4,0.2,4.7,0.7,6.9
	c3.2,0.9,6.5,1.4,10,1.4c20.4,0,36.9-16.5,36.9-36.9c0-1.2-0.1-2.3-0.2-3.4c-4-1.6-8.3-2.5-12.9-2.5C44.1,28.2,28.7,43.6,28.7,62.7
	L28.7,62.7z"/>
<linearGradient id="SVGID_00000129196621634409861450000009172988574900367020_" gradientUnits="userSpaceOnUse" x1="33.8039" y1="65.0811" x2="49.9016" y2="46.1572" gradientTransform="matrix(1 0 0 -1 0 106)">
	<stop  offset="0" style="stop-color:#FFF09B"/>
	<stop  offset="1" style="stop-color:#FFE96D"/>
</linearGradient>
<path style="fill:url(#SVGID_00000129196621634409861450000009172988574900367020_);" d="M39.4,2C21.7,2,7.3,16.4,7.3,34.1
	c0,4.9,1.1,9.5,3.1,13.7c0,0.1-0.1,0.1-0.1,0.2L2.7,65.2c-0.9,2.1,1.3,4.2,3.4,3.2l15.2-7.7c5.2,3.5,11.4,5.6,18.1,5.6
	c17.8,0,32.1-14.4,32.1-32.1S57.2,2,39.4,2L39.4,2z"/>
</svg>
