<?xml version="1.0" encoding="utf-8"?>
<!-- Generator: Adobe Illustrator 25.4.1, SVG Export Plug-In . SVG Version: 6.00 Build 0)  -->
<svg version="1.1" id="Слой_1" xmlns="http://www.w3.org/2000/svg" xmlns:xlink="http://www.w3.org/1999/xlink" x="0px" y="0px"
	 viewBox="0 0 100 100" style="enable-background:new 0 0 100 100;" xml:space="preserve">
<style type="text/css">
	.st0{fill:#CEAE04;}
	.st1{fill:#FFD803;}
	.st2{fill:#083372;}
	.st3{fill:url(#SVGID_1_);}
</style>
<path class="st0" d="M86.7,100H12.3c-1.3,0-2.3-1-2.3-2.3v-7h79.1v7C89.1,99,88,100,86.7,100z"/>
<path class="st1" d="M89.1,93H10V23.3c0-2.6,2.1-4.7,4.7-4.7h69.8c2.6,0,4.7,2.1,4.7,4.7V93z"/>
<path class="st1" d="M65.8,32.6c2.6,0,4.7-2.1,4.7-4.7c0-2.6-2.1-4.7-4.7-4.7c-2.6,0-4.7,2.1-4.7,4.7C61.2,30.5,63.2,32.6,65.8,32.6
	z"/>
<path class="st1" d="M33.3,32.6c2.6,0,4.7-2.1,4.7-4.7c0-2.6-2.1-4.7-4.7-4.7c-2.6,0-4.7,2.1-4.7,4.7C28.6,30.5,30.7,32.6,33.3,32.6
	z"/>
<path class="st2" d="M65.8,30.2c-1.3,0-2.3-1-2.3-2.3v-9.3c0-7.7-6.3-14-14-14c-7.7,0-14,6.3-14,14v9.3c0,1.3-1,2.3-2.3,2.3
	c-1.3,0-2.3-1-2.3-2.3v-9.3C30.9,8.3,39.3,0,49.5,0c10.3,0,18.6,8.3,18.6,18.6v9.3C68.1,29.2,67.1,30.2,65.8,30.2L65.8,30.2z"/>
<linearGradient id="SVGID_1_" gradientUnits="userSpaceOnUse" x1="41.7693" y1="55.5253" x2="60.36" y2="26.8951" gradientTransform="matrix(1 0 0 -1 0 102)">
	<stop  offset="2.000000e-03" style="stop-color:#F44F78"/>
	<stop  offset="0.397" style="stop-color:#E4305D"/>
	<stop  offset="0.763" style="stop-color:#D81B4A"/>
	<stop  offset="1" style="stop-color:#D41343"/>
</linearGradient>
<path class="st3" d="M49.5,53.8c0,0,4.5-5,10.1-5c5.6,0,10.1,4.6,10.1,10.1c0,3.4-3.4,6.7-3.4,6.7L51.2,80.7c-0.9,0.9-2.5,0.9-3.4,0
	L32.6,65.6c0,0-3.4-3.3-3.4-6.7c0-5.5,4.5-10.1,10.1-10.1S49.5,53.8,49.5,53.8L49.5,53.8z"/>
</svg>
