<?xml version="1.0" encoding="utf-8"?>
<!-- Generator: Adobe Illustrator 25.4.1, SVG Export Plug-In . SVG Version: 6.00 Build 0)  -->
<svg version="1.1" id="Слой_1" xmlns="http://www.w3.org/2000/svg" xmlns:xlink="http://www.w3.org/1999/xlink" x="0px" y="0px"
	 viewBox="0 0 100 100" style="enable-background:new 0 0 100 100;" xml:space="preserve">
<style type="text/css">
	.st0{fill:url(#SVGID_1_);}
	.st1{opacity:5.000000e-02;enable-background:new    ;}
	.st2{opacity:7.000000e-02;enable-background:new    ;}
	.st3{fill:#FFFFFF;}
</style>
<linearGradient id="SVGID_1_" gradientUnits="userSpaceOnUse" x1="21.7151" y1="109.5201" x2="78.9501" y2="16.3976" gradientTransform="matrix(1 0 0 -1 0 102)">
	<stop  offset="0" style="stop-color:#FFE96D"/>
	<stop  offset="1" style="stop-color:#FFD803"/>
</linearGradient>
<path class="st0" d="M95,1H5C2.2,1,0,3.2,0,6v65c0,2.8,2.2,5,5,5h20v20c0,2.2,2.7,3.3,4.3,1.8L51,76h44c2.8,0,5-2.2,5-5V6
	C100,3.2,97.8,1,95,1L95,1z"/>
<path class="st1" d="M48.6,11c-4.6,0-10.4,2.3-12.9,3.5c-0.8,0.4-1.3,1.2-1.3,2.1v11.4c0,1.4,1.7,2.2,2.8,1.3
	c2.4-2.1,6.1-4.6,10.3-4.6c1.2,0,2.7,0.4,2.7,2.2c0,4.9-9.9,6.6-9.9,17.1c0,1.4,0.6,3.8,1.1,5.2c0.2,0.7,0.9,1.2,1.7,1.2l10.8,0
	c1.2,0,2.1-1.3,1.5-2.4c-0.7-1.2-0.9-2.5-0.9-3c0-2,1-3.3,3.5-5.5c3.3-2.8,7.7-6.5,7.7-14C65.6,16.4,59.3,11,48.6,11L48.6,11z"/>
<path class="st2" d="M36.6,15.3c2.2-1.1,7-3.1,12-3.1c12.5,0,15.7,7.6,15.7,13.2c0,6.8-4,10.3-7.2,13c-2.1,1.8-3.6,3.1-4.1,4.9
	c-0.2,0.7-0.2,1.8,0.3,2.9c0.5,1.3,1.9,2.9-1.3,2.9l-8.2,0c-0.8,0-1.3-0.5-1.4-0.9c-0.3-0.9-0.6-2.2-0.7-3.5c-0.1-0.6-0.1-1.1,0-1.6
	c0.6-9.2,9.8-10.5,9.8-16.3c0-1.7-1-2.4-2-2.8c-1.5-0.6-3.2-0.5-4.2-0.2c-2.3,0.6-4.4,1.5-6.1,2.6c-1.1,0.7-2.5,0.7-2.9,0.3
	c-0.3,0.2-0.7-1.3-0.7-1.6v-7.8c0-0.1,0-0.6,0.1-0.8C35.9,16,36.1,15.6,36.6,15.3L36.6,15.3z"/>
<path class="st1" d="M48.3,51.1c-3.9,0-8.1,2.6-8.1,7.4c0,4.9,4.2,7.5,8.1,7.5c4.7,0,8-3.1,8-7.5C56.3,53.6,52.3,51.1,48.3,51.1z"/>
<path class="st2" d="M48.3,64.7c-3.3,0-6.9-2.2-6.9-6.2c0-4.1,3.6-6.2,6.9-6.2c3.3,0,6.8,2,6.8,6.2C55.1,62.4,52.1,64.7,48.3,64.7z"
	/>
<path class="st3" d="M43.5,47.9c-0.2-0.6-0.7-2.3-0.7-4c0-9.6,9.9-9.9,9.9-17.1c0-4.5-4.4-4.8-5.2-4.8c-5,0-8.9,2.9-10.6,4.3v-9.9
	c1.7-1,5.6-3,11.7-3c14.3,0,14.5,9.8,14.5,11.9c0,11.3-11.7,12.2-11.7,19.5c0,1.5,0.5,2.6,0.8,3H43.5z M48.3,63.5
	c-2.7,0-5.6-1.7-5.6-5c0-3.3,3-4.9,5.6-4.9s5.5,1.5,5.5,4.9C53.8,62,51.1,63.5,48.3,63.5z"/>
</svg>
