<?xml version="1.0" encoding="utf-8"?>
<!-- Generator: Adobe Illustrator 25.4.1, SVG Export Plug-In . SVG Version: 6.00 Build 0)  -->
<svg version="1.1" id="Слой_1" xmlns="http://www.w3.org/2000/svg" xmlns:xlink="http://www.w3.org/1999/xlink" x="0px" y="0px"
	 viewBox="0 0 100 100" style="enable-background:new 0 0 100 100;" xml:space="preserve">
<style type="text/css">
	.st0{fill:#CEAE04;}
	.st1{fill:#FFD803;}
	.st2{fill:url(#SVGID_1_);}
	.st3{fill:#FFFFFF;}
	.st4{fill:url(#SVGID_00000173142141110792490430000002029713072930591636_);}
	.st5{fill:#FFE96D;}
	.st6{fill:url(#SVGID_00000170965575701481025160000000941186215770179714_);}
	.st7{fill:#FAFAFD;}
	.st8{fill:none;stroke:#FFE96D;stroke-width:7.1667;stroke-linecap:round;stroke-linejoin:round;stroke-miterlimit:10;}
</style>
<path class="st0" d="M87.5,18.7H72.9v62.5h14.6c2.3,0,4.2-1.9,4.2-4.2V22.9C91.7,20.6,89.8,18.7,87.5,18.7L87.5,18.7z"/>
<path class="st1" d="M72.9,18.8H12.5c-2.3,0-4.2,1.9-4.2,4.2v54.2c0,2.3,1.9,4.2,4.2,4.2h60.4V18.8z"/>
<radialGradient id="SVGID_1_" cx="-240.6614" cy="204.4502" r="1" gradientTransform="matrix(29.8611 0 0 -29.8611 7481.2915 6358.9277)" gradientUnits="userSpaceOnUse">
	<stop  offset="0" style="stop-color:#000000"/>
	<stop  offset="0.1" style="stop-color:#000000;stop-opacity:0.9"/>
	<stop  offset="1" style="stop-color:#000000;stop-opacity:0"/>
</radialGradient>
<path class="st2" d="M82.3,79.2c4.6,0,8.3-3.7,8.3-8.3s-3.7-8.3-8.3-8.3c-4.6,0-8.3,3.7-8.3,8.3S77.7,79.2,82.3,79.2z"/>
<path class="st3" d="M82.3,75c2.9,0,5.2-2.3,5.2-5.2c0-2.9-2.3-5.2-5.2-5.2c-2.9,0-5.2,2.3-5.2,5.2C77.1,72.7,79.4,75,82.3,75z"/>
<radialGradient id="SVGID_00000137853872558273883560000017391198328313487756_" cx="-237.8819" cy="203.267" r="1" gradientTransform="matrix(22.3958 0 0 -22.3958 5622.4331 4664.3052)" gradientUnits="userSpaceOnUse">
	<stop  offset="0" style="stop-color:#000000"/>
	<stop  offset="0.1" style="stop-color:#000000;stop-opacity:0.9"/>
	<stop  offset="1" style="stop-color:#000000;stop-opacity:0"/>
</radialGradient>
<path style="fill:url(#SVGID_00000137853872558273883560000017391198328313487756_);" d="M82.3,37.5c3.5,0,6.2-2.8,6.2-6.2
	c0-3.5-2.8-6.2-6.2-6.2S76,27.8,76,31.2C76,34.7,78.8,37.5,82.3,37.5z"/>
<path class="st5" d="M82.3,33.3c1.7,0,3.1-1.4,3.1-3.1c0-1.7-1.4-3.1-3.1-3.1s-3.1,1.4-3.1,3.1C79.2,31.9,80.6,33.3,82.3,33.3z"/>
<radialGradient id="SVGID_00000180355263410993877890000014429512377025105567_" cx="-237.8819" cy="203.267" r="1" gradientTransform="matrix(22.3958 0 0 -22.3958 5622.4331 4709.0972)" gradientUnits="userSpaceOnUse">
	<stop  offset="0" style="stop-color:#000000"/>
	<stop  offset="0.1" style="stop-color:#000000;stop-opacity:0.9"/>
	<stop  offset="1" style="stop-color:#000000;stop-opacity:0"/>
</radialGradient>
<path style="fill:url(#SVGID_00000180355263410993877890000014429512377025105567_);" d="M82.3,50c3.5,0,6.2-2.8,6.2-6.2
	c0-3.5-2.8-6.2-6.2-6.2S76,40.3,76,43.7C76,47.2,78.8,50,82.3,50z"/>
<path class="st5" d="M82.3,45.8c1.7,0,3.1-1.4,3.1-3.1c0-1.7-1.4-3.1-3.1-3.1s-3.1,1.4-3.1,3.1C79.2,44.4,80.6,45.8,82.3,45.8z"/>
<path class="st7" d="M39.6,47.9c1.2,0,2.1-0.9,2.1-2.1s-0.9-2.1-2.1-2.1c-1.2,0-2.1,0.9-2.1,2.1S38.4,47.9,39.6,47.9z"/>
<path class="st7" d="M45.8,35.4c1.2,0,2.1-0.9,2.1-2.1s-0.9-2.1-2.1-2.1c-1.2,0-2.1,0.9-2.1,2.1S44.7,35.4,45.8,35.4z"/>
<path class="st7" d="M45.8,60.4c1.2,0,2.1-0.9,2.1-2.1s-0.9-2.1-2.1-2.1c-1.2,0-2.1,0.9-2.1,2.1S44.7,60.4,45.8,60.4z"/>
<path class="st7" d="M39.6,39.6c1.2,0,2.1-0.9,2.1-2.1s-0.9-2.1-2.1-2.1c-1.2,0-2.1,0.9-2.1,2.1S38.4,39.6,39.6,39.6z"/>
<path class="st7" d="M39.6,64.6c1.2,0,2.1-0.9,2.1-2.1c0-1.2-0.9-2.1-2.1-2.1c-1.2,0-2.1,0.9-2.1,2.1C37.5,63.7,38.4,64.6,39.6,64.6
	z"/>
<path class="st7" d="M39.6,56.2c1.2,0,2.1-0.9,2.1-2.1s-0.9-2.1-2.1-2.1c-1.2,0-2.1,0.9-2.1,2.1S38.4,56.2,39.6,56.2z"/>
<path class="st7" d="M52.1,47.9c1.2,0,2.1-0.9,2.1-2.1s-0.9-2.1-2.1-2.1c-1.2,0-2.1,0.9-2.1,2.1S50.9,47.9,52.1,47.9z"/>
<path class="st7" d="M52.1,39.6c1.2,0,2.1-0.9,2.1-2.1s-0.9-2.1-2.1-2.1c-1.2,0-2.1,0.9-2.1,2.1S50.9,39.6,52.1,39.6z"/>
<path class="st7" d="M52.1,56.2c1.2,0,2.1-0.9,2.1-2.1s-0.9-2.1-2.1-2.1c-1.2,0-2.1,0.9-2.1,2.1S50.9,56.2,52.1,56.2z"/>
<path class="st7" d="M45.8,43.7c1.2,0,2.1-0.9,2.1-2.1s-0.9-2.1-2.1-2.1c-1.2,0-2.1,0.9-2.1,2.1S44.7,43.7,45.8,43.7z"/>
<path class="st7" d="M45.8,52.1c1.2,0,2.1-0.9,2.1-2.1c0-1.2-0.9-2.1-2.1-2.1c-1.2,0-2.1,0.9-2.1,2.1C43.8,51.2,44.7,52.1,45.8,52.1
	z"/>
<path class="st7" d="M58.3,43.7c1.2,0,2.1-0.9,2.1-2.1s-0.9-2.1-2.1-2.1c-1.2,0-2.1,0.9-2.1,2.1S57.2,43.7,58.3,43.7z"/>
<path class="st7" d="M58.3,52.1c1.2,0,2.1-0.9,2.1-2.1c0-1.2-0.9-2.1-2.1-2.1c-1.2,0-2.1,0.9-2.1,2.1C56.2,51.2,57.2,52.1,58.3,52.1
	z"/>
<path class="st7" d="M33.3,60.4c1.2,0,2.1-0.9,2.1-2.1s-0.9-2.1-2.1-2.1c-1.2,0-2.1,0.9-2.1,2.1S32.2,60.4,33.3,60.4z"/>
<path class="st7" d="M33.3,35.4c1.2,0,2.1-0.9,2.1-2.1s-0.9-2.1-2.1-2.1c-1.2,0-2.1,0.9-2.1,2.1S32.2,35.4,33.3,35.4z"/>
<path class="st7" d="M27.1,47.9c1.2,0,2.1-0.9,2.1-2.1s-0.9-2.1-2.1-2.1S25,44.7,25,45.8S25.9,47.9,27.1,47.9z"/>
<path class="st7" d="M27.1,56.2c1.2,0,2.1-0.9,2.1-2.1s-0.9-2.1-2.1-2.1S25,53,25,54.2S25.9,56.2,27.1,56.2z"/>
<path class="st7" d="M27.1,39.6c1.2,0,2.1-0.9,2.1-2.1s-0.9-2.1-2.1-2.1S25,36.3,25,37.5S25.9,39.6,27.1,39.6z"/>
<path class="st7" d="M33.3,52.1c1.2,0,2.1-0.9,2.1-2.1c0-1.2-0.9-2.1-2.1-2.1c-1.2,0-2.1,0.9-2.1,2.1C31.2,51.2,32.2,52.1,33.3,52.1
	z"/>
<path class="st7" d="M33.3,43.7c1.2,0,2.1-0.9,2.1-2.1s-0.9-2.1-2.1-2.1c-1.2,0-2.1,0.9-2.1,2.1S32.2,43.7,33.3,43.7z"/>
<path class="st7" d="M20.8,52.1c1.2,0,2.1-0.9,2.1-2.1c0-1.2-0.9-2.1-2.1-2.1s-2.1,0.9-2.1,2.1C18.8,51.2,19.7,52.1,20.8,52.1z"/>
<path class="st7" d="M45.8,68.7c1.2,0,2.1-0.9,2.1-2.1c0-1.2-0.9-2.1-2.1-2.1c-1.2,0-2.1,0.9-2.1,2.1C43.8,67.8,44.7,68.7,45.8,68.7
	z"/>
<path class="st7" d="M52.1,64.6c1.2,0,2.1-0.9,2.1-2.1c0-1.2-0.9-2.1-2.1-2.1c-1.2,0-2.1,0.9-2.1,2.1C50,63.7,50.9,64.6,52.1,64.6z"
	/>
<path class="st7" d="M58.3,60.4c1.2,0,2.1-0.9,2.1-2.1s-0.9-2.1-2.1-2.1c-1.2,0-2.1,0.9-2.1,2.1S57.2,60.4,58.3,60.4z"/>
<path class="st7" d="M33.3,68.7c1.2,0,2.1-0.9,2.1-2.1c0-1.2-0.9-2.1-2.1-2.1c-1.2,0-2.1,0.9-2.1,2.1C31.2,67.8,32.2,68.7,33.3,68.7
	z"/>
<path class="st7" d="M27.1,64.6c1.2,0,2.1-0.9,2.1-2.1c0-1.2-0.9-2.1-2.1-2.1S25,61.3,25,62.5C25,63.7,25.9,64.6,27.1,64.6z"/>
<path class="st7" d="M20.8,60.4c1.2,0,2.1-0.9,2.1-2.1s-0.9-2.1-2.1-2.1s-2.1,0.9-2.1,2.1S19.7,60.4,20.8,60.4z"/>
<path class="st7" d="M20.8,43.7c1.2,0,2.1-0.9,2.1-2.1s-0.9-2.1-2.1-2.1s-2.1,0.9-2.1,2.1S19.7,43.7,20.8,43.7z"/>
<path class="st8" d="M39.6,8.3V2.1"/>
<path class="st8" d="M26,11l-2.4-5.8"/>
<path class="st8" d="M53.1,11l2.4-5.8"/>
</svg>
