<svg version="1.1" xmlns="http://www.w3.org/2000/svg" xmlns:xlink="http://www.w3.org/1999/xlink" viewBox="0 0 172 172"><defs><clipPath id="clip-1"><path d="M56.80988,75.26032c0,-4.56488 -0.00688,-9.38776 0,-13.95264c0.00172,-1.1266 0.3182,-1.65292 1.44652,-1.7028c0.7912,-0.0344 1.57896,-0.1118 2.37016,-0.129c3.53632,-0.07568 7.06232,-0.774 10.4576,-1.66324c6.60136,-1.73548 11.79576,-4.41868 16.8044,-8.80984c0.28724,-0.25112 0.99244,-0.79636 1.27796,-0.84624v79.12c-0.74992,-0.11696 -9.79024,-7.00556 -14.18828,-10.12564c-3.5346,-2.50776 -7.10188,-4.96908 -9.9072,-8.24568c-5.41112,-6.31584 -8.14764,-13.4332 -8.28352,-21.55676c-0.07396,-4.06264 0.02236,-8.01692 0.02236,-12.08816z" id="bkcUPPyf_aF3zO9G1rd_yb" fill="none"></path></clipPath></defs><g fill="none" fill-rule="nonzero" stroke="none" stroke-width="1" stroke-linecap="butt" stroke-linejoin="miter" stroke-miterlimit="10" stroke-dasharray="" stroke-dashoffset="0" font-family="none" font-weight="none" font-size="none" text-anchor="none" style="mix-blend-mode: normal"><path d="M0,172v-172h172v172z" fill="none"></path><g><path d="M37.95008,99.04792c-0.84164,0 -1.52392,0.68228 -1.52392,1.52392c0,0.84164 0.68228,1.52392 1.52392,1.52392c0.84164,0 1.52392,-0.68228 1.52392,-1.52392c0,-0.84164 -0.68228,-1.52392 -1.52392,-1.52392z" fill="#ffffff"></path><path d="M38.80148,112.2472c-0.84164,0 -1.52392,0.68228 -1.52392,1.52392c0,0.84164 0.68228,1.52392 1.52392,1.52392c0.84164,0 1.52392,-0.68228 1.52392,-1.52392c0,-0.84164 -0.68228,-1.52392 -1.52392,-1.52392z" fill="#f1bc19"></path><path d="M88.75028,24.68716c-35.57012,0 -64.4054,28.83528 -64.4054,64.4054c0,35.57012 28.83528,64.4054 64.4054,64.4054c35.57012,0 64.4054,-28.83528 64.4054,-64.4054c0,-35.57012 -28.83528,-64.4054 -64.4054,-64.4054z" fill="#c0e5e4"></path><path d="M135.78884,131.27728c-1.78967,0 -3.24048,1.45081 -3.24048,3.24048c0,1.78967 1.45081,3.24048 3.24048,3.24048c1.78967,0 3.24048,-1.45081 3.24048,-3.24048c0,-1.78967 -1.45081,-3.24048 -3.24048,-3.24048zM27.15192,105.35688c-3.80637,0 -6.89204,3.08567 -6.89204,6.89204c0,3.80637 3.08567,6.89204 6.89204,6.89204c3.80637,0 6.89204,-3.08567 6.89204,-6.89204c0,-3.80637 -3.08567,-6.89204 -6.89204,-6.89204z" fill="#fbcd59"></path><path d="M44.763,150.51892c-1.78967,0 -3.24048,1.45081 -3.24048,3.24048c0,1.78967 1.45081,3.24048 3.24048,3.24048c1.78967,0 3.24048,-1.45081 3.24048,-3.24048c0,-1.78967 -1.45081,-3.24048 -3.24048,-3.24048z" fill="#00a5a5"></path><path d="M33.58816,87.0492c-2.41377,0 -4.37052,1.95675 -4.37052,4.37052c0,2.41377 1.95675,4.37052 4.37052,4.37052c2.41377,0 4.37052,-1.95675 4.37052,-4.37052c0,-2.41377 -1.95675,-4.37052 -4.37052,-4.37052zM139.51608,56.61724c-0.64975,0 -1.17648,0.52673 -1.17648,1.17648c0,0.64975 0.52673,1.17648 1.17648,1.17648c0.64975,0 1.17648,-0.52673 1.17648,-1.17648c0,-0.64975 -0.52673,-1.17648 -1.17648,-1.17648z" fill="#ffffff"></path><path d="M134.9942,23.53304c-0.84164,0 -1.52392,0.68228 -1.52392,1.52392c0,0.84164 0.68228,1.52392 1.52392,1.52392c0.84164,0 1.52392,-0.68228 1.52392,-1.52392c0,-0.84164 -0.68228,-1.52392 -1.52392,-1.52392zM144.35272,21.87152c-3.80637,0 -6.89204,3.08567 -6.89204,6.89204c0,3.80637 3.08567,6.89204 6.89204,6.89204c3.80637,0 6.89204,-3.08567 6.89204,-6.89204c0,-3.80637 -3.08567,-6.89204 -6.89204,-6.89204z" fill="#f1bc19"></path><path d="M151.24476,41.12348c-1.78967,0 -3.24048,1.45081 -3.24048,3.24048c0,1.78967 1.45081,3.24048 3.24048,3.24048c1.78967,0 3.24048,-1.45081 3.24048,-3.24048c0,-1.78967 -1.45081,-3.24048 -3.24048,-3.24048z" fill="#00a5a5"></path><path d="M133.47028,52.10224c-1.70607,0 -3.08912,1.38305 -3.08912,3.08912c0,1.70607 1.38305,3.08912 3.08912,3.08912c1.70607,0 3.08912,-1.38305 3.08912,-3.08912c0,-1.70607 -1.38305,-3.08912 -3.08912,-3.08912z" fill="#ffffff"></path><g><path d="M88.56108,136.396c-0.10836,0 -0.33368,-0.07224 -0.80324,-0.41968c-2.17064,-1.60648 -4.34644,-3.20436 -6.52224,-4.80396c-4.86244,-3.57416 -9.89,-7.27044 -14.7662,-10.98048c-8.45036,-6.4328 -13.91652,-15.00872 -16.2454,-25.48524c-0.86,-3.88204 -0.86,-6.85076 -0.86,-11.76996l0.01548,-28.57436c0,-0.74304 0.0688,-0.9374 0.08944,-0.97868c-0.00516,0.01204 0.00344,0.0172 0.03096,0.0172c0.086,0 0.35604,-0.04472 0.95976,-0.05848c12.48032,-0.29068 22.9448,-3.40388 31.98684,-9.51676c1.55144,-1.0492 2.97904,-2.26524 4.35848,-3.44344l1.14552,-0.9718c0.39388,-0.3268 0.602,-0.36292 0.67424,-0.36292c0.1548,0 0.3612,0.17372 0.46956,0.2752c5.89616,5.56936 13.09264,9.45656 22.0074,11.88004c4.52532,1.2298 8.79436,1.8748 13.0548,1.9694c0.53836,0.01204 1.07672,0.04816 1.61508,0.086c0.42312,0.02924 0.84624,0.05676 1.26936,0.07568c0.51084,0.02408 0.64672,0.1118 0.65532,0.11696c-0.00344,0 0.08428,0.14276 0.08428,0.66908c0.00688,4.51156 0.00516,17.19312 0.00516,17.19312c-0.01204,0.0688 -0.01892,0.13932 -0.01892,0.21156c0,1.5996 0.00688,3.19748 0.01376,4.79708c0.01548,3.56728 0.03096,7.13456 -0.03096,10.70184c-0.15996,9.74896 -3.58792,18.73596 -10.18928,26.7116c-3.19232,3.85624 -7.33752,6.89204 -11.34684,9.82808l-0.61232,0.45064c-3.79776,2.7864 -7.58348,5.58484 -11.37092,8.38328l-4.81084,3.5518c-0.50224,0.3698 -0.74304,0.4472 -0.85828,0.4472z" fill="#f9e65c"></path><path d="M88.56108,40.46816c5.98732,5.5642 13.26292,9.45484 22.22584,11.89208c4.62336,1.25732 8.98872,1.91608 13.34376,2.01068c0.52116,0.01204 1.0406,0.04816 1.56004,0.08428c0.29584,0.02064 0.5934,0.03956 0.88752,0.05676c0.00688,4.21916 0.00516,8.4366 0.00516,12.65404v4.05576c-0.01204,0.09804 -0.01892,0.1978 -0.01892,0.29756c0,1.6082 0.00688,3.21468 0.01376,4.82116c0.01548,3.49676 0.02924,7.11392 -0.02924,10.65712c-0.15652,9.47032 -3.4916,18.20448 -9.91408,25.9634c-3.096,3.741 -6.99868,6.59964 -11.13012,9.62684l-0.61232,0.44892c-3.86312,2.83456 -7.71592,5.68116 -11.56872,8.52776l-4.61304,3.40732c-0.05332,0.03784 -0.09976,0.07224 -0.14104,0.09976c-0.02924,-0.02064 -0.0602,-0.043 -0.0946,-0.0688c-2.1758,-1.60992 -4.35676,-3.21296 -6.53772,-4.816c-4.85384,-3.56728 -9.87452,-7.25496 -14.73696,-10.95812c-8.21816,-6.25736 -13.53468,-14.59764 -15.7982,-24.79036c-0.83248,-3.75132 -0.83248,-6.67016 -0.83076,-11.50508v-0.47472c0.0086,-6.68564 0.01032,-13.37128 0.01204,-20.05692l0.00344,-7.86384c12.67984,-0.31132 23.3232,-3.4916 32.53552,-9.72316c1.6082,-1.08704 3.0616,-2.32716 4.46684,-3.52428c0.32336,-0.27176 0.64844,-0.54868 0.9718,-0.82216M88.62644,37.84c-0.4644,0 -0.94256,0.22188 -1.44824,0.645c-1.76988,1.48264 -3.4916,3.04612 -5.40596,4.33956c-9.40324,6.35884 -19.99672,9.0472 -31.34012,9.31208c-1.90404,0.043 -2.25492,0.36808 -2.25492,2.22396c-0.00516,9.36368 -0.00516,18.73252 -0.01548,28.09792c0,5.25976 -0.02924,8.36952 0.88924,12.50612c2.36672,10.65196 7.84836,19.45148 16.69088,26.18356c7.02964,5.35264 14.19688,10.53672 21.3022,15.79476c0.58824,0.4386 1.05092,0.65704 1.51876,0.65704c0.47644,0 0.9546,-0.22876 1.57552,-0.68456c5.3922,-3.98008 10.77408,-7.96876 16.17832,-11.93336c4.34128,-3.18544 8.72556,-6.31412 12.17416,-10.48168c6.6478,-8.02896 10.29592,-17.1312 10.46792,-27.45808c0.086,-5.17032 0.01548,-10.34408 0.01548,-15.51784c0.00516,0 0.01204,0 0.01892,-0.00172c0,-5.80328 0.00516,-11.60312 -0.00516,-17.4064c-0.00172,-1.43104 -0.50568,-1.92468 -1.89028,-1.9866c-0.97352,-0.04128 -1.94016,-0.14104 -2.91196,-0.1634c-4.34472,-0.0946 -8.59656,-0.79292 -12.76584,-1.92812c-8.1098,-2.20504 -15.41292,-5.84456 -21.49484,-11.59108c-0.43344,-0.41108 -0.86172,-0.60716 -1.2986,-0.60716z" fill="#472b29"></path></g><g fill="#77cbd2"><path d="M120.37764,74.86988c0,4.10392 0.05676,8.20612 -0.01204,12.30832c-0.13588,8.19064 -3.00828,15.4112 -8.24052,21.77864c-2.71416,3.30412 -6.1662,5.78608 -9.58384,8.31448c-4.25356,3.14588 -8.48992,6.31068 -12.7366,9.46516c-0.96492,0.71724 -1.4964,0.72412 -2.43724,0.02408c-5.59344,-4.16928 -11.23504,-8.2818 -16.77,-12.52676c-6.96084,-5.3406 -11.27632,-12.31864 -13.1408,-20.76556c-0.72412,-3.28004 -0.70348,-6.5962 -0.69832,-9.91924c0.0086,-7.4304 0.0086,-14.85736 0.01204,-22.28776c0,-1.47232 0.27692,-1.7286 1.77676,-1.76472c8.93024,-0.20984 17.2688,-2.34264 24.67168,-7.38396c1.505,-1.02512 2.86208,-2.26352 4.25528,-3.44172c0.77228,-0.65188 1.45856,-0.70176 2.16204,-0.03268c4.7902,4.55972 10.53672,7.44588 16.92308,9.19512c3.28176,0.89956 6.62888,1.45168 10.04996,1.52908c0.76368,0.0172 1.52564,0.09632 2.29276,0.129c1.09048,0.04816 1.4878,0.44032 1.4878,1.57552c0.00688,4.601 0.00172,9.20372 0.00172,13.80472c-0.00516,-0.00172 -0.0086,-0.00172 -0.01376,-0.00172z"></path></g><g><g clip-path="url(#clip-1)"><path d="M114.41956,81.53488l5.81704,-5.44896l-48.54184,-45.45272l-5.81704,5.44724zM105.86084,97.79404l5.81704,-5.44896l-48.54184,-45.45616l-5.82048,5.45068zM97.29868,114.04976l5.82048,-5.44724l-48.54528,-45.45444l-5.81704,5.44896zM88.1586,131.0554l5.82048,-5.44896l-48.54528,-45.45272l-5.81704,5.44896z" fill="#00a5a5"></path></g></g><g fill="#472b29"><path d="M88.58,127.28c-0.47472,0 -0.86,-0.38528 -0.86,-0.86v-44.72c0,-0.47472 0.38528,-0.86 0.86,-0.86c0.47472,0 0.86,0.38528 0.86,0.86v44.72c0,0.47472 -0.38528,0.86 -0.86,0.86z"></path></g><g fill="#472b29"><path d="M88.58,68.8c-0.47472,0 -0.86,-0.38528 -0.86,-0.86v-18.92c0,-0.47472 0.38528,-0.86 0.86,-0.86c0.47472,0 0.86,0.38528 0.86,0.86v18.92c0,0.47472 -0.38528,0.86 -0.86,0.86z"></path></g><g fill="#472b29"><path d="M88.58,77.4c-0.47472,0 -0.86,-0.38528 -0.86,-0.86v-5.16c0,-0.47472 0.38528,-0.86 0.86,-0.86c0.47472,0 0.86,0.38528 0.86,0.86v5.16c0,0.47472 -0.38528,0.86 -0.86,0.86z"></path></g><g fill="#472b29"><path d="M88.57484,48.24772c4.9708,4.66292 11.0252,7.91716 18.50548,9.94504c3.80636,1.03544 7.40804,1.57724 11.00456,1.65464c0.43172,0.01032 0.86344,0.03956 1.29688,0.07052c0.3354,0.02236 0.67252,0.04644 1.00792,0.06192c0.00516,3.41076 0.00344,6.82324 0.00344,10.234v2.37704h-0.01376v1.72c0,1.33988 0.00516,2.68148 0.01204,4.02136c0.01204,2.88444 0.0258,5.86864 -0.02408,8.79264c-0.13244,7.89996 -2.92056,15.18588 -8.2904,21.6548c-2.57828,3.10976 -5.81704,5.4782 -9.245,7.98424l-0.5504,0.40248c-2.90852,2.12936 -5.81016,4.26732 -8.7118,6.40528l-4.71796,3.4744c-0.129,0.0946 -0.22188,0.15308 -0.2838,0.19092c-0.05676,-0.0344 -0.13588,-0.08428 -0.24252,-0.16512c-1.79912,-1.32784 -3.6034,-2.6488 -5.40596,-3.97148c-4.03512,-2.9584 -8.20784,-6.01656 -12.24984,-9.08504c-6.87312,-5.2202 -11.3176,-12.17588 -13.21132,-20.67268c-0.6966,-3.1304 -0.6966,-7.26184 -0.69488,-9.73004v-0.24424c0.00688,-6.21952 0.0086,-12.43732 0.01032,-18.65512l0.00172,-4.60444c0,-0.04128 0,-0.07912 0,-0.11524c0.05676,-0.00172 0.1204,-0.00516 0.19092,-0.00688c10.49716,-0.24252 19.30528,-2.86036 26.9266,-7.998c1.32956,-0.89612 2.537,-1.92468 3.70488,-2.91712c0.30788,-0.26144 0.61404,-0.52288 0.9202,-0.77916c0.01892,-0.01548 0.03956,-0.02924 0.05676,-0.04472M88.61784,46.44c-0.387,0 -0.7826,0.18404 -1.20228,0.53492c-1.46888,1.22808 -2.8982,2.52152 -4.48576,3.59136c-7.80192,5.25976 -16.59284,7.48716 -26.00468,7.70388c-1.58068,0.03612 -1.87136,0.30616 -1.87136,1.84212c-0.00172,7.75204 -0.00172,15.50408 -0.01204,23.25612c0,2.55592 -0.0258,6.92644 0.73616,10.35096c1.96424,8.815 6.51364,16.09576 13.85116,21.66856c5.83252,4.429 11.77856,8.71868 17.67644,13.07028c0.48848,0.3612 0.87376,0.5418 1.26076,0.5418c0.3956,0 0.79292,-0.1892 1.3072,-0.5676c4.47544,-3.29208 8.94228,-6.59448 13.4246,-9.87796c3.60168,-2.63848 7.2412,-5.22708 10.10156,-8.67568c5.51432,-6.64436 8.54324,-14.17624 8.686,-22.72464c0.07052,-4.27936 0.01204,-8.56216 0.01204,-12.84324c0.00516,0 0.01032,0 0.01376,0.00172c0,-4.80052 0.00516,-9.60276 -0.00172,-14.405c0,-1.18508 -0.41796,-1.59272 -1.56864,-1.64432c-0.8084,-0.0344 -1.60992,-0.11696 -2.4166,-0.13588c-3.60684,-0.07912 -7.13456,-0.65532 -10.59348,-1.59616c-6.73036,-1.82492 -12.7882,-4.83836 -17.8364,-9.59416c-0.35948,-0.3354 -0.7138,-0.49708 -1.07672,-0.49708z"></path></g></g></g></svg>