<svg version="1.1" xmlns="http://www.w3.org/2000/svg" xmlns:xlink="http://www.w3.org/1999/xlink" viewBox="0 0 226 226"><g fill="none" fill-rule="nonzero" stroke="none" stroke-width="1" stroke-linecap="butt" stroke-linejoin="miter" stroke-miterlimit="10" stroke-dasharray="" stroke-dashoffset="0" font-family="none" font-weight="none" font-size="none" text-anchor="none" style="mix-blend-mode: normal"><path d="M0,226v-226h226v226z" fill="none"></path><g><path d="M174.02,27.12c-1.24816,0 -2.26,1.01184 -2.26,2.26c0,1.24816 1.01184,2.26 2.26,2.26c1.24816,0 2.26,-1.01184 2.26,-2.26c0,-1.24816 -1.01184,-2.26 -2.26,-2.26z" fill="#f1bc19"></path><path d="M113,29.38c-46.18205,0 -83.62,37.43795 -83.62,83.62c0,46.18205 37.43795,83.62 83.62,83.62c46.18205,0 83.62,-37.43795 83.62,-83.62c0,-46.18205 -37.43795,-83.62 -83.62,-83.62z" fill="#e6edb7"></path><path d="M187.58,24.86c-4.99265,0 -9.04,4.04735 -9.04,9.04c0,4.99265 4.04735,9.04 9.04,9.04c4.99265,0 9.04,-4.04735 9.04,-9.04c0,-4.99265 -4.04735,-9.04 -9.04,-9.04z" fill="#f1bc19"></path><path d="M196.62,49.72c-2.49633,0 -4.52,2.02367 -4.52,4.52c0,2.49633 2.02367,4.52 4.52,4.52c2.49633,0 4.52,-2.02367 4.52,-4.52c0,-2.49633 -2.02367,-4.52 -4.52,-4.52z" fill="#88ae45"></path><path d="M183.06,167.24c-2.49633,0 -4.52,2.02367 -4.52,4.52c0,2.49633 2.02367,4.52 4.52,4.52c2.49633,0 4.52,-2.02367 4.52,-4.52c0,-2.49633 -2.02367,-4.52 -4.52,-4.52zM33.9,133.34c-4.99265,0 -9.04,4.04735 -9.04,9.04c0,4.99265 4.04735,9.04 9.04,9.04c4.99265,0 9.04,-4.04735 9.04,-9.04c0,-4.99265 -4.04735,-9.04 -9.04,-9.04z" fill="#fbcd59"></path><path d="M56.5,192.1c-2.49633,0 -4.52,2.02367 -4.52,4.52c0,2.49633 2.02367,4.52 4.52,4.52c2.49633,0 4.52,-2.02367 4.52,-4.52c0,-2.49633 -2.02367,-4.52 -4.52,-4.52z" fill="#88ae45"></path><path d="M41.81,110.74c-3.12041,0 -5.65,2.52959 -5.65,5.65c0,3.12041 2.52959,5.65 5.65,5.65c3.12041,0 5.65,-2.52959 5.65,-5.65c0,-3.12041 -2.52959,-5.65 -5.65,-5.65zM179.67,72.32c-1.87225,0 -3.39,1.51775 -3.39,3.39c0,1.87225 1.51775,3.39 3.39,3.39c1.87225,0 3.39,-1.51775 3.39,-3.39c0,-1.87225 -1.51775,-3.39 -3.39,-3.39z" fill="#ffffff"></path><path d="M153.95346,159.38876c-0.9153,-4.84996 -2.8928,-7.69078 -7.55292,-9.09876c-0.2034,-0.06102 -0.4746,-0.16046 -0.7797,-0.27798c-0.35256,-0.15368 -0.80004,-0.33448 -1.32436,-0.53788c-2.82274,-1.19328 -19.60098,-7.38342 -19.60098,-7.38342c-1.38312,-0.3503 -2.2826,-1.33566 -2.8024,-2.44532c-0.8588,-1.83286 -0.52658,-6.58564 -0.52658,-6.58564c0,0 -7.01504,2.40012 -11.39266,3.21824c-4.294,0.4181 -13.52158,-5.13472 -13.52158,-5.13472c0,0 -0.21696,6.86362 -0.5085,8.38912c-0.23052,1.1978 -1.51872,2.21028 -2.90184,2.56058l-16.10024,5.83758c-1.78088,0.46556 -3.48944,1.13 -4.99234,2.05886c-4.05218,2.50182 -6.10426,6.25794 -7.14838,9.4016c0,0 -1.05994,7.49416 -1.017,7.7631c-0.09944,1.04864 -0.2034,2.2035 -0.30962,3.41712c17.54664,11.88082 31.64,15.2098 55.81974,14.15212c10.98586,-0.48138 27.34374,-5.90538 35.91366,-10.23102c-0.45426,-9.5485 -1.2543,-15.10358 -1.2543,-15.10358z" fill="#f3ab7f"></path><path d="M154.17268,159.6577c-0.9153,-4.84996 -2.8928,-7.69078 -7.55292,-9.09876c-0.2034,-0.06102 -0.4746,-0.16046 -0.7797,-0.27798c-0.35256,-0.15368 -0.80004,-0.33448 -1.32436,-0.53788c-1.52776,-0.64636 -16.55902,-5.89182 -21.38864,-7.69078c-6.59242,4.6443 -9.55754,6.43422 -13.9555,6.43422c-4.6895,0 -7.38342,-2.83856 -13.91708,-6.78l-7.31562,2.7007c-0.01808,-0.00904 -0.03616,-0.02034 -0.05424,-0.02938l-0.70964,0.18758l-10.01406,3.63182c-1.78088,0.46556 -3.48944,1.13 -4.99234,2.05886c-4.05218,2.50182 -6.10426,6.25794 -7.14838,9.4016c0,0 -1.05994,7.49416 -1.017,7.7631c-0.09944,1.04864 -0.2034,12.30344 -0.30962,13.51706c17.54664,11.88082 31.64,15.2098 55.81974,14.15212c10.98586,-0.48138 27.34374,-5.90538 35.91366,-10.23102c-0.45426,-9.5485 -1.2543,-25.20126 -1.2543,-25.20126z" fill="#78a0cf"></path><path d="M124.75426,165.59472c-1.65884,-2.08372 -2.81596,-4.49966 -4.49966,-6.56078c-0.4068,-0.4972 -0.43618,-1.1074 0,-1.59782c0.9492,-1.06898 2.26678,-1.60912 3.5595,-2.14474c1.4238,-0.5876 2.8024,-1.22944 4.24202,-1.76054c-0.90852,-3.76968 -2.7007,-7.18454 -4.94262,-10.33498c-0.29606,-0.4181 -0.2373,-0.82264 -0.0113,-1.12774c-6.5766,4.633 -9.53946,6.4184 -13.93516,6.4184c-4.48158,0 -7.17776,-2.60804 -13.11026,-6.27828c-0.5537,3.43746 -3.6725,8.0795 -1.36052,11.45368c0.91304,1.3334 2.78884,1.79444 3.39904,3.43746c0.86106,2.3278 -0.42714,5.68164 -0.49042,8.05238c-0.1243,4.8138 1.20006,8.42302 2.99676,12.76448c0.0791,0.18984 0.09266,0.3616 0.07232,0.51754c1.43962,2.8589 3.0623,5.8082 4.1471,8.77558c0.9492,2.599 1.51872,5.30422 2.16508,7.98232c1.15712,0.04068 2.34814,0.05876 3.55498,0.0678c1.07802,-5.17314 4.0341,-10.19034 6.08844,-15.029c2.25096,-5.29518 4.36406,-10.2604 8.1247,-14.63576z" fill="#fdfcef"></path><path d="M80.23,189.5575c-0.46782,0 -0.8475,-0.37968 -0.8475,-0.8475v-6.78c0,-0.46782 0.37968,-0.8475 0.8475,-0.8475c0.46782,0 0.8475,0.37968 0.8475,0.8475v6.78c0,0.46782 -0.37968,0.8475 -0.8475,0.8475zM138.99,191.8175c-0.46782,0 -0.8475,-0.37968 -0.8475,-0.8475v-9.04c0,-0.46782 0.37968,-0.8475 0.8475,-0.8475c0.46782,0 0.8475,0.37968 0.8475,0.8475v9.04c0,0.46782 -0.37968,0.8475 -0.8475,0.8475zM121.66032,139.96406c0,0 5.34264,2.2713 9.22984,14.7578l-9.22984,3.40582l5.95058,6.8139l-17.5828,30.64108c0.00226,0 8.48178,-31.2671 11.63222,-55.6186zM96.15396,139.96406c0,0 -5.34038,2.2713 -9.22984,14.7578l9.22984,3.40582l-5.94832,6.8139l17.28222,30.64108c0,0 -8.1812,-31.2671 -11.3339,-55.6186z" fill="#568bc1"></path><path d="M136.54468,99.44c-0.26442,-0.01808 -0.53336,-0.02034 -0.8136,-0.02034c-2.1809,-0.10622 -2.8024,0.76388 -2.70296,-0.58534c0.17628,-2.3956 -0.1582,-12.11586 -0.1582,-12.60628c0,-10.07056 -10.51578,-18.28566 -24.38992,-18.73992v-0.02938c0.64636,0.00226 0.56048,0.01356 0.47008,0.01582c-0.08814,-0.00226 -0.17402,-0.01356 1.78992,-0.01582v0.02938c-15.19172,0.45652 -25.7075,8.66936 -25.7075,18.73992c0,0.49042 -0.33448,10.20842 -0.1582,12.60628c0.09944,1.34922 -0.52206,0.47912 -2.70296,0.58534c-0.28024,0 -0.54918,0.00226 -0.8136,0.02034c-2.39108,0.16046 -4.32564,1.68144 -4.73922,3.56628c0.2938,0.17854 1.38086,8.43206 3.14366,11.6842c0.98536,1.81478 2.52216,2.0679 4.1019,3.24084c0.87462,0.64862 1.04412,1.38312 1.28368,2.35266c0.88592,3.5934 3.34706,6.64892 6.04324,9.25696c1.33114,1.2882 10.16774,10.70788 17.75908,10.23102c7.6275,-0.28702 16.42794,-8.94282 17.75908,-10.23102c2.69618,-2.60804 5.15732,-5.66356 6.04324,-9.25696c0.23956,-0.9718 0.4068,-1.70404 1.28368,-2.35266c1.57974,-1.17294 3.11654,-1.4238 4.1019,-3.24084c1.7628,-3.25214 2.85212,-11.50566 3.14366,-11.6842c-0.41132,-1.88484 -2.34588,-3.40808 -4.73696,-3.56628z" fill="#ffc9a6"></path><path d="M109.08794,115.39334c1.54358,0 3.0397,-0.67348 4.00246,-1.80122c0.09718,-0.113 0.08362,-0.28476 -0.02938,-0.38194v0c-0.113,-0.09718 -0.2825,-0.08588 -0.38194,0.02712c-0.78422,0.89722 -2.09502,1.4125 -3.59114,1.4125c-1.49838,0 -2.80692,-0.51528 -3.59114,-1.4125c-0.05424,-0.06102 -0.12882,-0.09266 -0.20566,-0.09266c-0.06328,0 -0.12656,0.0226 -0.17628,0.06554c-0.113,0.09718 -0.12656,0.26894 -0.02938,0.38194c0.96276,1.12774 2.45888,1.80122 4.00246,1.80122zM104.16566,94.54258l0.97858,-1.88032c-4.14032,-0.96954 -8.90666,-0.81586 -12.84132,0.40454l1.23396,1.83286c3.23406,-1.06672 7.21166,-1.20232 10.62878,-0.35708zM124.89212,94.54258l0.97858,-1.88032c-4.14032,-0.96954 -8.90666,-0.81586 -12.84132,0.40454l1.23396,1.83286c3.23632,-1.06672 7.21392,-1.20232 10.62878,-0.35708zM98.20604,97.19582c-0.9944,0 -1.86676,0.65766 -2.37074,1.65206c0.12656,-0.03842 0.25538,-0.06554 0.39324,-0.06554c0.81586,0 1.47578,0.73902 1.47578,1.64754c0,0.91078 -0.66218,1.64754 -1.47578,1.64754c-0.26668,0 -0.51302,-0.08588 -0.72998,-0.22374c0.34804,1.49386 1.42832,2.58092 2.70974,2.58092c1.56166,0 2.82952,-1.62042 2.82952,-3.62052c-0.00226,-1.99558 -1.27012,-3.61826 -2.83178,-3.61826zM119.85006,97.19582c-0.84976,0 -1.60912,0.48138 -2.12666,1.23848c0.16272,-0.0678 0.33674,-0.11074 0.5198,-0.11074c0.81586,0 1.47578,0.73902 1.47578,1.64754c0,0.91078 -0.66218,1.64754 -1.47578,1.64754c-0.50624,0 -0.95146,-0.28476 -1.21814,-0.71868c0.03616,1.95942 1.28594,3.53238 2.825,3.53238c1.56166,0 2.82952,-1.62042 2.82952,-3.62052c-0.00226,-1.99332 -1.26786,-3.616 -2.82952,-3.616zM121.05012,119.5879c0.11526,-0.09492 0.13334,-0.26442 0.04068,-0.37968v0c-0.09266,-0.11526 -0.26442,-0.1356 -0.38194,-0.04068c-2.54928,2.03174 -6.78452,3.1979 -11.61866,3.1979c-4.83414,0 -9.06938,-1.16616 -11.62092,-3.20016c-0.04972,-0.04068 -0.10848,-0.05876 -0.1695,-0.05876c-0.0791,0 -0.1582,0.0339 -0.21244,0.1017c-0.09266,0.11526 -0.07684,0.28702 0.03842,0.38194c2.87924,2.35266 7.35178,3.75838 11.96218,3.75838c4.6104,-0.00226 9.08068,-1.40572 11.96218,-3.76064z" fill="#512c2b"></path><path d="M111.47224,196.53412c-20.12982,0 -33.12256,-4.02506 -48.6352,-14.52728c-0.339,-0.23052 -0.52658,-0.62376 -0.49268,-1.03282c0.02034,-0.24408 0.03164,-1.0735 0.04746,-2.27582c0.07458,-4.93132 0.226,-15.18946 1.31532,-19.20322c1.47804,-5.46242 3.64312,-7.59812 7.64332,-10.0683c1.49612,-0.92208 3.27926,-1.65884 5.2997,-2.18768l16.0008,-5.80594c1.13678,-0.29606 2.04756,-1.03282 2.17638,-1.71082c0.06554,-0.33674 0.1921,-1.38086 0.34578,-4.60814c-2.33232,-1.64754 -4.23072,-3.13236 -4.77538,-3.66572c-3.5256,-3.44876 -5.54378,-6.59468 -6.3506,-9.90106c-0.24634,-1.01022 -0.35256,-1.36278 -0.86332,-1.74472c-0.46782,-0.34804 -0.93338,-0.6102 -1.37634,-0.8588c-1.09158,-0.61472 -2.21932,-1.2543 -3.04196,-2.78432c-1.89388,-3.53464 -3.27926,-10.21746 -3.27926,-12.3509c0,-0.0791 0.00904,-0.16046 0.02486,-0.2373c0.5311,-2.45436 2.9041,-4.30078 5.76752,-4.49514c0.28928,-0.02034 0.58308,-0.0226 0.88818,-0.0226c0.60794,-0.02938 1.13452,0.01356 1.5481,0.0678c-0.08136,-2.72556 0.08136,-8.4976 0.15368,-11.10338c0.01808,-0.65088 0.03164,-1.08254 0.03164,-1.1752c0,-10.23102 9.60274,-18.43256 22.77176,-19.87896c0.18758,-0.14464 0.42262,-0.23504 0.67574,-0.23504c0.62828,0 1.12548,0 1.5142,0.02938c0.50172,-0.05876 1.04864,-0.0791 1.41702,0.1921c13.70916,1.4012 23.7187,9.62082 23.7187,19.89252c0,0.09266 0.0113,0.52206 0.03164,1.1752c0.07458,2.66002 0.23956,8.61738 0.15142,11.10338c0.41584,-0.0565 0.94468,-0.113 1.6046,-0.06554c0.24182,-0.00452 0.54466,0.00452 0.83168,0.02034c2.86568,0.19436 5.23642,2.04078 5.76752,4.49514c0.01582,0.07684 0.02486,0.1582 0.02486,0.2373c0,2.46114 -1.469,8.97446 -3.277,12.3509c-0.82264,1.53228 -1.95038,2.1696 -3.04196,2.78432c-0.44522,0.2486 -0.91078,0.51076 -1.3786,0.86106c-0.51076,0.3842 -0.61698,0.7345 -0.84976,1.69952c-0.81812,3.34932 -2.8363,6.49524 -6.3619,9.944c-0.5763,0.565 -2.61482,2.22384 -5.06692,3.99568c-0.00452,1.93908 0.1695,3.46006 0.48138,4.12676c0.31866,0.67574 0.93338,1.54358 2.05886,1.8306c0.80004,0.28702 16.94774,6.24664 19.7637,7.43992c0.5085,0.19436 0.96728,0.38194 1.33114,0.53788c0.23278,0.08814 0.47912,0.17854 0.66444,0.23504c4.79346,1.44866 7.28624,4.4296 8.33262,9.96886c0.00904,0.04972 0.01582,0.1017 0.01808,0.15142c0,0 0.80004,15.65728 1.25204,25.20352c0.02034,0.44522 -0.22148,0.86106 -0.61924,1.0622c-9.13492,4.61266 -25.64196,9.88298 -36.37244,10.35306c-2.74816,0.11978 -5.36524,0.1808 -7.87158,0.1808zM64.6247,180.4836c16.7466,11.21864 30.61848,14.67192 54.61742,13.60746c10.1813,-0.44522 25.75722,-5.35846 34.79948,-9.7858c-0.43844,-9.18464 -1.1526,-23.21698 -1.21362,-24.38088c-0.89496,-4.6669 -2.79562,-6.95628 -6.75514,-8.14956c-0.22374,-0.0678 -0.52206,-0.17628 -0.85654,-0.3051c-0.38646,-0.16498 -0.82038,-0.339 -1.32888,-0.53788c-2.80014,-1.18424 -19.41792,-7.31562 -19.58516,-7.3789c-1.43284,-0.35708 -2.69392,-1.44414 -3.4352,-3.02614c-0.51076,-1.08932 -0.74354,-3.0058 -0.6893,-5.69294c0.00678,-0.35708 0.18306,-0.69156 0.4746,-0.89722c2.74364,-1.95264 4.8138,-3.66346 5.2658,-4.10416c3.21146,-3.1414 5.03528,-5.9438 5.73588,-8.81852c0.2599,-1.06898 0.51528,-2.12666 1.70178,-3.0171c0.5537,-0.41584 1.10062,-0.72546 1.62494,-1.02152c0.95598,-0.54014 1.64754,-0.93112 2.16056,-1.88484c1.70404,-3.17756 2.95834,-9.08972 3.01032,-11.15762c-0.36838,-1.39668 -1.89388,-2.486 -3.6838,-2.60352c-0.2373,-0.01582 -0.48364,-0.01808 -0.73676,-0.01808c-0.74806,-0.03842 -1.23848,0.0452 -1.6385,0.10622c-0.52658,0.08814 -1.1865,0.18984 -1.72212,-0.30284c-0.55144,-0.5085 -0.4972,-1.24978 -0.47008,-1.60686c0.13786,-1.90066 -0.0565,-8.82304 -0.12882,-11.43108c-0.02034,-0.68478 -0.03164,-1.13904 -0.03164,-1.23622c0,-9.45358 -9.90332,-16.95226 -23.22828,-17.76812c-12.81872,0.82038 -22.34914,8.32358 -22.34914,17.76812c0,0.09718 -0.0113,0.55144 -0.03164,1.23622c-0.07232,2.60578 -0.26668,9.53042 -0.12882,11.43108c0.02712,0.35708 0.08136,1.09836 -0.47234,1.60686c-0.5311,0.49042 -1.19102,0.38872 -1.72212,0.30284c-0.40002,-0.06328 -0.89722,-0.13334 -1.57974,-0.10848c-0.30962,0.00226 -0.5537,0.00452 -0.79326,0.02034c-1.78766,0.11978 -3.31316,1.20684 -3.68154,2.60352c0.05424,2.04982 1.39668,8.14504 3.01032,11.15762c0.51076,0.95372 1.20232,1.3447 2.16056,1.88484c0.52432,0.29606 1.07124,0.60794 1.62268,1.01926c1.18424,0.8927 1.44188,1.94586 1.69048,2.96738c0.71416,2.92896 2.53798,5.73136 5.74944,8.87276c0.44296,0.43392 2.42498,1.99106 4.99686,3.78776c0.31866,0.22374 0.49946,0.59212 0.48138,0.97858c-0.13108,2.94026 -0.2712,4.80702 -0.41132,5.5483c-0.34804,1.81478 -2.12666,3.03744 -3.73352,3.44198l-15.99176,5.80368c-1.90292,0.50398 -3.47814,1.1526 -4.78442,1.95716c-3.6273,2.2374 -5.35394,3.94596 -6.65118,8.7349c-1.01248,3.7403 -1.16842,14.18602 -1.23396,18.645c-0.01356,0.7232 -0.0226,1.3221 -0.0339,1.7515z" fill="#472b29"></path><path d="M136.6848,110.47106l-1.34922,-0.14916l0.45426,-4.02054l-2.28486,0.98988l-0.53788,-1.24526l3.35836,-1.45544c0.21922,-0.09718 0.47686,-0.0678 0.67122,0.07684c0.19436,0.14238 0.29832,0.37968 0.2712,0.61924zM81.95212,109.69588l-0.58308,-5.18444c-0.02712,-0.23956 0.07684,-0.47686 0.2712,-0.61924c0.19436,-0.1469 0.452,-0.17402 0.67348,-0.07684l3.35836,1.45544l-0.53788,1.24526l-2.28486,-0.98988l0.45426,4.02054z" fill="#b77b4e"></path><g fill="#472b29"><path d="M84.98052,119.7348c-0.00226,0 -0.00452,0 -0.00904,0c-0.2486,-0.00452 -0.44748,-0.21244 -0.44296,-0.46104l0.3729,-19.54222c0.00452,-0.24634 0.20566,-0.44296 0.452,-0.44296c0.00226,0 0.00452,0 0.00904,0c0.2486,0.00452 0.44748,0.21244 0.44296,0.46104l-0.3729,19.54222c-0.00678,0.2486 -0.20792,0.44296 -0.452,0.44296z"></path></g><g fill="#472b29"><path d="M133.29706,119.7348c-0.24634,0 -0.44748,-0.19662 -0.452,-0.44296l-0.37064,-19.54222c-0.00452,-0.2486 0.19436,-0.45652 0.44296,-0.46104c0.00226,0 0.00678,0 0.00904,0c0.24634,0 0.44748,0.19662 0.452,0.44296l0.37064,19.54222c0.00452,0.2486 -0.19436,0.45652 -0.44296,0.46104c-0.00452,0 -0.00678,0 -0.00904,0z"></path></g><g fill="#5e2e2e"><path d="M142.56306,82.09224c-5.10534,0.3729 -8.31228,-5.74492 -11.64126,-10.25814c-8.12018,-11.00168 -22.33332,-14.41654 -34.1599,-8.07724c-3.14818,1.68822 -5.67034,3.4917 -6.39806,5.12794c-5.97996,2.5425 -9.33606,10.31012 -10.65364,17.77942c-1.5368,8.71456 5.84662,22.20224 6.28506,14.69678c0.3164,-5.41722 2.3391,-12.98822 4.38666,-17.69806c0.91982,-2.11536 1.75602,-4.35954 2.35718,-6.6783c0.70512,5.63192 8.06142,10.99038 12.67182,11.0401c0.49268,0.00452 0.71868,-1.93908 0.58534,-4.59006c1.20458,2.16056 2.91766,3.97308 4.82736,5.30874c2.99902,2.09954 6.4523,3.1527 9.89654,3.89172c-1.2204,-0.51076 -1.94134,-2.01592 -2.16508,-3.49848c-0.11752,-0.77066 -0.12656,-1.55036 -0.11526,-2.33458c3.00806,2.08146 6.23534,3.616 9.74738,3.74708c0.40454,0.01582 0.8136,0.00226 1.2204,-0.0226c1.82382,3.76968 2.44984,8.30324 2.63742,11.53278c0.43844,7.50546 6.02742,-5.03076 4.49062,-13.74532c-0.0113,-0.06328 -0.02486,-0.12882 -0.03616,-0.19436c2.30068,-1.44866 4.40022,-3.49848 6.06358,-6.02742zM93.50072,72.97766c0.0113,-0.10396 0.0226,-0.21018 0.0339,-0.31414c0.03842,0.01356 0.07458,0.02712 0.11526,0.03842c-0.0565,0.0904 -0.09944,0.18306 -0.14916,0.27572z"></path></g><g fill="#472b29"><path d="M109.32524,140.98106c-4.60814,0 -12.34186,-5.90086 -12.68312,-6.16528c-0.24634,-0.18984 -0.2938,-0.54466 -0.10396,-0.79326c0.1921,-0.2486 0.54466,-0.29606 0.79326,-0.10396c0.08362,0.06328 8.38234,6.39354 12.42322,5.90538c4.13128,-0.49268 10.75986,-5.37202 10.8254,-5.42174c0.25086,-0.18306 0.60794,-0.13334 0.791,0.11978c0.18758,0.2486 0.13334,0.60568 -0.11752,0.791c-0.2825,0.20792 -6.93594,5.1076 -11.36328,5.63418c-0.18532,0.0226 -0.3729,0.0339 -0.565,0.0339z"></path></g><g fill="#472b29"><path d="M65.54,56.5h2.26v27.12h-2.26z"></path></g><g><path d="M70.9753,82.87646c-0.42488,-1.6159 -1.74924,-2.938 -3.36966,-3.34932c-3.18886,-0.80908 -6.0455,1.57974 -6.0455,4.633c0,0.75484 0.18984,1.45996 0.50172,2.09728h-0.03842l4.28496,8.68518l3.97082,-8.04786c0.76614,-1.09384 1.09384,-2.51312 0.69608,-4.01828z" fill="#ecad6f"></path><path d="M66.31066,96.0726v0c-0.4294,0 -0.82264,-0.24408 -1.01248,-0.62828l-4.28496,-8.68518c-0.04746,-0.09718 -0.08136,-0.19662 -0.09718,-0.29832c-0.32092,-0.74354 -0.48138,-1.51646 -0.48138,-2.30068c0,-1.83964 0.83394,-3.54368 2.28712,-4.67594c1.45544,-1.13452 3.3335,-1.52098 5.16636,-1.05316c2.0114,0.51076 3.65442,2.14022 4.18552,4.1584v0c0.45878,1.7402 0.15368,3.49848 -0.8588,4.95166l-3.88494,7.90096c-0.19662,0.3842 -0.58986,0.63054 -1.01926,0.63054zM63.167,86.02238l3.14366,6.36642l2.95834,-5.99352c0.7119,-1.04638 0.89948,-2.14022 0.61472,-3.2318c-0.32092,-1.21362 -1.34696,-2.23514 -2.55606,-2.5425c-1.15712,-0.29832 -2.3052,-0.06554 -3.2205,0.64636c-0.89948,0.7006 -1.41476,1.75376 -1.41476,2.8928c0,0.53788 0.13108,1.07802 0.38646,1.59782c0.04068,0.08588 0.07006,0.17176 0.08814,0.26442z" fill="#472b29"></path></g><g><path d="M108.48,80.23c-14.0346,0 -22.7582,-2.90636 -23.65994,-5.0059l-0.07006,-0.16272v-18.1704h47.46v18.2269l-0.07006,0.10622c-0.90174,2.09954 -9.62534,5.0059 -23.65994,5.0059z" fill="#b0c1d4"></path><path d="M131.08,58.02098v16.79858c-0.91304,1.5594 -9.11684,4.28044 -22.6,4.28044c-13.49446,0 -21.69826,-2.72556 -22.6,-4.28044v-16.79858h45.2M133.34,55.76098h-49.72v19.9106h0.16272c1.37408,3.1979 11.90342,5.68842 24.69728,5.68842c12.79386,0 23.3232,-2.49052 24.69728,-5.68842h0.16272v-19.9106z" fill="#472b29"></path></g><g><path d="M65.49932,57.18704l43.35132,-13.73402l43.3468,13.7295l-43.3468,13.73628z" fill="#97aec7"></path><path d="M108.84838,44.63726l39.6065,12.54752l-39.60876,12.54978l-39.6065,-12.54526l39.60876,-12.55204M108.84838,42.26652l-47.09162,14.92052l47.09162,14.916l47.09162,-14.92052l-47.09162,-14.916z" fill="#472b29"></path></g></g></g></svg>