<?xml version="1.0" encoding="utf-8"?>
<!-- Generator: Adobe Illustrator 25.4.1, SVG Export Plug-In . SVG Version: 6.00 Build 0)  -->
<svg version="1.1" id="Слой_1" xmlns="http://www.w3.org/2000/svg" xmlns:xlink="http://www.w3.org/1999/xlink" x="0px" y="0px"
	 viewBox="0 0 45 45" style="enable-background:new 0 0 45 45;" xml:space="preserve">
<style type="text/css">
	.st0{fill:url(#SVGID_1_);}
	.st1{fill:#FFD803;}
</style>
<linearGradient id="SVGID_1_" gradientUnits="userSpaceOnUse" x1="19.9134" y1="9.2116" x2="3.3197" y2="25.8053" gradientTransform="matrix(1 0 0 -1 0 46)">
	<stop  offset="0.108" style="stop-color:#000000"/>
	<stop  offset="0.433" style="stop-color:#EED815"/>
</linearGradient>
<path class="st0" d="M15.6,38.8L1.5,24.8c-0.7-0.7-0.7-1.9,0-2.6l3.8-3.8c0.7-0.7,1.9-0.7,2.6,0L22,32.4c0.7,0.7,0.7,1.9,0,2.6
	l-3.8,3.8C17.5,39.6,16.3,39.6,15.6,38.8z"/>
<path class="st1" d="M11.8,32.4L37.1,7.1c0.7-0.7,1.9-0.7,2.6,0l3.8,3.8c0.7,0.7,0.7,1.9,0,2.6L18.2,38.8c-0.7,0.7-1.9,0.7-2.6,0
	l-3.8-3.8C11.1,34.3,11.1,33.2,11.8,32.4z"/>
</svg>
