<svg version="1.1" xmlns="http://www.w3.org/2000/svg" xmlns:xlink="http://www.w3.org/1999/xlink" viewBox="0 0 226 226"><g fill="none" fill-rule="nonzero" stroke="none" stroke-width="1" stroke-linecap="butt" stroke-linejoin="miter" stroke-miterlimit="10" stroke-dasharray="" stroke-dashoffset="0" font-family="none" font-weight="none" font-size="none" text-anchor="none" style="mix-blend-mode: normal"><path d="M0,226v-226h226v226z" fill="none"></path><g><path d="M29.38,61.02c-2.4973,0 -4.52,2.0227 -4.52,4.52c0,2.4973 2.0227,4.52 4.52,4.52c2.4973,0 4.52,-2.0227 4.52,-4.52c0,-2.4973 -2.0227,-4.52 -4.52,-4.52z" fill="#ee3e54"></path><path d="M174.02,27.12c-1.24526,0 -2.26,1.01474 -2.26,2.26c0,1.24526 1.01474,2.26 2.26,2.26c1.24526,0 2.26,-1.01474 2.26,-2.26c0,-1.24526 -1.01474,-2.26 -2.26,-2.26z" fill="#f1bc19"></path><path d="M113,29.38c-46.18084,0 -83.62,37.43916 -83.62,83.62c0,46.18084 37.43916,83.62 83.62,83.62c46.18084,0 83.62,-37.43916 83.62,-83.62c0,-46.18084 -37.43916,-83.62 -83.62,-83.62z" fill="#fce0a2"></path><path d="M187.58,24.86c-4.99686,0 -9.04,4.04314 -9.04,9.04c0,4.99686 4.04314,9.04 9.04,9.04c4.99686,0 9.04,-4.04314 9.04,-9.04c0,-4.99686 -4.04314,-9.04 -9.04,-9.04z" fill="#f1bc19"></path><path d="M196.62,49.72c-2.4973,0 -4.52,2.0227 -4.52,4.52c0,2.4973 2.0227,4.52 4.52,4.52c2.4973,0 4.52,-2.0227 4.52,-4.52c0,-2.4973 -2.0227,-4.52 -4.52,-4.52z" fill="#ee3e54"></path><path d="M183.06,167.24c-2.4973,0 -4.52,2.0227 -4.52,4.52c0,2.4973 2.0227,4.52 4.52,4.52c2.4973,0 4.52,-2.0227 4.52,-4.52c0,-2.4973 -2.0227,-4.52 -4.52,-4.52zM33.9,133.34c-4.99686,0 -9.04,4.04314 -9.04,9.04c0,4.99686 4.04314,9.04 9.04,9.04c4.99686,0 9.04,-4.04314 9.04,-9.04c0,-4.99686 -4.04314,-9.04 -9.04,-9.04z" fill="#fbcd59"></path><path d="M56.5,192.1c-2.4973,0 -4.52,2.0227 -4.52,4.52c0,2.4973 2.0227,4.52 4.52,4.52c2.4973,0 4.52,-2.0227 4.52,-4.52c0,-2.4973 -2.0227,-4.52 -4.52,-4.52z" fill="#ee3e54"></path><path d="M41.81,99.44c-3.11654,0 -5.65,2.53346 -5.65,5.65c0,3.11654 2.53346,5.65 5.65,5.65c3.11654,0 5.65,-2.53346 5.65,-5.65c0,-3.11654 -2.53346,-5.65 -5.65,-5.65z" fill="#ffffff"></path><path d="M47.46,149.16c-1.24526,0 -2.26,1.01474 -2.26,2.26c0,1.24526 1.01474,2.26 2.26,2.26c1.24526,0 2.26,-1.01474 2.26,-2.26c0,-1.24526 -1.01474,-2.26 -2.26,-2.26z" fill="#f1bc19"></path><path d="M180.8,74.58c-1.24526,0 -2.26,1.01474 -2.26,2.26c0,1.24526 1.01474,2.26 2.26,2.26c1.24526,0 2.26,-1.01474 2.26,-2.26c0,-1.24526 -1.01474,-2.26 -2.26,-2.26z" fill="#ffffff"></path><g><path d="M77.07052,169.6582c-3.82618,0 -7.0851,-2.98998 -7.41958,-6.80486c-0.17402,-1.98428 0.43392,-3.91884 1.71534,-5.44434c1.27916,-1.52776 3.07812,-2.4634 5.0624,-2.63742c8.61738,-0.7571 13.51028,-1.1865 21.82934,-6.11556l7.70434,6.46134c-8.11792,9.2434 -16.40082,13.47638 -28.2274,14.51372c-0.22374,0.01582 -0.44522,0.02712 -0.66444,0.02712z" fill="#9f8066"></path><path d="M98.09304,150.57928l5.59576,4.69176c-7.48512,8.07498 -15.24144,11.82884 -26.09396,12.7803c-0.17628,0.01582 -0.3503,0.0226 -0.52432,0.0226c-3.01258,0 -5.57768,-2.35492 -5.8421,-5.36298c-0.2825,-3.22728 2.1131,-6.08392 5.34038,-6.36642c8.51342,-0.7458 13.48542,-1.18198 21.52424,-5.76526M98.40944,146.71468c-8.6106,5.29292 -13.11252,5.68842 -22.11862,6.47942c-4.97426,0.43618 -8.65128,4.82284 -8.2151,9.79484c0.41358,4.70532 4.35954,8.249 8.9948,8.249c0.26442,0 0.53336,-0.0113 0.8023,-0.03616c13.50802,-1.18424 22.11862,-6.47942 30.33372,-16.27426l-9.7971,-8.21284z" fill="#472b29"></path><path d="M70.19334,138.12668c-3.47814,0 -6.50654,-2.76172 -7.04894,-6.42744c-0.60116,-4.068 2.02044,-7.83768 5.83984,-8.40268c8.02978,-1.1865 22.19998,-3.27926 30.98008,-7.90322l-1.64528,10.18356c-5.54378,6.07036 -19.42922,11.3339 -27.15616,12.4752c-0.32318,0.05198 -0.64862,0.07458 -0.96954,0.07458z" fill="#9f8066"></path><path d="M97.92806,118.1076l-1.08932,6.74158c-5.1302,5.26806 -17.6167,10.41634 -25.90412,11.64126c-0.24634,0.03616 -0.49494,0.05424 -0.74128,0.05424c-2.69844,0 -5.05562,-2.1809 -5.48276,-5.07596c-0.23278,-1.582 0.12656,-3.14818 1.01248,-4.407c0.85202,-1.21136 2.09276,-1.99106 3.49622,-2.19898c7.33144,-1.08028 19.70946,-2.90862 28.70878,-6.75514M102.07968,112.24516c-7.83542,5.72684 -24.8261,8.23544 -33.3237,9.48974c-4.69176,0.69382 -7.90548,5.25902 -7.1755,10.19712c0.6667,4.51548 4.39344,7.77666 8.61286,7.77666c0.39776,0 0.80004,-0.02938 1.20458,-0.08814c8.49534,-1.2543 22.84182,-6.85006 28.41498,-13.334l2.26678,-14.04138z" fill="#472b29"></path><path d="M149.11254,169.6582c-0.21922,0 -0.4407,-0.00904 -0.66218,-0.02938c-11.82658,-1.03734 -20.10948,-5.27032 -28.22966,-14.51372l7.70434,-6.46134c8.32132,4.92906 13.21196,5.35846 21.82934,6.11556c1.98654,0.17402 3.78324,1.10966 5.06466,2.63742c1.27916,1.5255 1.88936,3.46006 1.71534,5.44434c-0.339,3.81714 -3.59792,6.80712 -7.42184,6.80712z" fill="#9f8066"></path><path d="M128.08776,150.57928c8.03882,4.58328 13.01082,5.01946 21.5265,5.76526c3.22728,0.2825 5.62288,3.1414 5.34038,6.36642c-0.26442,3.00806 -2.82952,5.36298 -5.8421,5.36298c-0.17402,0 -0.34804,-0.00678 -0.52432,-0.0226c-10.85252,-0.95146 -18.60884,-4.70758 -26.09396,-12.7803l5.5935,-4.69176M127.77362,146.71468l-9.79484,8.2151c8.2151,9.79484 16.8257,15.09002 30.33372,16.27426c0.26894,0.0226 0.53562,0.03616 0.8023,0.03616c4.63526,0 8.58122,-3.54594 8.9948,-8.249c0.43618,-4.97426 -3.24084,-9.35866 -8.2151,-9.79484c-9.00836,-0.79326 -13.51028,-1.18876 -22.12088,-6.48168z" fill="#472b29"></path><path d="M155.98746,138.12668c-0.32092,0 -0.64636,-0.0226 -0.97406,-0.07232c-7.72694,-1.1413 -21.61238,-6.40484 -27.15616,-12.4752l-1.64528,-10.18356c8.78236,4.62396 22.95256,6.71672 30.98008,7.90322c3.82166,0.565 6.44326,4.33242 5.8421,8.40268c-0.53788,3.66346 -3.56854,6.42518 -7.04668,6.42518c0.00226,0 0.00226,0 0,0z" fill="#9f8066"></path><path d="M128.255,118.1076c8.99932,3.84652 21.37734,5.67486 28.70878,6.7574c1.40346,0.20792 2.6442,0.98762 3.49622,2.19898c0.88592,1.25882 1.24526,2.825 1.01248,4.407c-0.42714,2.89506 -2.78432,5.07596 -5.48276,5.07596c-0.24634,0 -0.49494,-0.01808 -0.74128,-0.05424c-8.28742,-1.22492 -20.77392,-6.37546 -25.90412,-11.64126l-1.08932,-6.74384M124.10338,112.24516l2.26678,14.04138c5.57316,6.48394 19.91964,12.0797 28.41498,13.334c0.40454,0.05876 0.80682,0.08814 1.20458,0.08814c4.21942,0 7.94616,-3.26344 8.61286,-7.77666c0.72998,-4.9381 -2.48374,-9.50556 -7.1755,-10.19712c-8.4976,-1.2543 -25.48828,-3.76516 -33.3237,-9.48974z" fill="#472b29"></path><path d="M113,158.878c-10.34402,0 -18.758,-8.41398 -18.758,-18.758v-13.56c0,-10.34402 8.41398,-18.758 18.758,-18.758c10.34402,0 18.758,8.41398 18.758,18.758v13.56c0,10.34402 -8.41398,18.758 -18.758,18.758z" fill="#9f8066"></path><path d="M113,109.384c9.47166,0 17.176,7.7066 17.176,17.176v13.56c0,9.4694 -7.70434,17.176 -17.176,17.176c-9.47166,0 -17.176,-7.7066 -17.176,-17.176v-13.56c0,-9.4694 7.70434,-17.176 17.176,-17.176M113,106.22v0c-11.23446,0 -20.34,9.10554 -20.34,20.34v13.56c0,11.23446 9.10554,20.34 20.34,20.34v0c11.23446,0 20.34,-9.10554 20.34,-20.34v-13.56c0,-11.23446 -9.10554,-20.34 -20.34,-20.34z" fill="#472b29"></path><path d="M114.13,115.938c-15.25952,0 -28.6455,-12.19722 -28.6455,-26.103c0,-3.71544 2.08372,-7.46704 3.9211,-10.77794l1.56618,-2.86116l-1.61138,-0.678c-3.61374,-1.52098 -6.1359,-5.62514 -6.1359,-9.9779c0,-5.63192 4.38214,-9.718 10.42312,-9.718c4.99008,0 9.266,3.27022 10.40052,7.95068l0.39324,1.62268l1.60008,-0.48138c2.6103,-0.78422 5.33134,-1.18424 8.08854,-1.18424c2.7572,0 5.47598,0.39776 8.08854,1.18424l1.60008,0.48138l0.39324,-1.62268c1.13452,-4.68272 5.4127,-7.95068 10.40052,-7.95068c5.90312,0 10.70562,4.61266 10.70562,10.283c0,4.07704 -2.5199,7.77214 -6.4184,9.4129l-1.61138,0.678l1.56618,2.86116c1.83738,3.3109 3.9211,7.0625 3.9211,10.77794c0,13.90578 -13.38598,26.103 -28.6455,26.103z" fill="#9f8066"></path><path d="M134.61012,57.404c5.03076,0 9.12588,3.90302 9.12588,8.701c0,3.43746 -2.14022,6.56078 -5.45112,7.9552l-3.22502,1.35826l1.6724,3.07134c0.23956,0.43844 0.4859,0.88366 0.73676,1.33566c1.8306,3.29508 3.72448,6.70542 3.72448,10.00954c0,13.0628 -12.64696,24.521 -27.0635,24.521c-14.41654,0 -27.0635,-11.4582 -27.0635,-24.521c0,-3.30412 1.89388,-6.71446 3.72448,-10.00954c0.25086,-0.452 0.4972,-0.89722 0.73676,-1.33566l1.6724,-3.07134l-3.22502,-1.35826c-3.04422,-1.27916 -5.16862,-4.78442 -5.16862,-8.5202c0,-4.71436 3.7177,-8.136 8.84338,-8.136c4.25558,0 7.90096,2.77302 8.86372,6.74158l0.78648,3.24762l3.20016,-0.96276c2.46114,-0.74128 5.0285,-1.11644 7.63202,-1.11644c2.60352,0 5.17088,0.37516 7.63202,1.11644l3.20016,0.96276l0.78648,-3.24762c0.9605,-3.96856 4.60362,-6.74158 8.8592,-6.74158M134.61012,54.24c-5.8195,0 -10.6672,3.91658 -11.93732,9.15978c-2.69844,-0.81134 -5.56864,-1.24978 -8.5428,-1.24978c-2.97416,0 -5.84436,0.43844 -8.5428,1.24978c-1.27238,-5.2432 -6.12008,-9.15978 -11.93958,-9.15978c-6.78678,0 -12.00512,4.74826 -12.00512,11.3c0,4.86804 2.76172,9.60726 7.10544,11.4356c-2.09276,3.84426 -4.84544,8.2151 -4.84544,12.8594c0,15.29116 14.39168,27.685 30.2275,27.685c15.83582,0 30.2275,-12.39384 30.2275,-27.685c0,-4.6443 -2.75268,-9.01514 -4.84544,-12.8594c4.34372,-1.82834 7.38794,-6.00256 7.38794,-10.8706c0,-6.55174 -5.50084,-11.865 -12.28988,-11.865z" fill="#472b29"></path><circle cx="45.5" cy="38.5" transform="scale(2.26,2.26)" r="1.5" fill="#836f61"></circle><circle cx="31.5" cy="57.5" transform="scale(2.26,2.26)" r="1.5" fill="#bd977c"></circle><circle cx="68.5" cy="57.5" transform="scale(2.26,2.26)" r="1.5" fill="#bd977c"></circle><circle cx="65.5" cy="71.5" transform="scale(2.26,2.26)" r="1.5" fill="#bd977c"></circle><circle cx="34.5" cy="71.5" transform="scale(2.26,2.26)" r="1.5" fill="#bd977c"></circle><circle cx="55.5" cy="38.5" transform="scale(2.26,2.26)" r="1.5" fill="#836f61"></circle><ellipse cx="50.5" cy="46" transform="scale(2.26,2.26)" rx="7" ry="4.5" fill="#bd977c"></ellipse><path d="M114.13,114.695c-7.11448,0 -13.37242,-2.96286 -15.57366,-7.37438c-0.14012,-0.28024 -0.02712,-0.61924 0.25312,-0.7571c0.27572,-0.14012 0.61924,-0.02486 0.7571,0.25312c2.01366,4.03636 7.8648,6.74836 14.56118,6.74836c8.41172,0 15.255,-4.30756 15.255,-9.605c0,-0.31188 0.25312,-0.565 0.565,-0.565c0.31188,0 0.565,0.25312 0.565,0.565c0.00226,5.91894 -7.34726,10.735 -16.38274,10.735z" fill="#472b29"></path><path d="M129.19742,101.4175c-0.20792,0 -0.4068,-0.11526 -0.50624,-0.31188c-2.01366,-4.03636 -7.8648,-6.74836 -14.56118,-6.74836c-3.52108,0 -6.9608,0.7797 -9.68184,2.19446c-0.27346,0.14238 -0.61698,0.03842 -0.76162,-0.23956c-0.14464,-0.27572 -0.03616,-0.61698 0.23956,-0.76162c2.92218,-1.52098 6.45004,-2.32328 10.2039,-2.32328c7.11448,0 13.37242,2.96286 15.57366,7.37438c0.14012,0.28024 0.02712,0.61924 -0.25312,0.7571c-0.08136,0.03842 -0.16724,0.05876 -0.25312,0.05876z" fill="#472b29"></path><path d="M98.31,104.525c-0.31188,0 -0.565,-0.25312 -0.565,-0.565c0,-2.44532 1.21136,-4.746 3.503,-6.65118c0.2373,-0.19888 0.59438,-0.16724 0.79552,0.07232c0.19888,0.23956 0.16724,0.59664 -0.07458,0.79552c-2.0227,1.68596 -3.09394,3.6838 -3.09394,5.78334c0,0.31188 -0.25312,0.565 -0.565,0.565z" fill="#472b29"></path><path d="M112.7175,151.1375v0c-4.99234,0 -9.04,-4.04766 -9.04,-9.04v-9.04c0,-4.99234 4.04766,-9.04 9.04,-9.04v0c4.99234,0 9.04,4.04766 9.04,9.04v9.04c0,4.99234 -4.04766,9.04 -9.04,9.04z" fill="#bd977c"></path><path d="M111.28466,109.89928c-1.7854,0 -4.068,-0.68252 -6.4636,-1.98428c-0.27346,-0.14916 -0.37516,-0.49268 -0.226,-0.76614c0.14916,-0.27572 0.49268,-0.37516 0.76614,-0.226c3.64764,1.98428 6.45682,2.1696 7.62298,1.47578c0.39098,-0.23278 0.58308,-0.5537 0.58308,-0.98084v-9.1078c0,-0.31188 0.25312,-0.565 0.565,-0.565c0.31188,0 0.565,0.25312 0.565,0.565v9.1078c0,0.82264 -0.40228,1.51646 -1.13452,1.95038c-0.60116,0.35708 -1.37634,0.5311 -2.27808,0.5311z" fill="#472b29"></path><path d="M116.97534,109.89928c-0.90174,0 -1.67692,-0.17402 -2.27582,-0.5311c-0.73224,-0.43392 -1.13452,-1.12774 -1.13452,-1.95038v-9.1078c0,-0.31188 0.25312,-0.565 0.565,-0.565c0.31188,0 0.565,0.25312 0.565,0.565v9.1078c0,0.42714 0.18984,0.74806 0.58308,0.98084c1.1639,0.69382 3.97308,0.50624 7.62298,-1.47578c0.27346,-0.1469 0.61698,-0.04746 0.76614,0.226c0.14916,0.27346 0.04746,0.61698 -0.226,0.76614c-2.3956,1.30176 -4.68046,1.98428 -6.46586,1.98428z" fill="#472b29"></path><path d="M119.78,94.355c0,1.87354 -2.52894,5.085 -5.65,5.085c-3.12106,0 -5.65,-3.21372 -5.65,-5.085c0,-1.87128 2.52894,-1.695 5.65,-1.695c3.12106,0 5.65,-0.17854 5.65,1.695z" fill="#836f61"></path><path d="M114.13,100.005c-3.43068,0 -6.215,-3.41938 -6.215,-5.65c0,-1.92552 2.08598,-2.12892 2.77076,-2.19446c0.3164,-0.02938 0.5876,0.19662 0.61698,0.5085c0.02938,0.30962 -0.19662,0.5876 -0.5085,0.61698c-1.6159,0.1582 -1.74924,0.61472 -1.74924,1.07124c0,1.50742 2.19898,4.52 5.085,4.52c2.88602,0 5.085,-3.01258 5.085,-4.52c0,-0.34352 -0.11752,-0.50172 -0.20792,-0.58986c-0.56274,-0.56048 -2.2939,-0.55144 -4.12902,-0.5424l-0.74806,-0.00226c-0.31188,0 -0.565,-0.25312 -0.565,-0.565c0,-0.31188 0.25312,-0.565 0.565,-0.565l0.74354,-0.00226c2.26226,-0.00904 4.03636,-0.02034 4.93132,0.87236c0.35934,0.35708 0.54014,0.8249 0.54014,1.3899c0,2.23288 -2.78432,5.65226 -6.215,5.65226z" fill="#472b29"></path><path d="M97.4625,71.52674c-0.1582,0 -0.31866,-0.0678 -0.4294,-0.19662c-0.2034,-0.2373 -0.17628,-0.59438 0.06102,-0.79778c0.58082,-0.4972 1.0509,-1.13 1.356,-1.8306c0.12656,-0.28702 0.46104,-0.41584 0.74354,-0.29154c0.28476,0.1243 0.41584,0.45878 0.29154,0.74354c-0.3729,0.85428 -0.94468,1.6272 -1.65658,2.23514c-0.10396,0.09492 -0.23504,0.13786 -0.36612,0.13786z" fill="#472b29"></path><path d="M99.41062,66.67c-0.28702,0 -0.5311,-0.21696 -0.56048,-0.5085c-0.17402,-1.74246 -1.26334,-3.30186 -2.84308,-4.068c-0.28024,-0.1356 -0.39776,-0.4746 -0.26216,-0.75484c0.13786,-0.28024 0.47686,-0.39776 0.75484,-0.26216c1.93004,0.9379 3.25892,2.84308 3.47136,4.972c0.03164,0.30962 -0.19436,0.5876 -0.50624,0.61698c-0.01582,0.00452 -0.0339,0.00452 -0.05424,0.00452z" fill="#472b29"></path><path d="M89.835,63.2009c-0.1469,0 -0.29154,-0.0565 -0.40454,-0.1695c-0.21922,-0.22374 -0.2147,-0.58082 0.00904,-0.80004c1.16842,-1.14582 2.71426,-1.77636 4.3505,-1.77636c0.31188,0 0.565,0.25312 0.565,0.565c0,0.31188 -0.25312,0.565 -0.565,0.565c-1.34018,0 -2.60352,0.51754 -3.56176,1.45318c-0.10848,0.10848 -0.25086,0.16272 -0.39324,0.16272z" fill="#472b29"></path><path d="M131.64274,71.52674c-0.13108,0 -0.26216,-0.0452 -0.36838,-0.1356c-1.38086,-1.18424 -2.17412,-2.9041 -2.17412,-4.72114c0,-2.21254 1.19102,-4.27592 3.1075,-5.38332c0.26442,-0.1582 0.61246,-0.06554 0.77066,0.20566c0.15594,0.2712 0.06328,0.61472 -0.20566,0.77292c-1.56844,0.90852 -2.5425,2.59674 -2.5425,4.40474c0,1.48708 0.64862,2.89506 1.77862,3.86234c0.2373,0.2034 0.26442,0.56048 0.06102,0.79778c-0.10848,0.13108 -0.26894,0.19662 -0.42714,0.19662z" fill="#472b29"></path><path d="M139.2725,63.2009c-0.14238,0 -0.28476,-0.05424 -0.3955,-0.16272c-0.95598,-0.9379 -2.22158,-1.45318 -3.56176,-1.45318c-0.31188,0 -0.565,-0.25312 -0.565,-0.565c0,-0.31188 0.25312,-0.565 0.565,-0.565c1.63624,0 3.18208,0.63054 4.3505,1.77636c0.22374,0.21696 0.22826,0.5763 0.00904,0.80004c-0.11074,0.113 -0.25538,0.1695 -0.40228,0.1695z" fill="#472b29"></path><g fill="#472b29"><path d="M102.83,90.965c-2.1809,0 -3.955,-1.7741 -3.955,-3.955c0,-0.97406 0.35708,-1.91196 1.0057,-2.63742c0.20792,-0.23278 0.56952,-0.25086 0.79778,-0.0452c0.23278,0.20792 0.25312,0.565 0.0452,0.79778c-0.46556,0.51754 -0.71868,1.1865 -0.71868,1.88258c0,1.55714 1.26786,2.825 2.825,2.825c0.8023,0 1.56844,-0.34352 2.10406,-0.94242c0.21018,-0.23278 0.56952,-0.25086 0.79778,-0.0452c0.23278,0.20792 0.25312,0.565 0.0452,0.79778c-0.75032,0.84298 -1.82382,1.3221 -2.94704,1.3221z"></path></g><g fill="#472b29"><path d="M106.22,87.575c-0.31188,0 -0.565,-0.25312 -0.565,-0.565c0,-1.55714 -1.26786,-2.825 -2.825,-2.825c-0.31188,0 -0.565,-0.25312 -0.565,-0.565c0,-0.31188 0.25312,-0.565 0.565,-0.565c2.1809,0 3.955,1.7741 3.955,3.955c0,0.31188 -0.25312,0.565 -0.565,0.565z"></path></g><g fill="#472b29"><path d="M125.43,90.965c-2.1809,0 -3.955,-1.7741 -3.955,-3.955c0,-0.31188 0.25312,-0.565 0.565,-0.565c0.31188,0 0.565,0.25312 0.565,0.565c0,1.55714 1.26786,2.825 2.825,2.825c1.55714,0 2.825,-1.26786 2.825,-2.825c0,-1.55714 -1.26786,-2.825 -2.825,-2.825c-0.69608,0 -1.36504,0.25538 -1.88258,0.71868c-0.23504,0.20792 -0.58986,0.18758 -0.79778,-0.0452c-0.20792,-0.23278 -0.18758,-0.58986 0.04294,-0.79778c0.72546,-0.64862 1.6611,-1.00796 2.63742,-1.00796c2.1809,0 3.955,1.7741 3.955,3.955c0,2.1809 -1.7741,3.95726 -3.955,3.95726z"></path></g><g fill="#472b29"><path d="M103.96,136.73c-0.31188,0 -0.565,-0.25312 -0.565,-0.565v-2.825c0,-1.83286 0.51754,-3.61826 1.50064,-5.15732c0.1695,-0.26442 0.5198,-0.339 0.7797,-0.17402c0.26442,0.16724 0.34126,0.51754 0.17402,0.7797c-0.86558,1.36052 -1.32436,2.93348 -1.32436,4.55164v2.825c0,0.31188 -0.25312,0.565 -0.565,0.565z"></path></g><g fill="#472b29"><path d="M113,151.985c-5.29518,0 -9.605,-4.30756 -9.605,-9.605v-3.1075c0,-0.31188 0.25312,-0.565 0.565,-0.565c0.31188,0 0.565,0.25312 0.565,0.565v3.1075c0,4.67368 3.80132,8.475 8.475,8.475c3.54368,0 6.74384,-2.23514 7.95972,-5.56186c0.10622,-0.29154 0.43166,-0.44296 0.72546,-0.33674c0.2938,0.10848 0.44296,0.43166 0.33674,0.72546c-1.3786,3.76968 -5.0059,6.30314 -9.02192,6.30314z"></path></g><g fill="#472b29"><path d="M122.04,142.945c-0.31188,0 -0.565,-0.25312 -0.565,-0.565v-9.04c0,-4.67368 -3.80132,-8.475 -8.475,-8.475c-1.94812,0 -3.78098,0.64184 -5.29744,1.85998c-0.23956,0.19436 -0.5989,0.15594 -0.79326,-0.08814c-0.19436,-0.24408 -0.15594,-0.5989 0.08814,-0.79552c1.695,-1.35826 3.82618,-2.10632 6.00256,-2.10632c5.29518,0 9.605,4.30756 9.605,9.605v9.04c0,0.31188 -0.25312,0.565 -0.565,0.565z"></path></g></g></g></g></svg>