<svg version="1.1" xmlns="http://www.w3.org/2000/svg" xmlns:xlink="http://www.w3.org/1999/xlink" viewBox="0 0 226 226"><g fill="none" fill-rule="nonzero" stroke="none" stroke-width="1" stroke-linecap="butt" stroke-linejoin="miter" stroke-miterlimit="10" stroke-dasharray="" stroke-dashoffset="0" font-family="none" font-weight="none" font-size="none" text-anchor="none" style="mix-blend-mode: normal"><path d="M0,226v-226h226v226z" fill="none"></path><g><path d="M29.38,61.02c-2.49633,0 -4.52,2.02367 -4.52,4.52c0,2.49633 2.02367,4.52 4.52,4.52c2.49633,0 4.52,-2.02367 4.52,-4.52c0,-2.49633 -2.02367,-4.52 -4.52,-4.52z" fill="#ee3e54"></path><path d="M174.02,27.12c-1.24816,0 -2.26,1.01184 -2.26,2.26c0,1.24816 1.01184,2.26 2.26,2.26c1.24816,0 2.26,-1.01184 2.26,-2.26c0,-1.24816 -1.01184,-2.26 -2.26,-2.26z" fill="#f1bc19"></path><path d="M113,29.38c-46.18205,0 -83.62,37.43795 -83.62,83.62c0,46.18205 37.43795,83.62 83.62,83.62c46.18205,0 83.62,-37.43795 83.62,-83.62c0,-46.18205 -37.43795,-83.62 -83.62,-83.62z" fill="#fce0a2"></path><path d="M187.58,24.86c-4.99265,0 -9.04,4.04735 -9.04,9.04c0,4.99265 4.04735,9.04 9.04,9.04c4.99265,0 9.04,-4.04735 9.04,-9.04c0,-4.99265 -4.04735,-9.04 -9.04,-9.04z" fill="#f1bc19"></path><path d="M196.62,49.72c-2.49633,0 -4.52,2.02367 -4.52,4.52c0,2.49633 2.02367,4.52 4.52,4.52c2.49633,0 4.52,-2.02367 4.52,-4.52c0,-2.49633 -2.02367,-4.52 -4.52,-4.52z" fill="#ee3e54"></path><path d="M183.06,167.24c-2.49633,0 -4.52,2.02367 -4.52,4.52c0,2.49633 2.02367,4.52 4.52,4.52c2.49633,0 4.52,-2.02367 4.52,-4.52c0,-2.49633 -2.02367,-4.52 -4.52,-4.52zM33.9,133.34c-4.99265,0 -9.04,4.04735 -9.04,9.04c0,4.99265 4.04735,9.04 9.04,9.04c4.99265,0 9.04,-4.04735 9.04,-9.04c0,-4.99265 -4.04735,-9.04 -9.04,-9.04z" fill="#fbcd59"></path><path d="M56.5,192.1c-2.49633,0 -4.52,2.02367 -4.52,4.52c0,2.49633 2.02367,4.52 4.52,4.52c2.49633,0 4.52,-2.02367 4.52,-4.52c0,-2.49633 -2.02367,-4.52 -4.52,-4.52z" fill="#ee3e54"></path><path d="M41.81,115.26c-3.12041,0 -5.65,2.52959 -5.65,5.65c0,3.12041 2.52959,5.65 5.65,5.65c3.12041,0 5.65,-2.52959 5.65,-5.65c0,-3.12041 -2.52959,-5.65 -5.65,-5.65z" fill="#ffffff"></path><path d="M47.46,149.16c-1.24816,0 -2.26,1.01184 -2.26,2.26c0,1.24816 1.01184,2.26 2.26,2.26c1.24816,0 2.26,-1.01184 2.26,-2.26c0,-1.24816 -1.01184,-2.26 -2.26,-2.26z" fill="#f1bc19"></path><path d="M180.8,74.58c-1.24816,0 -2.26,1.01184 -2.26,2.26c0,1.24816 1.01184,2.26 2.26,2.26c1.24816,0 2.26,-1.01184 2.26,-2.26c0,-1.24816 -1.01184,-2.26 -2.26,-2.26z" fill="#ffffff"></path><g><path d="M78.99152,85.66304l33.23782,17.25736l31.51796,-13.81086l-53.9123,-9.44454z" fill="#88cdd7"></path><path d="M112.17284,104.6719l-36.52838,-18.96818l13.91482,-7.6953l59.62106,10.44798zM82.34084,85.61784l29.94726,15.55106l26.0239,-11.40396l-48.20128,-8.44336z" fill="#472b29"></path><path d="M160.1775,68.6475c-9.605,-1.9775 -16.1025,0.8475 -21.1875,2.825c-5.085,1.9775 -61.585,37.855 -61.585,37.855l-19.4925,-5.9325l-7.0625,4.8025c0,0 15.255,14.9725 19.4925,14.9725c4.15614,0 29.75742,-8.6897 36.87642,-11.4243l-7.684,37.9793l15.82,-9.605l20.24056,-43.48692c6.0229,-3.4352 11.82432,-6.80712 16.10928,-9.34058c12.43,-7.345 12.995,-9.8875 12.995,-9.8875c0,0 5.08274,-6.78 -4.52226,-8.7575z" fill="#88cdd7"></path><path d="M97.26814,152.95228l7.83768,-38.7364c-9.03322,3.2657 -30.623,10.53612 -34.76332,10.53612c-4.5313,0 -16.91384,-11.8085 -20.5999,-15.4245l-1.3786,-1.35374l9.28408,-6.31444l19.52188,5.94154c6.46586,-4.09964 56.3079,-35.68314 61.246,-37.60414l0.71642,-0.28024c4.95618,-1.93908 11.73844,-4.60588 21.36378,-2.61934c3.6386,0.75032 5.91894,2.27356 6.77322,4.52904c1.09384,2.88828 -0.68252,5.81272 -1.18424,6.55174c-0.61698,1.2995 -3.21824,4.35276 -13.57808,10.4751c-4.19004,2.47696 -9.8197,5.7517 -15.69118,9.10102l-20.22926,43.46658zM109.34106,109.2371l-7.53936,37.26062l12.32378,-7.48286l20.2496,-43.50952l0.43618,-0.2486c6.01386,-3.43068 11.8085,-6.79808 16.08668,-9.32702c10.95422,-6.47264 12.2718,-8.97672 12.32152,-9.08068l0.07458,-0.33222l0.14012,-0.06102c0.4181,-0.56952 1.39894,-2.35718 0.87688,-3.71996c-0.56048,-1.4577 -2.73008,-2.18542 -4.4522,-2.54024c-8.69874,-1.78992 -14.72616,0.57178 -19.56934,2.46792l-0.7232,0.2825c-4.05444,1.57522 -45.63166,27.75958 -61.31154,37.71488l-0.61246,0.39098l-19.46312,-5.92346l-4.83188,3.28378c6.8591,6.56982 14.92278,13.17354 16.99746,13.17354c3.59114,0 28.0579,-8.1473 36.30916,-11.31808z" fill="#472b29"></path><path d="M126.90352,96.72348c1.52324,-0.2938 2.86342,-0.30962 4.17648,-0.25086" fill="#ef9922"></path><path d="M126.90352,97.29074c-0.26442,0 -0.50398,-0.18758 -0.5537,-0.45652c-0.05876,-0.30736 0.14012,-0.60342 0.44522,-0.66218c1.67918,-0.3277 3.12106,-0.31414 4.30982,-0.26216c0.31188,0.01582 0.55144,0.27798 0.53788,0.59212c-0.01356,0.31188 -0.27346,0.5537 -0.59212,0.53788c-1.12096,-0.05198 -2.48148,-0.06102 -4.04088,0.23956c-0.0339,0.00904 -0.07006,0.0113 -0.10622,0.0113z" fill="#472b29"></path><path d="M119.215,100.005c1.59104,-0.97858 2.99224,-1.69726 4.25558,-2.22384" fill="#ef9922"></path><path d="M119.215,100.57c-0.18984,0 -0.37516,-0.09492 -0.48138,-0.26894c-0.16272,-0.26442 -0.08136,-0.61246 0.18532,-0.77744c1.55262,-0.95598 2.96964,-1.695 4.33468,-2.26226c0.28476,-0.12204 0.61698,0.01356 0.73676,0.3051c0.12204,0.28702 -0.01582,0.61698 -0.3051,0.73676c-1.30854,0.54466 -2.67584,1.25882 -4.17648,2.18316c-0.0904,0.0565 -0.1921,0.08362 -0.2938,0.08362z" fill="#472b29"></path><path d="M107.49012,111.72988c0,0 4.77538,-5.60932 9.36996,-9.74738" fill="#ef9922"></path><path d="M107.49238,112.29488c-0.13108,0 -0.2599,-0.0452 -0.36612,-0.1356c-0.2373,-0.2034 -0.26668,-0.55822 -0.06328,-0.79778c0.04746,-0.05424 4.85222,-5.68616 9.42194,-9.79936c0.23278,-0.21018 0.58986,-0.18984 0.79778,0.04294c0.21018,0.23278 0.18984,0.58986 -0.04294,0.79778c-4.51322,4.06574 -9.26826,9.6389 -9.31572,9.69314c-0.113,0.12882 -0.27346,0.19888 -0.43166,0.19888zM138.47698,82.63464c-1.11586,0 -2.02044,0.90458 -2.02044,2.02044c0,1.11586 0.90458,2.02044 2.02044,2.02044c1.11586,0 2.02044,-0.90458 2.02044,-2.02044c0,-1.11586 -0.90458,-2.02044 -2.02044,-2.02044zM130.39522,86.67552c-1.11586,0 -2.02044,0.90458 -2.02044,2.02044c0,1.11586 0.90458,2.02044 2.02044,2.02044c1.11586,0 2.02044,-0.90458 2.02044,-2.02044c0,-1.11586 -0.90458,-2.02044 -2.02044,-2.02044z" fill="#472b29"></path><g fill="#472b29"><path d="M122.31346,90.7164c-1.11586,0 -2.02044,0.90458 -2.02044,2.02044c0,1.11586 0.90458,2.02044 2.02044,2.02044c1.11586,0 2.02044,-0.90458 2.02044,-2.02044c0,-1.11586 -0.90458,-2.02044 -2.02044,-2.02044z"></path></g><g fill="#472b29"><path d="M114.2317,94.75728c-1.11586,0 -2.02044,0.90458 -2.02044,2.02044c0,1.11586 0.90458,2.02044 2.02044,2.02044c1.11586,0 2.02044,-0.90458 2.02044,-2.02044c0,-1.11586 -0.90458,-2.02044 -2.02044,-2.02044z"></path></g><g fill="#472b29"><path d="M106.1522,98.79816c-1.11586,0 -2.02044,0.90458 -2.02044,2.02044c0,1.11586 0.90458,2.02044 2.02044,2.02044c1.11586,0 2.02044,-0.90458 2.02044,-2.02044c0,-1.11586 -0.90458,-2.02044 -2.02044,-2.02044z"></path></g><g fill="#472b29"><path d="M98.07044,102.83904c-1.11586,0 -2.02044,0.90458 -2.02044,2.02044c0,1.11586 0.90458,2.02044 2.02044,2.02044c1.11586,0 2.02044,-0.90458 2.02044,-2.02044c0,-1.11586 -0.90458,-2.02044 -2.02044,-2.02044z"></path></g><g><path d="M147.6006,75.91792c3.15044,-2.30294 5.31552,-4.82058 6.41388,-7.571" fill="#88cdd7"></path><path d="M147.60512,77.49992c-0.48816,0 -0.96954,-0.226 -1.27916,-0.64862c-0.51528,-0.70512 -0.3616,-1.695 0.34352,-2.21254c2.938,-2.147 4.91324,-4.4635 5.876,-6.87718c0.32544,-0.81134 1.24074,-1.21362 2.05434,-0.88592c0.81134,0.32318 1.20684,1.243 0.88592,2.05434c-1.18424,2.97642 -3.52334,5.75622 -6.94724,8.26256c-0.2825,0.20792 -0.61246,0.30736 -0.93338,0.30736z" fill="#472b29"></path></g></g><g fill="#472b29"><path d="M161.59,167.24h-61.02c-0.62376,0 -1.13,-0.50624 -1.13,-1.13c0,-0.62376 0.50624,-1.13 1.13,-1.13h61.02c0.62376,0 1.13,0.50624 1.13,1.13c0,0.62376 -0.50624,1.13 -1.13,1.13z"></path></g><g fill="#472b29"><path d="M93.79,167.24h-11.3c-0.62376,0 -1.13,-0.50624 -1.13,-1.13c0,-0.62376 0.50624,-1.13 1.13,-1.13h11.3c0.62376,0 1.13,0.50624 1.13,1.13c0,0.62376 -0.50624,1.13 -1.13,1.13z"></path></g><g fill="#472b29"><path d="M75.71,167.24h-6.78c-0.62376,0 -1.13,-0.50624 -1.13,-1.13c0,-0.62376 0.50624,-1.13 1.13,-1.13h6.78c0.62376,0 1.13,0.50624 1.13,1.13c0,0.62376 -0.50624,1.13 -1.13,1.13z"></path></g></g></g></svg>