<svg width="10" height="52" viewBox="0 0 10 52" fill="none" xmlns="http://www.w3.org/2000/svg">
<path d="M4.68 50.42C6.86705 50.42 8.64 48.647 8.64 46.46C8.64 44.273 6.86705 42.5 4.68 42.5C2.49295 42.5 0.720001 44.273 0.720001 46.46C0.720001 48.647 2.49295 50.42 4.68 50.42Z" fill="#FFD803"/>
<path d="M4.68 51.08C2.1324 51.08 0.0599976 49.0076 0.0599976 46.46C0.0599976 43.9124 2.1324 41.84 4.68 41.84C7.2276 41.84 9.3 43.9124 9.3 46.46C9.3 49.0076 7.2276 51.08 4.68 51.08ZM4.68 43.16C2.86038 43.16 1.38 44.6404 1.38 46.46C1.38 48.2796 2.86038 49.76 4.68 49.76C6.49962 49.76 7.98 48.2796 7.98 46.46C7.98 44.6404 6.49962 43.16 4.68 43.16Z" fill="#28293F"/>
<path d="M4.68001 48.44C4.25299 48.44 3.84181 48.3007 3.49135 48.0361C3.34615 47.9259 3.31711 47.7193 3.42667 47.5734C3.53689 47.4289 3.74281 47.3985 3.88933 47.5087C4.12363 47.6863 4.39753 47.78 4.68001 47.78C5.40799 47.78 6.00001 47.188 6.00001 46.46C6.00001 45.732 5.40799 45.14 4.68001 45.14C4.58959 45.14 4.50115 45.1486 4.41601 45.1664C4.23913 45.204 4.06291 45.0879 4.02661 44.909C3.98965 44.7301 4.10515 44.5559 4.28401 44.5196C4.41205 44.4932 4.54537 44.48 4.68001 44.48C5.77165 44.48 6.66001 45.3684 6.66001 46.46C6.66001 47.5516 5.77165 48.44 4.68001 48.44Z" fill="#28293F"/>
<path d="M3.06894 46.46C3.0465 46.46 3.0234 46.458 3.0003 46.4527C2.8221 46.4151 2.70792 46.2396 2.74554 46.0614C2.80692 45.7703 2.9277 45.5043 3.10458 45.2707C3.2148 45.1248 3.42072 45.0971 3.56724 45.2067C3.71244 45.3169 3.74148 45.5235 3.63126 45.6693C3.51312 45.8251 3.4326 46.0033 3.39102 46.1986C3.35868 46.3537 3.2214 46.46 3.06894 46.46Z" fill="#28293F"/>
<path d="M4.68001 1.58C2.85775 1.58 1.38 3.05774 1.38 4.88V33.26C1.38 35.0823 2.85775 36.56 4.68001 36.56C6.50227 36.56 7.98001 35.0823 7.98001 33.26V4.88C7.98001 3.05774 6.50227 1.58 4.68001 1.58Z" fill="#FFD803"/>
<path d="M4.68 37.22C2.49606 37.22 0.720001 35.4439 0.720001 33.26V4.88C0.720001 2.69606 2.49606 0.919998 4.68 0.919998C6.86394 0.919998 8.64 2.69606 8.64 4.88V33.26C8.64 35.4439 6.86394 37.22 4.68 37.22ZM4.68 2.24C3.22404 2.24 2.04 3.42404 2.04 4.88V33.26C2.04 34.716 3.22404 35.9 4.68 35.9C6.13596 35.9 7.32 34.716 7.32 33.26V4.88C7.32 3.4247 6.13596 2.24 4.68 2.24Z" fill="#28293F"/>
<path d="M5.67 32.6C5.48784 32.6 5.34 32.4522 5.34 32.27V13.79C5.34 13.6078 5.48784 13.46 5.67 13.46C5.85216 13.46 6 13.6078 6 13.79V32.27C6 32.4528 5.85216 32.6 5.67 32.6Z" fill="#28293F"/>
<path d="M5.67 11.48C5.48784 11.48 5.34 11.3322 5.34 11.15V7.85C5.34 7.66784 5.48784 7.52 5.67 7.52C5.85216 7.52 6 7.66784 6 7.85V11.15C6 11.3328 5.85216 11.48 5.67 11.48Z" fill="#28293F"/>
<path d="M5.67 6.86C5.48784 6.86 5.34 6.71216 5.34 6.53V5.87C5.34 5.68784 5.48784 5.54 5.67 5.54C5.85216 5.54 6 5.68784 6 5.87V6.53C6 6.71282 5.85216 6.86 5.67 6.86Z" fill="#28293F"/>
</svg>
