<?xml version="1.0" encoding="utf-8"?>
<!-- Generator: Adobe Illustrator 26.0.3, SVG Export Plug-In . SVG Version: 6.00 Build 0)  -->
<svg version="1.1" id="Слой_1" xmlns="http://www.w3.org/2000/svg" xmlns:xlink="http://www.w3.org/1999/xlink" x="0px" y="0px"
	 viewBox="0 0 171 171" style="enable-background:new 0 0 171 171;" xml:space="preserve">
<style type="text/css">
	.st0{fill:none;}
	.st1{fill:url(#SVGID_1_);}
	.st2{fill:url(#SVGID_00000139975783284671389790000001382347729672989883_);}
</style>
<g>
	<path class="st0" d="M0,172V0h172v172H0z"/>
	<g>
		
			<linearGradient id="SVGID_1_" gradientUnits="userSpaceOnUse" x1="103.3125" y1="144.2018" x2="103.3125" y2="41.6481" gradientTransform="matrix(1 0 0 -1 0 172)">
			<stop  offset="0" style="stop-color:#FFD803"/>
			<stop  offset="1" style="stop-color:#CEAE04"/>
		</linearGradient>
		<path class="st1" d="M75.9,135.1L36.7,95.9c-1.4-1.4-1.4-3.6,0-5l5-5c1.4-1.4,3.6-1.4,5,0l31.6,31.6l81.5-81.5
			c1.4-1.4,3.6-1.4,5,0l5,5c1.4,1.4,1.4,3.6,0,5l-89.1,89.1C79.5,136.5,77.2,136.5,75.9,135.1L75.9,135.1z"/>
		
			<linearGradient id="SVGID_00000085250934702503768690000015138886564541908356_" gradientUnits="userSpaceOnUse" x1="67.6875" y1="139.9589" x2="67.6875" y2="25.282" gradientTransform="matrix(1 0 0 -1 0 172)">
			<stop  offset="0" style="stop-color:#4D85D7"/>
			<stop  offset="1" style="stop-color:#083372"/>
		</linearGradient>
		<path style="fill:url(#SVGID_00000085250934702503768690000015138886564541908356_);" d="M40.2,135.1L1,95.9c-1.4-1.4-1.4-3.6,0-5
			l5-5c1.4-1.4,3.6-1.4,5,0l31.6,31.6l81.5-81.5c1.4-1.4,3.6-1.4,5,0l5,5c1.4,1.4,1.4,3.6,0,5l-89.1,89.1
			C43.9,136.5,41.6,136.5,40.2,135.1L40.2,135.1z"/>
	</g>
</g>
</svg>
