<?xml version="1.0" encoding="utf-8"?>
<!-- Generator: Adobe Illustrator 25.4.1, SVG Export Plug-In . SVG Version: 6.00 Build 0)  -->
<svg version="1.1" id="Слой_1" xmlns="http://www.w3.org/2000/svg" xmlns:xlink="http://www.w3.org/1999/xlink" x="0px" y="0px"
	 viewBox="0 0 14.3 14.3" style="enable-background:new 0 0 14.3 14.3;" xml:space="preserve">
<style type="text/css">
	.aroow-one{
    fill:#1956AF;
    animation: arrow 1s ease-in-out  infinite;
  }
	.aroow-two{
    fill:#1956AF;
    animation: arrow 1s ease-in-out 0.5s infinite;
  }
  @keyframes arrow{
    0%{fill:#1956AF;}
    50%{fill:#4D85D7;}
    10%{fill:#1956AF;}
  }
</style>
<path class="aroow-one" d="M6.4,6.6c0.4,0.4,1,0.4,1.4,0l0,0l3-3c0.4-0.4,0.4-1,0-1.4c-0.4-0.4-1-0.4-1.4,0L7.1,4.4L4.8,2.1
	c-0.4-0.4-1-0.4-1.4,0C3,2.5,3,3.1,3.4,3.5L6.4,6.6z"/>
<path class="aroow-two" d="M6.4,11.6c0.4,0.4,1,0.4,1.4,0l0,0l3-3c0.4-0.4,0.4-1,0-1.4c-0.4-0.4-1-0.4-1.4,0L7.1,9.5L4.8,7.1
	c-0.4-0.4-1-0.4-1.4,0C3,7.5,3,8.1,3.4,8.5L6.4,11.6z"/>
</svg>
