<svg version="1.1" xmlns="http://www.w3.org/2000/svg" xmlns:xlink="http://www.w3.org/1999/xlink" viewBox="0 0 226 226">
  <defs>
    <radialGradient cx="91.2475" cy="197.91479" r="211.39946" gradientUnits="userSpaceOnUse" id="color-inst1">
      <stop offset="0" stop-color="#ffdd55"></stop>
      <stop offset="0.328" stop-color="#ff543f"></stop>
      <stop offset="0.348" stop-color="#fc5245"></stop>
      <stop offset="0.504" stop-color="#e64771"></stop>
      <stop offset="0.643" stop-color="#d53e91"></stop>
      <stop offset="0.761" stop-color="#cc39a4"></stop>
      <stop offset="0.841" stop-color="#c837ab"></stop>
    </radialGradient>
    <radialGradient cx="55.49242" cy="26.08559" r="140.36954" gradientUnits="userSpaceOnUse" id="color-inst2">
      <stop offset="0" stop-color="#4168c9"></stop>
      <stop offset="0.999" stop-color="#4168c9" stop-opacity="0"></stop>
    </radialGradient>
  </defs>

    <g>
      <path
        d="M160.16338,197.70292l-94.16667,0.08946c-20.71667,0.01883 -37.68079,-16.91233 -37.70433,-37.629l-0.08946,-94.16667c-0.01883,-20.71667 16.91233,-37.68079 37.629,-37.70433l94.16667,-0.08946c20.71667,-0.01883 37.68079,16.91233 37.70433,37.629l0.08946,94.16667c0.02354,20.72137 -16.91233,37.6855 -37.629,37.70433z"
        fill="url(#color-inst1)"></path>
      <path
        d="M160.16338,197.70292l-94.16667,0.08946c-20.71667,0.01883 -37.68079,-16.91233 -37.70433,-37.629l-0.08946,-94.16667c-0.01883,-20.71667 16.91233,-37.68079 37.629,-37.70433l94.16667,-0.08946c20.71667,-0.01883 37.68079,16.91233 37.70433,37.629l0.08946,94.16667c0.02354,20.72137 -16.91233,37.6855 -37.629,37.70433z"
        fill="url(#color-inst2)"></path>
      <path
        d="M113,145.95833c-18.16946,0 -32.95833,-14.78417 -32.95833,-32.95833c0,-18.17417 14.78887,-32.95833 32.95833,-32.95833c18.16946,0 32.95833,14.78417 32.95833,32.95833c0,18.17417 -14.78887,32.95833 -32.95833,32.95833zM113,89.45833c-12.98088,0 -23.54167,10.56079 -23.54167,23.54167c0,12.98087 10.56079,23.54167 23.54167,23.54167c12.98087,0 23.54167,-10.56079 23.54167,-23.54167c0,-12.98088 -10.56079,-23.54167 -23.54167,-23.54167z"
        fill="#ffffff"></path>
      <circle cx="31.5" cy="16.5" transform="scale(4.70833,4.70833)" r="1.5" fill="#ffffff"></circle>
      <path
        d="M141.25,174.20833h-56.5c-18.16946,0 -32.95833,-14.78417 -32.95833,-32.95833v-56.5c0,-18.17417 14.78887,-32.95833 32.95833,-32.95833h56.5c18.16946,0 32.95833,14.78417 32.95833,32.95833v56.5c0,18.17417 -14.78887,32.95833 -32.95833,32.95833zM84.75,61.20833c-12.98087,0 -23.54167,10.56079 -23.54167,23.54167v56.5c0,12.98087 10.56079,23.54167 23.54167,23.54167h56.5c12.98087,0 23.54167,-10.56079 23.54167,-23.54167v-56.5c0,-12.98087 -10.56079,-23.54167 -23.54167,-23.54167z"
        fill="#ffffff"></path>
    </g>
  </g>
</svg>
