<svg version="1.1" xmlns="http://www.w3.org/2000/svg" xmlns:xlink="http://www.w3.org/1999/xlink" viewBox="0 0 172 172">
  <defs>
    <linearGradient x1="65.17367" y1="21.50358" x2="105.51483" y2="146.43292" gradientUnits="userSpaceOnUse"
      id="color-vk">
      <stop offset="0" stop-color="#33bef0"></stop>
      <stop offset="1" stop-color="#0a85d9"></stop>
    </linearGradient>
  </defs>

    <g>
      <path
        d="M143.33333,21.5h-114.66667c-3.95958,0 -7.16667,3.20708 -7.16667,7.16667v114.66667c0,3.95958 3.20708,7.16667 7.16667,7.16667h114.66667c3.95958,0 7.16667,-3.20708 7.16667,-7.16667v-114.66667c0,-3.95958 -3.20708,-7.16667 -7.16667,-7.16667z"
        fill="url(#color-vk)"></path>
      <path
        d="M132.35758,61.06358c0.16483,-0.54108 0.24367,-1.04275 0.22217,-1.49067c-0.05375,-1.29717 -0.946,-2.23958 -3.04583,-2.23958h-14.88517c-2.36858,0 -3.4615,1.43333 -4.09933,2.87025c0,0 -6.16333,13.201 -7.60383,15.94225c-2.18583,2.29692 -3.60125,4.87692 -4.78375,4.87692c-0.63425,0 -1.41183,0.62708 -1.41183,-1.47633v-18.57958c0,-2.48683 -0.61992,-3.6335 -2.623,-3.6335h-23.82558c-1.45842,0 -2.21808,1.14667 -2.21808,2.29692c0,2.39008 3.21783,10.13008 3.58333,16.82733v3.20708c0,2.279 0.36192,4.44333 -0.49092,4.44333c-1.03917,0 -4.67267,-8.03383 -7.74358,-22.94767c-0.91017,-2.7735 -1.82033,-3.827 -4.18892,-3.827h-16.63742c-2.73408,0 -3.18917,1.34017 -3.18917,2.7735c0,5.77633 3.02433,22.54633 14.75975,38.60683c8.51042,11.64583 22.43167,19.53633 32.3575,19.53633c4.43258,0 10.2125,-0.07167 10.2125,-6.73667c0,-6.665 -0.07167,-10.15875 0.58767,-10.15875c0.85283,0 1.25417,0.39058 6.62917,6.66142c6.20275,7.22758 7.7185,10.234 11.27317,10.234h13.8675c2.17867,0 3.42925,-0.91375 3.47942,-2.6875c0,-4.56875 -1.34017,-7.21325 -8.0625,-17.06742c-2.20375,-2.66242 -6.27083,-7.15233 -6.27083,-8.95833c0,-2.03175 11.42725,-17.47233 14.10758,-28.47317z"
        fill="#000000" opacity="0.05"></path>
      <path
        d="M130.56592,62.85525c0.16483,-0.54108 0.24367,-1.04275 0.22217,-1.49067c-0.05375,-1.29717 -0.946,-2.23958 -3.04583,-2.23958h-12.13317c-2.36858,0 -3.4615,1.43333 -4.09933,2.87025c0,0 -6.00567,12.6205 -10.09783,17.95967c-2.18583,2.29692 -3.44717,3.55825 -4.62967,3.55825c-0.63425,0 -1.82392,-0.06808 -1.82392,-2.1715v-18.57958c0,-2.48683 -0.61992,-3.6335 -2.623,-3.6335h-20.24225c-1.45842,0 -2.21808,1.14667 -2.21808,2.29692c0,2.39008 3.21783,6.54675 3.58333,13.244v8.09475c0,2.71617 -0.09317,4.085 -1.11083,4.085c-2.11417,0 -7.06992,-9.39192 -10.707,-23.89367c-0.91017,-2.7735 -1.82033,-3.827 -4.18892,-3.827h-13.05408c-2.73408,0 -3.18917,1.34017 -3.18917,2.7735c0,4.18175 2.58717,19.54708 14.32258,35.60758c8.51042,11.64583 21.07717,18.95225 31.003,18.95225c5.22092,0 8.42083,-0.79192 8.42083,-5.32842v-7.81883c0.00358,-2.87025 0.29383,-4.26058 1.58025,-4.26058c1.11083,0 2.70183,0.64142 8.07683,6.91225c6.19917,7.23117 7.52142,10.492 11.07608,10.492h11.62433c2.17867,0 3.42925,-0.91375 3.47942,-2.6875c0,-3.53317 -2.46175,-8.01233 -8.0625,-15.25425c-2.20375,-2.66242 -6.27083,-6.90508 -6.27083,-8.95833c0,-2.05325 10.19458,-14.09325 14.10758,-26.703z"
        fill="#000000" opacity="0.07"></path>
      <path
        d="M128.77425,64.64692c0.16483,-0.54108 0.24367,-1.04275 0.22217,-1.49067c-0.05375,-1.29717 -0.946,-2.23958 -3.04583,-2.23958h-9.38117c-2.36858,0 -3.4615,1.43333 -4.09933,2.87025c0,0 -5.848,12.03642 -12.58825,19.9735c-2.18583,2.29692 -3.29667,2.23958 -4.47917,2.23958c-0.63425,0 -2.236,-0.76683 -2.236,-2.87025v-18.57958c0,-2.48683 -0.61992,-3.6335 -2.623,-3.6335h-16.65892c-1.45842,0 -2.21808,1.14667 -2.21808,2.29692c0,2.39008 3.21783,2.96342 3.58333,9.66067v12.98242c0,3.15333 -0.54825,3.72667 -1.73075,3.72667c-3.18917,0 -9.46717,-10.75 -13.67042,-24.83967c-0.91017,-2.7735 -1.82033,-3.827 -4.18892,-3.827h-9.47075c-2.73408,0 -3.18917,1.34017 -3.18917,2.7735c0,2.58358 2.15,16.55142 13.88542,32.61192c8.51042,11.64583 19.72267,18.36458 29.6485,18.36458c6.01283,0 6.62917,-1.53008 6.62917,-3.92017v-10.64967c0.00358,-2.87025 0.65933,-3.34683 2.57283,-3.34683c1.36525,0 4.1495,0.89583 9.5245,7.16667c6.19917,7.23117 7.32433,10.75 10.879,10.75h9.38117c2.17867,0 3.42925,-0.91375 3.47942,-2.6875c0.01075,-0.4515 -0.05375,-0.95675 -0.20067,-1.51933c-0.69517,-2.064 -3.88433,-7.10933 -7.86183,-11.91817c-2.20375,-2.66242 -4.37883,-5.29975 -5.37858,-6.73308c-0.67008,-0.93525 -0.9245,-1.59458 -0.89225,-2.22525c0.03225,-0.66292 0.37625,-1.29358 0.89225,-2.17508c-0.09317,0 12.03283,-17.02442 13.21533,-22.76133z"
        fill="#ffffff"></path>
    </g>
  </g>
</svg>
