<svg version="1.1" xmlns="http://www.w3.org/2000/svg" xmlns:xlink="http://www.w3.org/1999/xlink" viewBox="0 0 226 226">
  <defs>
    <linearGradient x1="46.41475" y1="46.41475" x2="179.58525" y2="179.58525" gradientUnits="userSpaceOnUse"
      id="color-telegram">
      <stop offset="0" stop-color="#33bef0"></stop>
      <stop offset="1" stop-color="#0a85d9"></stop>
    </linearGradient>
  </defs>

    <g>
      <path
        d="M207.16667,113c0,52.00354 -42.16312,94.16667 -94.16667,94.16667c-52.00354,0 -94.16667,-42.16312 -94.16667,-94.16667c0,-52.00354 42.16312,-94.16667 94.16667,-94.16667c52.00354,0 94.16667,42.16312 94.16667,94.16667z"
        fill="url(#color-telegram)"></path>
      <path
        d="M47.64362,110.48575c38.39646,-17.39729 83.49288,-36.273 90.43767,-39.00383c15.3115,-6.02196 21.98792,0.13183 20.94267,9.94871c-1.28538,12.02979 -7.37796,47.03625 -11.12579,72.11754c-2.19408,14.67587 -10.14175,19.17233 -19.11112,13.47996c-6.80354,-4.31754 -30.19454,-19.63375 -36.34833,-24.86942c-4.19513,-3.56892 -7.119,-7.571 -4.14333,-11.64842c0.87104,-1.19121 3.09808,-3.59246 4.33638,-4.78837c6.21029,-6.01725 5.37221,-7.31204 -2.13758,-1.93983c-0.89458,0.64033 -6.08317,4.40229 -8.21604,5.82421c-5.22625,3.48417 -10.03346,3.6725 -18.18358,0.904c-6.667,-2.26471 -13.07033,-4.0115 -17.11008,-5.75829c-5.57937,-2.41538 -7.71696,-10.47133 0.65917,-14.26625z"
        fill="#000000" opacity="0.05"></path>
      <path
        d="M51.0195,111.07429c35.6515,-15.93771 79.4955,-34.20133 85.90825,-36.78621c15.368,-6.20558 21.02271,-2.52367 19.37008,9.46846c-1.53492,11.10225 -6.98246,45.45425 -10.80092,68.48271c-2.25058,13.55529 -8.82342,16.54037 -17.38317,11.00338c-5.36279,-3.45592 -26.94579,-17.67508 -32.18146,-21.81371c-4.04917,-3.19696 -8.24429,-6.88829 -3.34292,-12.23225c1.6385,-1.78446 10.68792,-10.51842 17.45379,-17.01592c3.92204,-3.77137 2.52367,-5.63117 -2.20821,-2.39183c-8.67746,5.94663 -22.87308,15.35858 -25.40617,17.06771c-4.82604,3.24875 -9.36017,4.03033 -17.25133,1.54904c-6.21971,-1.95867 -12.22754,-3.85612 -15.35858,-5.07558c-6.99658,-2.712 -7.09075,-8.55033 1.20063,-12.25579z"
        fill="#000000" opacity="0.07"></path>
      <path
        d="M54.39538,111.66754c32.91125,-14.47812 75.49812,-32.12967 81.37883,-34.57329c15.41979,-6.39392 20.15167,-5.16975 17.79279,8.99292c-1.695,10.17942 -6.58225,43.87696 -10.48075,64.85258c-2.31179,12.43942 -7.50038,13.91312 -15.65521,8.5315c-3.92204,-2.58958 -23.72058,-15.68346 -28.01929,-18.758c-3.92204,-2.80146 -9.33192,-6.17262 -2.54721,-12.81137c2.41537,-2.36358 18.24008,-17.47733 30.57121,-29.23875c1.61496,-1.54433 -0.41433,-4.08213 -2.27883,-2.84383c-16.62042,11.02221 -39.663,26.31958 -42.59629,28.31121c-4.43054,3.00862 -8.68688,4.38817 -16.32379,2.19408c-5.77242,-1.65733 -11.40829,-3.63483 -13.60237,-4.38817c-8.45146,-2.90033 -6.44571,-6.65758 1.76092,-10.26888z"
        fill="#ffffff"></path>
    </g>
  </g>
</svg>
