<svg version="1.1" xmlns="http://www.w3.org/2000/svg" xmlns:xlink="http://www.w3.org/1999/xlink" viewBox="0 0 226 226">
  <defs>
    <linearGradient x1="31.63058" y1="60.27138" x2="165.24837" y2="193.88917" gradientUnits="userSpaceOnUse"
      id="color-1">
      <stop offset="0" stop-color="#ffffff"></stop>
      <stop offset="0.391" stop-color="#ffffff"></stop>
      <stop offset="1" stop-color="#ffffff"></stop>
    </linearGradient>
    <linearGradient x1="72.45654" y1="50.50158" x2="135.89663" y2="184.87271" gradientUnits="userSpaceOnUse"
      id="color-2">
      <stop offset="0" stop-color="#2ecc75"></stop>
      <stop offset="1" stop-color="#0b964a"></stop>
    </linearGradient>
    <linearGradient x1="31.63058" y1="60.27138" x2="165.24837" y2="193.88917" gradientUnits="userSpaceOnUse"
      id="color-3">
      <stop offset="0" stop-color="#ffffff"></stop>
      <stop offset="0.391" stop-color="#ffffff"></stop>
      <stop offset="1" stop-color="#ffffff"></stop>
    </linearGradient>
    <linearGradient x1="72.45654" y1="50.50158" x2="135.89663" y2="184.87271" gradientUnits="userSpaceOnUse"
      id="color-4">
      <stop offset="0" stop-color="#2ecc75"></stop>
      <stop offset="1" stop-color="#0b964a"></stop>
    </linearGradient>
  </defs>

      <g stroke="#1956af" stroke-width="8" stroke-linejoin="round">
        <path
          d="M205.73533,112.97646c-0.02354,51.87171 -42.23846,94.0725 -94.14312,94.0725c-15.06196,-0.00471 -29.98737,-3.65367 -43.30254,-10.5655l-45.60962,11.95917c-0.3955,0.10358 -0.79571,0.15537 -1.19592,0.15537c-1.243,0 -2.45304,-0.49437 -3.34763,-1.39837c-1.1865,-1.19592 -1.6385,-2.92858 -1.19592,-4.55296l12.17104,-44.44196c-7.58983,-13.82837 -11.59192,-29.45062 -11.58721,-45.30358c0.02354,-51.87171 42.23846,-94.06779 94.10546,-94.06779c25.15663,0.00942 48.79717,9.80746 66.57113,27.59083c17.76454,17.77867 27.54375,41.4145 27.53433,66.55229z"
          fill="url(#color-1)" fill-rule="nonzero"></path>
        <path
          d="M185.92738,112.96704c-0.01413,40.95779 -33.34442,74.27867 -74.2975,74.27867h-0.02825c-13.334,-0.00471 -26.41375,-3.58304 -37.81733,-10.35362l-2.71671,-1.61025l-28.12287,7.37325l7.50979,-27.40721l-1.77033,-2.81088c-7.43917,-11.83204 -11.36592,-25.49563 -11.36121,-39.53117c0.01883,-40.95308 33.34912,-74.26925 74.33046,-74.26925c19.85033,0.00471 38.50004,7.7405 52.53087,21.78075c14.03083,14.04025 21.74779,32.70408 21.74308,52.54971z"
          fill="url(#color-2)" fill-rule="nonzero"></path>
        <path
          d="M136.03787,159.51362c-4.68479,0 -11.08342,-1.19592 -23.95129,-6.26679c-14.4075,-5.68767 -28.56075,-18.03292 -39.85133,-34.76633l-0.36254,-0.53204c-3.02275,-4.03504 -10.03817,-14.62879 -10.03817,-25.89583c0,-12.1475 6.06433,-18.61204 8.65392,-21.37583l0.40021,-0.42846c3.57362,-3.91262 7.78287,-4.33167 9.42608,-4.33167c1.73738,0.01883 3.21108,0 4.48704,0.0565c3.07925,0.12242 6.58696,1.01229 9.11533,6.63404c1.17708,2.62725 3.18283,7.55687 4.75071,11.42242c1.00288,2.48129 1.81742,4.49646 2.06696,5.03321c1.38425,2.75908 1.45017,5.49463 0.1695,8.07008l-0.30604,0.62621c-0.60267,1.23358 -1.22888,2.50954 -2.56133,4.06329l-1.10646,1.32775c-0.76275,0.92754 -1.53021,1.85037 -2.21292,2.56604c1.83154,3.01804 5.67825,8.73867 10.97513,13.46583c6.56342,5.84304 12.18517,8.28667 15.20321,9.60029c0.59796,0.25896 1.09704,0.48025 1.49254,0.66858c1.90687,-2.21292 5.04733,-5.98429 6.13025,-7.59925c3.62542,-5.44283 8.83754,-3.55479 10.54667,-2.92858c2.67904,0.96992 15.64579,7.42033 15.77292,7.48154l1.20063,0.58854c1.97279,0.95579 3.82788,1.85508 5.00025,3.80433c1.85979,3.11221 0.82867,9.76038 -0.90871,14.61937c-2.51425,7.07663 -13.31517,13.20687 -19.08758,13.72479l-1.06408,0.113c-1.24771,0.14596 -2.51425,0.25896 -3.94088,0.25896zM81.05867,75.33333c-0.65917,0 -1.81271,-0.27308 -3.22992,1.27125l-0.47554,0.51321c-2.13287,2.27413 -6.10671,6.51162 -6.10671,14.93483c0,8.67746 6.24325,17.68921 8.15483,20.24583c0.12713,0.1695 0.33429,0.47554 0.63563,0.91342c10.24062,15.17496 22.84954,26.28192 35.50554,31.27275c15.933,6.28562 20.02454,5.81008 23.3345,5.41929l1.30892,-0.14125c2.86738,-0.25896 9.99108,-4.47763 11.06929,-7.50508c0.98404,-2.75438 1.2995,-5.11796 1.35129,-6.46925c-0.20717,-0.09887 -0.43317,-0.20246 -0.67329,-0.31546l-1.33246,-0.65446c-2.99921,-1.50667 -13.08446,-6.43158 -14.74179,-7.03896c-2.08108,2.86267 -5.94192,7.36854 -6.96362,8.54092c-1.91629,2.19879 -5.30629,4.27988 -10.49488,1.66675c-0.31075,-0.15538 -0.7345,-0.33429 -1.26183,-0.565c-3.25346,-1.41721 -10.02875,-4.35992 -17.71746,-11.20583c-6.91654,-6.17262 -11.64842,-13.673 -13.36225,-16.61571c-2.09521,-3.58304 -1.51608,-7.03896 1.72325,-10.26417c0.565,-0.565 1.21004,-1.37013 1.86921,-2.16583l1.23358,-1.47842c0.55558,-0.64504 0.75804,-1.06408 1.25713,-2.07637l0.16479,-0.33429c-0.43317,-0.9605 -1.30892,-3.10279 -2.36358,-5.71121c-1.52079,-3.75254 -3.46533,-8.54563 -4.60946,-11.09754c-0.30604,-0.678 -0.53675,-1.01229 -0.64975,-1.15354c0.02354,0.07062 -0.13654,0.07533 -0.27308,0.06592c-1.04525,-0.05179 -2.18937,-0.05179 -3.35233,-0.05179z"
          fill="#000000" fill-rule="nonzero" opacity="0.05"></path>
        <path
          d="M136.01904,157.183c-3.98325,0 -10.14646,-1.03583 -23.06612,-6.13025c-13.96962,-5.50875 -27.73679,-17.54796 -38.76371,-33.89058l-0.40962,-0.60267c-2.90033,-3.87025 -9.59087,-13.94608 -9.59087,-24.51158c0,-11.21525 5.61704,-17.20425 8.01829,-19.76558l0.41904,-0.452c2.94271,-3.21579 6.36096,-3.5595 7.69342,-3.5595c1.77504,0.01413 3.14046,0 4.38346,0.0565c2.3165,0.09417 4.97671,0.58383 7.07192,5.24508c1.17237,2.60842 3.15929,7.50508 4.71304,11.34237c1.05938,2.61312 1.90687,4.71775 2.12817,5.16504c0.38608,0.77687 1.59142,3.17342 0.18363,6.00312l-0.31546,0.64033c-0.58854,1.20063 -1.09704,2.24117 -2.23646,3.56892l-1.13942,1.36071c-0.81454,0.98875 -1.62908,1.97279 -2.33533,2.67904c-1.017,1.01229 -1.017,1.01229 -0.61208,1.70442c1.54433,2.65079 5.80067,9.40725 11.96388,14.90188c6.84121,6.09729 12.69367,8.63508 15.83413,10.0005c0.678,0.29192 1.21946,0.53204 1.61967,0.7345c1.37954,0.68742 1.52079,0.54617 2.01046,-0.00942c1.356,-1.54433 5.49933,-6.42217 6.88829,-8.50796c2.60842,-3.90792 5.97487,-2.68375 7.78758,-2.02929c2.38242,0.86633 14.30863,6.76588 15.51867,7.37325l1.23358,0.60267c1.78917,0.86633 3.20167,1.54904 4.0115,2.89092c1.19592,2.00575 0.70154,7.54746 -1.10646,12.62304c-2.29767,6.45513 -12.45825,11.75671 -17.08183,12.17104l-1.12529,0.12242c-1.09704,0.13183 -2.25058,0.27308 -3.69604,0.27308zM80.98804,72.97917c-0.12242,0 -0.24483,0 -0.36725,0c-0.86162,0 -2.80146,0.14596 -4.52942,2.034l-0.45671,0.48967c-2.18937,2.33533 -6.74233,7.19433 -6.74233,16.54508c0,9.14829 6.03137,18.193 8.62567,21.65833c0.11771,0.15538 0.30133,0.42375 0.56971,0.81925c10.50429,15.56575 23.49929,26.97875 36.59317,32.1485c16.50271,6.50692 20.92854,5.98429 24.46921,5.56996l1.25712,-0.13654c3.26288,-0.29192 11.54013,-4.76954 13.07033,-9.06354c1.56711,-4.38602 1.63373,-8.04767 1.39402,-8.83639c-0.02257,0.00306 -1.11272,-0.4723 -1.90723,-0.85807l-1.2995,-0.64033c-2.93329,-1.47371 -13.21158,-6.50221 -15.01017,-7.15667c-1.695,-0.61208 -1.69971,-0.62621 -2.26,0.21658c-1.64321,2.45304 -6.215,7.80171 -7.26025,8.99292c-3.02275,3.46062 -6.51633,1.69029 -7.66988,1.11117c-0.339,-0.1695 -0.80512,-0.36725 -1.37954,-0.61679c-3.14517,-1.37013 -9.68504,-4.21396 -17.09125,-10.81033c-6.667,-5.94192 -11.23879,-13.19746 -12.89612,-16.04129c-2.24117,-3.83258 0.27779,-6.34213 1.35129,-7.41092c0.61208,-0.61208 1.31833,-1.47371 2.02929,-2.34004l1.20062,-1.44075c0.74863,-0.87575 1.06408,-1.51608 1.582,-2.57546l0.32958,-0.67329c0.23071,-0.46142 0.27308,-0.88988 -0.18833,-1.80329c-0.24483,-0.48967 -1.15354,-2.72142 -2.27412,-5.49463c-1.53492,-3.78079 -3.48888,-8.61154 -4.64713,-11.17758c-1.07821,-2.39654 -1.70913,-2.42479 -2.97567,-2.47188c-1.08762,-0.03767 -2.29296,-0.03767 -3.51712,-0.03767z"
          fill="#000000" fill-rule="nonzero" opacity="0.07"></path>
        <path
          d="M96.502,91.12037c0.56029,1.11587 0.93225,2.42008 0.18833,3.91263c-0.74392,1.48783 -1.11588,2.42008 -2.23175,3.72429c-1.12058,1.30421 -2.34946,2.90975 -3.35233,3.91263c-1.12058,1.11587 -2.28354,2.32592 -0.97933,4.55767c1.30421,2.23646 5.78654,9.5485 12.42529,15.46688c8.53621,7.60867 15.73054,9.96283 17.96229,11.08342c2.23175,1.12058 3.53596,0.93225 4.84017,-0.56029c1.30421,-1.48783 5.58408,-6.52104 7.07192,-8.75279c1.49254,-2.23646 2.98038,-1.8645 5.0285,-1.12058c2.04812,0.74392 13.03267,6.14437 15.26442,7.26496c2.23175,1.12058 3.71958,1.67617 4.27988,2.60842c0.55558,0.93225 0.55558,5.40046 -1.30421,10.61729c-1.85979,5.21683 -10.97983,10.24533 -15.07608,10.61729c-4.09625,0.37196 -7.93825,1.85037 -26.80454,-5.58879c-22.70358,-8.95525 -37.04046,-32.22854 -38.15633,-33.71637c-1.11588,-1.48783 -9.12004,-12.10983 -9.12004,-23.09908c0,-10.98925 5.77242,-16.38971 7.82054,-18.62617c2.04813,-2.23646 4.46821,-2.79675 5.95604,-2.79675c1.48783,0 2.97567,-0.00471 4.27988,0.05179c1.59613,0.06592 3.35704,0.14125 5.0285,3.86083c1.98692,4.41642 6.328,15.46217 6.87887,16.58275z"
          fill="#ffffff" fill-rule="evenodd"></path>
      </g>
      <path d="M0,226v-226h226v226z" fill="none" fill-rule="nonzero" stroke="none" stroke-width="1"
        stroke-linejoin="miter"></path>
      <g stroke="none" stroke-width="1" stroke-linejoin="miter">
        <path
          d="M178.201,46.42417c-17.77396,-17.78337 -41.4145,-27.58142 -66.57113,-27.59083c-51.867,0 -94.08192,42.19608 -94.10546,94.06779c-0.00471,15.85296 3.99737,31.47521 11.58721,45.30358l-12.17104,44.44196c-0.44258,1.62437 0.00942,3.35704 1.19592,4.55296c0.89458,0.904 2.10462,1.39837 3.34763,1.39837c0.40021,0 0.80042,-0.05179 1.19592,-0.15537l45.60962,-11.95917c13.31517,6.91183 28.24058,10.56079 43.30254,10.5655c51.90467,0 94.11958,-42.20079 94.14312,-94.0725c0.00942,-25.13779 -9.76979,-48.77362 -27.53433,-66.55229z"
          fill="url(#color-3)" fill-rule="nonzero"></path>
        <path
          d="M164.18429,60.41733c-14.03083,-14.04025 -32.68054,-21.77604 -52.53087,-21.78075c-40.98133,0 -74.31162,33.31617 -74.33046,74.26925c-0.00471,14.03554 3.92204,27.69913 11.36121,39.53117l1.77033,2.81088l-7.50979,27.40721l28.12288,-7.37325l2.71671,1.61025c11.40358,6.77058 24.48333,10.34892 37.81733,10.35362h0.02825c40.95308,0 74.28337,-33.32087 74.2975,-74.27867c0.00471,-19.84562 -7.71225,-38.50946 -21.74308,-52.54971z"
          fill="url(#color-4)" fill-rule="nonzero"></path>
        <path
          d="M136.03787,159.51362c-4.68479,0 -11.08342,-1.19592 -23.95129,-6.26679c-14.4075,-5.68767 -28.56075,-18.03292 -39.85133,-34.76633l-0.36254,-0.53204c-3.02275,-4.03504 -10.03817,-14.62879 -10.03817,-25.89583c0,-12.1475 6.06433,-18.61204 8.65392,-21.37583l0.40021,-0.42846c3.57362,-3.91262 7.78287,-4.33167 9.42608,-4.33167c1.73738,0.01883 3.21108,0 4.48704,0.0565c3.07925,0.12242 6.58696,1.01229 9.11533,6.63404v0c1.17708,2.62725 3.18283,7.55687 4.75071,11.42242c1.00288,2.48129 1.81742,4.49646 2.06696,5.03321c1.38425,2.75908 1.45017,5.49463 0.1695,8.07008l-0.30604,0.62621c-0.60267,1.23358 -1.22888,2.50954 -2.56133,4.06329l-1.10646,1.32775c-0.76275,0.92754 -1.53021,1.85037 -2.21292,2.56604c1.83154,3.01804 5.67825,8.73867 10.97513,13.46583c6.56342,5.84304 12.18517,8.28667 15.20321,9.60029c0.59796,0.25896 1.09704,0.48025 1.49254,0.66858c1.90687,-2.21292 5.04733,-5.98429 6.13025,-7.59925c3.62542,-5.44283 8.83754,-3.55479 10.54667,-2.92858c2.67904,0.96992 15.64579,7.42033 15.77292,7.48154l1.20063,0.58854c1.97279,0.95579 3.82788,1.85508 5.00025,3.80433c1.85979,3.11221 0.82867,9.76038 -0.90871,14.61937c-2.51425,7.07663 -13.31517,13.20687 -19.08758,13.72479l-1.06408,0.113c-1.24771,0.14596 -2.51425,0.25896 -3.94088,0.25896zM81.05867,75.33333c-0.65917,0 -1.81271,-0.27308 -3.22992,1.27125l-0.47554,0.51321c-2.13287,2.27413 -6.10671,6.51162 -6.10671,14.93483c0,8.67746 6.24325,17.68921 8.15483,20.24583c0.12713,0.1695 0.33429,0.47554 0.63563,0.91342c10.24062,15.17496 22.84954,26.28192 35.50554,31.27275c15.933,6.28562 20.02454,5.81008 23.3345,5.41929l1.30892,-0.14125c2.86738,-0.25896 9.99108,-4.47763 11.06929,-7.50508c0.98404,-2.75438 1.2995,-5.11796 1.35129,-6.46925c-0.20717,-0.09887 -0.43317,-0.20246 -0.67329,-0.31546l-1.33246,-0.65446c-2.99921,-1.50667 -13.08446,-6.43158 -14.74179,-7.03896c-2.08108,2.86267 -5.94192,7.36854 -6.96362,8.54092c-1.91629,2.19879 -5.30629,4.27988 -10.49488,1.66675c-0.31075,-0.15538 -0.7345,-0.33429 -1.26183,-0.565c-3.25346,-1.41721 -10.02875,-4.35992 -17.71746,-11.20583c-6.91654,-6.17262 -11.64842,-13.673 -13.36225,-16.61571c-2.09521,-3.58304 -1.51608,-7.03896 1.72325,-10.26417c0.565,-0.565 1.21004,-1.37013 1.86921,-2.16583l1.23358,-1.47842c0.55558,-0.64504 0.75804,-1.06408 1.25713,-2.07637l0.16479,-0.33429c-0.43317,-0.9605 -1.30892,-3.10279 -2.36358,-5.71121c-1.52079,-3.75254 -3.46533,-8.54563 -4.60946,-11.09754v0c-0.30604,-0.678 -0.53675,-1.01229 -0.64975,-1.15354c0.02354,0.07062 -0.13654,0.07533 -0.27308,0.06592c-1.04525,-0.05179 -2.18937,-0.05179 -3.35233,-0.05179zM152.58296,134.72896v0zM92.48108,92.92367v0z"
          fill="#000000" fill-rule="nonzero" opacity="0.05"></path>
        <path
          d="M136.01904,157.183c-3.98325,0 -10.14646,-1.03583 -23.06612,-6.13025c-13.96962,-5.50875 -27.73679,-17.54796 -38.76371,-33.89058l-0.40962,-0.60267c-2.90033,-3.87025 -9.59087,-13.94608 -9.59087,-24.51158c0,-11.21525 5.61704,-17.20425 8.01829,-19.76558l0.41904,-0.452c2.94271,-3.21579 6.36096,-3.5595 7.69342,-3.5595c1.77504,0.01413 3.14046,0 4.38346,0.0565c2.3165,0.09417 4.97671,0.58383 7.07192,5.24508v0c1.17237,2.60842 3.15929,7.50508 4.71304,11.34237c1.05938,2.61312 1.90687,4.71775 2.12817,5.16504c0.38608,0.77687 1.59142,3.17342 0.18363,6.00312l-0.31546,0.64033c-0.58854,1.20063 -1.09704,2.24117 -2.23646,3.56892l-1.13942,1.36071c-0.81454,0.98875 -1.62908,1.97279 -2.33533,2.67904c-1.017,1.01229 -1.017,1.01229 -0.61208,1.70442c1.54433,2.65079 5.80067,9.40725 11.96388,14.90188c6.84121,6.09729 12.69367,8.63508 15.83413,10.0005c0.678,0.29192 1.21946,0.53204 1.61967,0.7345c1.37954,0.68742 1.52079,0.54617 2.01046,-0.00942c1.356,-1.54433 5.49933,-6.42217 6.88829,-8.50796c2.60842,-3.90792 5.97487,-2.68375 7.78758,-2.02929c2.38242,0.86633 14.30863,6.76588 15.51867,7.37325l1.23358,0.60267c1.78917,0.86633 3.20167,1.54904 4.0115,2.89092c1.19592,2.00575 0.70154,7.54746 -1.10646,12.62304c-2.29767,6.45513 -12.45825,11.75671 -17.08183,12.17104l-1.12529,0.12242c-1.09704,0.13183 -2.25058,0.27308 -3.69604,0.27308zM80.98804,72.97917c-0.12242,0 -0.24483,0 -0.36725,0c-0.86162,0 -2.80146,0.14596 -4.52942,2.034l-0.45671,0.48967c-2.18937,2.33533 -6.74233,7.19433 -6.74233,16.54508c0,9.14829 6.03137,18.193 8.62567,21.65833c0.11771,0.15538 0.30133,0.42375 0.56971,0.81925c10.50429,15.56575 23.49929,26.97875 36.59317,32.1485c16.50271,6.50692 20.92854,5.98429 24.46921,5.56996l1.25712,-0.13654c3.26288,-0.29192 11.54013,-4.76954 13.07033,-9.06354c1.56787,-4.38817 1.63379,-8.05125 1.39367,-8.83754c0.03296,0.02825 -1.09233,-0.46142 -1.90688,-0.85692l-1.2995,-0.64033c-2.93329,-1.47371 -13.21158,-6.50221 -15.01017,-7.15667c-1.695,-0.61208 -1.69971,-0.62621 -2.26,0.21658c-1.64321,2.45304 -6.215,7.80171 -7.26025,8.99292c-3.02275,3.46062 -6.51633,1.69029 -7.66988,1.11117c-0.339,-0.1695 -0.80512,-0.36725 -1.37954,-0.61679c-3.14517,-1.37013 -9.68504,-4.21396 -17.09125,-10.81033c-6.667,-5.94192 -11.23879,-13.19746 -12.89612,-16.04129c-2.24117,-3.83258 0.27779,-6.34213 1.35129,-7.41092c0.61208,-0.61208 1.31833,-1.47371 2.02929,-2.34004l1.20062,-1.44075c0.74863,-0.87575 1.06408,-1.51608 1.582,-2.57546l0.32958,-0.67329c0.23071,-0.46142 0.27308,-0.88988 -0.18833,-1.80329c-0.24483,-0.48967 -1.15354,-2.72142 -2.27412,-5.49463c-1.53492,-3.78079 -3.48888,-8.61154 -4.64713,-11.17758v0c-1.07821,-2.39654 -1.70913,-2.42479 -2.97567,-2.47188c-1.08762,-0.03767 -2.29296,-0.03767 -3.51712,-0.03767z"
          fill="#000000" fill-rule="nonzero" opacity="0.07"></path>
        <path
          d="M89.62313,74.53762c-1.67146,-3.71958 -3.43238,-3.79492 -5.0285,-3.86083c-1.30421,-0.0565 -2.79204,-0.05179 -4.27988,-0.05179c-1.48783,0 -3.90792,0.56029 -5.95604,2.79675c-2.04812,2.23646 -7.82054,7.63692 -7.82054,18.62617c0,10.98925 8.00417,21.61125 9.12004,23.09908c1.11588,1.48783 15.45275,24.76112 38.15633,33.71638c18.86629,7.43917 22.70829,5.96075 26.80454,5.58879c4.09625,-0.37196 13.21629,-5.40046 15.07608,-10.61729c1.85979,-5.21683 1.85979,-9.68504 1.30421,-10.61729c-0.56029,-0.93225 -2.04812,-1.48783 -4.27988,-2.60842c-2.23175,-1.12058 -13.21629,-6.52104 -15.26442,-7.26496c-2.04812,-0.74392 -3.53596,-1.11588 -5.0285,1.12058c-1.48783,2.23175 -5.76771,7.26496 -7.07192,8.75279c-1.30421,1.49254 -2.60842,1.68087 -4.84017,0.56029c-2.23175,-1.12058 -9.42608,-3.47475 -17.96229,-11.08342c-6.63875,-5.91838 -11.12108,-13.23042 -12.42529,-15.46688c-1.30421,-2.23175 -0.14125,-3.44179 0.97933,-4.55767c1.00288,-1.00288 2.23175,-2.60842 3.35233,-3.91263c1.11587,-1.30421 1.48783,-2.23646 2.23175,-3.72429c0.74392,-1.49254 0.37196,-2.79675 -0.18833,-3.91263c-0.55087,-1.12058 -4.89196,-12.16633 -6.87887,-16.58275z"
          fill="#ffffff" fill-rule="evenodd"></path>
      </g>
      <path d="" fill="none" fill-rule="nonzero" stroke="none" stroke-width="1" stroke-linejoin="miter"></path>
</svg>
