<?xml version="1.0" encoding="utf-8"?>
<!-- Generator: Adobe Illustrator 25.4.1, SVG Export Plug-In . SVG Version: 6.00 Build 0)  -->
<svg version="1.1" id="Слой_1" xmlns="http://www.w3.org/2000/svg" xmlns:xlink="http://www.w3.org/1999/xlink" x="0px" y="0px"
	 viewBox="0 0 170.1 170.1" style="enable-background:new 0 0 170.1 170.1;" xml:space="preserve">

<path class="svg-inst" d="M85,59.9c-13.9,0-25.1,11.2-25.1,25.1s11.2,25.1,25.1,25.1s25.1-11.2,25.1-25.1S98.9,59.9,85,59.9z M85,43.2
	c23.1,0,41.8,18.7,41.8,41.8s-18.7,41.8-41.8,41.8S43.2,108.1,43.2,85S61.9,43.2,85,43.2z M139.4,41.1c0,5.8-4.7,10.5-10.5,10.5
	c-5.8,0-10.5-4.7-10.5-10.5s4.7-10.5,10.5-10.5C134.7,30.7,139.4,35.3,139.4,41.1z M85,18.1c-20.7,0-24.1,0.1-33.7,0.5
	c-6.6,0.3-11,1.2-15,2.8c-3.6,1.4-6.2,3.1-9,5.9c-2.6,2.5-4.6,5.6-5.9,9c-1.6,4.1-2.5,8.5-2.8,15c-0.4,9.2-0.5,12.5-0.5,33.7
	c0,20.7,0.1,24.1,0.5,33.7c0.3,6.6,1.2,11,2.8,15c1.4,3.6,3.1,6.3,5.9,9c2.8,2.8,5.4,4.5,9,5.9c4.1,1.6,8.5,2.5,15.1,2.8
	c9.2,0.4,12.5,0.5,33.7,0.5c20.7,0,24.1-0.1,33.7-0.5c6.5-0.3,11-1.2,15-2.8c3.6-1.4,6.3-3.1,9-5.9c2.8-2.8,4.5-5.4,5.9-9
	c1.6-4.1,2.5-8.5,2.8-15.1c0.4-9.2,0.5-12.5,0.5-33.7c0-20.7-0.1-24.1-0.5-33.7c-0.3-6.5-1.2-11-2.8-15c-1.3-3.4-3.3-6.5-5.9-9
	c-2.5-2.6-5.6-4.6-9-5.9c-4.1-1.6-8.5-2.5-15-2.8C109.5,18.2,106.3,18.1,85,18.1z M85,1.4c22.7,0,25.6,0.1,34.5,0.5
	c8.9,0.4,15,1.8,20.3,3.9c5.5,2.1,10.2,5,14.8,9.6c4.3,4.2,7.5,9.2,9.6,14.8c2.1,5.3,3.5,11.4,3.9,20.3c0.4,8.9,0.5,11.8,0.5,34.5
	s-0.1,25.6-0.5,34.5c-0.4,8.9-1.8,15-3.9,20.3c-2.1,5.6-5.4,10.6-9.6,14.8c-4.2,4.3-9.2,7.5-14.8,9.6c-5.3,2.1-11.4,3.5-20.3,3.9
	c-8.9,0.4-11.8,0.5-34.5,0.5s-25.6-0.1-34.5-0.5c-8.9-0.4-15-1.8-20.3-3.9c-5.6-2.1-10.6-5.4-14.8-9.6c-4.3-4.2-7.5-9.2-9.6-14.8
	c-2.1-5.3-3.5-11.4-3.9-20.3c-0.4-8.9-0.5-11.8-0.5-34.5s0.1-25.6,0.5-34.5s1.8-15,3.9-20.3c2.1-5.6,5.4-10.6,9.6-14.8
	c4.2-4.3,9.2-7.5,14.8-9.6c5.3-2.1,11.4-3.5,20.3-3.9C59.5,1.5,62.3,1.4,85,1.4z"/>
</svg>
