<?xml version="1.0" encoding="utf-8"?>
<!-- Generator: Adobe Illustrator 25.4.1, SVG Export Plug-In . SVG Version: 6.00 Build 0)  -->
<svg version="1.1" id="Слой_1" xmlns="http://www.w3.org/2000/svg" xmlns:xlink="http://www.w3.org/1999/xlink" x="0px" y="0px"
	 viewBox="0 0 170.1 170.1" style="enable-background:new 0 0 170.1 170.1;" xml:space="preserve">

<path class="svg-teleg" d="M85,150.8c36.3,0,65.7-29.4,65.7-65.7S121.4,19.3,85,19.3S19.3,48.7,19.3,85S48.7,150.8,85,150.8z M85,167.2
	c-45.4,0-82.2-36.8-82.2-82.2S39.6,2.9,85,2.9s82.2,36.8,82.2,82.2S130.4,167.2,85,167.2z M59.5,94.7l-20.5-6.4
	c-4.4-1.4-4.5-4.4,1-6.6l80-30.9c4.6-1.9,7.3,0.5,5.8,6.5l-13.6,64.3c-1,4.6-3.7,5.7-7.5,3.6l-21-15.5l-9.8,9.4c-1,1-1.8,1.8-3.4,2
	c-1.5,0.2-2.8-0.2-3.7-2.8L59.5,94.7L59.5,94.7L59.5,94.7z"/>
</svg>
