<?xml version="1.0" encoding="utf-8"?>
<!-- Generator: Adobe Illustrator 25.4.1, SVG Export Plug-In . SVG Version: 6.00 Build 0)  -->
<svg version="1.1" id="Слой_1" xmlns="http://www.w3.org/2000/svg" xmlns:xlink="http://www.w3.org/1999/xlink" x="0px" y="0px"
	 viewBox="0 0 170.1 170.1" style="enable-background:new 0 0 170.1 170.1;" xml:space="preserve">

<g transform="translate(-40 -40)">
	<path class="svg-vk" d="M104.2,118.5v-16.2c0-5.1-2.1-6.8-3.3-8.4c-1.7-2.2-2.6-4.3-2.6-6.9c0-0.1,0-0.1,0-0.2
		c0.2-4.9,4.2-8.9,9.2-8.9c0.2,0,0.4,0,0.7,0h25.2c3.4,0,5.5,1,7,2.2c1.8,1.6,3.3,4.3,3.3,9.5v22.6c6.3-8,11.6-16.6,16-25.7
		c1.9-5,6.9-8.1,12.2-7.8h15.7c4,0,6.7,1.6,8.3,3.6c1.7,2,2.6,4.9,1.8,8.9c-0.6,3-2.9,7.8-5.9,13c-5.5,9.7-13.5,21.2-15.1,23.4
		c2,2.3,6.7,6.6,9.7,10.6c6,6.4,10.5,12.2,12.7,16.5c1.4,2.8,2,5.3,2,7.4c0,3.9-1.5,6.2-3.2,7.8c-1.8,1.6-4.2,2.4-6.7,2.4h-17.9
		c-4.1,0-6.8-1.2-9.7-3.7c-2.5-2.2-5.4-6.3-12-12.6c-3.5-3.5-5.9-5.5-7.5-6.6v10.9c0,2.7-0.7,4.8-1.9,6.6c-1.2,1.7-2.9,3.2-5.7,4.1
		c-2.3,0.8-5.6,1.2-10.6,1.2c-17.3,0-36.6-10.3-51.1-29.9c-21-28.3-25.8-49.6-25.8-54.2v0.2c0-0.1,0-0.2,0-0.3
		c0-5.6,4.6-10.2,10.2-10.2l0.2,0h16c3.9,0,6.5,0.9,8.5,2.5c1.9,1.5,3.5,3.7,4.7,7.4c4.1,12.1,10.2,23.4,15.5,30.5L104.2,118.5z
		 M62,90.6c1.4,6.7,7.4,23,23,44.1c11.7,15.9,26.9,24.8,40.9,24.8c2.1,0,4.2-0.2,5.4-0.4v-12.4c0-4.4,1.6-7.2,3.3-8.8
		c1.7-1.6,3.8-2.4,6.3-2.4c2.8,0,8.1,0.2,19.5,11.4c4.4,4.2,7.2,7.5,9.4,9.9c0.8,0.9,1.4,1.6,2,2.2c0.5,0.4,0.8,0.7,1.5,0.7h13.9
		l-0.3-0.4c-2.1-3.5-5.6-7.7-10.1-12.4c-0.2-0.2-0.3-0.4-0.5-0.6c-3.1-4.2-8.1-8.6-10-10.9c-2.1-2.3-2.8-4.3-3.1-6.1
		c-0.3-2.5,0.4-5,2.5-8.2c0.1-0.1,0.1-0.2,0.2-0.3c0,0,8.8-12.4,14.7-22.7c1.3-2.4,2.6-4.6,3.4-6.4h-12.6l-0.2,0l-0.1,0.3
		c-5.3,11.2-12.1,21.7-20,31.3c-0.1,0.1-0.1,0.1-0.2,0.2c-5.4,6-8.7,7-11.7,7c-2,0-3.7-0.6-5.1-1.8c-1.6-1.3-3.4-3.9-3.4-9.2V90.6
		h-16.6c1.5,2.6,2.7,6.2,2.7,11.6V124c0,2.9-0.2,5-0.6,6.4c-0.8,2.7-2.3,4.2-4.1,5.2c-1.1,0.6-2.4,0.9-3.9,0.9
		c-2.7,0-7-1.9-11.4-6.8c-6.6-7.3-15-21.9-20.5-37.9c-0.1-0.4-0.3-0.9-0.5-1.2c-0.2,0-0.4,0-0.6,0H62z M59.1,90.6H59H59.1z"/>
</g>
</svg>
