<svg id="Слой_1" data-name="Слой 1" xmlns="http://www.w3.org/2000/svg" xmlns:xlink="http://www.w3.org/1999/xlink" viewBox="0 0 283.46 283.46"><defs><style>.cls-1{fill:#ffd802;}.cls-2{fill:url(#Безымянный_градиент_22);}.cls-3{fill:#2557a4;}</style><linearGradient id="Безымянный_градиент_22" x1="0.01" y1="215.61" x2="239.49" y2="80.09" gradientTransform="matrix(1, 0, 0, -1, 0, 285.46)" gradientUnits="userSpaceOnUse"><stop offset="0.18" stop-color="#ffd802"/><stop offset="0.88" stop-color="#2557a4"/></linearGradient></defs><path class="cls-1" d="M103.44,34.29a86.72,86.72,0,0,0-51.78,156.2C60.24,174.42,78.1,166.44,93.34,157A37.35,37.35,0,1,1,140.91,121v1.36h0v50.44c0,30.47,15,54.88,40.13,72.13l9.24,6.35V121.77C190.31,74,151.23,34.29,103.44,34.29Z"/><path class="cls-2" d="M139.4,155.76c-31.19-.19-33.93,1.87-54.31-2.11C69,150.52,46.88,130,50.3,96.17c5.39-52.65,49.86-61.88,49.86-61.88S68.39,32.58,40.92,61.34C23.71,79.38,16.68,97,16.87,121c.24,27.69,12.94,46.37,20.8,56.48a82.37,82.37,0,0,0,27.41,21.18c19.18,12.32,80.59,7.38,137.26,7.38h7.73v-50.6H201C186.18,156.13,165,155.91,139.4,155.76Z"/><polyline class="cls-3" points="207.48 141.31 207.48 219.01 266.73 180.37"/></svg>